0, 0, Header, 1, 2, 120
1, 0, Start_track
1, 0, Tempo, 750000
1, 0, End_track
2, 0, Start_track
2, 238, Note_on_c, 0, 43, 100
2, 263, Note_on_c, 0, 74, 100
2, 284, Note_on_c, 0, 43, 0
2, 285, Note_on_c, 0, 74, 0
2, 288, Note_on_c, 0, 50, 100
2, 288, Note_on_c, 0, 55, 100
2, 288, Note_on_c, 0, 59, 100
2, 288, Note_on_c, 0, 67, 100
2, 288, Note_on_c, 0, 79, 100
2, 313, Note_on_c, 0, 74, 100
2, 315, Note_on_c, 0, 67, 0
2, 315, Note_on_c, 0, 79, 0
2, 317, Note_on_c, 0, 50, 0
2, 317, Note_on_c, 0, 55, 0
2, 317, Note_on_c, 0, 59, 0
2, 335, Note_on_c, 0, 74, 0
2, 338, Note_on_c, 0, 48, 100
2, 338, Note_on_c, 0, 76, 100
2, 363, Note_on_c, 0, 67, 100
2, 363, Note_on_c, 0, 79, 100
2, 365, Note_on_c, 0, 76, 0
2, 384, Note_on_c, 0, 48, 0
2, 388, Note_on_c, 0, 52, 100
2, 388, Note_on_c, 0, 55, 100
2, 388, Note_on_c, 0, 60, 100
2, 402, Note_on_c, 0, 67, 0
2, 402, Note_on_c, 0, 79, 0
2, 413, Note_on_c, 0, 76, 100
2, 417, Note_on_c, 0, 52, 0
2, 417, Note_on_c, 0, 55, 0
2, 417, Note_on_c, 0, 60, 0
2, 435, Note_on_c, 0, 76, 0
2, 438, Note_on_c, 0, 43, 100
2, 438, Note_on_c, 0, 67, 100
2, 438, Note_on_c, 0, 79, 100
2, 463, Note_on_c, 0, 74, 100
2, 465, Note_on_c, 0, 67, 0
2, 465, Note_on_c, 0, 79, 0
2, 484, Note_on_c, 0, 43, 0
2, 485, Note_on_c, 0, 74, 0
2, 488, Note_on_c, 0, 50, 100
2, 488, Note_on_c, 0, 55, 100
2, 488, Note_on_c, 0, 59, 100
2, 488, Note_on_c, 0, 76, 100
2, 513, Note_on_c, 0, 67, 100
2, 513, Note_on_c, 0, 79, 100
2, 515, Note_on_c, 0, 76, 0
2, 517, Note_on_c, 0, 50, 0
2, 517, Note_on_c, 0, 55, 0
2, 517, Note_on_c, 0, 59, 0
2, 538, Note_on_c, 0, 47, 100
2, 538, Note_on_c, 0, 59, 100
2, 552, Note_on_c, 0, 67, 0
2, 552, Note_on_c, 0, 79, 0
2, 563, Note_on_c, 0, 74, 100
2, 584, Note_on_c, 0, 47, 0
2, 584, Note_on_c, 0, 59, 0
2, 588, Note_on_c, 0, 46, 100
2, 588, Note_on_c, 0, 58, 100
2, 588, Note_on_c, 0, 67, 100
2, 588, Note_on_c, 0, 79, 100
2, 590, Note_on_c, 0, 74, 0
2, 627, Note_on_c, 0, 67, 0
2, 627, Note_on_c, 0, 79, 0
2, 634, Note_on_c, 0, 46, 0
2, 634, Note_on_c, 0, 58, 0
2, 638, Note_on_c, 0, 45, 100
2, 638, Note_on_c, 0, 57, 100
2, 663, Note_on_c, 0, 72, 100
2, 684, Note_on_c, 0, 45, 0
2, 684, Note_on_c, 0, 57, 0
2, 685, Note_on_c, 0, 72, 0
2, 688, Note_on_c, 0, 52, 100
2, 688, Note_on_c, 0, 57, 100
2, 688, Note_on_c, 0, 60, 100
2, 688, Note_on_c, 0, 64, 100
2, 688, Note_on_c, 0, 76, 100
2, 713, Note_on_c, 0, 69, 100
2, 715, Note_on_c, 0, 64, 0
2, 715, Note_on_c, 0, 76, 0
2, 717, Note_on_c, 0, 52, 0
2, 717, Note_on_c, 0, 57, 0
2, 717, Note_on_c, 0, 60, 0
2, 735, Note_on_c, 0, 69, 0
2, 738, Note_on_c, 0, 47, 100
2, 738, Note_on_c, 0, 71, 100
2, 763, Note_on_c, 0, 64, 100
2, 763, Note_on_c, 0, 76, 100
2, 765, Note_on_c, 0, 71, 0
2, 784, Note_on_c, 0, 47, 0
2, 788, Note_on_c, 0, 52, 100
2, 788, Note_on_c, 0, 56, 100
2, 788, Note_on_c, 0, 62, 100
2, 802, Note_on_c, 0, 64, 0
2, 802, Note_on_c, 0, 76, 0
2, 813, Note_on_c, 0, 71, 100
2, 817, Note_on_c, 0, 52, 0
2, 817, Note_on_c, 0, 56, 0
2, 817, Note_on_c, 0, 62, 0
2, 835, Note_on_c, 0, 71, 0
2, 838, Note_on_c, 0, 48, 100
2, 838, Note_on_c, 0, 64, 100
2, 838, Note_on_c, 0, 76, 100
2, 863, Note_on_c, 0, 69, 100
2, 865, Note_on_c, 0, 64, 0
2, 865, Note_on_c, 0, 76, 0
2, 884, Note_on_c, 0, 48, 0
2, 885, Note_on_c, 0, 69, 0
2, 888, Note_on_c, 0, 52, 100
2, 888, Note_on_c, 0, 57, 100
2, 888, Note_on_c, 0, 60, 100
2, 888, Note_on_c, 0, 72, 100
2, 913, Note_on_c, 0, 64, 100
2, 913, Note_on_c, 0, 76, 100
2, 915, Note_on_c, 0, 72, 0
2, 917, Note_on_c, 0, 52, 0
2, 917, Note_on_c, 0, 57, 0
2, 917, Note_on_c, 0, 60, 0
2, 938, Note_on_c, 0, 45, 100
2, 938, Note_on_c, 0, 57, 100
2, 952, Note_on_c, 0, 64, 0
2, 952, Note_on_c, 0, 76, 0
2, 963, Note_on_c, 0, 69, 100
2, 984, Note_on_c, 0, 45, 0
2, 984, Note_on_c, 0, 57, 0
2, 988, Note_on_c, 0, 46, 100
2, 988, Note_on_c, 0, 58, 100
2, 988, Note_on_c, 0, 61, 100
2, 988, Note_on_c, 0, 67, 100
2, 988, Note_on_c, 0, 75, 100
2, 990, Note_on_c, 0, 69, 0
2, 1027, Note_on_c, 0, 61, 0
2, 1027, Note_on_c, 0, 67, 0
2, 1027, Note_on_c, 0, 75, 0
2, 1034, Note_on_c, 0, 46, 0
2, 1034, Note_on_c, 0, 58, 0
2, 1038, Note_on_c, 0, 47, 100
2, 1038, Note_on_c, 0, 59, 100
2, 1038, Note_on_c, 0, 62, 100
2, 1038, Note_on_c, 0, 74, 100
2, 1063, Note_on_c, 0, 67, 100
2, 1065, Note_on_c, 0, 62, 0
2, 1065, Note_on_c, 0, 74, 0
2, 1084, Note_on_c, 0, 47, 0
2, 1084, Note_on_c, 0, 59, 0
2, 1085, Note_on_c, 0, 67, 0
2, 1088, Note_on_c, 0, 50, 100
2, 1088, Note_on_c, 0, 55, 100
2, 1088, Note_on_c, 0, 59, 100
2, 1088, Note_on_c, 0, 71, 100
2, 1113, Note_on_c, 0, 64, 100
2, 1113, Note_on_c, 0, 76, 100
2, 1115, Note_on_c, 0, 71, 0
2, 1117, Note_on_c, 0, 50, 0
2, 1117, Note_on_c, 0, 55, 0
2, 1117, Note_on_c, 0, 59, 0
2, 1138, Note_on_c, 0, 40, 100
2, 1162, Note_on_c, 0, 76, 0
2, 1163, Note_on_c, 0, 71, 100
2, 1184, Note_on_c, 0, 40, 0
2, 1188, Note_on_c, 0, 52, 100
2, 1188, Note_on_c, 0, 56, 100
2, 1188, Note_on_c, 0, 62, 100
2, 1188, Note_on_c, 0, 68, 100
2, 1189, Note_on_c, 0, 71, 0
2, 1194, Note_on_c, 0, 64, 0
2, 1213, Note_on_c, 0, 64, 100
2, 1217, Note_on_c, 0, 52, 0
2, 1217, Note_on_c, 0, 56, 0
2, 1217, Note_on_c, 0, 62, 0
2, 1219, Note_on_c, 0, 68, 0
2, 1235, Note_on_c, 0, 64, 0
2, 1238, Note_on_c, 0, 45, 100
2, 1238, Note_on_c, 0, 61, 100
2, 1263, Note_on_c, 0, 67, 100
2, 1284, Note_on_c, 0, 45, 0
2, 1288, Note_on_c, 0, 52, 100
2, 1288, Note_on_c, 0, 55, 100
2, 1288, Note_on_c, 0, 57, 100
2, 1288, Note_on_c, 0, 69, 100
2, 1289, Note_on_c, 0, 67, 0
2, 1297, Note_on_c, 0, 61, 0
2, 1313, Note_on_c, 0, 61, 100
2, 1313, Note_on_c, 0, 67, 100
2, 1313, Note_on_c, 0, 71, 100
2, 1317, Note_on_c, 0, 52, 0
2, 1317, Note_on_c, 0, 55, 0
2, 1317, Note_on_c, 0, 57, 0
2, 1319, Note_on_c, 0, 69, 0
2, 1338, Note_on_c, 0, 45, 100
2, 1352, Note_on_c, 0, 61, 0
2, 1352, Note_on_c, 0, 67, 0
2, 1352, Note_on_c, 0, 71, 0
2, 1363, Note_on_c, 0, 70, 100
2, 1384, Note_on_c, 0, 45, 0
2, 1388, Note_on_c, 0, 52, 100
2, 1388, Note_on_c, 0, 55, 100
2, 1388, Note_on_c, 0, 57, 100
2, 1388, Note_on_c, 0, 61, 100
2, 1388, Note_on_c, 0, 67, 100
2, 1388, Note_on_c, 0, 71, 100
2, 1390, Note_on_c, 0, 70, 0
2, 1417, Note_on_c, 0, 52, 0
2, 1417, Note_on_c, 0, 55, 0
2, 1417, Note_on_c, 0, 57, 0
2, 1427, Note_on_c, 0, 61, 0
2, 1427, Note_on_c, 0, 67, 0
2, 1427, Note_on_c, 0, 71, 0
2, 1438, Note_on_c, 0, 38, 100
2, 1438, Note_on_c, 0, 50, 100
2, 1463, Note_on_c, 0, 60, 100
2, 1463, Note_on_c, 0, 66, 100
2, 1488, Note_on_c, 0, 39, 100
2, 1488, Note_on_c, 0, 51, 100
2, 1490, Note_on_c, 0, 38, 0
2, 1490, Note_on_c, 0, 50, 0
2, 1513, Note_on_c, 0, 72, 100
2, 1516, Note_on_c, 0, 60, 0
2, 1516, Note_on_c, 0, 66, 0
2, 1533, Note_on_c, 0, 72, 0
2, 1534, Note_on_c, 0, 39, 0
2, 1534, Note_on_c, 0, 51, 0
2, 1538, Note_on_c, 0, 38, 100
2, 1538, Note_on_c, 0, 50, 100
2, 1563, Note_on_c, 0, 60, 100
2, 1563, Note_on_c, 0, 66, 100
2, 1588, Note_on_c, 0, 39, 100
2, 1588, Note_on_c, 0, 51, 100
2, 1590, Note_on_c, 0, 38, 0
2, 1590, Note_on_c, 0, 50, 0
2, 1613, Note_on_c, 0, 72, 100
2, 1616, Note_on_c, 0, 60, 0
2, 1616, Note_on_c, 0, 66, 0
2, 1633, Note_on_c, 0, 72, 0
2, 1634, Note_on_c, 0, 39, 0
2, 1634, Note_on_c, 0, 51, 0
2, 1638, Note_on_c, 0, 38, 100
2, 1638, Note_on_c, 0, 50, 100
2, 1663, Note_on_c, 0, 62, 100
2, 1663, Note_on_c, 0, 74, 100
2, 1665, Note_on_c, 0, 38, 0
2, 1665, Note_on_c, 0, 50, 0
2, 1685, Note_on_c, 0, 62, 0
2, 1685, Note_on_c, 0, 74, 0
2, 1688, Note_on_c, 0, 39, 100
2, 1688, Note_on_c, 0, 51, 100
2, 1711, Note_on_c, 0, 39, 0
2, 1711, Note_on_c, 0, 51, 0
2, 1713, Note_on_c, 0, 63, 100
2, 1713, Note_on_c, 0, 75, 100
2, 1733, Note_on_c, 0, 63, 0
2, 1733, Note_on_c, 0, 75, 0
2, 1738, Note_on_c, 0, 40, 100
2, 1738, Note_on_c, 0, 52, 100
2, 1763, Note_on_c, 0, 64, 100
2, 1763, Note_on_c, 0, 76, 100
2, 1765, Note_on_c, 0, 40, 0
2, 1765, Note_on_c, 0, 52, 0
2, 1785, Note_on_c, 0, 64, 0
2, 1785, Note_on_c, 0, 76, 0
2, 1788, Note_on_c, 0, 42, 100
2, 1788, Note_on_c, 0, 54, 100
2, 1811, Note_on_c, 0, 42, 0
2, 1811, Note_on_c, 0, 54, 0
2, 1813, Note_on_c, 0, 66, 100
2, 1813, Note_on_c, 0, 78, 100
2, 1833, Note_on_c, 0, 66, 0
2, 1833, Note_on_c, 0, 78, 0
2, 1838, Note_on_c, 0, 43, 100
2, 1863, Note_on_c, 0, 74, 100
2, 1884, Note_on_c, 0, 43, 0
2, 1885, Note_on_c, 0, 74, 0
2, 1888, Note_on_c, 0, 50, 100
2, 1888, Note_on_c, 0, 55, 100
2, 1888, Note_on_c, 0, 59, 100
2, 1888, Note_on_c, 0, 67, 100
2, 1888, Note_on_c, 0, 79, 100
2, 1913, Note_on_c, 0, 74, 100
2, 1915, Note_on_c, 0, 67, 0
2, 1915, Note_on_c, 0, 79, 0
2, 1917, Note_on_c, 0, 50, 0
2, 1917, Note_on_c, 0, 55, 0
2, 1917, Note_on_c, 0, 59, 0
2, 1935, Note_on_c, 0, 74, 0
2, 1938, Note_on_c, 0, 48, 100
2, 1938, Note_on_c, 0, 76, 100
2, 1963, Note_on_c, 0, 67, 100
2, 1963, Note_on_c, 0, 79, 100
2, 1965, Note_on_c, 0, 76, 0
2, 1984, Note_on_c, 0, 48, 0
2, 1988, Note_on_c, 0, 52, 100
2, 1988, Note_on_c, 0, 55, 100
2, 1988, Note_on_c, 0, 60, 100
2, 2002, Note_on_c, 0, 67, 0
2, 2002, Note_on_c, 0, 79, 0
2, 2013, Note_on_c, 0, 76, 100
2, 2017, Note_on_c, 0, 52, 0
2, 2017, Note_on_c, 0, 55, 0
2, 2017, Note_on_c, 0, 60, 0
2, 2035, Note_on_c, 0, 76, 0
2, 2038, Note_on_c, 0, 43, 100
2, 2038, Note_on_c, 0, 67, 100
2, 2038, Note_on_c, 0, 79, 100
2, 2063, Note_on_c, 0, 74, 100
2, 2065, Note_on_c, 0, 67, 0
2, 2065, Note_on_c, 0, 79, 0
2, 2084, Note_on_c, 0, 43, 0
2, 2085, Note_on_c, 0, 74, 0
2, 2088, Note_on_c, 0, 50, 100
2, 2088, Note_on_c, 0, 55, 100
2, 2088, Note_on_c, 0, 59, 100
2, 2088, Note_on_c, 0, 76, 100
2, 2113, Note_on_c, 0, 67, 100
2, 2113, Note_on_c, 0, 79, 100
2, 2115, Note_on_c, 0, 76, 0
2, 2117, Note_on_c, 0, 50, 0
2, 2117, Note_on_c, 0, 55, 0
2, 2117, Note_on_c, 0, 59, 0
2, 2138, Note_on_c, 0, 47, 100
2, 2138, Note_on_c, 0, 59, 100
2, 2152, Note_on_c, 0, 67, 0
2, 2152, Note_on_c, 0, 79, 0
2, 2163, Note_on_c, 0, 74, 100
2, 2184, Note_on_c, 0, 47, 0
2, 2184, Note_on_c, 0, 59, 0
2, 2188, Note_on_c, 0, 46, 100
2, 2188, Note_on_c, 0, 58, 100
2, 2188, Note_on_c, 0, 67, 100
2, 2188, Note_on_c, 0, 79, 100
2, 2190, Note_on_c, 0, 74, 0
2, 2227, Note_on_c, 0, 67, 0
2, 2227, Note_on_c, 0, 79, 0
2, 2234, Note_on_c, 0, 46, 0
2, 2234, Note_on_c, 0, 58, 0
2, 2238, Note_on_c, 0, 45, 100
2, 2238, Note_on_c, 0, 57, 100
2, 2263, Note_on_c, 0, 72, 100
2, 2284, Note_on_c, 0, 45, 0
2, 2284, Note_on_c, 0, 57, 0
2, 2285, Note_on_c, 0, 72, 0
2, 2288, Note_on_c, 0, 52, 100
2, 2288, Note_on_c, 0, 57, 100
2, 2288, Note_on_c, 0, 60, 100
2, 2288, Note_on_c, 0, 64, 100
2, 2288, Note_on_c, 0, 76, 100
2, 2313, Note_on_c, 0, 69, 100
2, 2315, Note_on_c, 0, 64, 0
2, 2315, Note_on_c, 0, 76, 0
2, 2317, Note_on_c, 0, 52, 0
2, 2317, Note_on_c, 0, 57, 0
2, 2317, Note_on_c, 0, 60, 0
2, 2335, Note_on_c, 0, 69, 0
2, 2338, Note_on_c, 0, 47, 100
2, 2338, Note_on_c, 0, 71, 100
2, 2363, Note_on_c, 0, 64, 100
2, 2363, Note_on_c, 0, 76, 100
2, 2365, Note_on_c, 0, 71, 0
2, 2384, Note_on_c, 0, 47, 0
2, 2388, Note_on_c, 0, 52, 100
2, 2388, Note_on_c, 0, 56, 100
2, 2388, Note_on_c, 0, 62, 100
2, 2402, Note_on_c, 0, 64, 0
2, 2402, Note_on_c, 0, 76, 0
2, 2413, Note_on_c, 0, 71, 100
2, 2417, Note_on_c, 0, 52, 0
2, 2417, Note_on_c, 0, 56, 0
2, 2417, Note_on_c, 0, 62, 0
2, 2435, Note_on_c, 0, 71, 0
2, 2438, Note_on_c, 0, 48, 100
2, 2438, Note_on_c, 0, 64, 100
2, 2438, Note_on_c, 0, 76, 100
2, 2463, Note_on_c, 0, 69, 100
2, 2465, Note_on_c, 0, 64, 0
2, 2465, Note_on_c, 0, 76, 0
2, 2484, Note_on_c, 0, 48, 0
2, 2485, Note_on_c, 0, 69, 0
2, 2488, Note_on_c, 0, 52, 100
2, 2488, Note_on_c, 0, 57, 100
2, 2488, Note_on_c, 0, 60, 100
2, 2488, Note_on_c, 0, 72, 100
2, 2513, Note_on_c, 0, 64, 100
2, 2513, Note_on_c, 0, 76, 100
2, 2515, Note_on_c, 0, 72, 0
2, 2517, Note_on_c, 0, 52, 0
2, 2517, Note_on_c, 0, 57, 0
2, 2517, Note_on_c, 0, 60, 0
2, 2538, Note_on_c, 0, 45, 100
2, 2538, Note_on_c, 0, 57, 100
2, 2552, Note_on_c, 0, 64, 0
2, 2552, Note_on_c, 0, 76, 0
2, 2563, Note_on_c, 0, 69, 100
2, 2584, Note_on_c, 0, 45, 0
2, 2584, Note_on_c, 0, 57, 0
2, 2588, Note_on_c, 0, 46, 100
2, 2588, Note_on_c, 0, 58, 100
2, 2588, Note_on_c, 0, 61, 100
2, 2588, Note_on_c, 0, 67, 100
2, 2588, Note_on_c, 0, 75, 100
2, 2590, Note_on_c, 0, 69, 0
2, 2627, Note_on_c, 0, 61, 0
2, 2627, Note_on_c, 0, 67, 0
2, 2627, Note_on_c, 0, 75, 0
2, 2634, Note_on_c, 0, 46, 0
2, 2634, Note_on_c, 0, 58, 0
2, 2638, Note_on_c, 0, 47, 100
2, 2638, Note_on_c, 0, 59, 100
2, 2638, Note_on_c, 0, 62, 100
2, 2638, Note_on_c, 0, 74, 100
2, 2663, Note_on_c, 0, 67, 100
2, 2665, Note_on_c, 0, 62, 0
2, 2665, Note_on_c, 0, 74, 0
2, 2684, Note_on_c, 0, 47, 0
2, 2684, Note_on_c, 0, 59, 0
2, 2685, Note_on_c, 0, 67, 0
2, 2688, Note_on_c, 0, 50, 100
2, 2688, Note_on_c, 0, 55, 100
2, 2688, Note_on_c, 0, 59, 100
2, 2688, Note_on_c, 0, 71, 100
2, 2713, Note_on_c, 0, 64, 100
2, 2713, Note_on_c, 0, 76, 100
2, 2715, Note_on_c, 0, 71, 0
2, 2734, Note_on_c, 0, 50, 0
2, 2734, Note_on_c, 0, 55, 0
2, 2734, Note_on_c, 0, 59, 0
2, 2738, Note_on_c, 0, 40, 100
2, 2762, Note_on_c, 0, 76, 0
2, 2763, Note_on_c, 0, 71, 100
2, 2784, Note_on_c, 0, 40, 0
2, 2785, Note_on_c, 0, 71, 0
2, 2788, Note_on_c, 0, 52, 100
2, 2788, Note_on_c, 0, 56, 100
2, 2788, Note_on_c, 0, 62, 100
2, 2788, Note_on_c, 0, 68, 100
2, 2794, Note_on_c, 0, 64, 0
2, 2813, Note_on_c, 0, 64, 100
2, 2815, Note_on_c, 0, 68, 0
2, 2817, Note_on_c, 0, 52, 0
2, 2817, Note_on_c, 0, 56, 0
2, 2817, Note_on_c, 0, 62, 0
2, 2835, Note_on_c, 0, 64, 0
2, 2838, Note_on_c, 0, 45, 100
2, 2838, Note_on_c, 0, 61, 100
2, 2863, Note_on_c, 0, 67, 100
2, 2884, Note_on_c, 0, 45, 0
2, 2885, Note_on_c, 0, 67, 0
2, 2888, Note_on_c, 0, 52, 100
2, 2888, Note_on_c, 0, 55, 100
2, 2888, Note_on_c, 0, 69, 100
2, 2897, Note_on_c, 0, 61, 0
2, 2913, Note_on_c, 0, 61, 100
2, 2913, Note_on_c, 0, 67, 100
2, 2913, Note_on_c, 0, 71, 100
2, 2915, Note_on_c, 0, 69, 0
2, 2917, Note_on_c, 0, 52, 0
2, 2917, Note_on_c, 0, 55, 0
2, 2938, Note_on_c, 0, 45, 100
2, 2952, Note_on_c, 0, 61, 0
2, 2952, Note_on_c, 0, 67, 0
2, 2952, Note_on_c, 0, 71, 0
2, 2963, Note_on_c, 0, 67, 100
2, 2984, Note_on_c, 0, 45, 0
2, 2988, Note_on_c, 0, 50, 100
2, 2988, Note_on_c, 0, 54, 100
2, 2988, Note_on_c, 0, 60, 100
2, 2988, Note_on_c, 0, 66, 100
2, 2988, Note_on_c, 0, 69, 100
2, 2990, Note_on_c, 0, 67, 0
2, 3027, Note_on_c, 0, 60, 0
2, 3027, Note_on_c, 0, 66, 0
2, 3027, Note_on_c, 0, 69, 0
2, 3034, Note_on_c, 0, 50, 0
2, 3038, Note_on_c, 0, 43, 100
2, 3038, Note_on_c, 0, 50, 100
2, 3038, Note_on_c, 0, 55, 100
2, 3038, Note_on_c, 0, 59, 100
2, 3038, Note_on_c, 0, 62, 100
2, 3038, Note_on_c, 0, 67, 100
2, 3041, Note_on_c, 0, 54, 0
2, 3077, Note_on_c, 0, 59, 0
2, 3077, Note_on_c, 0, 62, 0
2, 3077, Note_on_c, 0, 67, 0
2, 3084, Note_on_c, 0, 43, 0
2, 3084, Note_on_c, 0, 50, 0
2, 3084, Note_on_c, 0, 55, 0
2, 3088, Note_on_c, 0, 50, 100
2, 3088, Note_on_c, 0, 62, 100
2, 3113, Note_on_c, 0, 52, 100
2, 3113, Note_on_c, 0, 64, 100
2, 3115, Note_on_c, 0, 62, 0
2, 3119, Note_on_c, 0, 50, 0
2, 3152, Note_on_c, 0, 64, 0
2, 3163, Note_on_c, 0, 62, 100
2, 3183, Note_on_c, 0, 62, 0
2, 3188, Note_on_c, 0, 38, 100
2, 3188, Note_on_c, 0, 50, 100
2, 3188, Note_on_c, 0, 60, 100
2, 3188, Note_on_c, 0, 62, 100
2, 3188, Note_on_c, 0, 66, 100
2, 3194, Note_on_c, 0, 52, 0
2, 3227, Note_on_c, 0, 62, 0
2, 3234, Note_on_c, 0, 50, 0
2, 3236, Note_on_c, 0, 60, 0
2, 3236, Note_on_c, 0, 66, 0
2, 3238, Note_on_c, 0, 43, 100
2, 3238, Note_on_c, 0, 50, 100
2, 3238, Note_on_c, 0, 59, 100
2, 3238, Note_on_c, 0, 62, 100
2, 3238, Note_on_c, 0, 67, 100
2, 3243, Note_on_c, 0, 38, 0
2, 3277, Note_on_c, 0, 59, 0
2, 3277, Note_on_c, 0, 62, 0
2, 3277, Note_on_c, 0, 67, 0
2, 3284, Note_on_c, 0, 43, 0
2, 3284, Note_on_c, 0, 50, 0
2, 3338, Note_on_c, 0, 31, 100
2, 3338, Note_on_c, 0, 43, 100
2, 3338, Note_on_c, 0, 67, 100
2, 3338, Note_on_c, 0, 71, 100
2, 3338, Note_on_c, 0, 74, 100
2, 3338, Note_on_c, 0, 79, 100
2, 3384, Note_on_c, 0, 31, 0
2, 3384, Note_on_c, 0, 43, 0
2, 3386, Note_on_c, 0, 67, 0
2, 3386, Note_on_c, 0, 71, 0
2, 3386, Note_on_c, 0, 74, 0
2, 3386, Note_on_c, 0, 79, 0
2, 3438, Note_on_c, 0, 43, 100
2, 3463, Note_on_c, 0, 74, 100
2, 3484, Note_on_c, 0, 43, 0
2, 3488, Note_on_c, 0, 50, 100
2, 3488, Note_on_c, 0, 55, 100
2, 3488, Note_on_c, 0, 59, 100
2, 3488, Note_on_c, 0, 67, 100
2, 3488, Note_on_c, 0, 79, 100
2, 3489, Note_on_c, 0, 74, 0
2, 3513, Note_on_c, 0, 74, 100
2, 3517, Note_on_c, 0, 50, 0
2, 3517, Note_on_c, 0, 55, 0
2, 3517, Note_on_c, 0, 59, 0
2, 3520, Note_on_c, 0, 67, 0
2, 3520, Note_on_c, 0, 79, 0
2, 3538, Note_on_c, 0, 48, 100
2, 3538, Note_on_c, 0, 76, 100
2, 3539, Note_on_c, 0, 74, 0
2, 3563, Note_on_c, 0, 67, 100
2, 3563, Note_on_c, 0, 79, 100
2, 3570, Note_on_c, 0, 76, 0
2, 3584, Note_on_c, 0, 48, 0
2, 3588, Note_on_c, 0, 52, 100
2, 3588, Note_on_c, 0, 55, 100
2, 3588, Note_on_c, 0, 60, 100
2, 3609, Note_on_c, 0, 67, 0
2, 3609, Note_on_c, 0, 79, 0
2, 3613, Note_on_c, 0, 76, 100
2, 3617, Note_on_c, 0, 52, 0
2, 3617, Note_on_c, 0, 55, 0
2, 3617, Note_on_c, 0, 60, 0
2, 3638, Note_on_c, 0, 43, 100
2, 3638, Note_on_c, 0, 67, 100
2, 3638, Note_on_c, 0, 79, 100
2, 3639, Note_on_c, 0, 76, 0
2, 3663, Note_on_c, 0, 74, 100
2, 3670, Note_on_c, 0, 67, 0
2, 3670, Note_on_c, 0, 79, 0
2, 3684, Note_on_c, 0, 43, 0
2, 3688, Note_on_c, 0, 50, 100
2, 3688, Note_on_c, 0, 55, 100
2, 3688, Note_on_c, 0, 59, 100
2, 3688, Note_on_c, 0, 76, 100
2, 3689, Note_on_c, 0, 74, 0
2, 3713, Note_on_c, 0, 67, 100
2, 3713, Note_on_c, 0, 79, 100
2, 3717, Note_on_c, 0, 50, 0
2, 3717, Note_on_c, 0, 55, 0
2, 3717, Note_on_c, 0, 59, 0
2, 3720, Note_on_c, 0, 76, 0
2, 3738, Note_on_c, 0, 47, 100
2, 3738, Note_on_c, 0, 59, 100
2, 3759, Note_on_c, 0, 67, 0
2, 3759, Note_on_c, 0, 79, 0
2, 3763, Note_on_c, 0, 74, 100
2, 3784, Note_on_c, 0, 47, 0
2, 3784, Note_on_c, 0, 59, 0
2, 3788, Note_on_c, 0, 46, 100
2, 3788, Note_on_c, 0, 58, 100
2, 3788, Note_on_c, 0, 67, 100
2, 3788, Note_on_c, 0, 79, 100
2, 3795, Note_on_c, 0, 74, 0
2, 3834, Note_on_c, 0, 46, 0
2, 3834, Note_on_c, 0, 58, 0
2, 3834, Note_on_c, 0, 67, 0
2, 3834, Note_on_c, 0, 79, 0
2, 3838, Note_on_c, 0, 45, 100
2, 3838, Note_on_c, 0, 57, 100
2, 3863, Note_on_c, 0, 72, 100
2, 3884, Note_on_c, 0, 45, 0
2, 3884, Note_on_c, 0, 57, 0
2, 3888, Note_on_c, 0, 52, 100
2, 3888, Note_on_c, 0, 57, 100
2, 3888, Note_on_c, 0, 60, 100
2, 3888, Note_on_c, 0, 64, 100
2, 3888, Note_on_c, 0, 76, 100
2, 3889, Note_on_c, 0, 72, 0
2, 3913, Note_on_c, 0, 69, 100
2, 3917, Note_on_c, 0, 52, 0
2, 3917, Note_on_c, 0, 57, 0
2, 3917, Note_on_c, 0, 60, 0
2, 3920, Note_on_c, 0, 64, 0
2, 3920, Note_on_c, 0, 76, 0
2, 3938, Note_on_c, 0, 47, 100
2, 3938, Note_on_c, 0, 71, 100
2, 3939, Note_on_c, 0, 69, 0
2, 3963, Note_on_c, 0, 64, 100
2, 3963, Note_on_c, 0, 76, 100
2, 3970, Note_on_c, 0, 71, 0
2, 3984, Note_on_c, 0, 47, 0
2, 3988, Note_on_c, 0, 52, 100
2, 3988, Note_on_c, 0, 56, 100
2, 3988, Note_on_c, 0, 62, 100
2, 4009, Note_on_c, 0, 64, 0
2, 4009, Note_on_c, 0, 76, 0
2, 4013, Note_on_c, 0, 71, 100
2, 4017, Note_on_c, 0, 52, 0
2, 4017, Note_on_c, 0, 56, 0
2, 4017, Note_on_c, 0, 62, 0
2, 4038, Note_on_c, 0, 48, 100
2, 4038, Note_on_c, 0, 64, 100
2, 4038, Note_on_c, 0, 76, 100
2, 4039, Note_on_c, 0, 71, 0
2, 4063, Note_on_c, 0, 69, 100
2, 4070, Note_on_c, 0, 64, 0
2, 4070, Note_on_c, 0, 76, 0
2, 4084, Note_on_c, 0, 48, 0
2, 4088, Note_on_c, 0, 52, 100
2, 4088, Note_on_c, 0, 57, 100
2, 4088, Note_on_c, 0, 60, 100
2, 4088, Note_on_c, 0, 72, 100
2, 4089, Note_on_c, 0, 69, 0
2, 4113, Note_on_c, 0, 64, 100
2, 4113, Note_on_c, 0, 76, 100
2, 4117, Note_on_c, 0, 52, 0
2, 4117, Note_on_c, 0, 57, 0
2, 4117, Note_on_c, 0, 60, 0
2, 4120, Note_on_c, 0, 72, 0
2, 4138, Note_on_c, 0, 45, 100
2, 4138, Note_on_c, 0, 57, 100
2, 4159, Note_on_c, 0, 64, 0
2, 4159, Note_on_c, 0, 76, 0
2, 4163, Note_on_c, 0, 69, 100
2, 4184, Note_on_c, 0, 45, 0
2, 4184, Note_on_c, 0, 57, 0
2, 4188, Note_on_c, 0, 46, 100
2, 4188, Note_on_c, 0, 58, 100
2, 4188, Note_on_c, 0, 61, 100
2, 4188, Note_on_c, 0, 67, 100
2, 4188, Note_on_c, 0, 75, 100
2, 4195, Note_on_c, 0, 69, 0
2, 4234, Note_on_c, 0, 46, 0
2, 4234, Note_on_c, 0, 58, 0
2, 4234, Note_on_c, 0, 61, 0
2, 4234, Note_on_c, 0, 67, 0
2, 4234, Note_on_c, 0, 75, 0
2, 4238, Note_on_c, 0, 47, 100
2, 4238, Note_on_c, 0, 59, 100
2, 4238, Note_on_c, 0, 62, 100
2, 4238, Note_on_c, 0, 74, 100
2, 4263, Note_on_c, 0, 67, 100
2, 4270, Note_on_c, 0, 62, 0
2, 4270, Note_on_c, 0, 74, 0
2, 4284, Note_on_c, 0, 47, 0
2, 4284, Note_on_c, 0, 59, 0
2, 4288, Note_on_c, 0, 50, 100
2, 4288, Note_on_c, 0, 55, 100
2, 4288, Note_on_c, 0, 59, 100
2, 4288, Note_on_c, 0, 71, 100
2, 4289, Note_on_c, 0, 67, 0
2, 4313, Note_on_c, 0, 64, 100
2, 4313, Note_on_c, 0, 76, 100
2, 4317, Note_on_c, 0, 50, 0
2, 4317, Note_on_c, 0, 55, 0
2, 4317, Note_on_c, 0, 59, 0
2, 4320, Note_on_c, 0, 71, 0
2, 4338, Note_on_c, 0, 40, 100
2, 4363, Note_on_c, 0, 71, 100
2, 4371, Note_on_c, 0, 76, 0
2, 4384, Note_on_c, 0, 40, 0
2, 4388, Note_on_c, 0, 52, 100
2, 4388, Note_on_c, 0, 56, 100
2, 4388, Note_on_c, 0, 62, 100
2, 4388, Note_on_c, 0, 68, 100
2, 4393, Note_on_c, 0, 71, 0
2, 4408, Note_on_c, 0, 64, 0
2, 4413, Note_on_c, 0, 64, 100
2, 4417, Note_on_c, 0, 52, 0
2, 4417, Note_on_c, 0, 56, 0
2, 4417, Note_on_c, 0, 62, 0
2, 4425, Note_on_c, 0, 68, 0
2, 4438, Note_on_c, 0, 45, 100
2, 4438, Note_on_c, 0, 61, 100
2, 4439, Note_on_c, 0, 64, 0
2, 4463, Note_on_c, 0, 67, 100
2, 4484, Note_on_c, 0, 45, 0
2, 4488, Note_on_c, 0, 52, 100
2, 4488, Note_on_c, 0, 55, 100
2, 4488, Note_on_c, 0, 57, 100
2, 4488, Note_on_c, 0, 69, 100
2, 4493, Note_on_c, 0, 67, 0
2, 4507, Note_on_c, 0, 61, 0
2, 4513, Note_on_c, 0, 61, 100
2, 4513, Note_on_c, 0, 67, 100
2, 4513, Note_on_c, 0, 71, 100
2, 4517, Note_on_c, 0, 52, 0
2, 4517, Note_on_c, 0, 55, 0
2, 4517, Note_on_c, 0, 57, 0
2, 4525, Note_on_c, 0, 69, 0
2, 4538, Note_on_c, 0, 45, 100
2, 4559, Note_on_c, 0, 61, 0
2, 4559, Note_on_c, 0, 67, 0
2, 4559, Note_on_c, 0, 71, 0
2, 4563, Note_on_c, 0, 70, 100
2, 4584, Note_on_c, 0, 45, 0
2, 4588, Note_on_c, 0, 52, 100
2, 4588, Note_on_c, 0, 55, 100
2, 4588, Note_on_c, 0, 57, 100
2, 4588, Note_on_c, 0, 61, 100
2, 4588, Note_on_c, 0, 67, 100
2, 4588, Note_on_c, 0, 71, 100
2, 4595, Note_on_c, 0, 70, 0
2, 4617, Note_on_c, 0, 52, 0
2, 4617, Note_on_c, 0, 55, 0
2, 4617, Note_on_c, 0, 57, 0
2, 4634, Note_on_c, 0, 61, 0
2, 4634, Note_on_c, 0, 67, 0
2, 4634, Note_on_c, 0, 71, 0
2, 4638, Note_on_c, 0, 38, 100
2, 4638, Note_on_c, 0, 50, 100
2, 4663, Note_on_c, 0, 60, 100
2, 4663, Note_on_c, 0, 66, 100
2, 4674, Note_on_c, 0, 38, 0
2, 4674, Note_on_c, 0, 50, 0
2, 4688, Note_on_c, 0, 39, 100
2, 4688, Note_on_c, 0, 51, 100
2, 4713, Note_on_c, 0, 72, 100
2, 4725, Note_on_c, 0, 60, 0
2, 4725, Note_on_c, 0, 66, 0
2, 4734, Note_on_c, 0, 39, 0
2, 4734, Note_on_c, 0, 51, 0
2, 4736, Note_on_c, 0, 72, 0
2, 4738, Note_on_c, 0, 38, 100
2, 4738, Note_on_c, 0, 50, 100
2, 4763, Note_on_c, 0, 60, 100
2, 4763, Note_on_c, 0, 66, 100
2, 4774, Note_on_c, 0, 38, 0
2, 4774, Note_on_c, 0, 50, 0
2, 4788, Note_on_c, 0, 39, 100
2, 4788, Note_on_c, 0, 51, 100
2, 4813, Note_on_c, 0, 72, 100
2, 4825, Note_on_c, 0, 60, 0
2, 4825, Note_on_c, 0, 66, 0
2, 4834, Note_on_c, 0, 39, 0
2, 4834, Note_on_c, 0, 51, 0
2, 4836, Note_on_c, 0, 72, 0
2, 4838, Note_on_c, 0, 38, 100
2, 4838, Note_on_c, 0, 50, 100
2, 4863, Note_on_c, 0, 62, 100
2, 4863, Note_on_c, 0, 74, 100
2, 4865, Note_on_c, 0, 38, 0
2, 4865, Note_on_c, 0, 50, 0
2, 4888, Note_on_c, 0, 39, 100
2, 4888, Note_on_c, 0, 51, 100
2, 4889, Note_on_c, 0, 62, 0
2, 4889, Note_on_c, 0, 74, 0
2, 4911, Note_on_c, 0, 39, 0
2, 4911, Note_on_c, 0, 51, 0
2, 4913, Note_on_c, 0, 63, 100
2, 4913, Note_on_c, 0, 75, 100
2, 4936, Note_on_c, 0, 63, 0
2, 4936, Note_on_c, 0, 75, 0
2, 4938, Note_on_c, 0, 40, 100
2, 4938, Note_on_c, 0, 52, 100
2, 4963, Note_on_c, 0, 64, 100
2, 4963, Note_on_c, 0, 76, 100
2, 4965, Note_on_c, 0, 40, 0
2, 4965, Note_on_c, 0, 52, 0
2, 4988, Note_on_c, 0, 42, 100
2, 4988, Note_on_c, 0, 54, 100
2, 4989, Note_on_c, 0, 64, 0
2, 4989, Note_on_c, 0, 76, 0
2, 5011, Note_on_c, 0, 42, 0
2, 5011, Note_on_c, 0, 54, 0
2, 5013, Note_on_c, 0, 66, 100
2, 5013, Note_on_c, 0, 78, 100
2, 5036, Note_on_c, 0, 66, 0
2, 5036, Note_on_c, 0, 78, 0
2, 5038, Note_on_c, 0, 43, 100
2, 5063, Note_on_c, 0, 74, 100
2, 5084, Note_on_c, 0, 43, 0
2, 5088, Note_on_c, 0, 50, 100
2, 5088, Note_on_c, 0, 55, 100
2, 5088, Note_on_c, 0, 59, 100
2, 5088, Note_on_c, 0, 67, 100
2, 5088, Note_on_c, 0, 79, 100
2, 5089, Note_on_c, 0, 74, 0
2, 5113, Note_on_c, 0, 74, 100
2, 5117, Note_on_c, 0, 50, 0
2, 5117, Note_on_c, 0, 55, 0
2, 5117, Note_on_c, 0, 59, 0
2, 5120, Note_on_c, 0, 67, 0
2, 5120, Note_on_c, 0, 79, 0
2, 5138, Note_on_c, 0, 48, 100
2, 5138, Note_on_c, 0, 76, 100
2, 5139, Note_on_c, 0, 74, 0
2, 5163, Note_on_c, 0, 67, 100
2, 5163, Note_on_c, 0, 79, 100
2, 5170, Note_on_c, 0, 76, 0
2, 5184, Note_on_c, 0, 48, 0
2, 5188, Note_on_c, 0, 52, 100
2, 5188, Note_on_c, 0, 55, 100
2, 5188, Note_on_c, 0, 60, 100
2, 5209, Note_on_c, 0, 67, 0
2, 5209, Note_on_c, 0, 79, 0
2, 5213, Note_on_c, 0, 76, 100
2, 5217, Note_on_c, 0, 52, 0
2, 5217, Note_on_c, 0, 55, 0
2, 5217, Note_on_c, 0, 60, 0
2, 5238, Note_on_c, 0, 43, 100
2, 5238, Note_on_c, 0, 67, 100
2, 5238, Note_on_c, 0, 79, 100
2, 5239, Note_on_c, 0, 76, 0
2, 5263, Note_on_c, 0, 74, 100
2, 5270, Note_on_c, 0, 67, 0
2, 5270, Note_on_c, 0, 79, 0
2, 5284, Note_on_c, 0, 43, 0
2, 5288, Note_on_c, 0, 50, 100
2, 5288, Note_on_c, 0, 55, 100
2, 5288, Note_on_c, 0, 59, 100
2, 5288, Note_on_c, 0, 76, 100
2, 5289, Note_on_c, 0, 74, 0
2, 5313, Note_on_c, 0, 67, 100
2, 5313, Note_on_c, 0, 79, 100
2, 5317, Note_on_c, 0, 50, 0
2, 5317, Note_on_c, 0, 55, 0
2, 5317, Note_on_c, 0, 59, 0
2, 5320, Note_on_c, 0, 76, 0
2, 5338, Note_on_c, 0, 47, 100
2, 5338, Note_on_c, 0, 59, 100
2, 5359, Note_on_c, 0, 67, 0
2, 5359, Note_on_c, 0, 79, 0
2, 5363, Note_on_c, 0, 74, 100
2, 5384, Note_on_c, 0, 47, 0
2, 5384, Note_on_c, 0, 59, 0
2, 5388, Note_on_c, 0, 46, 100
2, 5388, Note_on_c, 0, 58, 100
2, 5388, Note_on_c, 0, 67, 100
2, 5388, Note_on_c, 0, 79, 100
2, 5395, Note_on_c, 0, 74, 0
2, 5434, Note_on_c, 0, 46, 0
2, 5434, Note_on_c, 0, 58, 0
2, 5434, Note_on_c, 0, 67, 0
2, 5434, Note_on_c, 0, 79, 0
2, 5438, Note_on_c, 0, 45, 100
2, 5438, Note_on_c, 0, 57, 100
2, 5463, Note_on_c, 0, 72, 100
2, 5484, Note_on_c, 0, 45, 0
2, 5484, Note_on_c, 0, 57, 0
2, 5488, Note_on_c, 0, 52, 100
2, 5488, Note_on_c, 0, 57, 100
2, 5488, Note_on_c, 0, 60, 100
2, 5488, Note_on_c, 0, 64, 100
2, 5488, Note_on_c, 0, 76, 100
2, 5489, Note_on_c, 0, 72, 0
2, 5513, Note_on_c, 0, 69, 100
2, 5517, Note_on_c, 0, 52, 0
2, 5517, Note_on_c, 0, 57, 0
2, 5517, Note_on_c, 0, 60, 0
2, 5520, Note_on_c, 0, 64, 0
2, 5520, Note_on_c, 0, 76, 0
2, 5538, Note_on_c, 0, 47, 100
2, 5538, Note_on_c, 0, 71, 100
2, 5539, Note_on_c, 0, 69, 0
2, 5563, Note_on_c, 0, 64, 100
2, 5563, Note_on_c, 0, 76, 100
2, 5570, Note_on_c, 0, 71, 0
2, 5584, Note_on_c, 0, 47, 0
2, 5588, Note_on_c, 0, 52, 100
2, 5588, Note_on_c, 0, 56, 100
2, 5588, Note_on_c, 0, 62, 100
2, 5609, Note_on_c, 0, 64, 0
2, 5609, Note_on_c, 0, 76, 0
2, 5613, Note_on_c, 0, 71, 100
2, 5617, Note_on_c, 0, 52, 0
2, 5617, Note_on_c, 0, 56, 0
2, 5617, Note_on_c, 0, 62, 0
2, 5638, Note_on_c, 0, 48, 100
2, 5638, Note_on_c, 0, 64, 100
2, 5638, Note_on_c, 0, 76, 100
2, 5639, Note_on_c, 0, 71, 0
2, 5663, Note_on_c, 0, 69, 100
2, 5670, Note_on_c, 0, 64, 0
2, 5670, Note_on_c, 0, 76, 0
2, 5684, Note_on_c, 0, 48, 0
2, 5688, Note_on_c, 0, 52, 100
2, 5688, Note_on_c, 0, 57, 100
2, 5688, Note_on_c, 0, 60, 100
2, 5688, Note_on_c, 0, 72, 100
2, 5689, Note_on_c, 0, 69, 0
2, 5713, Note_on_c, 0, 64, 100
2, 5713, Note_on_c, 0, 76, 100
2, 5717, Note_on_c, 0, 52, 0
2, 5717, Note_on_c, 0, 57, 0
2, 5717, Note_on_c, 0, 60, 0
2, 5720, Note_on_c, 0, 72, 0
2, 5738, Note_on_c, 0, 45, 100
2, 5738, Note_on_c, 0, 57, 100
2, 5759, Note_on_c, 0, 64, 0
2, 5759, Note_on_c, 0, 76, 0
2, 5763, Note_on_c, 0, 69, 100
2, 5784, Note_on_c, 0, 45, 0
2, 5784, Note_on_c, 0, 57, 0
2, 5788, Note_on_c, 0, 46, 100
2, 5788, Note_on_c, 0, 58, 100
2, 5788, Note_on_c, 0, 61, 100
2, 5788, Note_on_c, 0, 67, 100
2, 5788, Note_on_c, 0, 75, 100
2, 5795, Note_on_c, 0, 69, 0
2, 5834, Note_on_c, 0, 46, 0
2, 5834, Note_on_c, 0, 58, 0
2, 5834, Note_on_c, 0, 61, 0
2, 5834, Note_on_c, 0, 67, 0
2, 5834, Note_on_c, 0, 75, 0
2, 5838, Note_on_c, 0, 47, 100
2, 5838, Note_on_c, 0, 59, 100
2, 5838, Note_on_c, 0, 62, 100
2, 5838, Note_on_c, 0, 74, 100
2, 5863, Note_on_c, 0, 67, 100
2, 5870, Note_on_c, 0, 62, 0
2, 5870, Note_on_c, 0, 74, 0
2, 5884, Note_on_c, 0, 47, 0
2, 5884, Note_on_c, 0, 59, 0
2, 5888, Note_on_c, 0, 50, 100
2, 5888, Note_on_c, 0, 55, 100
2, 5888, Note_on_c, 0, 59, 100
2, 5888, Note_on_c, 0, 71, 100
2, 5889, Note_on_c, 0, 67, 0
2, 5913, Note_on_c, 0, 64, 100
2, 5913, Note_on_c, 0, 76, 100
2, 5920, Note_on_c, 0, 71, 0
2, 5934, Note_on_c, 0, 50, 0
2, 5934, Note_on_c, 0, 55, 0
2, 5934, Note_on_c, 0, 59, 0
2, 5938, Note_on_c, 0, 40, 100
2, 5963, Note_on_c, 0, 71, 100
2, 5971, Note_on_c, 0, 76, 0
2, 5984, Note_on_c, 0, 40, 0
2, 5988, Note_on_c, 0, 52, 100
2, 5988, Note_on_c, 0, 56, 100
2, 5988, Note_on_c, 0, 62, 100
2, 5988, Note_on_c, 0, 68, 100
2, 5989, Note_on_c, 0, 71, 0
2, 6008, Note_on_c, 0, 64, 0
2, 6013, Note_on_c, 0, 64, 100
2, 6017, Note_on_c, 0, 52, 0
2, 6017, Note_on_c, 0, 56, 0
2, 6017, Note_on_c, 0, 62, 0
2, 6020, Note_on_c, 0, 68, 0
2, 6038, Note_on_c, 0, 45, 100
2, 6038, Note_on_c, 0, 61, 100
2, 6039, Note_on_c, 0, 64, 0
2, 6063, Note_on_c, 0, 67, 100
2, 6084, Note_on_c, 0, 45, 0
2, 6088, Note_on_c, 0, 52, 100
2, 6088, Note_on_c, 0, 55, 100
2, 6088, Note_on_c, 0, 69, 100
2, 6089, Note_on_c, 0, 67, 0
2, 6107, Note_on_c, 0, 61, 0
2, 6113, Note_on_c, 0, 61, 100
2, 6113, Note_on_c, 0, 67, 100
2, 6113, Note_on_c, 0, 71, 100
2, 6117, Note_on_c, 0, 52, 0
2, 6117, Note_on_c, 0, 55, 0
2, 6120, Note_on_c, 0, 69, 0
2, 6138, Note_on_c, 0, 45, 100
2, 6159, Note_on_c, 0, 61, 0
2, 6159, Note_on_c, 0, 67, 0
2, 6159, Note_on_c, 0, 71, 0
2, 6163, Note_on_c, 0, 67, 100
2, 6184, Note_on_c, 0, 45, 0
2, 6188, Note_on_c, 0, 50, 100
2, 6188, Note_on_c, 0, 54, 100
2, 6188, Note_on_c, 0, 60, 100
2, 6188, Note_on_c, 0, 66, 100
2, 6188, Note_on_c, 0, 69, 100
2, 6195, Note_on_c, 0, 67, 0
2, 6234, Note_on_c, 0, 50, 0
2, 6234, Note_on_c, 0, 60, 0
2, 6234, Note_on_c, 0, 66, 0
2, 6234, Note_on_c, 0, 69, 0
2, 6238, Note_on_c, 0, 43, 100
2, 6238, Note_on_c, 0, 50, 100
2, 6238, Note_on_c, 0, 55, 100
2, 6238, Note_on_c, 0, 59, 100
2, 6238, Note_on_c, 0, 62, 100
2, 6238, Note_on_c, 0, 67, 100
2, 6241, Note_on_c, 0, 54, 0
2, 6284, Note_on_c, 0, 43, 0
2, 6284, Note_on_c, 0, 50, 0
2, 6284, Note_on_c, 0, 55, 0
2, 6284, Note_on_c, 0, 59, 0
2, 6284, Note_on_c, 0, 62, 0
2, 6284, Note_on_c, 0, 67, 0
2, 6288, Note_on_c, 0, 50, 100
2, 6288, Note_on_c, 0, 62, 100
2, 6313, Note_on_c, 0, 52, 100
2, 6313, Note_on_c, 0, 64, 100
2, 6319, Note_on_c, 0, 50, 0
2, 6320, Note_on_c, 0, 62, 0
2, 6359, Note_on_c, 0, 64, 0
2, 6363, Note_on_c, 0, 62, 100
2, 6386, Note_on_c, 0, 62, 0
2, 6388, Note_on_c, 0, 38, 100
2, 6388, Note_on_c, 0, 50, 100
2, 6388, Note_on_c, 0, 60, 100
2, 6388, Note_on_c, 0, 62, 100
2, 6388, Note_on_c, 0, 66, 100
2, 6394, Note_on_c, 0, 52, 0
2, 6434, Note_on_c, 0, 50, 0
2, 6434, Note_on_c, 0, 62, 0
2, 6438, Note_on_c, 0, 43, 100
2, 6438, Note_on_c, 0, 50, 100
2, 6438, Note_on_c, 0, 59, 100
2, 6438, Note_on_c, 0, 62, 100
2, 6438, Note_on_c, 0, 67, 100
2, 6443, Note_on_c, 0, 38, 0
2, 6445, Note_on_c, 0, 60, 0
2, 6445, Note_on_c, 0, 66, 0
2, 6484, Note_on_c, 0, 43, 0
2, 6484, Note_on_c, 0, 50, 0
2, 6484, Note_on_c, 0, 59, 0
2, 6484, Note_on_c, 0, 62, 0
2, 6484, Note_on_c, 0, 67, 0
2, 6538, Note_on_c, 0, 31, 100
2, 6538, Note_on_c, 0, 43, 100
2, 6538, Note_on_c, 0, 67, 100
2, 6538, Note_on_c, 0, 71, 100
2, 6538, Note_on_c, 0, 74, 100
2, 6538, Note_on_c, 0, 79, 100
2, 6584, Note_on_c, 0, 31, 0
2, 6584, Note_on_c, 0, 43, 0
2, 6594, Note_on_c, 0, 67, 0
2, 6594, Note_on_c, 0, 71, 0
2, 6594, Note_on_c, 0, 74, 0
2, 6594, Note_on_c, 0, 79, 0
2, 6638, Note_on_c, 0, 45, 100
2, 6638, Note_on_c, 0, 72, 100
2, 6663, Note_on_c, 0, 74, 100
2, 6663, Note_on_c, 0, 78, 100
2, 6670, Note_on_c, 0, 72, 0
2, 6684, Note_on_c, 0, 45, 0
2, 6688, Note_on_c, 0, 50, 100
2, 6688, Note_on_c, 0, 54, 100
2, 6688, Note_on_c, 0, 60, 100
2, 6709, Note_on_c, 0, 74, 0
2, 6709, Note_on_c, 0, 78, 0
2, 6713, Note_on_c, 0, 69, 100
2, 6717, Note_on_c, 0, 50, 0
2, 6717, Note_on_c, 0, 54, 0
2, 6717, Note_on_c, 0, 60, 0
2, 6738, Note_on_c, 0, 38, 100
2, 6738, Note_on_c, 0, 72, 100
2, 6738, Note_on_c, 0, 76, 100
2, 6745, Note_on_c, 0, 69, 0
2, 6784, Note_on_c, 0, 38, 0
2, 6784, Note_on_c, 0, 72, 0
2, 6784, Note_on_c, 0, 76, 0
2, 6788, Note_on_c, 0, 50, 100
2, 6788, Note_on_c, 0, 54, 100
2, 6788, Note_on_c, 0, 60, 100
2, 6788, Note_on_c, 0, 66, 100
2, 6813, Note_on_c, 0, 69, 100
2, 6813, Note_on_c, 0, 72, 100
2, 6817, Note_on_c, 0, 50, 0
2, 6817, Note_on_c, 0, 54, 0
2, 6817, Note_on_c, 0, 60, 0
2, 6820, Note_on_c, 0, 66, 0
2, 6838, Note_on_c, 0, 45, 100
2, 6859, Note_on_c, 0, 69, 0
2, 6859, Note_on_c, 0, 72, 0
2, 6863, Note_on_c, 0, 64, 100
2, 6884, Note_on_c, 0, 45, 0
2, 6888, Note_on_c, 0, 50, 100
2, 6888, Note_on_c, 0, 54, 100
2, 6888, Note_on_c, 0, 60, 100
2, 6913, Note_on_c, 0, 66, 100
2, 6913, Note_on_c, 0, 69, 100
2, 6917, Note_on_c, 0, 50, 0
2, 6917, Note_on_c, 0, 54, 0
2, 6917, Note_on_c, 0, 60, 0
2, 6919, Note_on_c, 0, 64, 0
2, 6938, Note_on_c, 0, 38, 100
2, 6959, Note_on_c, 0, 66, 0
2, 6959, Note_on_c, 0, 69, 0
2, 6963, Note_on_c, 0, 62, 100
2, 6984, Note_on_c, 0, 38, 0
2, 6988, Note_on_c, 0, 50, 100
2, 6988, Note_on_c, 0, 54, 100
2, 6988, Note_on_c, 0, 60, 100
2, 6988, Note_on_c, 0, 64, 100
2, 6989, Note_on_c, 0, 62, 0
2, 7013, Note_on_c, 0, 66, 100
2, 7017, Note_on_c, 0, 50, 0
2, 7017, Note_on_c, 0, 54, 0
2, 7017, Note_on_c, 0, 60, 0
2, 7020, Note_on_c, 0, 64, 0
2, 7038, Note_on_c, 0, 43, 100
2, 7038, Note_on_c, 0, 59, 100
2, 7038, Note_on_c, 0, 67, 100
2, 7039, Note_on_c, 0, 66, 0
2, 7084, Note_on_c, 0, 43, 0
2, 7084, Note_on_c, 0, 59, 0
2, 7084, Note_on_c, 0, 67, 0
2, 7088, Note_on_c, 0, 50, 100
2, 7088, Note_on_c, 0, 55, 100
2, 7088, Note_on_c, 0, 59, 100
2, 7088, Note_on_c, 0, 69, 100
2, 7113, Note_on_c, 0, 62, 100
2, 7113, Note_on_c, 0, 71, 100
2, 7117, Note_on_c, 0, 50, 0
2, 7117, Note_on_c, 0, 55, 0
2, 7117, Note_on_c, 0, 59, 0
2, 7120, Note_on_c, 0, 69, 0
2, 7138, Note_on_c, 0, 38, 100
2, 7159, Note_on_c, 0, 62, 0
2, 7159, Note_on_c, 0, 71, 0
2, 7163, Note_on_c, 0, 67, 100
2, 7184, Note_on_c, 0, 38, 0
2, 7188, Note_on_c, 0, 50, 100
2, 7188, Note_on_c, 0, 55, 100
2, 7188, Note_on_c, 0, 59, 100
2, 7188, Note_on_c, 0, 62, 100
2, 7188, Note_on_c, 0, 71, 100
2, 7195, Note_on_c, 0, 67, 0
2, 7217, Note_on_c, 0, 50, 0
2, 7217, Note_on_c, 0, 55, 0
2, 7217, Note_on_c, 0, 59, 0
2, 7238, Note_on_c, 0, 43, 100
2, 7260, Note_on_c, 0, 62, 0
2, 7260, Note_on_c, 0, 71, 0
2, 7263, Note_on_c, 0, 67, 100
2, 7263, Note_on_c, 0, 74, 100
2, 7284, Note_on_c, 0, 43, 0
2, 7288, Note_on_c, 0, 50, 100
2, 7288, Note_on_c, 0, 55, 100
2, 7288, Note_on_c, 0, 59, 100
2, 7309, Note_on_c, 0, 67, 0
2, 7309, Note_on_c, 0, 74, 0
2, 7313, Note_on_c, 0, 71, 100
2, 7317, Note_on_c, 0, 50, 0
2, 7317, Note_on_c, 0, 55, 0
2, 7317, Note_on_c, 0, 59, 0
2, 7338, Note_on_c, 0, 43, 100
2, 7338, Note_on_c, 0, 55, 100
2, 7338, Note_on_c, 0, 66, 100
2, 7338, Note_on_c, 0, 74, 100
2, 7345, Note_on_c, 0, 71, 0
2, 7384, Note_on_c, 0, 43, 0
2, 7384, Note_on_c, 0, 55, 0
2, 7384, Note_on_c, 0, 66, 0
2, 7384, Note_on_c, 0, 74, 0
2, 7388, Note_on_c, 0, 44, 100
2, 7388, Note_on_c, 0, 56, 100
2, 7388, Note_on_c, 0, 65, 100
2, 7388, Note_on_c, 0, 71, 100
2, 7388, Note_on_c, 0, 74, 100
2, 7427, Note_on_c, 0, 44, 0
2, 7427, Note_on_c, 0, 56, 0
2, 7434, Note_on_c, 0, 65, 0
2, 7434, Note_on_c, 0, 71, 0
2, 7434, Note_on_c, 0, 74, 0
2, 7438, Note_on_c, 0, 45, 100
2, 7438, Note_on_c, 0, 57, 100
2, 7438, Note_on_c, 0, 72, 100
2, 7463, Note_on_c, 0, 74, 100
2, 7463, Note_on_c, 0, 78, 100
2, 7470, Note_on_c, 0, 72, 0
2, 7484, Note_on_c, 0, 45, 0
2, 7484, Note_on_c, 0, 57, 0
2, 7488, Note_on_c, 0, 50, 100
2, 7488, Note_on_c, 0, 54, 100
2, 7488, Note_on_c, 0, 60, 100
2, 7509, Note_on_c, 0, 74, 0
2, 7509, Note_on_c, 0, 78, 0
2, 7513, Note_on_c, 0, 69, 100
2, 7517, Note_on_c, 0, 50, 0
2, 7517, Note_on_c, 0, 54, 0
2, 7517, Note_on_c, 0, 60, 0
2, 7538, Note_on_c, 0, 38, 100
2, 7538, Note_on_c, 0, 72, 100
2, 7538, Note_on_c, 0, 76, 100
2, 7545, Note_on_c, 0, 69, 0
2, 7584, Note_on_c, 0, 38, 0
2, 7584, Note_on_c, 0, 72, 0
2, 7584, Note_on_c, 0, 76, 0
2, 7588, Note_on_c, 0, 50, 100
2, 7588, Note_on_c, 0, 54, 100
2, 7588, Note_on_c, 0, 60, 100
2, 7588, Note_on_c, 0, 66, 100
2, 7613, Note_on_c, 0, 69, 100
2, 7613, Note_on_c, 0, 72, 100
2, 7617, Note_on_c, 0, 50, 0
2, 7617, Note_on_c, 0, 54, 0
2, 7617, Note_on_c, 0, 60, 0
2, 7620, Note_on_c, 0, 66, 0
2, 7638, Note_on_c, 0, 45, 100
2, 7659, Note_on_c, 0, 69, 0
2, 7659, Note_on_c, 0, 72, 0
2, 7663, Note_on_c, 0, 64, 100
2, 7684, Note_on_c, 0, 45, 0
2, 7688, Note_on_c, 0, 50, 100
2, 7688, Note_on_c, 0, 54, 100
2, 7688, Note_on_c, 0, 60, 100
2, 7713, Note_on_c, 0, 66, 100
2, 7713, Note_on_c, 0, 69, 100
2, 7717, Note_on_c, 0, 50, 0
2, 7717, Note_on_c, 0, 54, 0
2, 7717, Note_on_c, 0, 60, 0
2, 7719, Note_on_c, 0, 64, 0
2, 7738, Note_on_c, 0, 38, 100
2, 7759, Note_on_c, 0, 66, 0
2, 7759, Note_on_c, 0, 69, 0
2, 7763, Note_on_c, 0, 62, 100
2, 7784, Note_on_c, 0, 38, 0
2, 7788, Note_on_c, 0, 50, 100
2, 7788, Note_on_c, 0, 54, 100
2, 7788, Note_on_c, 0, 60, 100
2, 7788, Note_on_c, 0, 64, 100
2, 7789, Note_on_c, 0, 62, 0
2, 7813, Note_on_c, 0, 66, 100
2, 7817, Note_on_c, 0, 50, 0
2, 7817, Note_on_c, 0, 54, 0
2, 7817, Note_on_c, 0, 60, 0
2, 7820, Note_on_c, 0, 64, 0
2, 7838, Note_on_c, 0, 43, 100
2, 7838, Note_on_c, 0, 59, 100
2, 7838, Note_on_c, 0, 67, 100
2, 7839, Note_on_c, 0, 66, 0
2, 7863, Note_on_c, 0, 69, 100
2, 7870, Note_on_c, 0, 59, 0
2, 7870, Note_on_c, 0, 67, 0
2, 7884, Note_on_c, 0, 43, 0
2, 7888, Note_on_c, 0, 50, 100
2, 7888, Note_on_c, 0, 55, 100
2, 7888, Note_on_c, 0, 59, 100
2, 7888, Note_on_c, 0, 62, 100
2, 7888, Note_on_c, 0, 71, 100
2, 7889, Note_on_c, 0, 69, 0
2, 7913, Note_on_c, 0, 67, 100
2, 7917, Note_on_c, 0, 50, 0
2, 7917, Note_on_c, 0, 55, 0
2, 7917, Note_on_c, 0, 59, 0
2, 7920, Note_on_c, 0, 62, 0
2, 7920, Note_on_c, 0, 71, 0
2, 7938, Note_on_c, 0, 38, 100
2, 7938, Note_on_c, 0, 69, 100
2, 7939, Note_on_c, 0, 67, 0
2, 7963, Note_on_c, 0, 62, 100
2, 7963, Note_on_c, 0, 74, 100
2, 7970, Note_on_c, 0, 69, 0
2, 7984, Note_on_c, 0, 38, 0
2, 7988, Note_on_c, 0, 50, 100
2, 7988, Note_on_c, 0, 54, 100
2, 7988, Note_on_c, 0, 60, 100
2, 8009, Note_on_c, 0, 62, 0
2, 8009, Note_on_c, 0, 74, 0
2, 8013, Note_on_c, 0, 69, 100
2, 8017, Note_on_c, 0, 50, 0
2, 8017, Note_on_c, 0, 54, 0
2, 8017, Note_on_c, 0, 60, 0
2, 8038, Note_on_c, 0, 43, 100
2, 8038, Note_on_c, 0, 62, 100
2, 8038, Note_on_c, 0, 74, 100
2, 8039, Note_on_c, 0, 69, 0
2, 8063, Note_on_c, 0, 67, 100
2, 8066, Note_on_c, 0, 62, 0
2, 8066, Note_on_c, 0, 74, 0
2, 8084, Note_on_c, 0, 43, 0
2, 8088, Note_on_c, 0, 50, 100
2, 8088, Note_on_c, 0, 55, 100
2, 8088, Note_on_c, 0, 59, 100
2, 8088, Note_on_c, 0, 71, 100
2, 8089, Note_on_c, 0, 67, 0
2, 8113, Note_on_c, 0, 64, 100
2, 8113, Note_on_c, 0, 76, 100
2, 8117, Note_on_c, 0, 50, 0
2, 8117, Note_on_c, 0, 55, 0
2, 8117, Note_on_c, 0, 59, 0
2, 8120, Note_on_c, 0, 71, 0
2, 8138, Note_on_c, 0, 47, 100
2, 8138, Note_on_c, 0, 59, 100
2, 8159, Note_on_c, 0, 64, 0
2, 8159, Note_on_c, 0, 76, 0
2, 8163, Note_on_c, 0, 67, 100
2, 8184, Note_on_c, 0, 47, 0
2, 8184, Note_on_c, 0, 59, 0
2, 8188, Note_on_c, 0, 44, 100
2, 8188, Note_on_c, 0, 56, 100
2, 8188, Note_on_c, 0, 65, 100
2, 8188, Note_on_c, 0, 71, 100
2, 8188, Note_on_c, 0, 77, 100
2, 8195, Note_on_c, 0, 67, 0
2, 8227, Note_on_c, 0, 44, 0
2, 8227, Note_on_c, 0, 56, 0
2, 8234, Note_on_c, 0, 65, 0
2, 8234, Note_on_c, 0, 71, 0
2, 8234, Note_on_c, 0, 77, 0
2, 8238, Note_on_c, 0, 45, 100
2, 8238, Note_on_c, 0, 72, 100
2, 8263, Note_on_c, 0, 74, 100
2, 8263, Note_on_c, 0, 78, 100
2, 8270, Note_on_c, 0, 72, 0
2, 8284, Note_on_c, 0, 45, 0
2, 8288, Note_on_c, 0, 50, 100
2, 8288, Note_on_c, 0, 54, 100
2, 8288, Note_on_c, 0, 60, 100
2, 8309, Note_on_c, 0, 74, 0
2, 8309, Note_on_c, 0, 78, 0
2, 8313, Note_on_c, 0, 69, 100
2, 8317, Note_on_c, 0, 50, 0
2, 8317, Note_on_c, 0, 54, 0
2, 8317, Note_on_c, 0, 60, 0
2, 8338, Note_on_c, 0, 38, 100
2, 8338, Note_on_c, 0, 72, 100
2, 8338, Note_on_c, 0, 76, 100
2, 8345, Note_on_c, 0, 69, 0
2, 8384, Note_on_c, 0, 38, 0
2, 8384, Note_on_c, 0, 72, 0
2, 8384, Note_on_c, 0, 76, 0
2, 8388, Note_on_c, 0, 50, 100
2, 8388, Note_on_c, 0, 54, 100
2, 8388, Note_on_c, 0, 60, 100
2, 8388, Note_on_c, 0, 66, 100
2, 8413, Note_on_c, 0, 69, 100
2, 8413, Note_on_c, 0, 72, 100
2, 8417, Note_on_c, 0, 50, 0
2, 8417, Note_on_c, 0, 54, 0
2, 8417, Note_on_c, 0, 60, 0
2, 8420, Note_on_c, 0, 66, 0
2, 8438, Note_on_c, 0, 45, 100
2, 8459, Note_on_c, 0, 69, 0
2, 8459, Note_on_c, 0, 72, 0
2, 8463, Note_on_c, 0, 64, 100
2, 8484, Note_on_c, 0, 45, 0
2, 8488, Note_on_c, 0, 50, 100
2, 8488, Note_on_c, 0, 54, 100
2, 8488, Note_on_c, 0, 60, 100
2, 8513, Note_on_c, 0, 66, 100
2, 8513, Note_on_c, 0, 69, 100
2, 8517, Note_on_c, 0, 50, 0
2, 8517, Note_on_c, 0, 54, 0
2, 8517, Note_on_c, 0, 60, 0
2, 8519, Note_on_c, 0, 64, 0
2, 8538, Note_on_c, 0, 38, 100
2, 8559, Note_on_c, 0, 66, 0
2, 8559, Note_on_c, 0, 69, 0
2, 8563, Note_on_c, 0, 62, 100
2, 8584, Note_on_c, 0, 38, 0
2, 8588, Note_on_c, 0, 50, 100
2, 8588, Note_on_c, 0, 54, 100
2, 8588, Note_on_c, 0, 60, 100
2, 8588, Note_on_c, 0, 64, 100
2, 8589, Note_on_c, 0, 62, 0
2, 8613, Note_on_c, 0, 66, 100
2, 8617, Note_on_c, 0, 50, 0
2, 8617, Note_on_c, 0, 54, 0
2, 8617, Note_on_c, 0, 60, 0
2, 8620, Note_on_c, 0, 64, 0
2, 8638, Note_on_c, 0, 43, 100
2, 8638, Note_on_c, 0, 59, 100
2, 8638, Note_on_c, 0, 67, 100
2, 8639, Note_on_c, 0, 66, 0
2, 8684, Note_on_c, 0, 43, 0
2, 8684, Note_on_c, 0, 59, 0
2, 8684, Note_on_c, 0, 67, 0
2, 8688, Note_on_c, 0, 50, 100
2, 8688, Note_on_c, 0, 55, 100
2, 8688, Note_on_c, 0, 59, 100
2, 8688, Note_on_c, 0, 69, 100
2, 8713, Note_on_c, 0, 62, 100
2, 8713, Note_on_c, 0, 71, 100
2, 8717, Note_on_c, 0, 50, 0
2, 8717, Note_on_c, 0, 55, 0
2, 8717, Note_on_c, 0, 59, 0
2, 8720, Note_on_c, 0, 69, 0
2, 8738, Note_on_c, 0, 38, 100
2, 8759, Note_on_c, 0, 62, 0
2, 8759, Note_on_c, 0, 71, 0
2, 8763, Note_on_c, 0, 67, 100
2, 8784, Note_on_c, 0, 38, 0
2, 8788, Note_on_c, 0, 50, 100
2, 8788, Note_on_c, 0, 55, 100
2, 8788, Note_on_c, 0, 59, 100
2, 8788, Note_on_c, 0, 62, 100
2, 8788, Note_on_c, 0, 71, 100
2, 8795, Note_on_c, 0, 67, 0
2, 8817, Note_on_c, 0, 50, 0
2, 8817, Note_on_c, 0, 55, 0
2, 8817, Note_on_c, 0, 59, 0
2, 8838, Note_on_c, 0, 43, 100
2, 8838, Note_on_c, 0, 55, 100
2, 8863, Note_on_c, 0, 67, 100
2, 8863, Note_on_c, 0, 74, 100
2, 8867, Note_on_c, 0, 62, 0
2, 8867, Note_on_c, 0, 71, 0
2, 8884, Note_on_c, 0, 43, 0
2, 8884, Note_on_c, 0, 55, 0
2, 8888, Note_on_c, 0, 44, 100
2, 8888, Note_on_c, 0, 56, 100
2, 8909, Note_on_c, 0, 67, 0
2, 8909, Note_on_c, 0, 74, 0
2, 8913, Note_on_c, 0, 71, 100
2, 8927, Note_on_c, 0, 44, 0
2, 8927, Note_on_c, 0, 56, 0
2, 8938, Note_on_c, 0, 45, 100
2, 8938, Note_on_c, 0, 57, 100
2, 8938, Note_on_c, 0, 66, 100
2, 8938, Note_on_c, 0, 74, 100
2, 8945, Note_on_c, 0, 71, 0
2, 8984, Note_on_c, 0, 45, 0
2, 8984, Note_on_c, 0, 57, 0
2, 8984, Note_on_c, 0, 66, 0
2, 8984, Note_on_c, 0, 74, 0
2, 8988, Note_on_c, 0, 46, 100
2, 8988, Note_on_c, 0, 58, 100
2, 8988, Note_on_c, 0, 65, 100
2, 8988, Note_on_c, 0, 71, 100
2, 8988, Note_on_c, 0, 74, 100
2, 9027, Note_on_c, 0, 46, 0
2, 9027, Note_on_c, 0, 58, 0
2, 9034, Note_on_c, 0, 65, 0
2, 9034, Note_on_c, 0, 71, 0
2, 9034, Note_on_c, 0, 74, 0
2, 9038, Note_on_c, 0, 48, 100
2, 9063, Note_on_c, 0, 67, 100
2, 9063, Note_on_c, 0, 76, 100
2, 9084, Note_on_c, 0, 48, 0
2, 9088, Note_on_c, 0, 52, 100
2, 9088, Note_on_c, 0, 55, 100
2, 9088, Note_on_c, 0, 60, 100
2, 9109, Note_on_c, 0, 67, 0
2, 9109, Note_on_c, 0, 76, 0
2, 9113, Note_on_c, 0, 72, 100
2, 9117, Note_on_c, 0, 52, 0
2, 9117, Note_on_c, 0, 55, 0
2, 9117, Note_on_c, 0, 60, 0
2, 9138, Note_on_c, 0, 48, 100
2, 9138, Note_on_c, 0, 67, 100
2, 9138, Note_on_c, 0, 76, 100
2, 9145, Note_on_c, 0, 72, 0
2, 9184, Note_on_c, 0, 48, 0
2, 9184, Note_on_c, 0, 67, 0
2, 9188, Note_on_c, 0, 49, 100
2, 9188, Note_on_c, 0, 55, 100
2, 9188, Note_on_c, 0, 58, 100
2, 9188, Note_on_c, 0, 67, 100
2, 9188, Note_on_c, 0, 75, 100
2, 9189, Note_on_c, 0, 76, 0
2, 9217, Note_on_c, 0, 49, 0
2, 9217, Note_on_c, 0, 55, 0
2, 9217, Note_on_c, 0, 58, 0
2, 9234, Note_on_c, 0, 67, 0
2, 9234, Note_on_c, 0, 75, 0
2, 9238, Note_on_c, 0, 50, 100
2, 9263, Note_on_c, 0, 67, 100
2, 9263, Note_on_c, 0, 74, 100
2, 9284, Note_on_c, 0, 50, 0
2, 9288, Note_on_c, 0, 55, 100
2, 9288, Note_on_c, 0, 59, 100
2, 9313, Note_on_c, 0, 71, 100
2, 9314, Note_on_c, 0, 67, 0
2, 9314, Note_on_c, 0, 74, 0
2, 9317, Note_on_c, 0, 55, 0
2, 9317, Note_on_c, 0, 59, 0
2, 9338, Note_on_c, 0, 52, 100
2, 9338, Note_on_c, 0, 76, 100
2, 9339, Note_on_c, 0, 71, 0
2, 9363, Note_on_c, 0, 74, 100
2, 9370, Note_on_c, 0, 76, 0
2, 9384, Note_on_c, 0, 52, 0
2, 9388, Note_on_c, 0, 56, 100
2, 9388, Note_on_c, 0, 62, 100
2, 9388, Note_on_c, 0, 71, 100
2, 9389, Note_on_c, 0, 74, 0
2, 9413, Note_on_c, 0, 68, 100
2, 9417, Note_on_c, 0, 56, 0
2, 9417, Note_on_c, 0, 62, 0
2, 9420, Note_on_c, 0, 71, 0
2, 9436, Note_on_c, 0, 68, 0
2, 9438, Note_on_c, 0, 45, 100
2, 9438, Note_on_c, 0, 61, 100
2, 9463, Note_on_c, 0, 67, 100
2, 9484, Note_on_c, 0, 45, 0
2, 9488, Note_on_c, 0, 55, 100
2, 9488, Note_on_c, 0, 57, 100
2, 9488, Note_on_c, 0, 69, 100
2, 9489, Note_on_c, 0, 67, 0
2, 9507, Note_on_c, 0, 61, 0
2, 9513, Note_on_c, 0, 61, 100
2, 9513, Note_on_c, 0, 71, 100
2, 9517, Note_on_c, 0, 55, 0
2, 9517, Note_on_c, 0, 57, 0
2, 9520, Note_on_c, 0, 69, 0
2, 9538, Note_on_c, 0, 38, 100
2, 9559, Note_on_c, 0, 71, 0
2, 9563, Note_on_c, 0, 66, 100
2, 9571, Note_on_c, 0, 61, 0
2, 9584, Note_on_c, 0, 38, 0
2, 9588, Note_on_c, 0, 50, 100
2, 9588, Note_on_c, 0, 60, 100
2, 9588, Note_on_c, 0, 69, 100
2, 9595, Note_on_c, 0, 66, 0
2, 9629, Note_on_c, 0, 50, 0
2, 9634, Note_on_c, 0, 60, 0
2, 9634, Note_on_c, 0, 69, 0
2, 9638, Note_on_c, 0, 43, 100
2, 9638, Note_on_c, 0, 50, 100
2, 9638, Note_on_c, 0, 59, 100
2, 9638, Note_on_c, 0, 67, 100
2, 9684, Note_on_c, 0, 43, 0
2, 9684, Note_on_c, 0, 50, 0
2, 9689, Note_on_c, 0, 59, 0
2, 9689, Note_on_c, 0, 67, 0
2, 9738, Note_on_c, 0, 31, 100
2, 9738, Note_on_c, 0, 43, 100
2, 9738, Note_on_c, 0, 67, 100
2, 9738, Note_on_c, 0, 71, 100
2, 9738, Note_on_c, 0, 74, 100
2, 9738, Note_on_c, 0, 79, 100
2, 9784, Note_on_c, 0, 31, 0
2, 9784, Note_on_c, 0, 43, 0
2, 9789, Note_on_c, 0, 67, 0
2, 9789, Note_on_c, 0, 71, 0
2, 9789, Note_on_c, 0, 74, 0
2, 9789, Note_on_c, 0, 79, 0
2, 9838, Note_on_c, 0, 45, 100
2, 9838, Note_on_c, 0, 72, 100
2, 9863, Note_on_c, 0, 74, 100
2, 9863, Note_on_c, 0, 78, 100
2, 9870, Note_on_c, 0, 72, 0
2, 9884, Note_on_c, 0, 45, 0
2, 9888, Note_on_c, 0, 50, 100
2, 9888, Note_on_c, 0, 54, 100
2, 9888, Note_on_c, 0, 60, 100
2, 9909, Note_on_c, 0, 74, 0
2, 9909, Note_on_c, 0, 78, 0
2, 9913, Note_on_c, 0, 69, 100
2, 9917, Note_on_c, 0, 50, 0
2, 9917, Note_on_c, 0, 54, 0
2, 9917, Note_on_c, 0, 60, 0
2, 9938, Note_on_c, 0, 38, 100
2, 9938, Note_on_c, 0, 72, 100
2, 9938, Note_on_c, 0, 76, 100
2, 9945, Note_on_c, 0, 69, 0
2, 9984, Note_on_c, 0, 38, 0
2, 9984, Note_on_c, 0, 72, 0
2, 9984, Note_on_c, 0, 76, 0
2, 9988, Note_on_c, 0, 50, 100
2, 9988, Note_on_c, 0, 54, 100
2, 9988, Note_on_c, 0, 60, 100
2, 9988, Note_on_c, 0, 66, 100
2, 10013, Note_on_c, 0, 69, 100
2, 10013, Note_on_c, 0, 72, 100
2, 10017, Note_on_c, 0, 50, 0
2, 10017, Note_on_c, 0, 54, 0
2, 10017, Note_on_c, 0, 60, 0
2, 10020, Note_on_c, 0, 66, 0
2, 10038, Note_on_c, 0, 45, 100
2, 10059, Note_on_c, 0, 69, 0
2, 10059, Note_on_c, 0, 72, 0
2, 10063, Note_on_c, 0, 64, 100
2, 10084, Note_on_c, 0, 45, 0
2, 10088, Note_on_c, 0, 50, 100
2, 10088, Note_on_c, 0, 54, 100
2, 10088, Note_on_c, 0, 60, 100
2, 10113, Note_on_c, 0, 66, 100
2, 10113, Note_on_c, 0, 69, 100
2, 10117, Note_on_c, 0, 50, 0
2, 10117, Note_on_c, 0, 54, 0
2, 10117, Note_on_c, 0, 60, 0
2, 10119, Note_on_c, 0, 64, 0
2, 10138, Note_on_c, 0, 38, 100
2, 10159, Note_on_c, 0, 66, 0
2, 10159, Note_on_c, 0, 69, 0
2, 10163, Note_on_c, 0, 62, 100
2, 10184, Note_on_c, 0, 38, 0
2, 10188, Note_on_c, 0, 50, 100
2, 10188, Note_on_c, 0, 54, 100
2, 10188, Note_on_c, 0, 60, 100
2, 10188, Note_on_c, 0, 64, 100
2, 10189, Note_on_c, 0, 62, 0
2, 10213, Note_on_c, 0, 66, 100
2, 10217, Note_on_c, 0, 50, 0
2, 10217, Note_on_c, 0, 54, 0
2, 10217, Note_on_c, 0, 60, 0
2, 10220, Note_on_c, 0, 64, 0
2, 10238, Note_on_c, 0, 43, 100
2, 10238, Note_on_c, 0, 59, 100
2, 10238, Note_on_c, 0, 67, 100
2, 10239, Note_on_c, 0, 66, 0
2, 10284, Note_on_c, 0, 43, 0
2, 10284, Note_on_c, 0, 59, 0
2, 10284, Note_on_c, 0, 67, 0
2, 10288, Note_on_c, 0, 50, 100
2, 10288, Note_on_c, 0, 55, 100
2, 10288, Note_on_c, 0, 59, 100
2, 10288, Note_on_c, 0, 69, 100
2, 10313, Note_on_c, 0, 62, 100
2, 10313, Note_on_c, 0, 71, 100
2, 10317, Note_on_c, 0, 50, 0
2, 10317, Note_on_c, 0, 55, 0
2, 10317, Note_on_c, 0, 59, 0
2, 10320, Note_on_c, 0, 69, 0
2, 10338, Note_on_c, 0, 38, 100
2, 10359, Note_on_c, 0, 62, 0
2, 10359, Note_on_c, 0, 71, 0
2, 10363, Note_on_c, 0, 67, 100
2, 10384, Note_on_c, 0, 38, 0
2, 10388, Note_on_c, 0, 50, 100
2, 10388, Note_on_c, 0, 55, 100
2, 10388, Note_on_c, 0, 59, 100
2, 10388, Note_on_c, 0, 62, 100
2, 10388, Note_on_c, 0, 71, 100
2, 10395, Note_on_c, 0, 67, 0
2, 10417, Note_on_c, 0, 50, 0
2, 10417, Note_on_c, 0, 55, 0
2, 10417, Note_on_c, 0, 59, 0
2, 10438, Note_on_c, 0, 43, 100
2, 10460, Note_on_c, 0, 62, 0
2, 10460, Note_on_c, 0, 71, 0
2, 10463, Note_on_c, 0, 67, 100
2, 10463, Note_on_c, 0, 74, 100
2, 10484, Note_on_c, 0, 43, 0
2, 10488, Note_on_c, 0, 50, 100
2, 10488, Note_on_c, 0, 55, 100
2, 10488, Note_on_c, 0, 59, 100
2, 10509, Note_on_c, 0, 67, 0
2, 10509, Note_on_c, 0, 74, 0
2, 10513, Note_on_c, 0, 71, 100
2, 10517, Note_on_c, 0, 50, 0
2, 10517, Note_on_c, 0, 55, 0
2, 10517, Note_on_c, 0, 59, 0
2, 10538, Note_on_c, 0, 43, 100
2, 10538, Note_on_c, 0, 55, 100
2, 10538, Note_on_c, 0, 66, 100
2, 10538, Note_on_c, 0, 74, 100
2, 10545, Note_on_c, 0, 71, 0
2, 10584, Note_on_c, 0, 43, 0
2, 10584, Note_on_c, 0, 55, 0
2, 10584, Note_on_c, 0, 66, 0
2, 10584, Note_on_c, 0, 74, 0
2, 10588, Note_on_c, 0, 44, 100
2, 10588, Note_on_c, 0, 56, 100
2, 10588, Note_on_c, 0, 65, 100
2, 10588, Note_on_c, 0, 71, 100
2, 10588, Note_on_c, 0, 74, 100
2, 10627, Note_on_c, 0, 44, 0
2, 10627, Note_on_c, 0, 56, 0
2, 10634, Note_on_c, 0, 65, 0
2, 10634, Note_on_c, 0, 71, 0
2, 10634, Note_on_c, 0, 74, 0
2, 10638, Note_on_c, 0, 45, 100
2, 10638, Note_on_c, 0, 57, 100
2, 10638, Note_on_c, 0, 72, 100
2, 10663, Note_on_c, 0, 74, 100
2, 10663, Note_on_c, 0, 78, 100
2, 10670, Note_on_c, 0, 72, 0
2, 10684, Note_on_c, 0, 45, 0
2, 10684, Note_on_c, 0, 57, 0
2, 10688, Note_on_c, 0, 50, 100
2, 10688, Note_on_c, 0, 54, 100
2, 10688, Note_on_c, 0, 60, 100
2, 10709, Note_on_c, 0, 74, 0
2, 10709, Note_on_c, 0, 78, 0
2, 10713, Note_on_c, 0, 69, 100
2, 10717, Note_on_c, 0, 50, 0
2, 10717, Note_on_c, 0, 54, 0
2, 10717, Note_on_c, 0, 60, 0
2, 10738, Note_on_c, 0, 38, 100
2, 10738, Note_on_c, 0, 72, 100
2, 10738, Note_on_c, 0, 76, 100
2, 10745, Note_on_c, 0, 69, 0
2, 10784, Note_on_c, 0, 38, 0
2, 10784, Note_on_c, 0, 72, 0
2, 10784, Note_on_c, 0, 76, 0
2, 10788, Note_on_c, 0, 50, 100
2, 10788, Note_on_c, 0, 54, 100
2, 10788, Note_on_c, 0, 60, 100
2, 10788, Note_on_c, 0, 66, 100
2, 10813, Note_on_c, 0, 69, 100
2, 10813, Note_on_c, 0, 72, 100
2, 10817, Note_on_c, 0, 50, 0
2, 10817, Note_on_c, 0, 54, 0
2, 10817, Note_on_c, 0, 60, 0
2, 10820, Note_on_c, 0, 66, 0
2, 10838, Note_on_c, 0, 45, 100
2, 10859, Note_on_c, 0, 69, 0
2, 10859, Note_on_c, 0, 72, 0
2, 10863, Note_on_c, 0, 64, 100
2, 10884, Note_on_c, 0, 45, 0
2, 10888, Note_on_c, 0, 50, 100
2, 10888, Note_on_c, 0, 54, 100
2, 10888, Note_on_c, 0, 60, 100
2, 10913, Note_on_c, 0, 66, 100
2, 10913, Note_on_c, 0, 69, 100
2, 10917, Note_on_c, 0, 50, 0
2, 10917, Note_on_c, 0, 54, 0
2, 10917, Note_on_c, 0, 60, 0
2, 10919, Note_on_c, 0, 64, 0
2, 10938, Note_on_c, 0, 38, 100
2, 10959, Note_on_c, 0, 66, 0
2, 10959, Note_on_c, 0, 69, 0
2, 10963, Note_on_c, 0, 62, 100
2, 10984, Note_on_c, 0, 38, 0
2, 10988, Note_on_c, 0, 50, 100
2, 10988, Note_on_c, 0, 54, 100
2, 10988, Note_on_c, 0, 60, 100
2, 10988, Note_on_c, 0, 64, 100
2, 10989, Note_on_c, 0, 62, 0
2, 11013, Note_on_c, 0, 66, 100
2, 11017, Note_on_c, 0, 50, 0
2, 11017, Note_on_c, 0, 54, 0
2, 11017, Note_on_c, 0, 60, 0
2, 11020, Note_on_c, 0, 64, 0
2, 11038, Note_on_c, 0, 43, 100
2, 11038, Note_on_c, 0, 59, 100
2, 11038, Note_on_c, 0, 67, 100
2, 11039, Note_on_c, 0, 66, 0
2, 11063, Note_on_c, 0, 69, 100
2, 11070, Note_on_c, 0, 59, 0
2, 11070, Note_on_c, 0, 67, 0
2, 11084, Note_on_c, 0, 43, 0
2, 11088, Note_on_c, 0, 50, 100
2, 11088, Note_on_c, 0, 55, 100
2, 11088, Note_on_c, 0, 59, 100
2, 11088, Note_on_c, 0, 62, 100
2, 11088, Note_on_c, 0, 71, 100
2, 11089, Note_on_c, 0, 69, 0
2, 11113, Note_on_c, 0, 67, 100
2, 11117, Note_on_c, 0, 50, 0
2, 11117, Note_on_c, 0, 55, 0
2, 11117, Note_on_c, 0, 59, 0
2, 11120, Note_on_c, 0, 62, 0
2, 11120, Note_on_c, 0, 71, 0
2, 11138, Note_on_c, 0, 38, 100
2, 11138, Note_on_c, 0, 69, 100
2, 11139, Note_on_c, 0, 67, 0
2, 11163, Note_on_c, 0, 62, 100
2, 11163, Note_on_c, 0, 74, 100
2, 11170, Note_on_c, 0, 69, 0
2, 11184, Note_on_c, 0, 38, 0
2, 11188, Note_on_c, 0, 50, 100
2, 11188, Note_on_c, 0, 54, 100
2, 11188, Note_on_c, 0, 60, 100
2, 11209, Note_on_c, 0, 62, 0
2, 11209, Note_on_c, 0, 74, 0
2, 11213, Note_on_c, 0, 69, 100
2, 11217, Note_on_c, 0, 50, 0
2, 11217, Note_on_c, 0, 54, 0
2, 11217, Note_on_c, 0, 60, 0
2, 11238, Note_on_c, 0, 43, 100
2, 11238, Note_on_c, 0, 62, 100
2, 11238, Note_on_c, 0, 74, 100
2, 11239, Note_on_c, 0, 69, 0
2, 11263, Note_on_c, 0, 67, 100
2, 11266, Note_on_c, 0, 62, 0
2, 11266, Note_on_c, 0, 74, 0
2, 11284, Note_on_c, 0, 43, 0
2, 11288, Note_on_c, 0, 50, 100
2, 11288, Note_on_c, 0, 55, 100
2, 11288, Note_on_c, 0, 59, 100
2, 11288, Note_on_c, 0, 71, 100
2, 11289, Note_on_c, 0, 67, 0
2, 11313, Note_on_c, 0, 64, 100
2, 11313, Note_on_c, 0, 76, 100
2, 11317, Note_on_c, 0, 50, 0
2, 11317, Note_on_c, 0, 55, 0
2, 11317, Note_on_c, 0, 59, 0
2, 11320, Note_on_c, 0, 71, 0
2, 11338, Note_on_c, 0, 47, 100
2, 11338, Note_on_c, 0, 59, 100
2, 11359, Note_on_c, 0, 64, 0
2, 11359, Note_on_c, 0, 76, 0
2, 11363, Note_on_c, 0, 67, 100
2, 11384, Note_on_c, 0, 47, 0
2, 11384, Note_on_c, 0, 59, 0
2, 11388, Note_on_c, 0, 44, 100
2, 11388, Note_on_c, 0, 56, 100
2, 11388, Note_on_c, 0, 65, 100
2, 11388, Note_on_c, 0, 71, 100
2, 11388, Note_on_c, 0, 77, 100
2, 11395, Note_on_c, 0, 67, 0
2, 11427, Note_on_c, 0, 44, 0
2, 11427, Note_on_c, 0, 56, 0
2, 11434, Note_on_c, 0, 65, 0
2, 11434, Note_on_c, 0, 71, 0
2, 11434, Note_on_c, 0, 77, 0
2, 11438, Note_on_c, 0, 45, 100
2, 11438, Note_on_c, 0, 72, 100
2, 11463, Note_on_c, 0, 74, 100
2, 11463, Note_on_c, 0, 78, 100
2, 11470, Note_on_c, 0, 72, 0
2, 11484, Note_on_c, 0, 45, 0
2, 11488, Note_on_c, 0, 50, 100
2, 11488, Note_on_c, 0, 54, 100
2, 11488, Note_on_c, 0, 60, 100
2, 11509, Note_on_c, 0, 74, 0
2, 11509, Note_on_c, 0, 78, 0
2, 11513, Note_on_c, 0, 69, 100
2, 11517, Note_on_c, 0, 50, 0
2, 11517, Note_on_c, 0, 54, 0
2, 11517, Note_on_c, 0, 60, 0
2, 11538, Note_on_c, 0, 38, 100
2, 11538, Note_on_c, 0, 72, 100
2, 11538, Note_on_c, 0, 76, 100
2, 11545, Note_on_c, 0, 69, 0
2, 11584, Note_on_c, 0, 38, 0
2, 11584, Note_on_c, 0, 72, 0
2, 11584, Note_on_c, 0, 76, 0
2, 11588, Note_on_c, 0, 50, 100
2, 11588, Note_on_c, 0, 54, 100
2, 11588, Note_on_c, 0, 60, 100
2, 11588, Note_on_c, 0, 66, 100
2, 11613, Note_on_c, 0, 69, 100
2, 11613, Note_on_c, 0, 72, 100
2, 11617, Note_on_c, 0, 50, 0
2, 11617, Note_on_c, 0, 54, 0
2, 11617, Note_on_c, 0, 60, 0
2, 11620, Note_on_c, 0, 66, 0
2, 11638, Note_on_c, 0, 45, 100
2, 11659, Note_on_c, 0, 69, 0
2, 11659, Note_on_c, 0, 72, 0
2, 11663, Note_on_c, 0, 64, 100
2, 11684, Note_on_c, 0, 45, 0
2, 11688, Note_on_c, 0, 50, 100
2, 11688, Note_on_c, 0, 54, 100
2, 11688, Note_on_c, 0, 60, 100
2, 11713, Note_on_c, 0, 66, 100
2, 11713, Note_on_c, 0, 69, 100
2, 11717, Note_on_c, 0, 50, 0
2, 11717, Note_on_c, 0, 54, 0
2, 11717, Note_on_c, 0, 60, 0
2, 11719, Note_on_c, 0, 64, 0
2, 11738, Note_on_c, 0, 38, 100
2, 11759, Note_on_c, 0, 66, 0
2, 11759, Note_on_c, 0, 69, 0
2, 11763, Note_on_c, 0, 62, 100
2, 11784, Note_on_c, 0, 38, 0
2, 11788, Note_on_c, 0, 50, 100
2, 11788, Note_on_c, 0, 54, 100
2, 11788, Note_on_c, 0, 60, 100
2, 11788, Note_on_c, 0, 64, 100
2, 11789, Note_on_c, 0, 62, 0
2, 11813, Note_on_c, 0, 66, 100
2, 11817, Note_on_c, 0, 50, 0
2, 11817, Note_on_c, 0, 54, 0
2, 11817, Note_on_c, 0, 60, 0
2, 11820, Note_on_c, 0, 64, 0
2, 11838, Note_on_c, 0, 43, 100
2, 11838, Note_on_c, 0, 59, 100
2, 11838, Note_on_c, 0, 67, 100
2, 11839, Note_on_c, 0, 66, 0
2, 11884, Note_on_c, 0, 43, 0
2, 11884, Note_on_c, 0, 59, 0
2, 11884, Note_on_c, 0, 67, 0
2, 11888, Note_on_c, 0, 50, 100
2, 11888, Note_on_c, 0, 55, 100
2, 11888, Note_on_c, 0, 59, 100
2, 11888, Note_on_c, 0, 69, 100
2, 11913, Note_on_c, 0, 62, 100
2, 11913, Note_on_c, 0, 71, 100
2, 11917, Note_on_c, 0, 50, 0
2, 11917, Note_on_c, 0, 55, 0
2, 11917, Note_on_c, 0, 59, 0
2, 11920, Note_on_c, 0, 69, 0
2, 11938, Note_on_c, 0, 38, 100
2, 11959, Note_on_c, 0, 62, 0
2, 11959, Note_on_c, 0, 71, 0
2, 11963, Note_on_c, 0, 67, 100
2, 11984, Note_on_c, 0, 38, 0
2, 11988, Note_on_c, 0, 50, 100
2, 11988, Note_on_c, 0, 55, 100
2, 11988, Note_on_c, 0, 59, 100
2, 11988, Note_on_c, 0, 62, 100
2, 11988, Note_on_c, 0, 71, 100
2, 11995, Note_on_c, 0, 67, 0
2, 12017, Note_on_c, 0, 50, 0
2, 12017, Note_on_c, 0, 55, 0
2, 12017, Note_on_c, 0, 59, 0
2, 12038, Note_on_c, 0, 43, 100
2, 12038, Note_on_c, 0, 55, 100
2, 12063, Note_on_c, 0, 67, 100
2, 12063, Note_on_c, 0, 74, 100
2, 12067, Note_on_c, 0, 62, 0
2, 12067, Note_on_c, 0, 71, 0
2, 12084, Note_on_c, 0, 43, 0
2, 12084, Note_on_c, 0, 55, 0
2, 12088, Note_on_c, 0, 44, 100
2, 12088, Note_on_c, 0, 56, 100
2, 12109, Note_on_c, 0, 67, 0
2, 12109, Note_on_c, 0, 74, 0
2, 12113, Note_on_c, 0, 71, 100
2, 12127, Note_on_c, 0, 44, 0
2, 12127, Note_on_c, 0, 56, 0
2, 12138, Note_on_c, 0, 45, 100
2, 12138, Note_on_c, 0, 57, 100
2, 12138, Note_on_c, 0, 66, 100
2, 12138, Note_on_c, 0, 74, 100
2, 12145, Note_on_c, 0, 71, 0
2, 12184, Note_on_c, 0, 45, 0
2, 12184, Note_on_c, 0, 57, 0
2, 12184, Note_on_c, 0, 66, 0
2, 12184, Note_on_c, 0, 74, 0
2, 12188, Note_on_c, 0, 46, 100
2, 12188, Note_on_c, 0, 58, 100
2, 12188, Note_on_c, 0, 65, 100
2, 12188, Note_on_c, 0, 71, 100
2, 12188, Note_on_c, 0, 74, 100
2, 12227, Note_on_c, 0, 46, 0
2, 12227, Note_on_c, 0, 58, 0
2, 12234, Note_on_c, 0, 65, 0
2, 12234, Note_on_c, 0, 71, 0
2, 12234, Note_on_c, 0, 74, 0
2, 12238, Note_on_c, 0, 48, 100
2, 12263, Note_on_c, 0, 67, 100
2, 12263, Note_on_c, 0, 76, 100
2, 12284, Note_on_c, 0, 48, 0
2, 12288, Note_on_c, 0, 52, 100
2, 12288, Note_on_c, 0, 55, 100
2, 12288, Note_on_c, 0, 60, 100
2, 12309, Note_on_c, 0, 67, 0
2, 12309, Note_on_c, 0, 76, 0
2, 12313, Note_on_c, 0, 72, 100
2, 12317, Note_on_c, 0, 52, 0
2, 12317, Note_on_c, 0, 55, 0
2, 12317, Note_on_c, 0, 60, 0
2, 12338, Note_on_c, 0, 48, 100
2, 12338, Note_on_c, 0, 67, 100
2, 12338, Note_on_c, 0, 76, 100
2, 12345, Note_on_c, 0, 72, 0
2, 12384, Note_on_c, 0, 48, 0
2, 12384, Note_on_c, 0, 67, 0
2, 12388, Note_on_c, 0, 49, 100
2, 12388, Note_on_c, 0, 55, 100
2, 12388, Note_on_c, 0, 58, 100
2, 12388, Note_on_c, 0, 67, 100
2, 12388, Note_on_c, 0, 75, 100
2, 12389, Note_on_c, 0, 76, 0
2, 12417, Note_on_c, 0, 49, 0
2, 12417, Note_on_c, 0, 55, 0
2, 12417, Note_on_c, 0, 58, 0
2, 12434, Note_on_c, 0, 67, 0
2, 12434, Note_on_c, 0, 75, 0
2, 12438, Note_on_c, 0, 50, 100
2, 12463, Note_on_c, 0, 67, 100
2, 12463, Note_on_c, 0, 74, 100
2, 12484, Note_on_c, 0, 50, 0
2, 12488, Note_on_c, 0, 55, 100
2, 12488, Note_on_c, 0, 59, 100
2, 12513, Note_on_c, 0, 71, 100
2, 12514, Note_on_c, 0, 67, 0
2, 12514, Note_on_c, 0, 74, 0
2, 12517, Note_on_c, 0, 55, 0
2, 12517, Note_on_c, 0, 59, 0
2, 12538, Note_on_c, 0, 52, 100
2, 12538, Note_on_c, 0, 76, 100
2, 12539, Note_on_c, 0, 71, 0
2, 12563, Note_on_c, 0, 74, 100
2, 12570, Note_on_c, 0, 76, 0
2, 12584, Note_on_c, 0, 52, 0
2, 12588, Note_on_c, 0, 56, 100
2, 12588, Note_on_c, 0, 62, 100
2, 12588, Note_on_c, 0, 71, 100
2, 12589, Note_on_c, 0, 74, 0
2, 12613, Note_on_c, 0, 68, 100
2, 12617, Note_on_c, 0, 56, 0
2, 12617, Note_on_c, 0, 62, 0
2, 12620, Note_on_c, 0, 71, 0
2, 12636, Note_on_c, 0, 68, 0
2, 12638, Note_on_c, 0, 45, 100
2, 12638, Note_on_c, 0, 61, 100
2, 12663, Note_on_c, 0, 67, 100
2, 12684, Note_on_c, 0, 45, 0
2, 12688, Note_on_c, 0, 55, 100
2, 12688, Note_on_c, 0, 57, 100
2, 12688, Note_on_c, 0, 69, 100
2, 12689, Note_on_c, 0, 67, 0
2, 12707, Note_on_c, 0, 61, 0
2, 12713, Note_on_c, 0, 61, 100
2, 12713, Note_on_c, 0, 71, 100
2, 12717, Note_on_c, 0, 55, 0
2, 12717, Note_on_c, 0, 57, 0
2, 12720, Note_on_c, 0, 69, 0
2, 12738, Note_on_c, 0, 38, 100
2, 12759, Note_on_c, 0, 71, 0
2, 12763, Note_on_c, 0, 66, 100
2, 12771, Note_on_c, 0, 61, 0
2, 12784, Note_on_c, 0, 38, 0
2, 12788, Note_on_c, 0, 50, 100
2, 12788, Note_on_c, 0, 60, 100
2, 12788, Note_on_c, 0, 69, 100
2, 12795, Note_on_c, 0, 66, 0
2, 12829, Note_on_c, 0, 50, 0
2, 12834, Note_on_c, 0, 60, 0
2, 12834, Note_on_c, 0, 69, 0
2, 12838, Note_on_c, 0, 43, 100
2, 12838, Note_on_c, 0, 50, 100
2, 12838, Note_on_c, 0, 59, 100
2, 12838, Note_on_c, 0, 67, 100
2, 12884, Note_on_c, 0, 43, 0
2, 12884, Note_on_c, 0, 50, 0
2, 12889, Note_on_c, 0, 59, 0
2, 12889, Note_on_c, 0, 67, 0
2, 12938, Note_on_c, 0, 31, 100
2, 12938, Note_on_c, 0, 43, 100
2, 12938, Note_on_c, 0, 67, 100
2, 12938, Note_on_c, 0, 71, 100
2, 12938, Note_on_c, 0, 74, 100
2, 12938, Note_on_c, 0, 79, 100
2, 12984, Note_on_c, 0, 31, 0
2, 12984, Note_on_c, 0, 43, 0
2, 12989, Note_on_c, 0, 67, 0
2, 12989, Note_on_c, 0, 71, 0
2, 12989, Note_on_c, 0, 74, 0
2, 12989, Note_on_c, 0, 79, 0
2, 13038, Note_on_c, 0, 43, 100
2, 13063, Note_on_c, 0, 74, 100
2, 13084, Note_on_c, 0, 43, 0
2, 13088, Note_on_c, 0, 50, 100
2, 13088, Note_on_c, 0, 55, 100
2, 13088, Note_on_c, 0, 59, 100
2, 13088, Note_on_c, 0, 67, 100
2, 13088, Note_on_c, 0, 79, 100
2, 13089, Note_on_c, 0, 74, 0
2, 13113, Note_on_c, 0, 74, 100
2, 13117, Note_on_c, 0, 50, 0
2, 13117, Note_on_c, 0, 55, 0
2, 13117, Note_on_c, 0, 59, 0
2, 13120, Note_on_c, 0, 67, 0
2, 13120, Note_on_c, 0, 79, 0
2, 13138, Note_on_c, 0, 48, 100
2, 13138, Note_on_c, 0, 76, 100
2, 13139, Note_on_c, 0, 74, 0
2, 13163, Note_on_c, 0, 67, 100
2, 13163, Note_on_c, 0, 79, 100
2, 13170, Note_on_c, 0, 76, 0
2, 13184, Note_on_c, 0, 48, 0
2, 13188, Note_on_c, 0, 52, 100
2, 13188, Note_on_c, 0, 55, 100
2, 13188, Note_on_c, 0, 60, 100
2, 13209, Note_on_c, 0, 67, 0
2, 13209, Note_on_c, 0, 79, 0
2, 13213, Note_on_c, 0, 76, 100
2, 13217, Note_on_c, 0, 52, 0
2, 13217, Note_on_c, 0, 55, 0
2, 13217, Note_on_c, 0, 60, 0
2, 13238, Note_on_c, 0, 43, 100
2, 13238, Note_on_c, 0, 67, 100
2, 13238, Note_on_c, 0, 79, 100
2, 13239, Note_on_c, 0, 76, 0
2, 13263, Note_on_c, 0, 74, 100
2, 13270, Note_on_c, 0, 67, 0
2, 13270, Note_on_c, 0, 79, 0
2, 13284, Note_on_c, 0, 43, 0
2, 13288, Note_on_c, 0, 50, 100
2, 13288, Note_on_c, 0, 55, 100
2, 13288, Note_on_c, 0, 59, 100
2, 13288, Note_on_c, 0, 76, 100
2, 13289, Note_on_c, 0, 74, 0
2, 13313, Note_on_c, 0, 67, 100
2, 13313, Note_on_c, 0, 79, 100
2, 13317, Note_on_c, 0, 50, 0
2, 13317, Note_on_c, 0, 55, 0
2, 13317, Note_on_c, 0, 59, 0
2, 13320, Note_on_c, 0, 76, 0
2, 13338, Note_on_c, 0, 47, 100
2, 13338, Note_on_c, 0, 59, 100
2, 13359, Note_on_c, 0, 67, 0
2, 13359, Note_on_c, 0, 79, 0
2, 13363, Note_on_c, 0, 74, 100
2, 13384, Note_on_c, 0, 47, 0
2, 13384, Note_on_c, 0, 59, 0
2, 13388, Note_on_c, 0, 46, 100
2, 13388, Note_on_c, 0, 58, 100
2, 13388, Note_on_c, 0, 67, 100
2, 13388, Note_on_c, 0, 79, 100
2, 13395, Note_on_c, 0, 74, 0
2, 13434, Note_on_c, 0, 46, 0
2, 13434, Note_on_c, 0, 58, 0
2, 13434, Note_on_c, 0, 67, 0
2, 13434, Note_on_c, 0, 79, 0
2, 13438, Note_on_c, 0, 45, 100
2, 13438, Note_on_c, 0, 57, 100
2, 13463, Note_on_c, 0, 72, 100
2, 13484, Note_on_c, 0, 45, 0
2, 13484, Note_on_c, 0, 57, 0
2, 13488, Note_on_c, 0, 52, 100
2, 13488, Note_on_c, 0, 57, 100
2, 13488, Note_on_c, 0, 60, 100
2, 13488, Note_on_c, 0, 64, 100
2, 13488, Note_on_c, 0, 76, 100
2, 13489, Note_on_c, 0, 72, 0
2, 13513, Note_on_c, 0, 69, 100
2, 13517, Note_on_c, 0, 52, 0
2, 13517, Note_on_c, 0, 57, 0
2, 13517, Note_on_c, 0, 60, 0
2, 13520, Note_on_c, 0, 64, 0
2, 13520, Note_on_c, 0, 76, 0
2, 13538, Note_on_c, 0, 47, 100
2, 13538, Note_on_c, 0, 71, 100
2, 13539, Note_on_c, 0, 69, 0
2, 13563, Note_on_c, 0, 64, 100
2, 13563, Note_on_c, 0, 76, 100
2, 13570, Note_on_c, 0, 71, 0
2, 13584, Note_on_c, 0, 47, 0
2, 13588, Note_on_c, 0, 52, 100
2, 13588, Note_on_c, 0, 56, 100
2, 13588, Note_on_c, 0, 62, 100
2, 13609, Note_on_c, 0, 64, 0
2, 13609, Note_on_c, 0, 76, 0
2, 13613, Note_on_c, 0, 71, 100
2, 13617, Note_on_c, 0, 52, 0
2, 13617, Note_on_c, 0, 56, 0
2, 13617, Note_on_c, 0, 62, 0
2, 13638, Note_on_c, 0, 48, 100
2, 13638, Note_on_c, 0, 64, 100
2, 13638, Note_on_c, 0, 76, 100
2, 13639, Note_on_c, 0, 71, 0
2, 13663, Note_on_c, 0, 69, 100
2, 13670, Note_on_c, 0, 64, 0
2, 13670, Note_on_c, 0, 76, 0
2, 13684, Note_on_c, 0, 48, 0
2, 13688, Note_on_c, 0, 52, 100
2, 13688, Note_on_c, 0, 57, 100
2, 13688, Note_on_c, 0, 60, 100
2, 13688, Note_on_c, 0, 72, 100
2, 13689, Note_on_c, 0, 69, 0
2, 13713, Note_on_c, 0, 64, 100
2, 13713, Note_on_c, 0, 76, 100
2, 13717, Note_on_c, 0, 52, 0
2, 13717, Note_on_c, 0, 57, 0
2, 13717, Note_on_c, 0, 60, 0
2, 13720, Note_on_c, 0, 72, 0
2, 13738, Note_on_c, 0, 45, 100
2, 13738, Note_on_c, 0, 57, 100
2, 13759, Note_on_c, 0, 64, 0
2, 13759, Note_on_c, 0, 76, 0
2, 13763, Note_on_c, 0, 69, 100
2, 13784, Note_on_c, 0, 45, 0
2, 13784, Note_on_c, 0, 57, 0
2, 13788, Note_on_c, 0, 46, 100
2, 13788, Note_on_c, 0, 58, 100
2, 13788, Note_on_c, 0, 61, 100
2, 13788, Note_on_c, 0, 67, 100
2, 13788, Note_on_c, 0, 75, 100
2, 13795, Note_on_c, 0, 69, 0
2, 13834, Note_on_c, 0, 46, 0
2, 13834, Note_on_c, 0, 58, 0
2, 13834, Note_on_c, 0, 61, 0
2, 13834, Note_on_c, 0, 67, 0
2, 13834, Note_on_c, 0, 75, 0
2, 13838, Note_on_c, 0, 47, 100
2, 13838, Note_on_c, 0, 59, 100
2, 13838, Note_on_c, 0, 62, 100
2, 13838, Note_on_c, 0, 74, 100
2, 13863, Note_on_c, 0, 67, 100
2, 13870, Note_on_c, 0, 62, 0
2, 13870, Note_on_c, 0, 74, 0
2, 13884, Note_on_c, 0, 47, 0
2, 13884, Note_on_c, 0, 59, 0
2, 13888, Note_on_c, 0, 50, 100
2, 13888, Note_on_c, 0, 55, 100
2, 13888, Note_on_c, 0, 59, 100
2, 13888, Note_on_c, 0, 71, 100
2, 13889, Note_on_c, 0, 67, 0
2, 13913, Note_on_c, 0, 64, 100
2, 13913, Note_on_c, 0, 76, 100
2, 13917, Note_on_c, 0, 50, 0
2, 13917, Note_on_c, 0, 55, 0
2, 13917, Note_on_c, 0, 59, 0
2, 13920, Note_on_c, 0, 71, 0
2, 13938, Note_on_c, 0, 40, 100
2, 13963, Note_on_c, 0, 71, 100
2, 13971, Note_on_c, 0, 76, 0
2, 13984, Note_on_c, 0, 40, 0
2, 13988, Note_on_c, 0, 52, 100
2, 13988, Note_on_c, 0, 56, 100
2, 13988, Note_on_c, 0, 62, 100
2, 13988, Note_on_c, 0, 68, 100
2, 13993, Note_on_c, 0, 71, 0
2, 14008, Note_on_c, 0, 64, 0
2, 14013, Note_on_c, 0, 64, 100
2, 14017, Note_on_c, 0, 52, 0
2, 14017, Note_on_c, 0, 56, 0
2, 14017, Note_on_c, 0, 62, 0
2, 14025, Note_on_c, 0, 68, 0
2, 14038, Note_on_c, 0, 45, 100
2, 14038, Note_on_c, 0, 61, 100
2, 14039, Note_on_c, 0, 64, 0
2, 14063, Note_on_c, 0, 67, 100
2, 14084, Note_on_c, 0, 45, 0
2, 14088, Note_on_c, 0, 52, 100
2, 14088, Note_on_c, 0, 55, 100
2, 14088, Note_on_c, 0, 57, 100
2, 14088, Note_on_c, 0, 69, 100
2, 14093, Note_on_c, 0, 67, 0
2, 14107, Note_on_c, 0, 61, 0
2, 14113, Note_on_c, 0, 61, 100
2, 14113, Note_on_c, 0, 67, 100
2, 14113, Note_on_c, 0, 71, 100
2, 14117, Note_on_c, 0, 52, 0
2, 14117, Note_on_c, 0, 55, 0
2, 14117, Note_on_c, 0, 57, 0
2, 14125, Note_on_c, 0, 69, 0
2, 14138, Note_on_c, 0, 45, 100
2, 14159, Note_on_c, 0, 61, 0
2, 14159, Note_on_c, 0, 67, 0
2, 14159, Note_on_c, 0, 71, 0
2, 14163, Note_on_c, 0, 70, 100
2, 14184, Note_on_c, 0, 45, 0
2, 14188, Note_on_c, 0, 52, 100
2, 14188, Note_on_c, 0, 55, 100
2, 14188, Note_on_c, 0, 57, 100
2, 14188, Note_on_c, 0, 61, 100
2, 14188, Note_on_c, 0, 67, 100
2, 14188, Note_on_c, 0, 71, 100
2, 14195, Note_on_c, 0, 70, 0
2, 14217, Note_on_c, 0, 52, 0
2, 14217, Note_on_c, 0, 55, 0
2, 14217, Note_on_c, 0, 57, 0
2, 14234, Note_on_c, 0, 61, 0
2, 14234, Note_on_c, 0, 67, 0
2, 14234, Note_on_c, 0, 71, 0
2, 14238, Note_on_c, 0, 38, 100
2, 14238, Note_on_c, 0, 50, 100
2, 14263, Note_on_c, 0, 60, 100
2, 14263, Note_on_c, 0, 66, 100
2, 14264, Note_on_c, 0, 38, 0
2, 14264, Note_on_c, 0, 50, 0
2, 14288, Note_on_c, 0, 39, 100
2, 14288, Note_on_c, 0, 51, 100
2, 14313, Note_on_c, 0, 72, 100
2, 14325, Note_on_c, 0, 60, 0
2, 14325, Note_on_c, 0, 66, 0
2, 14334, Note_on_c, 0, 39, 0
2, 14334, Note_on_c, 0, 51, 0
2, 14336, Note_on_c, 0, 72, 0
2, 14338, Note_on_c, 0, 38, 100
2, 14338, Note_on_c, 0, 50, 100
2, 14363, Note_on_c, 0, 60, 100
2, 14363, Note_on_c, 0, 66, 100
2, 14364, Note_on_c, 0, 38, 0
2, 14364, Note_on_c, 0, 50, 0
2, 14388, Note_on_c, 0, 39, 100
2, 14388, Note_on_c, 0, 51, 100
2, 14413, Note_on_c, 0, 72, 100
2, 14425, Note_on_c, 0, 60, 0
2, 14425, Note_on_c, 0, 66, 0
2, 14434, Note_on_c, 0, 39, 0
2, 14434, Note_on_c, 0, 51, 0
2, 14436, Note_on_c, 0, 72, 0
2, 14438, Note_on_c, 0, 38, 100
2, 14438, Note_on_c, 0, 50, 100
2, 14463, Note_on_c, 0, 62, 100
2, 14463, Note_on_c, 0, 74, 100
2, 14465, Note_on_c, 0, 38, 0
2, 14465, Note_on_c, 0, 50, 0
2, 14488, Note_on_c, 0, 39, 100
2, 14488, Note_on_c, 0, 51, 100
2, 14489, Note_on_c, 0, 62, 0
2, 14489, Note_on_c, 0, 74, 0
2, 14511, Note_on_c, 0, 39, 0
2, 14511, Note_on_c, 0, 51, 0
2, 14513, Note_on_c, 0, 63, 100
2, 14513, Note_on_c, 0, 75, 100
2, 14536, Note_on_c, 0, 63, 0
2, 14536, Note_on_c, 0, 75, 0
2, 14538, Note_on_c, 0, 40, 100
2, 14538, Note_on_c, 0, 52, 100
2, 14563, Note_on_c, 0, 64, 100
2, 14563, Note_on_c, 0, 76, 100
2, 14565, Note_on_c, 0, 40, 0
2, 14565, Note_on_c, 0, 52, 0
2, 14588, Note_on_c, 0, 42, 100
2, 14588, Note_on_c, 0, 54, 100
2, 14589, Note_on_c, 0, 64, 0
2, 14589, Note_on_c, 0, 76, 0
2, 14611, Note_on_c, 0, 42, 0
2, 14611, Note_on_c, 0, 54, 0
2, 14613, Note_on_c, 0, 66, 100
2, 14613, Note_on_c, 0, 78, 100
2, 14636, Note_on_c, 0, 66, 0
2, 14636, Note_on_c, 0, 78, 0
2, 14638, Note_on_c, 0, 43, 100
2, 14663, Note_on_c, 0, 74, 100
2, 14684, Note_on_c, 0, 43, 0
2, 14688, Note_on_c, 0, 50, 100
2, 14688, Note_on_c, 0, 55, 100
2, 14688, Note_on_c, 0, 59, 100
2, 14688, Note_on_c, 0, 67, 100
2, 14688, Note_on_c, 0, 79, 100
2, 14689, Note_on_c, 0, 74, 0
2, 14713, Note_on_c, 0, 74, 100
2, 14717, Note_on_c, 0, 50, 0
2, 14717, Note_on_c, 0, 55, 0
2, 14717, Note_on_c, 0, 59, 0
2, 14720, Note_on_c, 0, 67, 0
2, 14720, Note_on_c, 0, 79, 0
2, 14738, Note_on_c, 0, 48, 100
2, 14738, Note_on_c, 0, 76, 100
2, 14739, Note_on_c, 0, 74, 0
2, 14763, Note_on_c, 0, 67, 100
2, 14763, Note_on_c, 0, 79, 100
2, 14770, Note_on_c, 0, 76, 0
2, 14784, Note_on_c, 0, 48, 0
2, 14788, Note_on_c, 0, 52, 100
2, 14788, Note_on_c, 0, 55, 100
2, 14788, Note_on_c, 0, 60, 100
2, 14809, Note_on_c, 0, 67, 0
2, 14809, Note_on_c, 0, 79, 0
2, 14813, Note_on_c, 0, 76, 100
2, 14817, Note_on_c, 0, 52, 0
2, 14817, Note_on_c, 0, 55, 0
2, 14817, Note_on_c, 0, 60, 0
2, 14838, Note_on_c, 0, 43, 100
2, 14838, Note_on_c, 0, 67, 100
2, 14838, Note_on_c, 0, 79, 100
2, 14839, Note_on_c, 0, 76, 0
2, 14863, Note_on_c, 0, 74, 100
2, 14870, Note_on_c, 0, 67, 0
2, 14870, Note_on_c, 0, 79, 0
2, 14884, Note_on_c, 0, 43, 0
2, 14888, Note_on_c, 0, 50, 100
2, 14888, Note_on_c, 0, 55, 100
2, 14888, Note_on_c, 0, 59, 100
2, 14888, Note_on_c, 0, 76, 100
2, 14889, Note_on_c, 0, 74, 0
2, 14913, Note_on_c, 0, 67, 100
2, 14913, Note_on_c, 0, 79, 100
2, 14917, Note_on_c, 0, 50, 0
2, 14917, Note_on_c, 0, 55, 0
2, 14917, Note_on_c, 0, 59, 0
2, 14920, Note_on_c, 0, 76, 0
2, 14938, Note_on_c, 0, 47, 100
2, 14938, Note_on_c, 0, 59, 100
2, 14959, Note_on_c, 0, 67, 0
2, 14959, Note_on_c, 0, 79, 0
2, 14963, Note_on_c, 0, 74, 100
2, 14984, Note_on_c, 0, 47, 0
2, 14984, Note_on_c, 0, 59, 0
2, 14988, Note_on_c, 0, 46, 100
2, 14988, Note_on_c, 0, 58, 100
2, 14988, Note_on_c, 0, 67, 100
2, 14988, Note_on_c, 0, 79, 100
2, 14995, Note_on_c, 0, 74, 0
2, 15034, Note_on_c, 0, 46, 0
2, 15034, Note_on_c, 0, 58, 0
2, 15034, Note_on_c, 0, 67, 0
2, 15034, Note_on_c, 0, 79, 0
2, 15038, Note_on_c, 0, 45, 100
2, 15038, Note_on_c, 0, 57, 100
2, 15063, Note_on_c, 0, 72, 100
2, 15084, Note_on_c, 0, 45, 0
2, 15084, Note_on_c, 0, 57, 0
2, 15088, Note_on_c, 0, 52, 100
2, 15088, Note_on_c, 0, 57, 100
2, 15088, Note_on_c, 0, 60, 100
2, 15088, Note_on_c, 0, 64, 100
2, 15088, Note_on_c, 0, 76, 100
2, 15089, Note_on_c, 0, 72, 0
2, 15113, Note_on_c, 0, 69, 100
2, 15117, Note_on_c, 0, 52, 0
2, 15117, Note_on_c, 0, 57, 0
2, 15117, Note_on_c, 0, 60, 0
2, 15120, Note_on_c, 0, 64, 0
2, 15120, Note_on_c, 0, 76, 0
2, 15138, Note_on_c, 0, 47, 100
2, 15138, Note_on_c, 0, 71, 100
2, 15139, Note_on_c, 0, 69, 0
2, 15163, Note_on_c, 0, 64, 100
2, 15163, Note_on_c, 0, 76, 100
2, 15170, Note_on_c, 0, 71, 0
2, 15184, Note_on_c, 0, 47, 0
2, 15188, Note_on_c, 0, 52, 100
2, 15188, Note_on_c, 0, 56, 100
2, 15188, Note_on_c, 0, 62, 100
2, 15209, Note_on_c, 0, 64, 0
2, 15209, Note_on_c, 0, 76, 0
2, 15213, Note_on_c, 0, 71, 100
2, 15217, Note_on_c, 0, 52, 0
2, 15217, Note_on_c, 0, 56, 0
2, 15217, Note_on_c, 0, 62, 0
2, 15238, Note_on_c, 0, 48, 100
2, 15238, Note_on_c, 0, 64, 100
2, 15238, Note_on_c, 0, 76, 100
2, 15239, Note_on_c, 0, 71, 0
2, 15263, Note_on_c, 0, 69, 100
2, 15270, Note_on_c, 0, 64, 0
2, 15270, Note_on_c, 0, 76, 0
2, 15284, Note_on_c, 0, 48, 0
2, 15288, Note_on_c, 0, 52, 100
2, 15288, Note_on_c, 0, 57, 100
2, 15288, Note_on_c, 0, 60, 100
2, 15288, Note_on_c, 0, 72, 100
2, 15289, Note_on_c, 0, 69, 0
2, 15313, Note_on_c, 0, 64, 100
2, 15313, Note_on_c, 0, 76, 100
2, 15317, Note_on_c, 0, 52, 0
2, 15317, Note_on_c, 0, 57, 0
2, 15317, Note_on_c, 0, 60, 0
2, 15320, Note_on_c, 0, 72, 0
2, 15338, Note_on_c, 0, 45, 100
2, 15338, Note_on_c, 0, 57, 100
2, 15359, Note_on_c, 0, 64, 0
2, 15359, Note_on_c, 0, 76, 0
2, 15363, Note_on_c, 0, 69, 100
2, 15384, Note_on_c, 0, 45, 0
2, 15384, Note_on_c, 0, 57, 0
2, 15388, Note_on_c, 0, 46, 100
2, 15388, Note_on_c, 0, 58, 100
2, 15388, Note_on_c, 0, 61, 100
2, 15388, Note_on_c, 0, 67, 100
2, 15388, Note_on_c, 0, 75, 100
2, 15395, Note_on_c, 0, 69, 0
2, 15434, Note_on_c, 0, 46, 0
2, 15434, Note_on_c, 0, 58, 0
2, 15434, Note_on_c, 0, 61, 0
2, 15434, Note_on_c, 0, 67, 0
2, 15434, Note_on_c, 0, 75, 0
2, 15438, Note_on_c, 0, 47, 100
2, 15438, Note_on_c, 0, 59, 100
2, 15438, Note_on_c, 0, 62, 100
2, 15438, Note_on_c, 0, 74, 100
2, 15463, Note_on_c, 0, 67, 100
2, 15470, Note_on_c, 0, 62, 0
2, 15470, Note_on_c, 0, 74, 0
2, 15484, Note_on_c, 0, 47, 0
2, 15484, Note_on_c, 0, 59, 0
2, 15488, Note_on_c, 0, 50, 100
2, 15488, Note_on_c, 0, 55, 100
2, 15488, Note_on_c, 0, 59, 100
2, 15488, Note_on_c, 0, 71, 100
2, 15489, Note_on_c, 0, 67, 0
2, 15513, Note_on_c, 0, 64, 100
2, 15513, Note_on_c, 0, 76, 100
2, 15520, Note_on_c, 0, 71, 0
2, 15534, Note_on_c, 0, 50, 0
2, 15534, Note_on_c, 0, 55, 0
2, 15534, Note_on_c, 0, 59, 0
2, 15538, Note_on_c, 0, 40, 100
2, 15563, Note_on_c, 0, 71, 100
2, 15571, Note_on_c, 0, 76, 0
2, 15584, Note_on_c, 0, 40, 0
2, 15588, Note_on_c, 0, 52, 100
2, 15588, Note_on_c, 0, 56, 100
2, 15588, Note_on_c, 0, 62, 100
2, 15588, Note_on_c, 0, 68, 100
2, 15589, Note_on_c, 0, 71, 0
2, 15608, Note_on_c, 0, 64, 0
2, 15613, Note_on_c, 0, 64, 100
2, 15617, Note_on_c, 0, 52, 0
2, 15617, Note_on_c, 0, 56, 0
2, 15617, Note_on_c, 0, 62, 0
2, 15620, Note_on_c, 0, 68, 0
2, 15638, Note_on_c, 0, 45, 100
2, 15638, Note_on_c, 0, 61, 100
2, 15639, Note_on_c, 0, 64, 0
2, 15663, Note_on_c, 0, 67, 100
2, 15684, Note_on_c, 0, 45, 0
2, 15688, Note_on_c, 0, 52, 100
2, 15688, Note_on_c, 0, 55, 100
2, 15688, Note_on_c, 0, 69, 100
2, 15689, Note_on_c, 0, 67, 0
2, 15707, Note_on_c, 0, 61, 0
2, 15713, Note_on_c, 0, 61, 100
2, 15713, Note_on_c, 0, 67, 100
2, 15713, Note_on_c, 0, 71, 100
2, 15717, Note_on_c, 0, 52, 0
2, 15717, Note_on_c, 0, 55, 0
2, 15720, Note_on_c, 0, 69, 0
2, 15738, Note_on_c, 0, 45, 100
2, 15759, Note_on_c, 0, 61, 0
2, 15759, Note_on_c, 0, 67, 0
2, 15759, Note_on_c, 0, 71, 0
2, 15763, Note_on_c, 0, 67, 100
2, 15784, Note_on_c, 0, 45, 0
2, 15788, Note_on_c, 0, 50, 100
2, 15788, Note_on_c, 0, 54, 100
2, 15788, Note_on_c, 0, 60, 100
2, 15788, Note_on_c, 0, 66, 100
2, 15788, Note_on_c, 0, 69, 100
2, 15795, Note_on_c, 0, 67, 0
2, 15834, Note_on_c, 0, 50, 0
2, 15834, Note_on_c, 0, 60, 0
2, 15834, Note_on_c, 0, 66, 0
2, 15834, Note_on_c, 0, 69, 0
2, 15838, Note_on_c, 0, 43, 100
2, 15838, Note_on_c, 0, 50, 100
2, 15838, Note_on_c, 0, 55, 100
2, 15838, Note_on_c, 0, 59, 100
2, 15838, Note_on_c, 0, 62, 100
2, 15838, Note_on_c, 0, 67, 100
2, 15841, Note_on_c, 0, 54, 0
2, 15884, Note_on_c, 0, 43, 0
2, 15884, Note_on_c, 0, 50, 0
2, 15884, Note_on_c, 0, 55, 0
2, 15884, Note_on_c, 0, 59, 0
2, 15884, Note_on_c, 0, 62, 0
2, 15884, Note_on_c, 0, 67, 0
2, 15888, Note_on_c, 0, 50, 100
2, 15888, Note_on_c, 0, 62, 100
2, 15913, Note_on_c, 0, 52, 100
2, 15913, Note_on_c, 0, 64, 100
2, 15919, Note_on_c, 0, 50, 0
2, 15920, Note_on_c, 0, 62, 0
2, 15959, Note_on_c, 0, 64, 0
2, 15963, Note_on_c, 0, 62, 100
2, 15986, Note_on_c, 0, 62, 0
2, 15988, Note_on_c, 0, 38, 100
2, 15988, Note_on_c, 0, 50, 100
2, 15988, Note_on_c, 0, 60, 100
2, 15988, Note_on_c, 0, 62, 100
2, 15988, Note_on_c, 0, 66, 100
2, 15994, Note_on_c, 0, 52, 0
2, 16034, Note_on_c, 0, 50, 0
2, 16034, Note_on_c, 0, 62, 0
2, 16038, Note_on_c, 0, 43, 100
2, 16038, Note_on_c, 0, 50, 100
2, 16038, Note_on_c, 0, 59, 100
2, 16038, Note_on_c, 0, 62, 100
2, 16038, Note_on_c, 0, 67, 100
2, 16043, Note_on_c, 0, 38, 0
2, 16045, Note_on_c, 0, 60, 0
2, 16045, Note_on_c, 0, 66, 0
2, 16084, Note_on_c, 0, 43, 0
2, 16084, Note_on_c, 0, 50, 0
2, 16084, Note_on_c, 0, 59, 0
2, 16084, Note_on_c, 0, 62, 0
2, 16084, Note_on_c, 0, 67, 0
2, 16138, Note_on_c, 0, 31, 100
2, 16138, Note_on_c, 0, 43, 100
2, 16138, Note_on_c, 0, 67, 100
2, 16138, Note_on_c, 0, 71, 100
2, 16138, Note_on_c, 0, 74, 100
2, 16138, Note_on_c, 0, 79, 100
2, 16184, Note_on_c, 0, 31, 0
2, 16184, Note_on_c, 0, 43, 0
2, 16194, Note_on_c, 0, 67, 0
2, 16194, Note_on_c, 0, 71, 0
2, 16194, Note_on_c, 0, 74, 0
2, 16194, Note_on_c, 0, 79, 0
2, 16238, Note_on_c, 0, 48, 100
2, 16263, Note_on_c, 0, 72, 100
2, 16263, Note_on_c, 0, 76, 100
2, 16284, Note_on_c, 0, 48, 0
2, 16288, Note_on_c, 0, 52, 100
2, 16288, Note_on_c, 0, 55, 100
2, 16288, Note_on_c, 0, 60, 100
2, 16288, Note_on_c, 0, 67, 100
2, 16288, Note_on_c, 0, 79, 100
2, 16289, Note_on_c, 0, 72, 0
2, 16289, Note_on_c, 0, 76, 0
2, 16313, Note_on_c, 0, 72, 100
2, 16313, Note_on_c, 0, 76, 100
2, 16317, Note_on_c, 0, 52, 0
2, 16317, Note_on_c, 0, 55, 0
2, 16317, Note_on_c, 0, 60, 0
2, 16320, Note_on_c, 0, 67, 0
2, 16320, Note_on_c, 0, 79, 0
2, 16338, Note_on_c, 0, 43, 100
2, 16359, Note_on_c, 0, 72, 0
2, 16359, Note_on_c, 0, 76, 0
2, 16363, Note_on_c, 0, 72, 100
2, 16363, Note_on_c, 0, 76, 100
2, 16363, Note_on_c, 0, 79, 100
2, 16363, Note_on_c, 0, 84, 100
2, 16384, Note_on_c, 0, 43, 0
2, 16388, Note_on_c, 0, 52, 100
2, 16388, Note_on_c, 0, 55, 100
2, 16388, Note_on_c, 0, 60, 100
2, 16409, Note_on_c, 0, 72, 0
2, 16409, Note_on_c, 0, 76, 0
2, 16409, Note_on_c, 0, 79, 0
2, 16409, Note_on_c, 0, 84, 0
2, 16413, Note_on_c, 0, 71, 100
2, 16417, Note_on_c, 0, 52, 0
2, 16417, Note_on_c, 0, 55, 0
2, 16417, Note_on_c, 0, 60, 0
2, 16438, Note_on_c, 0, 48, 100
2, 16438, Note_on_c, 0, 76, 100
2, 16438, Note_on_c, 0, 79, 100
2, 16438, Note_on_c, 0, 83, 100
2, 16445, Note_on_c, 0, 71, 0
2, 16484, Note_on_c, 0, 48, 0
2, 16484, Note_on_c, 0, 76, 0
2, 16484, Note_on_c, 0, 79, 0
2, 16484, Note_on_c, 0, 83, 0
2, 16488, Note_on_c, 0, 52, 100
2, 16488, Note_on_c, 0, 55, 100
2, 16488, Note_on_c, 0, 60, 100
2, 16488, Note_on_c, 0, 69, 100
2, 16513, Note_on_c, 0, 76, 100
2, 16513, Note_on_c, 0, 79, 100
2, 16513, Note_on_c, 0, 81, 100
2, 16517, Note_on_c, 0, 52, 0
2, 16517, Note_on_c, 0, 55, 0
2, 16517, Note_on_c, 0, 60, 0
2, 16520, Note_on_c, 0, 69, 0
2, 16538, Note_on_c, 0, 43, 100
2, 16559, Note_on_c, 0, 76, 0
2, 16559, Note_on_c, 0, 79, 0
2, 16559, Note_on_c, 0, 81, 0
2, 16563, Note_on_c, 0, 67, 100
2, 16584, Note_on_c, 0, 43, 0
2, 16588, Note_on_c, 0, 52, 100
2, 16588, Note_on_c, 0, 55, 100
2, 16588, Note_on_c, 0, 60, 100
2, 16588, Note_on_c, 0, 72, 100
2, 16588, Note_on_c, 0, 76, 100
2, 16588, Note_on_c, 0, 79, 100
2, 16595, Note_on_c, 0, 67, 0
2, 16617, Note_on_c, 0, 52, 0
2, 16617, Note_on_c, 0, 55, 0
2, 16617, Note_on_c, 0, 60, 0
2, 16634, Note_on_c, 0, 72, 0
2, 16634, Note_on_c, 0, 76, 0
2, 16634, Note_on_c, 0, 79, 0
2, 16638, Note_on_c, 0, 48, 100
2, 16663, Note_on_c, 0, 67, 100
2, 16663, Note_on_c, 0, 79, 100
2, 16684, Note_on_c, 0, 48, 0
2, 16688, Note_on_c, 0, 52, 100
2, 16688, Note_on_c, 0, 55, 100
2, 16688, Note_on_c, 0, 60, 100
2, 16709, Note_on_c, 0, 67, 0
2, 16709, Note_on_c, 0, 79, 0
2, 16713, Note_on_c, 0, 72, 100
2, 16713, Note_on_c, 0, 76, 100
2, 16717, Note_on_c, 0, 52, 0
2, 16717, Note_on_c, 0, 55, 0
2, 16717, Note_on_c, 0, 60, 0
2, 16738, Note_on_c, 0, 48, 100
2, 16738, Note_on_c, 0, 67, 100
2, 16738, Note_on_c, 0, 79, 100
2, 16745, Note_on_c, 0, 72, 0
2, 16745, Note_on_c, 0, 76, 0
2, 16784, Note_on_c, 0, 48, 0
2, 16788, Note_on_c, 0, 49, 100
2, 16788, Note_on_c, 0, 69, 100
2, 16788, Note_on_c, 0, 81, 100
2, 16789, Note_on_c, 0, 67, 0
2, 16789, Note_on_c, 0, 79, 0
2, 16828, Note_on_c, 0, 49, 0
2, 16834, Note_on_c, 0, 69, 0
2, 16834, Note_on_c, 0, 81, 0
2, 16838, Note_on_c, 0, 50, 100
2, 16838, Note_on_c, 0, 71, 100
2, 16838, Note_on_c, 0, 83, 100
2, 16884, Note_on_c, 0, 50, 0
2, 16884, Note_on_c, 0, 71, 0
2, 16884, Note_on_c, 0, 83, 0
2, 16888, Note_on_c, 0, 53, 100
2, 16888, Note_on_c, 0, 55, 100
2, 16888, Note_on_c, 0, 59, 100
2, 16888, Note_on_c, 0, 74, 100
2, 16888, Note_on_c, 0, 77, 100
2, 16913, Note_on_c, 0, 71, 100
2, 16913, Note_on_c, 0, 83, 100
2, 16917, Note_on_c, 0, 53, 0
2, 16917, Note_on_c, 0, 55, 0
2, 16917, Note_on_c, 0, 59, 0
2, 16920, Note_on_c, 0, 74, 0
2, 16920, Note_on_c, 0, 77, 0
2, 16938, Note_on_c, 0, 43, 100
2, 16959, Note_on_c, 0, 71, 0
2, 16959, Note_on_c, 0, 83, 0
2, 16963, Note_on_c, 0, 74, 100
2, 16963, Note_on_c, 0, 77, 100
2, 16984, Note_on_c, 0, 43, 0
2, 16988, Note_on_c, 0, 53, 100
2, 16988, Note_on_c, 0, 55, 100
2, 16988, Note_on_c, 0, 59, 100
2, 16988, Note_on_c, 0, 71, 100
2, 16988, Note_on_c, 0, 83, 100
2, 16995, Note_on_c, 0, 74, 0
2, 16995, Note_on_c, 0, 77, 0
2, 17017, Note_on_c, 0, 53, 0
2, 17017, Note_on_c, 0, 55, 0
2, 17017, Note_on_c, 0, 59, 0
2, 17034, Note_on_c, 0, 71, 0
2, 17034, Note_on_c, 0, 83, 0
2, 17038, Note_on_c, 0, 43, 100
2, 17038, Note_on_c, 0, 55, 100
2, 17063, Note_on_c, 0, 71, 100
2, 17063, Note_on_c, 0, 74, 100
2, 17088, Note_on_c, 0, 65, 100
2, 17088, Note_on_c, 0, 77, 100
2, 17089, Note_on_c, 0, 71, 0
2, 17089, Note_on_c, 0, 74, 0
2, 17113, Note_on_c, 0, 71, 100
2, 17113, Note_on_c, 0, 74, 100
2, 17120, Note_on_c, 0, 65, 0
2, 17120, Note_on_c, 0, 77, 0
2, 17130, Note_on_c, 0, 43, 0
2, 17130, Note_on_c, 0, 55, 0
2, 17138, Note_on_c, 0, 44, 100
2, 17138, Note_on_c, 0, 56, 100
2, 17139, Note_on_c, 0, 71, 0
2, 17139, Note_on_c, 0, 74, 0
2, 17163, Note_on_c, 0, 70, 100
2, 17163, Note_on_c, 0, 74, 100
2, 17188, Note_on_c, 0, 65, 100
2, 17188, Note_on_c, 0, 77, 100
2, 17189, Note_on_c, 0, 70, 0
2, 17189, Note_on_c, 0, 74, 0
2, 17213, Note_on_c, 0, 70, 100
2, 17213, Note_on_c, 0, 74, 100
2, 17220, Note_on_c, 0, 65, 0
2, 17220, Note_on_c, 0, 77, 0
2, 17230, Note_on_c, 0, 44, 0
2, 17230, Note_on_c, 0, 56, 0
2, 17238, Note_on_c, 0, 45, 100
2, 17238, Note_on_c, 0, 57, 100
2, 17239, Note_on_c, 0, 70, 0
2, 17239, Note_on_c, 0, 74, 0
2, 17263, Note_on_c, 0, 69, 100
2, 17263, Note_on_c, 0, 74, 100
2, 17288, Note_on_c, 0, 65, 100
2, 17288, Note_on_c, 0, 77, 100
2, 17289, Note_on_c, 0, 69, 0
2, 17289, Note_on_c, 0, 74, 0
2, 17313, Note_on_c, 0, 69, 100
2, 17313, Note_on_c, 0, 74, 100
2, 17320, Note_on_c, 0, 65, 0
2, 17320, Note_on_c, 0, 77, 0
2, 17330, Note_on_c, 0, 45, 0
2, 17330, Note_on_c, 0, 57, 0
2, 17338, Note_on_c, 0, 46, 100
2, 17338, Note_on_c, 0, 58, 100
2, 17339, Note_on_c, 0, 69, 0
2, 17339, Note_on_c, 0, 74, 0
2, 17363, Note_on_c, 0, 68, 100
2, 17363, Note_on_c, 0, 74, 100
2, 17388, Note_on_c, 0, 65, 100
2, 17388, Note_on_c, 0, 77, 100
2, 17389, Note_on_c, 0, 68, 0
2, 17389, Note_on_c, 0, 74, 0
2, 17413, Note_on_c, 0, 68, 100
2, 17413, Note_on_c, 0, 74, 100
2, 17420, Note_on_c, 0, 65, 0
2, 17420, Note_on_c, 0, 77, 0
2, 17430, Note_on_c, 0, 46, 0
2, 17430, Note_on_c, 0, 58, 0
2, 17438, Note_on_c, 0, 47, 100
2, 17438, Note_on_c, 0, 59, 100
2, 17438, Note_on_c, 0, 65, 100
2, 17438, Note_on_c, 0, 77, 100
2, 17439, Note_on_c, 0, 68, 0
2, 17439, Note_on_c, 0, 74, 0
2, 17484, Note_on_c, 0, 47, 0
2, 17484, Note_on_c, 0, 59, 0
2, 17488, Note_on_c, 0, 53, 100
2, 17488, Note_on_c, 0, 55, 100
2, 17488, Note_on_c, 0, 59, 100
2, 17488, Note_on_c, 0, 67, 100
2, 17488, Note_on_c, 0, 79, 100
2, 17489, Note_on_c, 0, 65, 0
2, 17489, Note_on_c, 0, 77, 0
2, 17513, Note_on_c, 0, 69, 100
2, 17513, Note_on_c, 0, 81, 100
2, 17517, Note_on_c, 0, 53, 0
2, 17517, Note_on_c, 0, 55, 0
2, 17517, Note_on_c, 0, 59, 0
2, 17520, Note_on_c, 0, 67, 0
2, 17520, Note_on_c, 0, 79, 0
2, 17538, Note_on_c, 0, 43, 100
2, 17559, Note_on_c, 0, 69, 0
2, 17559, Note_on_c, 0, 81, 0
2, 17563, Note_on_c, 0, 77, 100
2, 17584, Note_on_c, 0, 43, 0
2, 17588, Note_on_c, 0, 53, 100
2, 17588, Note_on_c, 0, 55, 100
2, 17588, Note_on_c, 0, 59, 100
2, 17588, Note_on_c, 0, 71, 100
2, 17588, Note_on_c, 0, 83, 100
2, 17589, Note_on_c, 0, 77, 0
2, 17613, Note_on_c, 0, 77, 100
2, 17617, Note_on_c, 0, 53, 0
2, 17617, Note_on_c, 0, 55, 0
2, 17617, Note_on_c, 0, 59, 0
2, 17620, Note_on_c, 0, 71, 0
2, 17620, Note_on_c, 0, 83, 0
2, 17638, Note_on_c, 0, 48, 100
2, 17638, Note_on_c, 0, 69, 100
2, 17638, Note_on_c, 0, 76, 100
2, 17638, Note_on_c, 0, 81, 100
2, 17639, Note_on_c, 0, 77, 0
2, 17684, Note_on_c, 0, 48, 0
2, 17684, Note_on_c, 0, 69, 0
2, 17684, Note_on_c, 0, 76, 0
2, 17684, Note_on_c, 0, 81, 0
2, 17688, Note_on_c, 0, 52, 100
2, 17688, Note_on_c, 0, 55, 100
2, 17688, Note_on_c, 0, 60, 100
2, 17688, Note_on_c, 0, 68, 100
2, 17688, Note_on_c, 0, 76, 100
2, 17688, Note_on_c, 0, 80, 100
2, 17711, Note_on_c, 0, 76, 0
2, 17713, Note_on_c, 0, 67, 100
2, 17713, Note_on_c, 0, 76, 100
2, 17713, Note_on_c, 0, 79, 100
2, 17717, Note_on_c, 0, 52, 0
2, 17717, Note_on_c, 0, 55, 0
2, 17717, Note_on_c, 0, 60, 0
2, 17720, Note_on_c, 0, 68, 0
2, 17720, Note_on_c, 0, 80, 0
2, 17738, Note_on_c, 0, 43, 100
2, 17759, Note_on_c, 0, 67, 0
2, 17759, Note_on_c, 0, 76, 0
2, 17759, Note_on_c, 0, 79, 0
2, 17763, Note_on_c, 0, 76, 100
2, 17784, Note_on_c, 0, 43, 0
2, 17788, Note_on_c, 0, 52, 100
2, 17788, Note_on_c, 0, 55, 100
2, 17788, Note_on_c, 0, 60, 100
2, 17788, Note_on_c, 0, 67, 100
2, 17788, Note_on_c, 0, 79, 100
2, 17791, Note_on_c, 0, 76, 0
2, 17817, Note_on_c, 0, 52, 0
2, 17817, Note_on_c, 0, 55, 0
2, 17817, Note_on_c, 0, 60, 0
2, 17838, Note_on_c, 0, 48, 100
2, 17839, Note_on_c, 0, 67, 0
2, 17839, Note_on_c, 0, 79, 0
2, 17863, Note_on_c, 0, 72, 100
2, 17863, Note_on_c, 0, 76, 100
2, 17884, Note_on_c, 0, 48, 0
2, 17888, Note_on_c, 0, 52, 100
2, 17888, Note_on_c, 0, 55, 100
2, 17888, Note_on_c, 0, 60, 100
2, 17888, Note_on_c, 0, 67, 100
2, 17888, Note_on_c, 0, 79, 100
2, 17889, Note_on_c, 0, 72, 0
2, 17889, Note_on_c, 0, 76, 0
2, 17913, Note_on_c, 0, 72, 100
2, 17913, Note_on_c, 0, 76, 100
2, 17917, Note_on_c, 0, 52, 0
2, 17917, Note_on_c, 0, 55, 0
2, 17917, Note_on_c, 0, 60, 0
2, 17920, Note_on_c, 0, 67, 0
2, 17920, Note_on_c, 0, 79, 0
2, 17938, Note_on_c, 0, 43, 100
2, 17959, Note_on_c, 0, 72, 0
2, 17959, Note_on_c, 0, 76, 0
2, 17963, Note_on_c, 0, 72, 100
2, 17963, Note_on_c, 0, 76, 100
2, 17963, Note_on_c, 0, 79, 100
2, 17963, Note_on_c, 0, 84, 100
2, 17984, Note_on_c, 0, 43, 0
2, 17988, Note_on_c, 0, 52, 100
2, 17988, Note_on_c, 0, 55, 100
2, 17988, Note_on_c, 0, 60, 100
2, 18009, Note_on_c, 0, 72, 0
2, 18009, Note_on_c, 0, 76, 0
2, 18009, Note_on_c, 0, 79, 0
2, 18009, Note_on_c, 0, 84, 0
2, 18013, Note_on_c, 0, 71, 100
2, 18017, Note_on_c, 0, 52, 0
2, 18017, Note_on_c, 0, 55, 0
2, 18017, Note_on_c, 0, 60, 0
2, 18038, Note_on_c, 0, 48, 100
2, 18038, Note_on_c, 0, 76, 100
2, 18038, Note_on_c, 0, 79, 100
2, 18038, Note_on_c, 0, 83, 100
2, 18045, Note_on_c, 0, 71, 0
2, 18084, Note_on_c, 0, 48, 0
2, 18084, Note_on_c, 0, 76, 0
2, 18084, Note_on_c, 0, 79, 0
2, 18084, Note_on_c, 0, 83, 0
2, 18088, Note_on_c, 0, 52, 100
2, 18088, Note_on_c, 0, 55, 100
2, 18088, Note_on_c, 0, 60, 100
2, 18088, Note_on_c, 0, 69, 100
2, 18113, Note_on_c, 0, 76, 100
2, 18113, Note_on_c, 0, 79, 100
2, 18113, Note_on_c, 0, 81, 100
2, 18117, Note_on_c, 0, 52, 0
2, 18117, Note_on_c, 0, 55, 0
2, 18117, Note_on_c, 0, 60, 0
2, 18120, Note_on_c, 0, 69, 0
2, 18138, Note_on_c, 0, 43, 100
2, 18159, Note_on_c, 0, 76, 0
2, 18159, Note_on_c, 0, 79, 0
2, 18159, Note_on_c, 0, 81, 0
2, 18163, Note_on_c, 0, 67, 100
2, 18184, Note_on_c, 0, 43, 0
2, 18188, Note_on_c, 0, 52, 100
2, 18188, Note_on_c, 0, 55, 100
2, 18188, Note_on_c, 0, 60, 100
2, 18188, Note_on_c, 0, 72, 100
2, 18188, Note_on_c, 0, 76, 100
2, 18188, Note_on_c, 0, 79, 100
2, 18195, Note_on_c, 0, 67, 0
2, 18217, Note_on_c, 0, 52, 0
2, 18217, Note_on_c, 0, 55, 0
2, 18217, Note_on_c, 0, 60, 0
2, 18234, Note_on_c, 0, 72, 0
2, 18234, Note_on_c, 0, 76, 0
2, 18234, Note_on_c, 0, 79, 0
2, 18238, Note_on_c, 0, 48, 100
2, 18263, Note_on_c, 0, 67, 100
2, 18263, Note_on_c, 0, 79, 100
2, 18284, Note_on_c, 0, 48, 0
2, 18288, Note_on_c, 0, 52, 100
2, 18288, Note_on_c, 0, 55, 100
2, 18288, Note_on_c, 0, 60, 100
2, 18309, Note_on_c, 0, 67, 0
2, 18309, Note_on_c, 0, 79, 0
2, 18313, Note_on_c, 0, 72, 100
2, 18313, Note_on_c, 0, 76, 100
2, 18317, Note_on_c, 0, 52, 0
2, 18317, Note_on_c, 0, 55, 0
2, 18317, Note_on_c, 0, 60, 0
2, 18338, Note_on_c, 0, 38, 100
2, 18338, Note_on_c, 0, 50, 100
2, 18338, Note_on_c, 0, 67, 100
2, 18338, Note_on_c, 0, 79, 100
2, 18345, Note_on_c, 0, 72, 0
2, 18345, Note_on_c, 0, 76, 0
2, 18384, Note_on_c, 0, 38, 0
2, 18384, Note_on_c, 0, 50, 0
2, 18388, Note_on_c, 0, 40, 100
2, 18388, Note_on_c, 0, 52, 100
2, 18388, Note_on_c, 0, 68, 100
2, 18388, Note_on_c, 0, 80, 100
2, 18389, Note_on_c, 0, 67, 0
2, 18389, Note_on_c, 0, 79, 0
2, 18428, Note_on_c, 0, 40, 0
2, 18428, Note_on_c, 0, 52, 0
2, 18434, Note_on_c, 0, 68, 0
2, 18434, Note_on_c, 0, 80, 0
2, 18438, Note_on_c, 0, 41, 100
2, 18438, Note_on_c, 0, 53, 100
2, 18438, Note_on_c, 0, 69, 100
2, 18438, Note_on_c, 0, 81, 100
2, 18484, Note_on_c, 0, 41, 0
2, 18484, Note_on_c, 0, 53, 0
2, 18484, Note_on_c, 0, 69, 0
2, 18484, Note_on_c, 0, 81, 0
2, 18488, Note_on_c, 0, 53, 100
2, 18488, Note_on_c, 0, 57, 100
2, 18488, Note_on_c, 0, 62, 100
2, 18488, Note_on_c, 0, 74, 100
2, 18488, Note_on_c, 0, 77, 100
2, 18513, Note_on_c, 0, 69, 100
2, 18513, Note_on_c, 0, 81, 100
2, 18517, Note_on_c, 0, 53, 0
2, 18517, Note_on_c, 0, 57, 0
2, 18517, Note_on_c, 0, 62, 0
2, 18520, Note_on_c, 0, 74, 0
2, 18520, Note_on_c, 0, 77, 0
2, 18538, Note_on_c, 0, 38, 100
2, 18538, Note_on_c, 0, 50, 100
2, 18559, Note_on_c, 0, 69, 0
2, 18559, Note_on_c, 0, 81, 0
2, 18563, Note_on_c, 0, 74, 100
2, 18563, Note_on_c, 0, 77, 100
2, 18584, Note_on_c, 0, 38, 0
2, 18584, Note_on_c, 0, 50, 0
2, 18588, Note_on_c, 0, 53, 100
2, 18588, Note_on_c, 0, 57, 100
2, 18588, Note_on_c, 0, 62, 100
2, 18588, Note_on_c, 0, 69, 100
2, 18588, Note_on_c, 0, 81, 100
2, 18595, Note_on_c, 0, 74, 0
2, 18595, Note_on_c, 0, 77, 0
2, 18617, Note_on_c, 0, 53, 0
2, 18617, Note_on_c, 0, 57, 0
2, 18617, Note_on_c, 0, 62, 0
2, 18634, Note_on_c, 0, 69, 0
2, 18634, Note_on_c, 0, 81, 0
2, 18638, Note_on_c, 0, 41, 100
2, 18638, Note_on_c, 0, 53, 100
2, 18663, Note_on_c, 0, 69, 100
2, 18663, Note_on_c, 0, 81, 100
2, 18684, Note_on_c, 0, 41, 0
2, 18684, Note_on_c, 0, 53, 0
2, 18688, Note_on_c, 0, 53, 100
2, 18688, Note_on_c, 0, 57, 100
2, 18688, Note_on_c, 0, 62, 100
2, 18709, Note_on_c, 0, 69, 0
2, 18709, Note_on_c, 0, 81, 0
2, 18713, Note_on_c, 0, 74, 100
2, 18713, Note_on_c, 0, 77, 100
2, 18717, Note_on_c, 0, 53, 0
2, 18717, Note_on_c, 0, 57, 0
2, 18717, Note_on_c, 0, 62, 0
2, 18738, Note_on_c, 0, 41, 100
2, 18738, Note_on_c, 0, 53, 100
2, 18738, Note_on_c, 0, 69, 100
2, 18738, Note_on_c, 0, 81, 100
2, 18745, Note_on_c, 0, 74, 0
2, 18745, Note_on_c, 0, 77, 0
2, 18784, Note_on_c, 0, 41, 0
2, 18784, Note_on_c, 0, 53, 0
2, 18788, Note_on_c, 0, 42, 100
2, 18788, Note_on_c, 0, 54, 100
2, 18807, Note_on_c, 0, 69, 0
2, 18807, Note_on_c, 0, 81, 0
2, 18813, Note_on_c, 0, 68, 100
2, 18813, Note_on_c, 0, 80, 100
2, 18828, Note_on_c, 0, 42, 0
2, 18828, Note_on_c, 0, 54, 0
2, 18838, Note_on_c, 0, 43, 100
2, 18838, Note_on_c, 0, 55, 100
2, 18859, Note_on_c, 0, 68, 0
2, 18859, Note_on_c, 0, 80, 0
2, 18863, Note_on_c, 0, 67, 100
2, 18863, Note_on_c, 0, 79, 100
2, 18884, Note_on_c, 0, 43, 0
2, 18884, Note_on_c, 0, 55, 0
2, 18888, Note_on_c, 0, 55, 100
2, 18888, Note_on_c, 0, 60, 100
2, 18888, Note_on_c, 0, 64, 100
2, 18909, Note_on_c, 0, 67, 0
2, 18909, Note_on_c, 0, 79, 0
2, 18913, Note_on_c, 0, 72, 100
2, 18913, Note_on_c, 0, 76, 100
2, 18917, Note_on_c, 0, 55, 0
2, 18917, Note_on_c, 0, 60, 0
2, 18917, Note_on_c, 0, 64, 0
2, 18938, Note_on_c, 0, 45, 100
2, 18938, Note_on_c, 0, 57, 100
2, 18938, Note_on_c, 0, 69, 100
2, 18938, Note_on_c, 0, 81, 100
2, 18939, Note_on_c, 0, 72, 0
2, 18939, Note_on_c, 0, 76, 0
2, 18963, Note_on_c, 0, 73, 100
2, 18963, Note_on_c, 0, 76, 100
2, 18970, Note_on_c, 0, 69, 0
2, 18970, Note_on_c, 0, 81, 0
2, 18984, Note_on_c, 0, 45, 0
2, 18984, Note_on_c, 0, 57, 0
2, 18988, Note_on_c, 0, 57, 100
2, 18988, Note_on_c, 0, 61, 100
2, 18988, Note_on_c, 0, 67, 100
2, 19009, Note_on_c, 0, 73, 0
2, 19009, Note_on_c, 0, 76, 0
2, 19013, Note_on_c, 0, 69, 100
2, 19013, Note_on_c, 0, 81, 100
2, 19017, Note_on_c, 0, 57, 0
2, 19017, Note_on_c, 0, 61, 0
2, 19017, Note_on_c, 0, 67, 0
2, 19038, Note_on_c, 0, 45, 100
2, 19038, Note_on_c, 0, 57, 100
2, 19059, Note_on_c, 0, 69, 0
2, 19059, Note_on_c, 0, 81, 0
2, 19063, Note_on_c, 0, 66, 100
2, 19063, Note_on_c, 0, 76, 100
2, 19084, Note_on_c, 0, 45, 0
2, 19084, Note_on_c, 0, 57, 0
2, 19088, Note_on_c, 0, 50, 100
2, 19088, Note_on_c, 0, 54, 100
2, 19088, Note_on_c, 0, 60, 100
2, 19109, Note_on_c, 0, 66, 0
2, 19109, Note_on_c, 0, 76, 0
2, 19113, Note_on_c, 0, 72, 100
2, 19117, Note_on_c, 0, 50, 0
2, 19117, Note_on_c, 0, 54, 0
2, 19117, Note_on_c, 0, 60, 0
2, 19138, Note_on_c, 0, 43, 100
2, 19138, Note_on_c, 0, 65, 100
2, 19138, Note_on_c, 0, 76, 100
2, 19139, Note_on_c, 0, 72, 0
2, 19163, Note_on_c, 0, 71, 100
2, 19170, Note_on_c, 0, 65, 0
2, 19170, Note_on_c, 0, 76, 0
2, 19184, Note_on_c, 0, 43, 0
2, 19188, Note_on_c, 0, 53, 100
2, 19188, Note_on_c, 0, 55, 100
2, 19188, Note_on_c, 0, 59, 100
2, 19188, Note_on_c, 0, 65, 100
2, 19188, Note_on_c, 0, 74, 100
2, 19189, Note_on_c, 0, 71, 0
2, 19213, Note_on_c, 0, 64, 100
2, 19213, Note_on_c, 0, 72, 100
2, 19217, Note_on_c, 0, 53, 0
2, 19217, Note_on_c, 0, 55, 0
2, 19217, Note_on_c, 0, 59, 0
2, 19220, Note_on_c, 0, 65, 0
2, 19220, Note_on_c, 0, 74, 0
2, 19238, Note_on_c, 0, 48, 100
2, 19238, Note_on_c, 0, 55, 100
2, 19291, Note_on_c, 0, 48, 0
2, 19291, Note_on_c, 0, 55, 0
2, 19294, Note_on_c, 0, 64, 0
2, 19294, Note_on_c, 0, 72, 0
2, 19338, Note_on_c, 0, 36, 100
2, 19338, Note_on_c, 0, 48, 100
2, 19338, Note_on_c, 0, 72, 100
2, 19338, Note_on_c, 0, 76, 100
2, 19338, Note_on_c, 0, 79, 100
2, 19338, Note_on_c, 0, 84, 100
2, 19384, Note_on_c, 0, 72, 0
2, 19384, Note_on_c, 0, 76, 0
2, 19384, Note_on_c, 0, 79, 0
2, 19384, Note_on_c, 0, 84, 0
2, 19391, Note_on_c, 0, 36, 0
2, 19391, Note_on_c, 0, 48, 0
2, 19438, Note_on_c, 0, 48, 100
2, 19463, Note_on_c, 0, 72, 100
2, 19463, Note_on_c, 0, 76, 100
2, 19484, Note_on_c, 0, 48, 0
2, 19488, Note_on_c, 0, 52, 100
2, 19488, Note_on_c, 0, 55, 100
2, 19488, Note_on_c, 0, 60, 100
2, 19488, Note_on_c, 0, 67, 100
2, 19488, Note_on_c, 0, 79, 100
2, 19489, Note_on_c, 0, 72, 0
2, 19489, Note_on_c, 0, 76, 0
2, 19513, Note_on_c, 0, 72, 100
2, 19513, Note_on_c, 0, 76, 100
2, 19517, Note_on_c, 0, 52, 0
2, 19517, Note_on_c, 0, 55, 0
2, 19517, Note_on_c, 0, 60, 0
2, 19520, Note_on_c, 0, 67, 0
2, 19520, Note_on_c, 0, 79, 0
2, 19538, Note_on_c, 0, 43, 100
2, 19559, Note_on_c, 0, 72, 0
2, 19559, Note_on_c, 0, 76, 0
2, 19563, Note_on_c, 0, 72, 100
2, 19563, Note_on_c, 0, 76, 100
2, 19563, Note_on_c, 0, 79, 100
2, 19563, Note_on_c, 0, 84, 100
2, 19584, Note_on_c, 0, 43, 0
2, 19588, Note_on_c, 0, 52, 100
2, 19588, Note_on_c, 0, 55, 100
2, 19588, Note_on_c, 0, 60, 100
2, 19609, Note_on_c, 0, 72, 0
2, 19609, Note_on_c, 0, 76, 0
2, 19609, Note_on_c, 0, 79, 0
2, 19609, Note_on_c, 0, 84, 0
2, 19613, Note_on_c, 0, 71, 100
2, 19617, Note_on_c, 0, 52, 0
2, 19617, Note_on_c, 0, 55, 0
2, 19617, Note_on_c, 0, 60, 0
2, 19638, Note_on_c, 0, 48, 100
2, 19638, Note_on_c, 0, 76, 100
2, 19638, Note_on_c, 0, 79, 100
2, 19638, Note_on_c, 0, 83, 100
2, 19645, Note_on_c, 0, 71, 0
2, 19684, Note_on_c, 0, 48, 0
2, 19684, Note_on_c, 0, 76, 0
2, 19684, Note_on_c, 0, 79, 0
2, 19684, Note_on_c, 0, 83, 0
2, 19688, Note_on_c, 0, 52, 100
2, 19688, Note_on_c, 0, 55, 100
2, 19688, Note_on_c, 0, 60, 100
2, 19688, Note_on_c, 0, 69, 100
2, 19713, Note_on_c, 0, 76, 100
2, 19713, Note_on_c, 0, 79, 100
2, 19713, Note_on_c, 0, 81, 100
2, 19717, Note_on_c, 0, 52, 0
2, 19717, Note_on_c, 0, 55, 0
2, 19717, Note_on_c, 0, 60, 0
2, 19720, Note_on_c, 0, 69, 0
2, 19738, Note_on_c, 0, 43, 100
2, 19759, Note_on_c, 0, 76, 0
2, 19759, Note_on_c, 0, 79, 0
2, 19759, Note_on_c, 0, 81, 0
2, 19763, Note_on_c, 0, 67, 100
2, 19784, Note_on_c, 0, 43, 0
2, 19788, Note_on_c, 0, 52, 100
2, 19788, Note_on_c, 0, 55, 100
2, 19788, Note_on_c, 0, 60, 100
2, 19788, Note_on_c, 0, 72, 100
2, 19788, Note_on_c, 0, 76, 100
2, 19788, Note_on_c, 0, 79, 100
2, 19795, Note_on_c, 0, 67, 0
2, 19817, Note_on_c, 0, 52, 0
2, 19817, Note_on_c, 0, 55, 0
2, 19817, Note_on_c, 0, 60, 0
2, 19834, Note_on_c, 0, 72, 0
2, 19834, Note_on_c, 0, 76, 0
2, 19834, Note_on_c, 0, 79, 0
2, 19838, Note_on_c, 0, 48, 100
2, 19863, Note_on_c, 0, 67, 100
2, 19863, Note_on_c, 0, 79, 100
2, 19884, Note_on_c, 0, 48, 0
2, 19888, Note_on_c, 0, 52, 100
2, 19888, Note_on_c, 0, 55, 100
2, 19888, Note_on_c, 0, 60, 100
2, 19909, Note_on_c, 0, 67, 0
2, 19909, Note_on_c, 0, 79, 0
2, 19913, Note_on_c, 0, 72, 100
2, 19913, Note_on_c, 0, 76, 100
2, 19917, Note_on_c, 0, 52, 0
2, 19917, Note_on_c, 0, 55, 0
2, 19917, Note_on_c, 0, 60, 0
2, 19938, Note_on_c, 0, 48, 100
2, 19938, Note_on_c, 0, 67, 100
2, 19938, Note_on_c, 0, 79, 100
2, 19945, Note_on_c, 0, 72, 0
2, 19945, Note_on_c, 0, 76, 0
2, 19984, Note_on_c, 0, 48, 0
2, 19988, Note_on_c, 0, 49, 100
2, 19988, Note_on_c, 0, 69, 100
2, 19988, Note_on_c, 0, 81, 100
2, 19989, Note_on_c, 0, 67, 0
2, 19989, Note_on_c, 0, 79, 0
2, 20028, Note_on_c, 0, 49, 0
2, 20034, Note_on_c, 0, 69, 0
2, 20034, Note_on_c, 0, 81, 0
2, 20038, Note_on_c, 0, 50, 100
2, 20038, Note_on_c, 0, 71, 100
2, 20038, Note_on_c, 0, 83, 100
2, 20084, Note_on_c, 0, 50, 0
2, 20084, Note_on_c, 0, 71, 0
2, 20084, Note_on_c, 0, 83, 0
2, 20088, Note_on_c, 0, 53, 100
2, 20088, Note_on_c, 0, 55, 100
2, 20088, Note_on_c, 0, 59, 100
2, 20088, Note_on_c, 0, 74, 100
2, 20088, Note_on_c, 0, 77, 100
2, 20113, Note_on_c, 0, 71, 100
2, 20113, Note_on_c, 0, 83, 100
2, 20117, Note_on_c, 0, 53, 0
2, 20117, Note_on_c, 0, 55, 0
2, 20117, Note_on_c, 0, 59, 0
2, 20120, Note_on_c, 0, 74, 0
2, 20120, Note_on_c, 0, 77, 0
2, 20138, Note_on_c, 0, 43, 100
2, 20159, Note_on_c, 0, 71, 0
2, 20159, Note_on_c, 0, 83, 0
2, 20163, Note_on_c, 0, 74, 100
2, 20163, Note_on_c, 0, 77, 100
2, 20184, Note_on_c, 0, 43, 0
2, 20188, Note_on_c, 0, 53, 100
2, 20188, Note_on_c, 0, 55, 100
2, 20188, Note_on_c, 0, 59, 100
2, 20188, Note_on_c, 0, 71, 100
2, 20188, Note_on_c, 0, 83, 100
2, 20195, Note_on_c, 0, 74, 0
2, 20195, Note_on_c, 0, 77, 0
2, 20217, Note_on_c, 0, 53, 0
2, 20217, Note_on_c, 0, 55, 0
2, 20217, Note_on_c, 0, 59, 0
2, 20234, Note_on_c, 0, 71, 0
2, 20234, Note_on_c, 0, 83, 0
2, 20238, Note_on_c, 0, 43, 100
2, 20238, Note_on_c, 0, 55, 100
2, 20263, Note_on_c, 0, 71, 100
2, 20263, Note_on_c, 0, 74, 100
2, 20288, Note_on_c, 0, 65, 100
2, 20288, Note_on_c, 0, 77, 100
2, 20289, Note_on_c, 0, 71, 0
2, 20289, Note_on_c, 0, 74, 0
2, 20313, Note_on_c, 0, 71, 100
2, 20313, Note_on_c, 0, 74, 100
2, 20320, Note_on_c, 0, 65, 0
2, 20320, Note_on_c, 0, 77, 0
2, 20330, Note_on_c, 0, 43, 0
2, 20330, Note_on_c, 0, 55, 0
2, 20338, Note_on_c, 0, 44, 100
2, 20338, Note_on_c, 0, 56, 100
2, 20339, Note_on_c, 0, 71, 0
2, 20339, Note_on_c, 0, 74, 0
2, 20363, Note_on_c, 0, 70, 100
2, 20363, Note_on_c, 0, 74, 100
2, 20388, Note_on_c, 0, 65, 100
2, 20388, Note_on_c, 0, 77, 100
2, 20389, Note_on_c, 0, 70, 0
2, 20389, Note_on_c, 0, 74, 0
2, 20413, Note_on_c, 0, 70, 100
2, 20413, Note_on_c, 0, 74, 100
2, 20420, Note_on_c, 0, 65, 0
2, 20420, Note_on_c, 0, 77, 0
2, 20430, Note_on_c, 0, 44, 0
2, 20430, Note_on_c, 0, 56, 0
2, 20438, Note_on_c, 0, 45, 100
2, 20438, Note_on_c, 0, 57, 100
2, 20439, Note_on_c, 0, 70, 0
2, 20439, Note_on_c, 0, 74, 0
2, 20463, Note_on_c, 0, 69, 100
2, 20463, Note_on_c, 0, 74, 100
2, 20488, Note_on_c, 0, 65, 100
2, 20488, Note_on_c, 0, 77, 100
2, 20489, Note_on_c, 0, 69, 0
2, 20489, Note_on_c, 0, 74, 0
2, 20513, Note_on_c, 0, 69, 100
2, 20513, Note_on_c, 0, 74, 100
2, 20520, Note_on_c, 0, 65, 0
2, 20520, Note_on_c, 0, 77, 0
2, 20530, Note_on_c, 0, 45, 0
2, 20530, Note_on_c, 0, 57, 0
2, 20538, Note_on_c, 0, 46, 100
2, 20538, Note_on_c, 0, 58, 100
2, 20539, Note_on_c, 0, 69, 0
2, 20539, Note_on_c, 0, 74, 0
2, 20563, Note_on_c, 0, 68, 100
2, 20563, Note_on_c, 0, 74, 100
2, 20588, Note_on_c, 0, 65, 100
2, 20588, Note_on_c, 0, 77, 100
2, 20589, Note_on_c, 0, 68, 0
2, 20589, Note_on_c, 0, 74, 0
2, 20613, Note_on_c, 0, 68, 100
2, 20613, Note_on_c, 0, 74, 100
2, 20620, Note_on_c, 0, 65, 0
2, 20620, Note_on_c, 0, 77, 0
2, 20630, Note_on_c, 0, 46, 0
2, 20630, Note_on_c, 0, 58, 0
2, 20638, Note_on_c, 0, 47, 100
2, 20638, Note_on_c, 0, 59, 100
2, 20638, Note_on_c, 0, 65, 100
2, 20638, Note_on_c, 0, 77, 100
2, 20639, Note_on_c, 0, 68, 0
2, 20639, Note_on_c, 0, 74, 0
2, 20684, Note_on_c, 0, 47, 0
2, 20684, Note_on_c, 0, 59, 0
2, 20688, Note_on_c, 0, 53, 100
2, 20688, Note_on_c, 0, 55, 100
2, 20688, Note_on_c, 0, 59, 100
2, 20688, Note_on_c, 0, 67, 100
2, 20688, Note_on_c, 0, 79, 100
2, 20689, Note_on_c, 0, 65, 0
2, 20689, Note_on_c, 0, 77, 0
2, 20713, Note_on_c, 0, 69, 100
2, 20713, Note_on_c, 0, 81, 100
2, 20717, Note_on_c, 0, 53, 0
2, 20717, Note_on_c, 0, 55, 0
2, 20717, Note_on_c, 0, 59, 0
2, 20720, Note_on_c, 0, 67, 0
2, 20720, Note_on_c, 0, 79, 0
2, 20738, Note_on_c, 0, 43, 100
2, 20759, Note_on_c, 0, 69, 0
2, 20759, Note_on_c, 0, 81, 0
2, 20763, Note_on_c, 0, 77, 100
2, 20784, Note_on_c, 0, 43, 0
2, 20788, Note_on_c, 0, 53, 100
2, 20788, Note_on_c, 0, 55, 100
2, 20788, Note_on_c, 0, 59, 100
2, 20788, Note_on_c, 0, 71, 100
2, 20788, Note_on_c, 0, 83, 100
2, 20789, Note_on_c, 0, 77, 0
2, 20813, Note_on_c, 0, 77, 100
2, 20817, Note_on_c, 0, 53, 0
2, 20817, Note_on_c, 0, 55, 0
2, 20817, Note_on_c, 0, 59, 0
2, 20820, Note_on_c, 0, 71, 0
2, 20820, Note_on_c, 0, 83, 0
2, 20838, Note_on_c, 0, 48, 100
2, 20838, Note_on_c, 0, 69, 100
2, 20838, Note_on_c, 0, 76, 100
2, 20838, Note_on_c, 0, 81, 100
2, 20839, Note_on_c, 0, 77, 0
2, 20884, Note_on_c, 0, 48, 0
2, 20884, Note_on_c, 0, 69, 0
2, 20884, Note_on_c, 0, 76, 0
2, 20884, Note_on_c, 0, 81, 0
2, 20888, Note_on_c, 0, 52, 100
2, 20888, Note_on_c, 0, 55, 100
2, 20888, Note_on_c, 0, 60, 100
2, 20888, Note_on_c, 0, 68, 100
2, 20888, Note_on_c, 0, 76, 100
2, 20888, Note_on_c, 0, 80, 100
2, 20911, Note_on_c, 0, 76, 0
2, 20913, Note_on_c, 0, 67, 100
2, 20913, Note_on_c, 0, 76, 100
2, 20913, Note_on_c, 0, 79, 100
2, 20917, Note_on_c, 0, 52, 0
2, 20917, Note_on_c, 0, 55, 0
2, 20917, Note_on_c, 0, 60, 0
2, 20920, Note_on_c, 0, 68, 0
2, 20920, Note_on_c, 0, 80, 0
2, 20938, Note_on_c, 0, 43, 100
2, 20959, Note_on_c, 0, 67, 0
2, 20959, Note_on_c, 0, 76, 0
2, 20959, Note_on_c, 0, 79, 0
2, 20963, Note_on_c, 0, 76, 100
2, 20984, Note_on_c, 0, 43, 0
2, 20988, Note_on_c, 0, 52, 100
2, 20988, Note_on_c, 0, 55, 100
2, 20988, Note_on_c, 0, 60, 100
2, 20988, Note_on_c, 0, 67, 100
2, 20988, Note_on_c, 0, 79, 100
2, 20991, Note_on_c, 0, 76, 0
2, 21017, Note_on_c, 0, 52, 0
2, 21017, Note_on_c, 0, 55, 0
2, 21017, Note_on_c, 0, 60, 0
2, 21038, Note_on_c, 0, 48, 100
2, 21039, Note_on_c, 0, 67, 0
2, 21039, Note_on_c, 0, 79, 0
2, 21063, Note_on_c, 0, 72, 100
2, 21063, Note_on_c, 0, 76, 100
2, 21084, Note_on_c, 0, 48, 0
2, 21088, Note_on_c, 0, 52, 100
2, 21088, Note_on_c, 0, 55, 100
2, 21088, Note_on_c, 0, 60, 100
2, 21088, Note_on_c, 0, 67, 100
2, 21088, Note_on_c, 0, 79, 100
2, 21089, Note_on_c, 0, 72, 0
2, 21089, Note_on_c, 0, 76, 0
2, 21113, Note_on_c, 0, 72, 100
2, 21113, Note_on_c, 0, 76, 100
2, 21117, Note_on_c, 0, 52, 0
2, 21117, Note_on_c, 0, 55, 0
2, 21117, Note_on_c, 0, 60, 0
2, 21120, Note_on_c, 0, 67, 0
2, 21120, Note_on_c, 0, 79, 0
2, 21138, Note_on_c, 0, 43, 100
2, 21159, Note_on_c, 0, 72, 0
2, 21159, Note_on_c, 0, 76, 0
2, 21163, Note_on_c, 0, 72, 100
2, 21163, Note_on_c, 0, 76, 100
2, 21163, Note_on_c, 0, 79, 100
2, 21163, Note_on_c, 0, 84, 100
2, 21184, Note_on_c, 0, 43, 0
2, 21188, Note_on_c, 0, 52, 100
2, 21188, Note_on_c, 0, 55, 100
2, 21188, Note_on_c, 0, 60, 100
2, 21209, Note_on_c, 0, 72, 0
2, 21209, Note_on_c, 0, 76, 0
2, 21209, Note_on_c, 0, 79, 0
2, 21209, Note_on_c, 0, 84, 0
2, 21213, Note_on_c, 0, 71, 100
2, 21217, Note_on_c, 0, 52, 0
2, 21217, Note_on_c, 0, 55, 0
2, 21217, Note_on_c, 0, 60, 0
2, 21238, Note_on_c, 0, 48, 100
2, 21238, Note_on_c, 0, 76, 100
2, 21238, Note_on_c, 0, 79, 100
2, 21238, Note_on_c, 0, 83, 100
2, 21245, Note_on_c, 0, 71, 0
2, 21284, Note_on_c, 0, 48, 0
2, 21284, Note_on_c, 0, 76, 0
2, 21284, Note_on_c, 0, 79, 0
2, 21284, Note_on_c, 0, 83, 0
2, 21288, Note_on_c, 0, 52, 100
2, 21288, Note_on_c, 0, 55, 100
2, 21288, Note_on_c, 0, 60, 100
2, 21288, Note_on_c, 0, 69, 100
2, 21313, Note_on_c, 0, 76, 100
2, 21313, Note_on_c, 0, 79, 100
2, 21313, Note_on_c, 0, 81, 100
2, 21317, Note_on_c, 0, 52, 0
2, 21317, Note_on_c, 0, 55, 0
2, 21317, Note_on_c, 0, 60, 0
2, 21320, Note_on_c, 0, 69, 0
2, 21338, Note_on_c, 0, 43, 100
2, 21359, Note_on_c, 0, 76, 0
2, 21359, Note_on_c, 0, 79, 0
2, 21359, Note_on_c, 0, 81, 0
2, 21363, Note_on_c, 0, 67, 100
2, 21384, Note_on_c, 0, 43, 0
2, 21388, Note_on_c, 0, 52, 100
2, 21388, Note_on_c, 0, 55, 100
2, 21388, Note_on_c, 0, 60, 100
2, 21388, Note_on_c, 0, 72, 100
2, 21388, Note_on_c, 0, 76, 100
2, 21388, Note_on_c, 0, 79, 100
2, 21395, Note_on_c, 0, 67, 0
2, 21417, Note_on_c, 0, 52, 0
2, 21417, Note_on_c, 0, 55, 0
2, 21417, Note_on_c, 0, 60, 0
2, 21434, Note_on_c, 0, 72, 0
2, 21434, Note_on_c, 0, 76, 0
2, 21434, Note_on_c, 0, 79, 0
2, 21438, Note_on_c, 0, 48, 100
2, 21463, Note_on_c, 0, 67, 100
2, 21463, Note_on_c, 0, 79, 100
2, 21484, Note_on_c, 0, 48, 0
2, 21488, Note_on_c, 0, 52, 100
2, 21488, Note_on_c, 0, 55, 100
2, 21488, Note_on_c, 0, 60, 100
2, 21509, Note_on_c, 0, 67, 0
2, 21509, Note_on_c, 0, 79, 0
2, 21513, Note_on_c, 0, 72, 100
2, 21513, Note_on_c, 0, 76, 100
2, 21517, Note_on_c, 0, 52, 0
2, 21517, Note_on_c, 0, 55, 0
2, 21517, Note_on_c, 0, 60, 0
2, 21538, Note_on_c, 0, 38, 100
2, 21538, Note_on_c, 0, 50, 100
2, 21538, Note_on_c, 0, 67, 100
2, 21538, Note_on_c, 0, 79, 100
2, 21545, Note_on_c, 0, 72, 0
2, 21545, Note_on_c, 0, 76, 0
2, 21584, Note_on_c, 0, 38, 0
2, 21584, Note_on_c, 0, 50, 0
2, 21588, Note_on_c, 0, 40, 100
2, 21588, Note_on_c, 0, 52, 100
2, 21588, Note_on_c, 0, 68, 100
2, 21588, Note_on_c, 0, 80, 100
2, 21589, Note_on_c, 0, 67, 0
2, 21589, Note_on_c, 0, 79, 0
2, 21628, Note_on_c, 0, 40, 0
2, 21628, Note_on_c, 0, 52, 0
2, 21634, Note_on_c, 0, 68, 0
2, 21634, Note_on_c, 0, 80, 0
2, 21638, Note_on_c, 0, 41, 100
2, 21638, Note_on_c, 0, 53, 100
2, 21638, Note_on_c, 0, 69, 100
2, 21638, Note_on_c, 0, 81, 100
2, 21684, Note_on_c, 0, 41, 0
2, 21684, Note_on_c, 0, 53, 0
2, 21684, Note_on_c, 0, 69, 0
2, 21684, Note_on_c, 0, 81, 0
2, 21688, Note_on_c, 0, 53, 100
2, 21688, Note_on_c, 0, 57, 100
2, 21688, Note_on_c, 0, 62, 100
2, 21688, Note_on_c, 0, 74, 100
2, 21688, Note_on_c, 0, 77, 100
2, 21713, Note_on_c, 0, 69, 100
2, 21713, Note_on_c, 0, 81, 100
2, 21717, Note_on_c, 0, 53, 0
2, 21717, Note_on_c, 0, 57, 0
2, 21717, Note_on_c, 0, 62, 0
2, 21720, Note_on_c, 0, 74, 0
2, 21720, Note_on_c, 0, 77, 0
2, 21738, Note_on_c, 0, 38, 100
2, 21738, Note_on_c, 0, 50, 100
2, 21759, Note_on_c, 0, 69, 0
2, 21759, Note_on_c, 0, 81, 0
2, 21763, Note_on_c, 0, 74, 100
2, 21763, Note_on_c, 0, 77, 100
2, 21784, Note_on_c, 0, 38, 0
2, 21784, Note_on_c, 0, 50, 0
2, 21788, Note_on_c, 0, 53, 100
2, 21788, Note_on_c, 0, 57, 100
2, 21788, Note_on_c, 0, 62, 100
2, 21788, Note_on_c, 0, 69, 100
2, 21788, Note_on_c, 0, 81, 100
2, 21795, Note_on_c, 0, 74, 0
2, 21795, Note_on_c, 0, 77, 0
2, 21817, Note_on_c, 0, 53, 0
2, 21817, Note_on_c, 0, 57, 0
2, 21817, Note_on_c, 0, 62, 0
2, 21834, Note_on_c, 0, 69, 0
2, 21834, Note_on_c, 0, 81, 0
2, 21838, Note_on_c, 0, 41, 100
2, 21838, Note_on_c, 0, 53, 100
2, 21863, Note_on_c, 0, 69, 100
2, 21863, Note_on_c, 0, 81, 100
2, 21884, Note_on_c, 0, 41, 0
2, 21884, Note_on_c, 0, 53, 0
2, 21888, Note_on_c, 0, 53, 100
2, 21888, Note_on_c, 0, 57, 100
2, 21888, Note_on_c, 0, 62, 100
2, 21909, Note_on_c, 0, 69, 0
2, 21909, Note_on_c, 0, 81, 0
2, 21913, Note_on_c, 0, 74, 100
2, 21913, Note_on_c, 0, 77, 100
2, 21917, Note_on_c, 0, 53, 0
2, 21917, Note_on_c, 0, 57, 0
2, 21917, Note_on_c, 0, 62, 0
2, 21938, Note_on_c, 0, 41, 100
2, 21938, Note_on_c, 0, 53, 100
2, 21938, Note_on_c, 0, 69, 100
2, 21938, Note_on_c, 0, 81, 100
2, 21945, Note_on_c, 0, 74, 0
2, 21945, Note_on_c, 0, 77, 0
2, 21984, Note_on_c, 0, 41, 0
2, 21984, Note_on_c, 0, 53, 0
2, 21988, Note_on_c, 0, 42, 100
2, 21988, Note_on_c, 0, 54, 100
2, 22007, Note_on_c, 0, 69, 0
2, 22007, Note_on_c, 0, 81, 0
2, 22013, Note_on_c, 0, 68, 100
2, 22013, Note_on_c, 0, 80, 100
2, 22028, Note_on_c, 0, 42, 0
2, 22028, Note_on_c, 0, 54, 0
2, 22038, Note_on_c, 0, 43, 100
2, 22038, Note_on_c, 0, 55, 100
2, 22059, Note_on_c, 0, 68, 0
2, 22059, Note_on_c, 0, 80, 0
2, 22063, Note_on_c, 0, 67, 100
2, 22063, Note_on_c, 0, 79, 100
2, 22084, Note_on_c, 0, 43, 0
2, 22084, Note_on_c, 0, 55, 0
2, 22088, Note_on_c, 0, 55, 100
2, 22088, Note_on_c, 0, 60, 100
2, 22088, Note_on_c, 0, 64, 100
2, 22109, Note_on_c, 0, 67, 0
2, 22109, Note_on_c, 0, 79, 0
2, 22113, Note_on_c, 0, 72, 100
2, 22113, Note_on_c, 0, 76, 100
2, 22117, Note_on_c, 0, 55, 0
2, 22117, Note_on_c, 0, 60, 0
2, 22117, Note_on_c, 0, 64, 0
2, 22138, Note_on_c, 0, 45, 100
2, 22138, Note_on_c, 0, 57, 100
2, 22138, Note_on_c, 0, 69, 100
2, 22138, Note_on_c, 0, 81, 100
2, 22139, Note_on_c, 0, 72, 0
2, 22139, Note_on_c, 0, 76, 0
2, 22163, Note_on_c, 0, 73, 100
2, 22163, Note_on_c, 0, 76, 100
2, 22170, Note_on_c, 0, 69, 0
2, 22170, Note_on_c, 0, 81, 0
2, 22184, Note_on_c, 0, 45, 0
2, 22184, Note_on_c, 0, 57, 0
2, 22188, Note_on_c, 0, 57, 100
2, 22188, Note_on_c, 0, 61, 100
2, 22188, Note_on_c, 0, 67, 100
2, 22209, Note_on_c, 0, 73, 0
2, 22209, Note_on_c, 0, 76, 0
2, 22213, Note_on_c, 0, 69, 100
2, 22213, Note_on_c, 0, 81, 100
2, 22217, Note_on_c, 0, 57, 0
2, 22217, Note_on_c, 0, 61, 0
2, 22217, Note_on_c, 0, 67, 0
2, 22238, Note_on_c, 0, 45, 100
2, 22238, Note_on_c, 0, 57, 100
2, 22259, Note_on_c, 0, 69, 0
2, 22259, Note_on_c, 0, 81, 0
2, 22263, Note_on_c, 0, 66, 100
2, 22263, Note_on_c, 0, 76, 100
2, 22284, Note_on_c, 0, 45, 0
2, 22284, Note_on_c, 0, 57, 0
2, 22288, Note_on_c, 0, 50, 100
2, 22288, Note_on_c, 0, 54, 100
2, 22288, Note_on_c, 0, 60, 100
2, 22309, Note_on_c, 0, 66, 0
2, 22309, Note_on_c, 0, 76, 0
2, 22313, Note_on_c, 0, 72, 100
2, 22317, Note_on_c, 0, 50, 0
2, 22317, Note_on_c, 0, 54, 0
2, 22317, Note_on_c, 0, 60, 0
2, 22338, Note_on_c, 0, 43, 100
2, 22338, Note_on_c, 0, 65, 100
2, 22338, Note_on_c, 0, 76, 100
2, 22339, Note_on_c, 0, 72, 0
2, 22363, Note_on_c, 0, 71, 100
2, 22370, Note_on_c, 0, 65, 0
2, 22370, Note_on_c, 0, 76, 0
2, 22384, Note_on_c, 0, 43, 0
2, 22388, Note_on_c, 0, 53, 100
2, 22388, Note_on_c, 0, 55, 100
2, 22388, Note_on_c, 0, 59, 100
2, 22388, Note_on_c, 0, 65, 100
2, 22388, Note_on_c, 0, 74, 100
2, 22389, Note_on_c, 0, 71, 0
2, 22413, Note_on_c, 0, 64, 100
2, 22413, Note_on_c, 0, 72, 100
2, 22417, Note_on_c, 0, 53, 0
2, 22417, Note_on_c, 0, 55, 0
2, 22417, Note_on_c, 0, 59, 0
2, 22420, Note_on_c, 0, 65, 0
2, 22420, Note_on_c, 0, 74, 0
2, 22438, Note_on_c, 0, 48, 100
2, 22438, Note_on_c, 0, 55, 100
2, 22491, Note_on_c, 0, 48, 0
2, 22491, Note_on_c, 0, 55, 0
2, 22494, Note_on_c, 0, 64, 0
2, 22494, Note_on_c, 0, 72, 0
2, 22538, Note_on_c, 0, 36, 100
2, 22538, Note_on_c, 0, 48, 100
2, 22538, Note_on_c, 0, 72, 100
2, 22538, Note_on_c, 0, 76, 100
2, 22538, Note_on_c, 0, 79, 100
2, 22538, Note_on_c, 0, 84, 100
2, 22584, Note_on_c, 0, 72, 0
2, 22584, Note_on_c, 0, 76, 0
2, 22584, Note_on_c, 0, 79, 0
2, 22584, Note_on_c, 0, 84, 0
2, 22591, Note_on_c, 0, 36, 0
2, 22591, Note_on_c, 0, 48, 0
2, 22638, Note_on_c, 0, 52, 100
2, 22638, Note_on_c, 0, 64, 100
2, 22638, Note_on_c, 0, 76, 100
2, 22663, Note_on_c, 0, 80, 100
2, 22670, Note_on_c, 0, 76, 0
2, 22684, Note_on_c, 0, 52, 0
2, 22684, Note_on_c, 0, 64, 0
2, 22688, Note_on_c, 0, 56, 100
2, 22688, Note_on_c, 0, 68, 100
2, 22688, Note_on_c, 0, 83, 100
2, 22689, Note_on_c, 0, 80, 0
2, 22713, Note_on_c, 0, 76, 100
2, 22713, Note_on_c, 0, 88, 100
2, 22720, Note_on_c, 0, 83, 0
2, 22728, Note_on_c, 0, 56, 0
2, 22728, Note_on_c, 0, 68, 0
2, 22738, Note_on_c, 0, 59, 100
2, 22738, Note_on_c, 0, 71, 100
2, 22759, Note_on_c, 0, 76, 0
2, 22759, Note_on_c, 0, 88, 0
2, 22763, Note_on_c, 0, 83, 100
2, 22784, Note_on_c, 0, 59, 0
2, 22784, Note_on_c, 0, 71, 0
2, 22788, Note_on_c, 0, 62, 100
2, 22788, Note_on_c, 0, 74, 100
2, 22788, Note_on_c, 0, 80, 100
2, 22789, Note_on_c, 0, 83, 0
2, 22813, Note_on_c, 0, 76, 100
2, 22820, Note_on_c, 0, 80, 0
2, 22828, Note_on_c, 0, 62, 0
2, 22828, Note_on_c, 0, 74, 0
2, 22838, Note_on_c, 0, 59, 100
2, 22838, Note_on_c, 0, 71, 100
2, 22859, Note_on_c, 0, 76, 0
2, 22863, Note_on_c, 0, 80, 100
2, 22884, Note_on_c, 0, 59, 0
2, 22884, Note_on_c, 0, 71, 0
2, 22888, Note_on_c, 0, 56, 100
2, 22888, Note_on_c, 0, 68, 100
2, 22888, Note_on_c, 0, 83, 100
2, 22889, Note_on_c, 0, 80, 0
2, 22913, Note_on_c, 0, 76, 100
2, 22913, Note_on_c, 0, 88, 100
2, 22920, Note_on_c, 0, 83, 0
2, 22928, Note_on_c, 0, 56, 0
2, 22928, Note_on_c, 0, 68, 0
2, 22938, Note_on_c, 0, 52, 100
2, 22938, Note_on_c, 0, 64, 100
2, 22959, Note_on_c, 0, 76, 0
2, 22959, Note_on_c, 0, 88, 0
2, 22963, Note_on_c, 0, 86, 100
2, 22984, Note_on_c, 0, 52, 0
2, 22984, Note_on_c, 0, 64, 0
2, 22988, Note_on_c, 0, 56, 100
2, 22988, Note_on_c, 0, 68, 100
2, 22988, Note_on_c, 0, 80, 100
2, 22988, Note_on_c, 0, 84, 100
2, 22989, Note_on_c, 0, 86, 0
2, 23013, Note_on_c, 0, 83, 100
2, 23020, Note_on_c, 0, 80, 0
2, 23020, Note_on_c, 0, 84, 0
2, 23028, Note_on_c, 0, 56, 0
2, 23028, Note_on_c, 0, 68, 0
2, 23038, Note_on_c, 0, 57, 100
2, 23038, Note_on_c, 0, 76, 100
2, 23038, Note_on_c, 0, 84, 100
2, 23039, Note_on_c, 0, 83, 0
2, 23084, Note_on_c, 0, 57, 0
2, 23084, Note_on_c, 0, 76, 0
2, 23084, Note_on_c, 0, 84, 0
2, 23088, Note_on_c, 0, 60, 100
2, 23088, Note_on_c, 0, 64, 100
2, 23088, Note_on_c, 0, 69, 100
2, 23088, Note_on_c, 0, 74, 100
2, 23088, Note_on_c, 0, 83, 100
2, 23113, Note_on_c, 0, 72, 100
2, 23113, Note_on_c, 0, 81, 100
2, 23119, Note_on_c, 0, 60, 0
2, 23119, Note_on_c, 0, 64, 0
2, 23119, Note_on_c, 0, 69, 0
2, 23120, Note_on_c, 0, 74, 0
2, 23120, Note_on_c, 0, 83, 0
2, 23138, Note_on_c, 0, 40, 100
2, 23138, Note_on_c, 0, 52, 100
2, 23159, Note_on_c, 0, 72, 0
2, 23159, Note_on_c, 0, 81, 0
2, 23163, Note_on_c, 0, 68, 100
2, 23184, Note_on_c, 0, 40, 0
2, 23184, Note_on_c, 0, 52, 0
2, 23188, Note_on_c, 0, 52, 100
2, 23188, Note_on_c, 0, 57, 100
2, 23188, Note_on_c, 0, 60, 100
2, 23188, Note_on_c, 0, 69, 100
2, 23189, Note_on_c, 0, 68, 0
2, 23213, Note_on_c, 0, 71, 100
2, 23219, Note_on_c, 0, 52, 0
2, 23219, Note_on_c, 0, 57, 0
2, 23219, Note_on_c, 0, 60, 0
2, 23220, Note_on_c, 0, 69, 0
2, 23238, Note_on_c, 0, 45, 100
2, 23238, Note_on_c, 0, 64, 100
2, 23238, Note_on_c, 0, 72, 100
2, 23239, Note_on_c, 0, 71, 0
2, 23284, Note_on_c, 0, 45, 0
2, 23284, Note_on_c, 0, 64, 0
2, 23284, Note_on_c, 0, 72, 0
2, 23288, Note_on_c, 0, 52, 100
2, 23288, Note_on_c, 0, 57, 100
2, 23288, Note_on_c, 0, 62, 100
2, 23288, Note_on_c, 0, 71, 100
2, 23313, Note_on_c, 0, 60, 100
2, 23313, Note_on_c, 0, 69, 100
2, 23319, Note_on_c, 0, 52, 0
2, 23319, Note_on_c, 0, 57, 0
2, 23320, Note_on_c, 0, 62, 0
2, 23320, Note_on_c, 0, 71, 0
2, 23338, Note_on_c, 0, 52, 100
2, 23359, Note_on_c, 0, 60, 0
2, 23359, Note_on_c, 0, 69, 0
2, 23363, Note_on_c, 0, 69, 100
2, 23384, Note_on_c, 0, 52, 0
2, 23388, Note_on_c, 0, 33, 100
2, 23388, Note_on_c, 0, 45, 100
2, 23388, Note_on_c, 0, 72, 100
2, 23389, Note_on_c, 0, 69, 0
2, 23413, Note_on_c, 0, 81, 100
2, 23420, Note_on_c, 0, 72, 0
2, 23428, Note_on_c, 0, 45, 0
2, 23434, Note_on_c, 0, 33, 0
2, 23438, Note_on_c, 0, 50, 100
2, 23438, Note_on_c, 0, 62, 100
2, 23439, Note_on_c, 0, 81, 0
2, 23463, Note_on_c, 0, 74, 100
2, 23484, Note_on_c, 0, 50, 0
2, 23484, Note_on_c, 0, 62, 0
2, 23488, Note_on_c, 0, 54, 100
2, 23488, Note_on_c, 0, 66, 100
2, 23488, Note_on_c, 0, 78, 100
2, 23489, Note_on_c, 0, 74, 0
2, 23513, Note_on_c, 0, 81, 100
2, 23520, Note_on_c, 0, 78, 0
2, 23528, Note_on_c, 0, 54, 0
2, 23528, Note_on_c, 0, 66, 0
2, 23538, Note_on_c, 0, 57, 100
2, 23538, Note_on_c, 0, 69, 100
2, 23538, Note_on_c, 0, 74, 100
2, 23538, Note_on_c, 0, 86, 100
2, 23539, Note_on_c, 0, 81, 0
2, 23563, Note_on_c, 0, 81, 100
2, 23570, Note_on_c, 0, 74, 0
2, 23570, Note_on_c, 0, 86, 0
2, 23584, Note_on_c, 0, 57, 0
2, 23584, Note_on_c, 0, 69, 0
2, 23588, Note_on_c, 0, 60, 100
2, 23588, Note_on_c, 0, 72, 100
2, 23588, Note_on_c, 0, 78, 100
2, 23589, Note_on_c, 0, 81, 0
2, 23613, Note_on_c, 0, 74, 100
2, 23620, Note_on_c, 0, 78, 0
2, 23628, Note_on_c, 0, 60, 0
2, 23628, Note_on_c, 0, 72, 0
2, 23638, Note_on_c, 0, 57, 100
2, 23638, Note_on_c, 0, 69, 100
2, 23659, Note_on_c, 0, 74, 0
2, 23663, Note_on_c, 0, 78, 100
2, 23684, Note_on_c, 0, 57, 0
2, 23684, Note_on_c, 0, 69, 0
2, 23688, Note_on_c, 0, 54, 100
2, 23688, Note_on_c, 0, 66, 100
2, 23688, Note_on_c, 0, 81, 100
2, 23689, Note_on_c, 0, 78, 0
2, 23713, Note_on_c, 0, 74, 100
2, 23713, Note_on_c, 0, 86, 100
2, 23720, Note_on_c, 0, 81, 0
2, 23728, Note_on_c, 0, 54, 0
2, 23728, Note_on_c, 0, 66, 0
2, 23738, Note_on_c, 0, 50, 100
2, 23738, Note_on_c, 0, 62, 100
2, 23759, Note_on_c, 0, 74, 0
2, 23759, Note_on_c, 0, 86, 0
2, 23763, Note_on_c, 0, 84, 100
2, 23784, Note_on_c, 0, 50, 0
2, 23784, Note_on_c, 0, 62, 0
2, 23788, Note_on_c, 0, 54, 100
2, 23788, Note_on_c, 0, 66, 100
2, 23788, Note_on_c, 0, 83, 100
2, 23789, Note_on_c, 0, 84, 0
2, 23813, Note_on_c, 0, 81, 100
2, 23820, Note_on_c, 0, 83, 0
2, 23828, Note_on_c, 0, 54, 0
2, 23828, Note_on_c, 0, 66, 0
2, 23838, Note_on_c, 0, 55, 100
2, 23838, Note_on_c, 0, 74, 100
2, 23838, Note_on_c, 0, 83, 100
2, 23839, Note_on_c, 0, 81, 0
2, 23884, Note_on_c, 0, 55, 0
2, 23884, Note_on_c, 0, 74, 0
2, 23884, Note_on_c, 0, 83, 0
2, 23888, Note_on_c, 0, 59, 100
2, 23888, Note_on_c, 0, 62, 100
2, 23888, Note_on_c, 0, 67, 100
2, 23888, Note_on_c, 0, 72, 100
2, 23888, Note_on_c, 0, 81, 100
2, 23913, Note_on_c, 0, 71, 100
2, 23913, Note_on_c, 0, 79, 100
2, 23919, Note_on_c, 0, 59, 0
2, 23919, Note_on_c, 0, 62, 0
2, 23919, Note_on_c, 0, 67, 0
2, 23920, Note_on_c, 0, 72, 0
2, 23920, Note_on_c, 0, 81, 0
2, 23938, Note_on_c, 0, 38, 100
2, 23938, Note_on_c, 0, 50, 100
2, 23959, Note_on_c, 0, 71, 0
2, 23959, Note_on_c, 0, 79, 0
2, 23963, Note_on_c, 0, 66, 100
2, 23984, Note_on_c, 0, 38, 0
2, 23984, Note_on_c, 0, 50, 0
2, 23988, Note_on_c, 0, 50, 100
2, 23988, Note_on_c, 0, 55, 100
2, 23988, Note_on_c, 0, 59, 100
2, 23988, Note_on_c, 0, 67, 100
2, 23989, Note_on_c, 0, 66, 0
2, 24013, Note_on_c, 0, 69, 100
2, 24019, Note_on_c, 0, 50, 0
2, 24019, Note_on_c, 0, 55, 0
2, 24019, Note_on_c, 0, 59, 0
2, 24020, Note_on_c, 0, 67, 0
2, 24038, Note_on_c, 0, 43, 100
2, 24038, Note_on_c, 0, 62, 100
2, 24038, Note_on_c, 0, 71, 100
2, 24039, Note_on_c, 0, 69, 0
2, 24084, Note_on_c, 0, 43, 0
2, 24084, Note_on_c, 0, 62, 0
2, 24084, Note_on_c, 0, 71, 0
2, 24088, Note_on_c, 0, 50, 100
2, 24088, Note_on_c, 0, 55, 100
2, 24088, Note_on_c, 0, 60, 100
2, 24088, Note_on_c, 0, 69, 100
2, 24113, Note_on_c, 0, 59, 100
2, 24113, Note_on_c, 0, 67, 100
2, 24119, Note_on_c, 0, 50, 0
2, 24119, Note_on_c, 0, 55, 0
2, 24120, Note_on_c, 0, 60, 0
2, 24120, Note_on_c, 0, 69, 0
2, 24138, Note_on_c, 0, 50, 100
2, 24159, Note_on_c, 0, 59, 0
2, 24159, Note_on_c, 0, 67, 0
2, 24163, Note_on_c, 0, 67, 100
2, 24184, Note_on_c, 0, 50, 0
2, 24188, Note_on_c, 0, 31, 100
2, 24188, Note_on_c, 0, 43, 100
2, 24188, Note_on_c, 0, 71, 100
2, 24191, Note_on_c, 0, 67, 0
2, 24213, Note_on_c, 0, 79, 100
2, 24223, Note_on_c, 0, 71, 0
2, 24234, Note_on_c, 0, 31, 0
2, 24234, Note_on_c, 0, 43, 0
2, 24236, Note_on_c, 0, 79, 0
2, 24238, Note_on_c, 0, 48, 100
2, 24238, Note_on_c, 0, 76, 100
2, 24238, Note_on_c, 0, 84, 100
2, 24261, Note_on_c, 0, 76, 0
2, 24263, Note_on_c, 0, 76, 100
2, 24263, Note_on_c, 0, 83, 100
2, 24273, Note_on_c, 0, 84, 0
2, 24284, Note_on_c, 0, 48, 0
2, 24286, Note_on_c, 0, 76, 0
2, 24288, Note_on_c, 0, 55, 100
2, 24288, Note_on_c, 0, 60, 100
2, 24288, Note_on_c, 0, 64, 100
2, 24288, Note_on_c, 0, 76, 100
2, 24288, Note_on_c, 0, 84, 100
2, 24291, Note_on_c, 0, 83, 0
2, 24311, Note_on_c, 0, 55, 0
2, 24311, Note_on_c, 0, 60, 0
2, 24311, Note_on_c, 0, 64, 0
2, 24311, Note_on_c, 0, 76, 0
2, 24313, Note_on_c, 0, 76, 100
2, 24313, Note_on_c, 0, 81, 100
2, 24323, Note_on_c, 0, 84, 0
2, 24338, Note_on_c, 0, 43, 100
2, 24359, Note_on_c, 0, 76, 0
2, 24359, Note_on_c, 0, 81, 0
2, 24363, Note_on_c, 0, 76, 100
2, 24363, Note_on_c, 0, 80, 100
2, 24384, Note_on_c, 0, 43, 0
2, 24386, Note_on_c, 0, 76, 0
2, 24388, Note_on_c, 0, 55, 100
2, 24388, Note_on_c, 0, 60, 100
2, 24388, Note_on_c, 0, 64, 100
2, 24388, Note_on_c, 0, 76, 100
2, 24388, Note_on_c, 0, 81, 100
2, 24391, Note_on_c, 0, 80, 0
2, 24411, Note_on_c, 0, 55, 0
2, 24411, Note_on_c, 0, 60, 0
2, 24411, Note_on_c, 0, 64, 0
2, 24411, Note_on_c, 0, 76, 0
2, 24413, Note_on_c, 0, 76, 100
2, 24413, Note_on_c, 0, 79, 100
2, 24423, Note_on_c, 0, 81, 0
2, 24438, Note_on_c, 0, 48, 100
2, 24459, Note_on_c, 0, 76, 0
2, 24459, Note_on_c, 0, 79, 0
2, 24463, Note_on_c, 0, 75, 100
2, 24463, Note_on_c, 0, 78, 100
2, 24484, Note_on_c, 0, 48, 0
2, 24488, Note_on_c, 0, 55, 100
2, 24488, Note_on_c, 0, 60, 100
2, 24488, Note_on_c, 0, 64, 100
2, 24488, Note_on_c, 0, 76, 100
2, 24488, Note_on_c, 0, 79, 100
2, 24491, Note_on_c, 0, 75, 0
2, 24491, Note_on_c, 0, 78, 0
2, 24511, Note_on_c, 0, 55, 0
2, 24511, Note_on_c, 0, 60, 0
2, 24511, Note_on_c, 0, 64, 0
2, 24511, Note_on_c, 0, 76, 0
2, 24513, Note_on_c, 0, 67, 100
2, 24513, Note_on_c, 0, 76, 100
2, 24523, Note_on_c, 0, 79, 0
2, 24538, Note_on_c, 0, 43, 100
2, 24559, Note_on_c, 0, 67, 0
2, 24559, Note_on_c, 0, 76, 0
2, 24563, Note_on_c, 0, 66, 100
2, 24563, Note_on_c, 0, 75, 100
2, 24584, Note_on_c, 0, 43, 0
2, 24588, Note_on_c, 0, 55, 100
2, 24588, Note_on_c, 0, 60, 100
2, 24588, Note_on_c, 0, 64, 100
2, 24588, Note_on_c, 0, 67, 100
2, 24588, Note_on_c, 0, 76, 100
2, 24598, Note_on_c, 0, 66, 0
2, 24598, Note_on_c, 0, 75, 0
2, 24611, Note_on_c, 0, 55, 0
2, 24611, Note_on_c, 0, 60, 0
2, 24611, Note_on_c, 0, 64, 0
2, 24634, Note_on_c, 0, 67, 0
2, 24634, Note_on_c, 0, 76, 0
2, 24638, Note_on_c, 0, 43, 100
2, 24638, Note_on_c, 0, 62, 100
2, 24638, Note_on_c, 0, 71, 100
2, 24663, Note_on_c, 0, 61, 100
2, 24663, Note_on_c, 0, 70, 100
2, 24673, Note_on_c, 0, 62, 0
2, 24673, Note_on_c, 0, 71, 0
2, 24684, Note_on_c, 0, 43, 0
2, 24688, Note_on_c, 0, 50, 100
2, 24688, Note_on_c, 0, 55, 100
2, 24688, Note_on_c, 0, 62, 100
2, 24688, Note_on_c, 0, 71, 100
2, 24691, Note_on_c, 0, 61, 0
2, 24691, Note_on_c, 0, 70, 0
2, 24711, Note_on_c, 0, 50, 0
2, 24711, Note_on_c, 0, 55, 0
2, 24713, Note_on_c, 0, 59, 100
2, 24713, Note_on_c, 0, 67, 100
2, 24723, Note_on_c, 0, 62, 0
2, 24723, Note_on_c, 0, 71, 0
2, 24738, Note_on_c, 0, 38, 100
2, 24759, Note_on_c, 0, 59, 0
2, 24759, Note_on_c, 0, 67, 0
2, 24763, Note_on_c, 0, 58, 100
2, 24763, Note_on_c, 0, 66, 100
2, 24784, Note_on_c, 0, 38, 0
2, 24788, Note_on_c, 0, 50, 100
2, 24788, Note_on_c, 0, 55, 100
2, 24788, Note_on_c, 0, 59, 100
2, 24788, Note_on_c, 0, 67, 100
2, 24791, Note_on_c, 0, 58, 0
2, 24791, Note_on_c, 0, 66, 0
2, 24811, Note_on_c, 0, 50, 0
2, 24811, Note_on_c, 0, 55, 0
2, 24811, Note_on_c, 0, 59, 0
2, 24813, Note_on_c, 0, 59, 100
2, 24813, Note_on_c, 0, 62, 100
2, 24823, Note_on_c, 0, 67, 0
2, 24838, Note_on_c, 0, 43, 100
2, 24859, Note_on_c, 0, 59, 0
2, 24859, Note_on_c, 0, 62, 0
2, 24863, Note_on_c, 0, 57, 100
2, 24863, Note_on_c, 0, 60, 100
2, 24884, Note_on_c, 0, 43, 0
2, 24888, Note_on_c, 0, 50, 100
2, 24888, Note_on_c, 0, 59, 100
2, 24888, Note_on_c, 0, 62, 100
2, 24891, Note_on_c, 0, 57, 0
2, 24891, Note_on_c, 0, 60, 0
2, 24911, Note_on_c, 0, 59, 0
2, 24913, Note_on_c, 0, 55, 100
2, 24913, Note_on_c, 0, 59, 100
2, 24921, Note_on_c, 0, 50, 0
2, 24923, Note_on_c, 0, 62, 0
2, 24938, Note_on_c, 0, 50, 100
2, 24982, Note_on_c, 0, 55, 0
2, 24982, Note_on_c, 0, 59, 0
2, 24984, Note_on_c, 0, 50, 0
2, 24992, Note_on_c, 0, 67, 100
2, 25006, Note_on_c, 0, 69, 100
2, 25018, Note_on_c, 0, 67, 0
2, 25021, Note_on_c, 0, 71, 100
2, 25037, Note_on_c, 0, 69, 0
2, 25038, Note_on_c, 0, 48, 100
2, 25038, Note_on_c, 0, 72, 100
2, 25047, Note_on_c, 0, 71, 0
2, 25063, Note_on_c, 0, 71, 100
2, 25073, Note_on_c, 0, 72, 0
2, 25084, Note_on_c, 0, 48, 0
2, 25088, Note_on_c, 0, 52, 100
2, 25088, Note_on_c, 0, 55, 100
2, 25088, Note_on_c, 0, 60, 100
2, 25088, Note_on_c, 0, 72, 100
2, 25091, Note_on_c, 0, 71, 0
2, 25113, Note_on_c, 0, 64, 100
2, 25113, Note_on_c, 0, 69, 100
2, 25123, Note_on_c, 0, 52, 0
2, 25123, Note_on_c, 0, 55, 0
2, 25123, Note_on_c, 0, 60, 0
2, 25123, Note_on_c, 0, 72, 0
2, 25138, Note_on_c, 0, 52, 100
2, 25138, Note_on_c, 0, 57, 100
2, 25138, Note_on_c, 0, 60, 100
2, 25169, Note_on_c, 0, 52, 0
2, 25169, Note_on_c, 0, 57, 0
2, 25169, Note_on_c, 0, 60, 0
2, 25188, Note_on_c, 0, 33, 100
2, 25188, Note_on_c, 0, 45, 100
2, 25238, Note_on_c, 0, 36, 100
2, 25238, Note_on_c, 0, 48, 100
2, 25241, Note_on_c, 0, 33, 0
2, 25241, Note_on_c, 0, 45, 0
2, 25286, Note_on_c, 0, 64, 0
2, 25286, Note_on_c, 0, 69, 0
2, 25288, Note_on_c, 0, 67, 100
2, 25313, Note_on_c, 0, 64, 100
2, 25313, Note_on_c, 0, 69, 100
2, 25323, Note_on_c, 0, 67, 0
2, 25359, Note_on_c, 0, 64, 0
2, 25359, Note_on_c, 0, 69, 0
2, 25363, Note_on_c, 0, 72, 100
2, 25388, Note_on_c, 0, 76, 100
2, 25391, Note_on_c, 0, 36, 0
2, 25391, Note_on_c, 0, 48, 0
2, 25391, Note_on_c, 0, 72, 0
2, 25413, Note_on_c, 0, 79, 100
2, 25423, Note_on_c, 0, 76, 0
2, 25436, Note_on_c, 0, 79, 0
2, 25438, Note_on_c, 0, 38, 100
2, 25438, Note_on_c, 0, 50, 100
2, 25438, Note_on_c, 0, 72, 100
2, 25438, Note_on_c, 0, 84, 100
2, 25463, Note_on_c, 0, 78, 100
2, 25470, Note_on_c, 0, 72, 0
2, 25470, Note_on_c, 0, 84, 0
2, 25484, Note_on_c, 0, 38, 0
2, 25484, Note_on_c, 0, 50, 0
2, 25488, Note_on_c, 0, 50, 100
2, 25488, Note_on_c, 0, 54, 100
2, 25488, Note_on_c, 0, 60, 100
2, 25488, Note_on_c, 0, 81, 100
2, 25489, Note_on_c, 0, 78, 0
2, 25513, Note_on_c, 0, 72, 100
2, 25513, Note_on_c, 0, 84, 100
2, 25517, Note_on_c, 0, 50, 0
2, 25517, Note_on_c, 0, 54, 0
2, 25517, Note_on_c, 0, 60, 0
2, 25520, Note_on_c, 0, 81, 0
2, 25538, Note_on_c, 0, 31, 100
2, 25538, Note_on_c, 0, 43, 100
2, 25559, Note_on_c, 0, 72, 0
2, 25559, Note_on_c, 0, 84, 0
2, 25563, Note_on_c, 0, 77, 100
2, 25584, Note_on_c, 0, 31, 0
2, 25584, Note_on_c, 0, 43, 0
2, 25588, Note_on_c, 0, 53, 100
2, 25588, Note_on_c, 0, 55, 100
2, 25588, Note_on_c, 0, 59, 100
2, 25588, Note_on_c, 0, 74, 100
2, 25588, Note_on_c, 0, 86, 100
2, 25589, Note_on_c, 0, 77, 0
2, 25613, Note_on_c, 0, 72, 100
2, 25613, Note_on_c, 0, 76, 100
2, 25613, Note_on_c, 0, 84, 100
2, 25617, Note_on_c, 0, 53, 0
2, 25617, Note_on_c, 0, 55, 0
2, 25617, Note_on_c, 0, 59, 0
2, 25620, Note_on_c, 0, 74, 0
2, 25620, Note_on_c, 0, 86, 0
2, 25638, Note_on_c, 0, 48, 100
2, 25638, Note_on_c, 0, 55, 100
2, 25681, Note_on_c, 0, 72, 0
2, 25681, Note_on_c, 0, 76, 0
2, 25681, Note_on_c, 0, 84, 0
2, 25684, Note_on_c, 0, 48, 0
2, 25684, Note_on_c, 0, 55, 0
2, 25688, Note_on_c, 0, 43, 100
2, 25688, Note_on_c, 0, 55, 100
2, 25728, Note_on_c, 0, 43, 0
2, 25728, Note_on_c, 0, 55, 0
2, 25738, Note_on_c, 0, 36, 100
2, 25738, Note_on_c, 0, 48, 100
2, 25738, Note_on_c, 0, 84, 100
2, 25738, Note_on_c, 0, 88, 100
2, 25738, Note_on_c, 0, 91, 100
2, 25738, Note_on_c, 0, 96, 100
2, 25788, Note_on_c, 0, 36, 0
2, 25788, Note_on_c, 0, 48, 0
2, 25788, End_track
0, 0, End_of_file