0, 0, Header, 1, 2, 120
1, 0, Start_track
1, 0, Tempo, 750000
1, 0, End_track
2, 0, Start_track
2, 240, Note_on_c, 0, 43, 100
2, 265, Note_on_c, 0, 74, 100
2, 286, Note_on_c, 0, 43, 0
2, 287, Note_on_c, 0, 74, 0
2, 290, Note_on_c, 0, 79, 100
2, 290, Note_on_c, 0, 67, 100
2, 290, Note_on_c, 0, 59, 100
2, 290, Note_on_c, 0, 50, 100
2, 290, Note_on_c, 0, 55, 100
2, 315, Note_on_c, 0, 74, 100
2, 317, Note_on_c, 0, 67, 0
2, 317, Note_on_c, 0, 79, 0
2, 319, Note_on_c, 0, 55, 0
2, 319, Note_on_c, 0, 50, 0
2, 319, Note_on_c, 0, 59, 0
2, 337, Note_on_c, 0, 74, 0
2, 340, Note_on_c, 0, 76, 100
2, 340, Note_on_c, 0, 48, 100
2, 365, Note_on_c, 0, 79, 100
2, 365, Note_on_c, 0, 67, 100
2, 367, Note_on_c, 0, 76, 0
2, 386, Note_on_c, 0, 48, 0
2, 390, Note_on_c, 0, 52, 100
2, 390, Note_on_c, 0, 55, 100
2, 390, Note_on_c, 0, 60, 100
2, 404, Note_on_c, 0, 67, 0
2, 404, Note_on_c, 0, 79, 0
2, 415, Note_on_c, 0, 76, 100
2, 419, Note_on_c, 0, 60, 0
2, 419, Note_on_c, 0, 55, 0
2, 419, Note_on_c, 0, 52, 0
2, 437, Note_on_c, 0, 76, 0
2, 440, Note_on_c, 0, 79, 100
2, 440, Note_on_c, 0, 67, 100
2, 440, Note_on_c, 0, 43, 100
2, 465, Note_on_c, 0, 74, 100
2, 467, Note_on_c, 0, 67, 0
2, 467, Note_on_c, 0, 79, 0
2, 486, Note_on_c, 0, 43, 0
2, 487, Note_on_c, 0, 74, 0
2, 490, Note_on_c, 0, 76, 100
2, 490, Note_on_c, 0, 50, 100
2, 490, Note_on_c, 0, 55, 100
2, 490, Note_on_c, 0, 59, 100
2, 515, Note_on_c, 0, 79, 100
2, 515, Note_on_c, 0, 67, 100
2, 517, Note_on_c, 0, 76, 0
2, 519, Note_on_c, 0, 59, 0
2, 519, Note_on_c, 0, 55, 0
2, 519, Note_on_c, 0, 50, 0
2, 540, Note_on_c, 0, 59, 100
2, 540, Note_on_c, 0, 47, 100
2, 554, Note_on_c, 0, 67, 0
2, 554, Note_on_c, 0, 79, 0
2, 565, Note_on_c, 0, 74, 100
2, 586, Note_on_c, 0, 47, 0
2, 586, Note_on_c, 0, 59, 0
2, 590, Note_on_c, 0, 79, 100
2, 590, Note_on_c, 0, 67, 100
2, 590, Note_on_c, 0, 46, 100
2, 590, Note_on_c, 0, 58, 100
2, 592, Note_on_c, 0, 74, 0
2, 629, Note_on_c, 0, 67, 0
2, 629, Note_on_c, 0, 79, 0
2, 636, Note_on_c, 0, 58, 0
2, 636, Note_on_c, 0, 46, 0
2, 640, Note_on_c, 0, 57, 100
2, 640, Note_on_c, 0, 45, 100
2, 665, Note_on_c, 0, 72, 100
2, 686, Note_on_c, 0, 45, 0
2, 686, Note_on_c, 0, 57, 0
2, 687, Note_on_c, 0, 72, 0
2, 690, Note_on_c, 0, 76, 100
2, 690, Note_on_c, 0, 64, 100
2, 690, Note_on_c, 0, 60, 100
2, 690, Note_on_c, 0, 57, 100
2, 690, Note_on_c, 0, 52, 100
2, 715, Note_on_c, 0, 69, 100
2, 717, Note_on_c, 0, 64, 0
2, 717, Note_on_c, 0, 76, 0
2, 719, Note_on_c, 0, 52, 0
2, 719, Note_on_c, 0, 57, 0
2, 719, Note_on_c, 0, 60, 0
2, 737, Note_on_c, 0, 69, 0
2, 740, Note_on_c, 0, 71, 100
2, 740, Note_on_c, 0, 47, 100
2, 765, Note_on_c, 0, 76, 100
2, 765, Note_on_c, 0, 64, 100
2, 767, Note_on_c, 0, 71, 0
2, 786, Note_on_c, 0, 47, 0
2, 790, Note_on_c, 0, 52, 100
2, 790, Note_on_c, 0, 56, 100
2, 790, Note_on_c, 0, 62, 100
2, 804, Note_on_c, 0, 64, 0
2, 804, Note_on_c, 0, 76, 0
2, 815, Note_on_c, 0, 71, 100
2, 819, Note_on_c, 0, 62, 0
2, 819, Note_on_c, 0, 56, 0
2, 819, Note_on_c, 0, 52, 0
2, 837, Note_on_c, 0, 71, 0
2, 840, Note_on_c, 0, 76, 100
2, 840, Note_on_c, 0, 64, 100
2, 840, Note_on_c, 0, 48, 100
2, 865, Note_on_c, 0, 69, 100
2, 867, Note_on_c, 0, 64, 0
2, 867, Note_on_c, 0, 76, 0
2, 886, Note_on_c, 0, 48, 0
2, 887, Note_on_c, 0, 69, 0
2, 890, Note_on_c, 0, 72, 100
2, 890, Note_on_c, 0, 52, 100
2, 890, Note_on_c, 0, 57, 100
2, 890, Note_on_c, 0, 60, 100
2, 915, Note_on_c, 0, 76, 100
2, 915, Note_on_c, 0, 64, 100
2, 917, Note_on_c, 0, 72, 0
2, 919, Note_on_c, 0, 60, 0
2, 919, Note_on_c, 0, 57, 0
2, 919, Note_on_c, 0, 52, 0
2, 940, Note_on_c, 0, 57, 100
2, 940, Note_on_c, 0, 45, 100
2, 954, Note_on_c, 0, 64, 0
2, 954, Note_on_c, 0, 76, 0
2, 965, Note_on_c, 0, 69, 100
2, 986, Note_on_c, 0, 45, 0
2, 986, Note_on_c, 0, 57, 0
2, 990, Note_on_c, 0, 61, 100
2, 990, Note_on_c, 0, 67, 100
2, 990, Note_on_c, 0, 75, 100
2, 990, Note_on_c, 0, 46, 100
2, 990, Note_on_c, 0, 58, 100
2, 992, Note_on_c, 0, 69, 0
2, 1029, Note_on_c, 0, 61, 0
2, 1029, Note_on_c, 0, 67, 0
2, 1029, Note_on_c, 0, 75, 0
2, 1036, Note_on_c, 0, 58, 0
2, 1036, Note_on_c, 0, 46, 0
2, 1040, Note_on_c, 0, 74, 100
2, 1040, Note_on_c, 0, 62, 100
2, 1040, Note_on_c, 0, 47, 100
2, 1040, Note_on_c, 0, 59, 100
2, 1065, Note_on_c, 0, 67, 100
2, 1067, Note_on_c, 0, 62, 0
2, 1067, Note_on_c, 0, 74, 0
2, 1086, Note_on_c, 0, 59, 0
2, 1086, Note_on_c, 0, 47, 0
2, 1087, Note_on_c, 0, 67, 0
2, 1090, Note_on_c, 0, 71, 100
2, 1090, Note_on_c, 0, 59, 100
2, 1090, Note_on_c, 0, 55, 100
2, 1090, Note_on_c, 0, 50, 100
2, 1115, Note_on_c, 0, 64, 100
2, 1115, Note_on_c, 0, 76, 100
2, 1117, Note_on_c, 0, 71, 0
2, 1119, Note_on_c, 0, 50, 0
2, 1119, Note_on_c, 0, 55, 0
2, 1119, Note_on_c, 0, 59, 0
2, 1140, Note_on_c, 0, 40, 100
2, 1164, Note_on_c, 0, 76, 0
2, 1165, Note_on_c, 0, 71, 100
2, 1186, Note_on_c, 0, 40, 0
2, 1190, Note_on_c, 0, 68, 100
2, 1190, Note_on_c, 0, 52, 100
2, 1190, Note_on_c, 0, 56, 100
2, 1190, Note_on_c, 0, 62, 100
2, 1191, Note_on_c, 0, 71, 0
2, 1196, Note_on_c, 0, 64, 0
2, 1215, Note_on_c, 0, 64, 100
2, 1219, Note_on_c, 0, 62, 0
2, 1219, Note_on_c, 0, 56, 0
2, 1219, Note_on_c, 0, 52, 0
2, 1221, Note_on_c, 0, 68, 0
2, 1237, Note_on_c, 0, 64, 0
2, 1240, Note_on_c, 0, 61, 100
2, 1240, Note_on_c, 0, 45, 100
2, 1265, Note_on_c, 0, 67, 100
2, 1286, Note_on_c, 0, 45, 0
2, 1290, Note_on_c, 0, 69, 100
2, 1290, Note_on_c, 0, 52, 100
2, 1290, Note_on_c, 0, 55, 100
2, 1290, Note_on_c, 0, 57, 100
2, 1291, Note_on_c, 0, 67, 0
2, 1299, Note_on_c, 0, 61, 0
2, 1315, Note_on_c, 0, 61, 100
2, 1315, Note_on_c, 0, 67, 100
2, 1315, Note_on_c, 0, 71, 100
2, 1319, Note_on_c, 0, 57, 0
2, 1319, Note_on_c, 0, 55, 0
2, 1319, Note_on_c, 0, 52, 0
2, 1321, Note_on_c, 0, 69, 0
2, 1340, Note_on_c, 0, 45, 100
2, 1354, Note_on_c, 0, 61, 0
2, 1354, Note_on_c, 0, 67, 0
2, 1354, Note_on_c, 0, 71, 0
2, 1365, Note_on_c, 0, 70, 100
2, 1386, Note_on_c, 0, 45, 0
2, 1390, Note_on_c, 0, 61, 100
2, 1390, Note_on_c, 0, 67, 100
2, 1390, Note_on_c, 0, 71, 100
2, 1390, Note_on_c, 0, 52, 100
2, 1390, Note_on_c, 0, 55, 100
2, 1390, Note_on_c, 0, 57, 100
2, 1392, Note_on_c, 0, 70, 0
2, 1419, Note_on_c, 0, 57, 0
2, 1419, Note_on_c, 0, 55, 0
2, 1419, Note_on_c, 0, 52, 0
2, 1429, Note_on_c, 0, 61, 0
2, 1429, Note_on_c, 0, 67, 0
2, 1429, Note_on_c, 0, 71, 0
2, 1440, Note_on_c, 0, 50, 100
2, 1440, Note_on_c, 0, 38, 100
2, 1465, Note_on_c, 0, 66, 100
2, 1465, Note_on_c, 0, 60, 100
2, 1490, Note_on_c, 0, 39, 100
2, 1490, Note_on_c, 0, 51, 100
2, 1492, Note_on_c, 0, 38, 0
2, 1492, Note_on_c, 0, 50, 0
2, 1515, Note_on_c, 0, 72, 100
2, 1518, Note_on_c, 0, 60, 0
2, 1518, Note_on_c, 0, 66, 0
2, 1535, Note_on_c, 0, 72, 0
2, 1536, Note_on_c, 0, 39, 0
2, 1536, Note_on_c, 0, 51, 0
2, 1540, Note_on_c, 0, 50, 100
2, 1540, Note_on_c, 0, 38, 100
2, 1565, Note_on_c, 0, 60, 100
2, 1565, Note_on_c, 0, 66, 100
2, 1590, Note_on_c, 0, 39, 100
2, 1590, Note_on_c, 0, 51, 100
2, 1592, Note_on_c, 0, 38, 0
2, 1592, Note_on_c, 0, 50, 0
2, 1615, Note_on_c, 0, 72, 100
2, 1618, Note_on_c, 0, 66, 0
2, 1618, Note_on_c, 0, 60, 0
2, 1635, Note_on_c, 0, 72, 0
2, 1636, Note_on_c, 0, 39, 0
2, 1636, Note_on_c, 0, 51, 0
2, 1640, Note_on_c, 0, 50, 100
2, 1640, Note_on_c, 0, 38, 100
2, 1665, Note_on_c, 0, 62, 100
2, 1665, Note_on_c, 0, 74, 100
2, 1667, Note_on_c, 0, 38, 0
2, 1667, Note_on_c, 0, 50, 0
2, 1687, Note_on_c, 0, 74, 0
2, 1687, Note_on_c, 0, 62, 0
2, 1690, Note_on_c, 0, 39, 100
2, 1690, Note_on_c, 0, 51, 100
2, 1713, Note_on_c, 0, 51, 0
2, 1713, Note_on_c, 0, 39, 0
2, 1715, Note_on_c, 0, 75, 100
2, 1715, Note_on_c, 0, 63, 100
2, 1735, Note_on_c, 0, 63, 0
2, 1735, Note_on_c, 0, 75, 0
2, 1740, Note_on_c, 0, 52, 100
2, 1740, Note_on_c, 0, 40, 100
2, 1765, Note_on_c, 0, 64, 100
2, 1765, Note_on_c, 0, 76, 100
2, 1767, Note_on_c, 0, 40, 0
2, 1767, Note_on_c, 0, 52, 0
2, 1787, Note_on_c, 0, 76, 0
2, 1787, Note_on_c, 0, 64, 0
2, 1790, Note_on_c, 0, 42, 100
2, 1790, Note_on_c, 0, 54, 100
2, 1813, Note_on_c, 0, 54, 0
2, 1813, Note_on_c, 0, 42, 0
2, 1815, Note_on_c, 0, 78, 100
2, 1815, Note_on_c, 0, 66, 100
2, 1835, Note_on_c, 0, 66, 0
2, 1835, Note_on_c, 0, 78, 0
2, 1840, Note_on_c, 0, 43, 100
2, 1865, Note_on_c, 0, 74, 100
2, 1886, Note_on_c, 0, 43, 0
2, 1887, Note_on_c, 0, 74, 0
2, 1890, Note_on_c, 0, 79, 100
2, 1890, Note_on_c, 0, 67, 100
2, 1890, Note_on_c, 0, 59, 100
2, 1890, Note_on_c, 0, 50, 100
2, 1890, Note_on_c, 0, 55, 100
2, 1915, Note_on_c, 0, 74, 100
2, 1917, Note_on_c, 0, 67, 0
2, 1917, Note_on_c, 0, 79, 0
2, 1919, Note_on_c, 0, 55, 0
2, 1919, Note_on_c, 0, 50, 0
2, 1919, Note_on_c, 0, 59, 0
2, 1937, Note_on_c, 0, 74, 0
2, 1940, Note_on_c, 0, 76, 100
2, 1940, Note_on_c, 0, 48, 100
2, 1965, Note_on_c, 0, 79, 100
2, 1965, Note_on_c, 0, 67, 100
2, 1967, Note_on_c, 0, 76, 0
2, 1986, Note_on_c, 0, 48, 0
2, 1990, Note_on_c, 0, 52, 100
2, 1990, Note_on_c, 0, 55, 100
2, 1990, Note_on_c, 0, 60, 100
2, 2004, Note_on_c, 0, 67, 0
2, 2004, Note_on_c, 0, 79, 0
2, 2015, Note_on_c, 0, 76, 100
2, 2019, Note_on_c, 0, 60, 0
2, 2019, Note_on_c, 0, 55, 0
2, 2019, Note_on_c, 0, 52, 0
2, 2037, Note_on_c, 0, 76, 0
2, 2040, Note_on_c, 0, 79, 100
2, 2040, Note_on_c, 0, 67, 100
2, 2040, Note_on_c, 0, 43, 100
2, 2065, Note_on_c, 0, 74, 100
2, 2067, Note_on_c, 0, 67, 0
2, 2067, Note_on_c, 0, 79, 0
2, 2086, Note_on_c, 0, 43, 0
2, 2087, Note_on_c, 0, 74, 0
2, 2090, Note_on_c, 0, 76, 100
2, 2090, Note_on_c, 0, 50, 100
2, 2090, Note_on_c, 0, 55, 100
2, 2090, Note_on_c, 0, 59, 100
2, 2115, Note_on_c, 0, 79, 100
2, 2115, Note_on_c, 0, 67, 100
2, 2117, Note_on_c, 0, 76, 0
2, 2119, Note_on_c, 0, 59, 0
2, 2119, Note_on_c, 0, 55, 0
2, 2119, Note_on_c, 0, 50, 0
2, 2140, Note_on_c, 0, 59, 100
2, 2140, Note_on_c, 0, 47, 100
2, 2154, Note_on_c, 0, 67, 0
2, 2154, Note_on_c, 0, 79, 0
2, 2165, Note_on_c, 0, 74, 100
2, 2186, Note_on_c, 0, 47, 0
2, 2186, Note_on_c, 0, 59, 0
2, 2190, Note_on_c, 0, 79, 100
2, 2190, Note_on_c, 0, 67, 100
2, 2190, Note_on_c, 0, 46, 100
2, 2190, Note_on_c, 0, 58, 100
2, 2192, Note_on_c, 0, 74, 0
2, 2229, Note_on_c, 0, 67, 0
2, 2229, Note_on_c, 0, 79, 0
2, 2236, Note_on_c, 0, 58, 0
2, 2236, Note_on_c, 0, 46, 0
2, 2240, Note_on_c, 0, 57, 100
2, 2240, Note_on_c, 0, 45, 100
2, 2265, Note_on_c, 0, 72, 100
2, 2286, Note_on_c, 0, 45, 0
2, 2286, Note_on_c, 0, 57, 0
2, 2287, Note_on_c, 0, 72, 0
2, 2290, Note_on_c, 0, 76, 100
2, 2290, Note_on_c, 0, 64, 100
2, 2290, Note_on_c, 0, 60, 100
2, 2290, Note_on_c, 0, 57, 100
2, 2290, Note_on_c, 0, 52, 100
2, 2315, Note_on_c, 0, 69, 100
2, 2317, Note_on_c, 0, 64, 0
2, 2317, Note_on_c, 0, 76, 0
2, 2319, Note_on_c, 0, 52, 0
2, 2319, Note_on_c, 0, 57, 0
2, 2319, Note_on_c, 0, 60, 0
2, 2337, Note_on_c, 0, 69, 0
2, 2340, Note_on_c, 0, 71, 100
2, 2340, Note_on_c, 0, 47, 100
2, 2365, Note_on_c, 0, 76, 100
2, 2365, Note_on_c, 0, 64, 100
2, 2367, Note_on_c, 0, 71, 0
2, 2386, Note_on_c, 0, 47, 0
2, 2390, Note_on_c, 0, 52, 100
2, 2390, Note_on_c, 0, 56, 100
2, 2390, Note_on_c, 0, 62, 100
2, 2404, Note_on_c, 0, 64, 0
2, 2404, Note_on_c, 0, 76, 0
2, 2415, Note_on_c, 0, 71, 100
2, 2419, Note_on_c, 0, 62, 0
2, 2419, Note_on_c, 0, 56, 0
2, 2419, Note_on_c, 0, 52, 0
2, 2437, Note_on_c, 0, 71, 0
2, 2440, Note_on_c, 0, 76, 100
2, 2440, Note_on_c, 0, 64, 100
2, 2440, Note_on_c, 0, 48, 100
2, 2465, Note_on_c, 0, 69, 100
2, 2467, Note_on_c, 0, 64, 0
2, 2467, Note_on_c, 0, 76, 0
2, 2486, Note_on_c, 0, 48, 0
2, 2487, Note_on_c, 0, 69, 0
2, 2490, Note_on_c, 0, 72, 100
2, 2490, Note_on_c, 0, 52, 100
2, 2490, Note_on_c, 0, 57, 100
2, 2490, Note_on_c, 0, 60, 100
2, 2515, Note_on_c, 0, 76, 100
2, 2515, Note_on_c, 0, 64, 100
2, 2517, Note_on_c, 0, 72, 0
2, 2519, Note_on_c, 0, 60, 0
2, 2519, Note_on_c, 0, 57, 0
2, 2519, Note_on_c, 0, 52, 0
2, 2540, Note_on_c, 0, 57, 100
2, 2540, Note_on_c, 0, 45, 100
2, 2554, Note_on_c, 0, 64, 0
2, 2554, Note_on_c, 0, 76, 0
2, 2565, Note_on_c, 0, 69, 100
2, 2586, Note_on_c, 0, 45, 0
2, 2586, Note_on_c, 0, 57, 0
2, 2590, Note_on_c, 0, 61, 100
2, 2590, Note_on_c, 0, 67, 100
2, 2590, Note_on_c, 0, 75, 100
2, 2590, Note_on_c, 0, 46, 100
2, 2590, Note_on_c, 0, 58, 100
2, 2592, Note_on_c, 0, 69, 0
2, 2629, Note_on_c, 0, 61, 0
2, 2629, Note_on_c, 0, 67, 0
2, 2629, Note_on_c, 0, 75, 0
2, 2636, Note_on_c, 0, 58, 0
2, 2636, Note_on_c, 0, 46, 0
2, 2640, Note_on_c, 0, 74, 100
2, 2640, Note_on_c, 0, 62, 100
2, 2640, Note_on_c, 0, 47, 100
2, 2640, Note_on_c, 0, 59, 100
2, 2665, Note_on_c, 0, 67, 100
2, 2667, Note_on_c, 0, 62, 0
2, 2667, Note_on_c, 0, 74, 0
2, 2686, Note_on_c, 0, 59, 0
2, 2686, Note_on_c, 0, 47, 0
2, 2687, Note_on_c, 0, 67, 0
2, 2690, Note_on_c, 0, 71, 100
2, 2690, Note_on_c, 0, 59, 100
2, 2690, Note_on_c, 0, 55, 100
2, 2690, Note_on_c, 0, 50, 100
2, 2715, Note_on_c, 0, 64, 100
2, 2715, Note_on_c, 0, 76, 100
2, 2717, Note_on_c, 0, 71, 0
2, 2736, Note_on_c, 0, 50, 0
2, 2736, Note_on_c, 0, 55, 0
2, 2736, Note_on_c, 0, 59, 0
2, 2740, Note_on_c, 0, 40, 100
2, 2764, Note_on_c, 0, 76, 0
2, 2765, Note_on_c, 0, 71, 100
2, 2786, Note_on_c, 0, 40, 0
2, 2787, Note_on_c, 0, 71, 0
2, 2790, Note_on_c, 0, 68, 100
2, 2790, Note_on_c, 0, 52, 100
2, 2790, Note_on_c, 0, 56, 100
2, 2790, Note_on_c, 0, 62, 100
2, 2796, Note_on_c, 0, 64, 0
2, 2815, Note_on_c, 0, 64, 100
2, 2817, Note_on_c, 0, 68, 0
2, 2819, Note_on_c, 0, 62, 0
2, 2819, Note_on_c, 0, 56, 0
2, 2819, Note_on_c, 0, 52, 0
2, 2837, Note_on_c, 0, 64, 0
2, 2840, Note_on_c, 0, 61, 100
2, 2840, Note_on_c, 0, 45, 100
2, 2865, Note_on_c, 0, 67, 100
2, 2886, Note_on_c, 0, 45, 0
2, 2887, Note_on_c, 0, 67, 0
2, 2890, Note_on_c, 0, 69, 100
2, 2890, Note_on_c, 0, 52, 100
2, 2890, Note_on_c, 0, 55, 100
2, 2899, Note_on_c, 0, 61, 0
2, 2915, Note_on_c, 0, 61, 100
2, 2915, Note_on_c, 0, 67, 100
2, 2915, Note_on_c, 0, 71, 100
2, 2917, Note_on_c, 0, 69, 0
2, 2919, Note_on_c, 0, 55, 0
2, 2919, Note_on_c, 0, 52, 0
2, 2940, Note_on_c, 0, 45, 100
2, 2954, Note_on_c, 0, 61, 0
2, 2954, Note_on_c, 0, 67, 0
2, 2954, Note_on_c, 0, 71, 0
2, 2965, Note_on_c, 0, 67, 100
2, 2986, Note_on_c, 0, 45, 0
2, 2990, Note_on_c, 0, 60, 100
2, 2990, Note_on_c, 0, 66, 100
2, 2990, Note_on_c, 0, 69, 100
2, 2990, Note_on_c, 0, 50, 100
2, 2990, Note_on_c, 0, 54, 100
2, 2992, Note_on_c, 0, 67, 0
2, 3029, Note_on_c, 0, 60, 0
2, 3029, Note_on_c, 0, 66, 0
2, 3029, Note_on_c, 0, 69, 0
2, 3036, Note_on_c, 0, 50, 0
2, 3040, Note_on_c, 0, 59, 100
2, 3040, Note_on_c, 0, 62, 100
2, 3040, Note_on_c, 0, 67, 100
2, 3040, Note_on_c, 0, 55, 100
2, 3040, Note_on_c, 0, 50, 100
2, 3040, Note_on_c, 0, 43, 100
2, 3043, Note_on_c, 0, 54, 0
2, 3079, Note_on_c, 0, 67, 0
2, 3079, Note_on_c, 0, 62, 0
2, 3079, Note_on_c, 0, 59, 0
2, 3086, Note_on_c, 0, 55, 0
2, 3086, Note_on_c, 0, 50, 0
2, 3086, Note_on_c, 0, 43, 0
2, 3090, Note_on_c, 0, 62, 100
2, 3090, Note_on_c, 0, 50, 100
2, 3115, Note_on_c, 0, 64, 100
2, 3115, Note_on_c, 0, 52, 100
2, 3117, Note_on_c, 0, 62, 0
2, 3121, Note_on_c, 0, 50, 0
2, 3154, Note_on_c, 0, 64, 0
2, 3165, Note_on_c, 0, 62, 100
2, 3185, Note_on_c, 0, 62, 0
2, 3190, Note_on_c, 0, 66, 100
2, 3190, Note_on_c, 0, 62, 100
2, 3190, Note_on_c, 0, 60, 100
2, 3190, Note_on_c, 0, 50, 100
2, 3190, Note_on_c, 0, 38, 100
2, 3196, Note_on_c, 0, 52, 0
2, 3229, Note_on_c, 0, 62, 0
2, 3236, Note_on_c, 0, 50, 0
2, 3238, Note_on_c, 0, 60, 0
2, 3238, Note_on_c, 0, 66, 0
2, 3240, Note_on_c, 0, 59, 100
2, 3240, Note_on_c, 0, 62, 100
2, 3240, Note_on_c, 0, 67, 100
2, 3240, Note_on_c, 0, 50, 100
2, 3240, Note_on_c, 0, 43, 100
2, 3245, Note_on_c, 0, 38, 0
2, 3279, Note_on_c, 0, 67, 0
2, 3279, Note_on_c, 0, 62, 0
2, 3279, Note_on_c, 0, 59, 0
2, 3286, Note_on_c, 0, 43, 0
2, 3286, Note_on_c, 0, 50, 0
2, 3340, Note_on_c, 0, 67, 100
2, 3340, Note_on_c, 0, 71, 100
2, 3340, Note_on_c, 0, 74, 100
2, 3340, Note_on_c, 0, 79, 100
2, 3340, Note_on_c, 0, 43, 100
2, 3340, Note_on_c, 0, 31, 100
2, 3386, Note_on_c, 0, 31, 0
2, 3386, Note_on_c, 0, 43, 0
2, 3388, Note_on_c, 0, 79, 0
2, 3388, Note_on_c, 0, 67, 0
2, 3388, Note_on_c, 0, 71, 0
2, 3388, Note_on_c, 0, 74, 0
2, 3440, Note_on_c, 0, 43, 100
2, 3465, Note_on_c, 0, 74, 100
2, 3486, Note_on_c, 0, 43, 0
2, 3490, Note_on_c, 0, 79, 100
2, 3490, Note_on_c, 0, 67, 100
2, 3490, Note_on_c, 0, 59, 100
2, 3490, Note_on_c, 0, 50, 100
2, 3490, Note_on_c, 0, 55, 100
2, 3491, Note_on_c, 0, 74, 0
2, 3515, Note_on_c, 0, 74, 100
2, 3519, Note_on_c, 0, 55, 0
2, 3519, Note_on_c, 0, 50, 0
2, 3519, Note_on_c, 0, 59, 0
2, 3522, Note_on_c, 0, 67, 0
2, 3522, Note_on_c, 0, 79, 0
2, 3540, Note_on_c, 0, 76, 100
2, 3540, Note_on_c, 0, 48, 100
2, 3541, Note_on_c, 0, 74, 0
2, 3565, Note_on_c, 0, 79, 100
2, 3565, Note_on_c, 0, 67, 100
2, 3572, Note_on_c, 0, 76, 0
2, 3586, Note_on_c, 0, 48, 0
2, 3590, Note_on_c, 0, 52, 100
2, 3590, Note_on_c, 0, 55, 100
2, 3590, Note_on_c, 0, 60, 100
2, 3611, Note_on_c, 0, 67, 0
2, 3611, Note_on_c, 0, 79, 0
2, 3615, Note_on_c, 0, 76, 100
2, 3619, Note_on_c, 0, 60, 0
2, 3619, Note_on_c, 0, 55, 0
2, 3619, Note_on_c, 0, 52, 0
2, 3640, Note_on_c, 0, 79, 100
2, 3640, Note_on_c, 0, 67, 100
2, 3640, Note_on_c, 0, 43, 100
2, 3641, Note_on_c, 0, 76, 0
2, 3665, Note_on_c, 0, 74, 100
2, 3672, Note_on_c, 0, 67, 0
2, 3672, Note_on_c, 0, 79, 0
2, 3686, Note_on_c, 0, 43, 0
2, 3690, Note_on_c, 0, 76, 100
2, 3690, Note_on_c, 0, 50, 100
2, 3690, Note_on_c, 0, 55, 100
2, 3690, Note_on_c, 0, 59, 100
2, 3691, Note_on_c, 0, 74, 0
2, 3715, Note_on_c, 0, 79, 100
2, 3715, Note_on_c, 0, 67, 100
2, 3719, Note_on_c, 0, 59, 0
2, 3719, Note_on_c, 0, 55, 0
2, 3719, Note_on_c, 0, 50, 0
2, 3722, Note_on_c, 0, 76, 0
2, 3740, Note_on_c, 0, 59, 100
2, 3740, Note_on_c, 0, 47, 100
2, 3761, Note_on_c, 0, 67, 0
2, 3761, Note_on_c, 0, 79, 0
2, 3765, Note_on_c, 0, 74, 100
2, 3786, Note_on_c, 0, 47, 0
2, 3786, Note_on_c, 0, 59, 0
2, 3790, Note_on_c, 0, 79, 100
2, 3790, Note_on_c, 0, 67, 100
2, 3790, Note_on_c, 0, 46, 100
2, 3790, Note_on_c, 0, 58, 100
2, 3797, Note_on_c, 0, 74, 0
2, 3836, Note_on_c, 0, 67, 0
2, 3836, Note_on_c, 0, 79, 0
2, 3836, Note_on_c, 0, 58, 0
2, 3836, Note_on_c, 0, 46, 0
2, 3840, Note_on_c, 0, 57, 100
2, 3840, Note_on_c, 0, 45, 100
2, 3865, Note_on_c, 0, 72, 100
2, 3886, Note_on_c, 0, 45, 0
2, 3886, Note_on_c, 0, 57, 0
2, 3890, Note_on_c, 0, 76, 100
2, 3890, Note_on_c, 0, 64, 100
2, 3890, Note_on_c, 0, 60, 100
2, 3890, Note_on_c, 0, 57, 100
2, 3890, Note_on_c, 0, 52, 100
2, 3891, Note_on_c, 0, 72, 0
2, 3915, Note_on_c, 0, 69, 100
2, 3919, Note_on_c, 0, 52, 0
2, 3919, Note_on_c, 0, 57, 0
2, 3919, Note_on_c, 0, 60, 0
2, 3922, Note_on_c, 0, 64, 0
2, 3922, Note_on_c, 0, 76, 0
2, 3940, Note_on_c, 0, 71, 100
2, 3940, Note_on_c, 0, 47, 100
2, 3941, Note_on_c, 0, 69, 0
2, 3965, Note_on_c, 0, 76, 100
2, 3965, Note_on_c, 0, 64, 100
2, 3972, Note_on_c, 0, 71, 0
2, 3986, Note_on_c, 0, 47, 0
2, 3990, Note_on_c, 0, 52, 100
2, 3990, Note_on_c, 0, 56, 100
2, 3990, Note_on_c, 0, 62, 100
2, 4011, Note_on_c, 0, 64, 0
2, 4011, Note_on_c, 0, 76, 0
2, 4015, Note_on_c, 0, 71, 100
2, 4019, Note_on_c, 0, 62, 0
2, 4019, Note_on_c, 0, 56, 0
2, 4019, Note_on_c, 0, 52, 0
2, 4040, Note_on_c, 0, 76, 100
2, 4040, Note_on_c, 0, 64, 100
2, 4040, Note_on_c, 0, 48, 100
2, 4041, Note_on_c, 0, 71, 0
2, 4065, Note_on_c, 0, 69, 100
2, 4072, Note_on_c, 0, 64, 0
2, 4072, Note_on_c, 0, 76, 0
2, 4086, Note_on_c, 0, 48, 0
2, 4090, Note_on_c, 0, 72, 100
2, 4090, Note_on_c, 0, 52, 100
2, 4090, Note_on_c, 0, 57, 100
2, 4090, Note_on_c, 0, 60, 100
2, 4091, Note_on_c, 0, 69, 0
2, 4115, Note_on_c, 0, 76, 100
2, 4115, Note_on_c, 0, 64, 100
2, 4119, Note_on_c, 0, 60, 0
2, 4119, Note_on_c, 0, 57, 0
2, 4119, Note_on_c, 0, 52, 0
2, 4122, Note_on_c, 0, 72, 0
2, 4140, Note_on_c, 0, 57, 100
2, 4140, Note_on_c, 0, 45, 100
2, 4161, Note_on_c, 0, 64, 0
2, 4161, Note_on_c, 0, 76, 0
2, 4165, Note_on_c, 0, 69, 100
2, 4186, Note_on_c, 0, 45, 0
2, 4186, Note_on_c, 0, 57, 0
2, 4190, Note_on_c, 0, 61, 100
2, 4190, Note_on_c, 0, 67, 100
2, 4190, Note_on_c, 0, 75, 100
2, 4190, Note_on_c, 0, 46, 100
2, 4190, Note_on_c, 0, 58, 100
2, 4197, Note_on_c, 0, 69, 0
2, 4236, Note_on_c, 0, 61, 0
2, 4236, Note_on_c, 0, 67, 0
2, 4236, Note_on_c, 0, 75, 0
2, 4236, Note_on_c, 0, 58, 0
2, 4236, Note_on_c, 0, 46, 0
2, 4240, Note_on_c, 0, 74, 100
2, 4240, Note_on_c, 0, 62, 100
2, 4240, Note_on_c, 0, 47, 100
2, 4240, Note_on_c, 0, 59, 100
2, 4265, Note_on_c, 0, 67, 100
2, 4272, Note_on_c, 0, 62, 0
2, 4272, Note_on_c, 0, 74, 0
2, 4286, Note_on_c, 0, 59, 0
2, 4286, Note_on_c, 0, 47, 0
2, 4290, Note_on_c, 0, 71, 100
2, 4290, Note_on_c, 0, 59, 100
2, 4290, Note_on_c, 0, 55, 100
2, 4290, Note_on_c, 0, 50, 100
2, 4291, Note_on_c, 0, 67, 0
2, 4315, Note_on_c, 0, 64, 100
2, 4315, Note_on_c, 0, 76, 100
2, 4319, Note_on_c, 0, 50, 0
2, 4319, Note_on_c, 0, 55, 0
2, 4319, Note_on_c, 0, 59, 0
2, 4322, Note_on_c, 0, 71, 0
2, 4340, Note_on_c, 0, 40, 100
2, 4365, Note_on_c, 0, 71, 100
2, 4373, Note_on_c, 0, 76, 0
2, 4386, Note_on_c, 0, 40, 0
2, 4390, Note_on_c, 0, 68, 100
2, 4390, Note_on_c, 0, 52, 100
2, 4390, Note_on_c, 0, 56, 100
2, 4390, Note_on_c, 0, 62, 100
2, 4395, Note_on_c, 0, 71, 0
2, 4410, Note_on_c, 0, 64, 0
2, 4415, Note_on_c, 0, 64, 100
2, 4419, Note_on_c, 0, 62, 0
2, 4419, Note_on_c, 0, 56, 0
2, 4419, Note_on_c, 0, 52, 0
2, 4427, Note_on_c, 0, 68, 0
2, 4440, Note_on_c, 0, 61, 100
2, 4440, Note_on_c, 0, 45, 100
2, 4441, Note_on_c, 0, 64, 0
2, 4465, Note_on_c, 0, 67, 100
2, 4486, Note_on_c, 0, 45, 0
2, 4490, Note_on_c, 0, 69, 100
2, 4490, Note_on_c, 0, 52, 100
2, 4490, Note_on_c, 0, 55, 100
2, 4490, Note_on_c, 0, 57, 100
2, 4495, Note_on_c, 0, 67, 0
2, 4509, Note_on_c, 0, 61, 0
2, 4515, Note_on_c, 0, 61, 100
2, 4515, Note_on_c, 0, 67, 100
2, 4515, Note_on_c, 0, 71, 100
2, 4519, Note_on_c, 0, 57, 0
2, 4519, Note_on_c, 0, 55, 0
2, 4519, Note_on_c, 0, 52, 0
2, 4527, Note_on_c, 0, 69, 0
2, 4540, Note_on_c, 0, 45, 100
2, 4561, Note_on_c, 0, 61, 0
2, 4561, Note_on_c, 0, 67, 0
2, 4561, Note_on_c, 0, 71, 0
2, 4565, Note_on_c, 0, 70, 100
2, 4586, Note_on_c, 0, 45, 0
2, 4590, Note_on_c, 0, 61, 100
2, 4590, Note_on_c, 0, 67, 100
2, 4590, Note_on_c, 0, 71, 100
2, 4590, Note_on_c, 0, 52, 100
2, 4590, Note_on_c, 0, 55, 100
2, 4590, Note_on_c, 0, 57, 100
2, 4597, Note_on_c, 0, 70, 0
2, 4619, Note_on_c, 0, 57, 0
2, 4619, Note_on_c, 0, 55, 0
2, 4619, Note_on_c, 0, 52, 0
2, 4636, Note_on_c, 0, 61, 0
2, 4636, Note_on_c, 0, 67, 0
2, 4636, Note_on_c, 0, 71, 0
2, 4640, Note_on_c, 0, 50, 100
2, 4640, Note_on_c, 0, 38, 100
2, 4665, Note_on_c, 0, 66, 100
2, 4665, Note_on_c, 0, 60, 100
2, 4676, Note_on_c, 0, 38, 0
2, 4676, Note_on_c, 0, 50, 0
2, 4690, Note_on_c, 0, 39, 100
2, 4690, Note_on_c, 0, 51, 100
2, 4715, Note_on_c, 0, 72, 100
2, 4727, Note_on_c, 0, 60, 0
2, 4727, Note_on_c, 0, 66, 0
2, 4736, Note_on_c, 0, 51, 0
2, 4736, Note_on_c, 0, 39, 0
2, 4738, Note_on_c, 0, 72, 0
2, 4740, Note_on_c, 0, 50, 100
2, 4740, Note_on_c, 0, 38, 100
2, 4765, Note_on_c, 0, 60, 100
2, 4765, Note_on_c, 0, 66, 100
2, 4776, Note_on_c, 0, 38, 0
2, 4776, Note_on_c, 0, 50, 0
2, 4790, Note_on_c, 0, 39, 100
2, 4790, Note_on_c, 0, 51, 100
2, 4815, Note_on_c, 0, 72, 100
2, 4827, Note_on_c, 0, 66, 0
2, 4827, Note_on_c, 0, 60, 0
2, 4836, Note_on_c, 0, 51, 0
2, 4836, Note_on_c, 0, 39, 0
2, 4838, Note_on_c, 0, 72, 0
2, 4840, Note_on_c, 0, 50, 100
2, 4840, Note_on_c, 0, 38, 100
2, 4865, Note_on_c, 0, 62, 100
2, 4865, Note_on_c, 0, 74, 100
2, 4867, Note_on_c, 0, 38, 0
2, 4867, Note_on_c, 0, 50, 0
2, 4890, Note_on_c, 0, 39, 100
2, 4890, Note_on_c, 0, 51, 100
2, 4891, Note_on_c, 0, 74, 0
2, 4891, Note_on_c, 0, 62, 0
2, 4913, Note_on_c, 0, 51, 0
2, 4913, Note_on_c, 0, 39, 0
2, 4915, Note_on_c, 0, 75, 100
2, 4915, Note_on_c, 0, 63, 100
2, 4938, Note_on_c, 0, 63, 0
2, 4938, Note_on_c, 0, 75, 0
2, 4940, Note_on_c, 0, 52, 100
2, 4940, Note_on_c, 0, 40, 100
2, 4965, Note_on_c, 0, 64, 100
2, 4965, Note_on_c, 0, 76, 100
2, 4967, Note_on_c, 0, 40, 0
2, 4967, Note_on_c, 0, 52, 0
2, 4990, Note_on_c, 0, 42, 100
2, 4990, Note_on_c, 0, 54, 100
2, 4991, Note_on_c, 0, 76, 0
2, 4991, Note_on_c, 0, 64, 0
2, 5013, Note_on_c, 0, 54, 0
2, 5013, Note_on_c, 0, 42, 0
2, 5015, Note_on_c, 0, 78, 100
2, 5015, Note_on_c, 0, 66, 100
2, 5038, Note_on_c, 0, 66, 0
2, 5038, Note_on_c, 0, 78, 0
2, 5040, Note_on_c, 0, 43, 100
2, 5065, Note_on_c, 0, 74, 100
2, 5086, Note_on_c, 0, 43, 0
2, 5090, Note_on_c, 0, 79, 100
2, 5090, Note_on_c, 0, 67, 100
2, 5090, Note_on_c, 0, 59, 100
2, 5090, Note_on_c, 0, 50, 100
2, 5090, Note_on_c, 0, 55, 100
2, 5091, Note_on_c, 0, 74, 0
2, 5115, Note_on_c, 0, 74, 100
2, 5119, Note_on_c, 0, 55, 0
2, 5119, Note_on_c, 0, 50, 0
2, 5119, Note_on_c, 0, 59, 0
2, 5122, Note_on_c, 0, 67, 0
2, 5122, Note_on_c, 0, 79, 0
2, 5140, Note_on_c, 0, 76, 100
2, 5140, Note_on_c, 0, 48, 100
2, 5141, Note_on_c, 0, 74, 0
2, 5165, Note_on_c, 0, 79, 100
2, 5165, Note_on_c, 0, 67, 100
2, 5172, Note_on_c, 0, 76, 0
2, 5186, Note_on_c, 0, 48, 0
2, 5190, Note_on_c, 0, 52, 100
2, 5190, Note_on_c, 0, 55, 100
2, 5190, Note_on_c, 0, 60, 100
2, 5211, Note_on_c, 0, 67, 0
2, 5211, Note_on_c, 0, 79, 0
2, 5215, Note_on_c, 0, 76, 100
2, 5219, Note_on_c, 0, 60, 0
2, 5219, Note_on_c, 0, 55, 0
2, 5219, Note_on_c, 0, 52, 0
2, 5240, Note_on_c, 0, 79, 100
2, 5240, Note_on_c, 0, 67, 100
2, 5240, Note_on_c, 0, 43, 100
2, 5241, Note_on_c, 0, 76, 0
2, 5265, Note_on_c, 0, 74, 100
2, 5272, Note_on_c, 0, 67, 0
2, 5272, Note_on_c, 0, 79, 0
2, 5286, Note_on_c, 0, 43, 0
2, 5290, Note_on_c, 0, 76, 100
2, 5290, Note_on_c, 0, 50, 100
2, 5290, Note_on_c, 0, 55, 100
2, 5290, Note_on_c, 0, 59, 100
2, 5291, Note_on_c, 0, 74, 0
2, 5315, Note_on_c, 0, 79, 100
2, 5315, Note_on_c, 0, 67, 100
2, 5319, Note_on_c, 0, 59, 0
2, 5319, Note_on_c, 0, 55, 0
2, 5319, Note_on_c, 0, 50, 0
2, 5322, Note_on_c, 0, 76, 0
2, 5340, Note_on_c, 0, 59, 100
2, 5340, Note_on_c, 0, 47, 100
2, 5361, Note_on_c, 0, 67, 0
2, 5361, Note_on_c, 0, 79, 0
2, 5365, Note_on_c, 0, 74, 100
2, 5386, Note_on_c, 0, 47, 0
2, 5386, Note_on_c, 0, 59, 0
2, 5390, Note_on_c, 0, 79, 100
2, 5390, Note_on_c, 0, 67, 100
2, 5390, Note_on_c, 0, 46, 100
2, 5390, Note_on_c, 0, 58, 100
2, 5397, Note_on_c, 0, 74, 0
2, 5436, Note_on_c, 0, 67, 0
2, 5436, Note_on_c, 0, 79, 0
2, 5436, Note_on_c, 0, 58, 0
2, 5436, Note_on_c, 0, 46, 0
2, 5440, Note_on_c, 0, 57, 100
2, 5440, Note_on_c, 0, 45, 100
2, 5465, Note_on_c, 0, 72, 100
2, 5486, Note_on_c, 0, 45, 0
2, 5486, Note_on_c, 0, 57, 0
2, 5490, Note_on_c, 0, 76, 100
2, 5490, Note_on_c, 0, 64, 100
2, 5490, Note_on_c, 0, 60, 100
2, 5490, Note_on_c, 0, 57, 100
2, 5490, Note_on_c, 0, 52, 100
2, 5491, Note_on_c, 0, 72, 0
2, 5515, Note_on_c, 0, 69, 100
2, 5519, Note_on_c, 0, 52, 0
2, 5519, Note_on_c, 0, 57, 0
2, 5519, Note_on_c, 0, 60, 0
2, 5522, Note_on_c, 0, 64, 0
2, 5522, Note_on_c, 0, 76, 0
2, 5540, Note_on_c, 0, 71, 100
2, 5540, Note_on_c, 0, 47, 100
2, 5541, Note_on_c, 0, 69, 0
2, 5565, Note_on_c, 0, 76, 100
2, 5565, Note_on_c, 0, 64, 100
2, 5572, Note_on_c, 0, 71, 0
2, 5586, Note_on_c, 0, 47, 0
2, 5590, Note_on_c, 0, 52, 100
2, 5590, Note_on_c, 0, 56, 100
2, 5590, Note_on_c, 0, 62, 100
2, 5611, Note_on_c, 0, 64, 0
2, 5611, Note_on_c, 0, 76, 0
2, 5615, Note_on_c, 0, 71, 100
2, 5619, Note_on_c, 0, 62, 0
2, 5619, Note_on_c, 0, 56, 0
2, 5619, Note_on_c, 0, 52, 0
2, 5640, Note_on_c, 0, 76, 100
2, 5640, Note_on_c, 0, 64, 100
2, 5640, Note_on_c, 0, 48, 100
2, 5641, Note_on_c, 0, 71, 0
2, 5665, Note_on_c, 0, 69, 100
2, 5672, Note_on_c, 0, 64, 0
2, 5672, Note_on_c, 0, 76, 0
2, 5686, Note_on_c, 0, 48, 0
2, 5690, Note_on_c, 0, 72, 100
2, 5690, Note_on_c, 0, 52, 100
2, 5690, Note_on_c, 0, 57, 100
2, 5690, Note_on_c, 0, 60, 100
2, 5691, Note_on_c, 0, 69, 0
2, 5715, Note_on_c, 0, 76, 100
2, 5715, Note_on_c, 0, 64, 100
2, 5719, Note_on_c, 0, 60, 0
2, 5719, Note_on_c, 0, 57, 0
2, 5719, Note_on_c, 0, 52, 0
2, 5722, Note_on_c, 0, 72, 0
2, 5740, Note_on_c, 0, 57, 100
2, 5740, Note_on_c, 0, 45, 100
2, 5761, Note_on_c, 0, 64, 0
2, 5761, Note_on_c, 0, 76, 0
2, 5765, Note_on_c, 0, 69, 100
2, 5786, Note_on_c, 0, 45, 0
2, 5786, Note_on_c, 0, 57, 0
2, 5790, Note_on_c, 0, 61, 100
2, 5790, Note_on_c, 0, 67, 100
2, 5790, Note_on_c, 0, 75, 100
2, 5790, Note_on_c, 0, 46, 100
2, 5790, Note_on_c, 0, 58, 100
2, 5797, Note_on_c, 0, 69, 0
2, 5836, Note_on_c, 0, 61, 0
2, 5836, Note_on_c, 0, 67, 0
2, 5836, Note_on_c, 0, 75, 0
2, 5836, Note_on_c, 0, 58, 0
2, 5836, Note_on_c, 0, 46, 0
2, 5840, Note_on_c, 0, 74, 100
2, 5840, Note_on_c, 0, 62, 100
2, 5840, Note_on_c, 0, 47, 100
2, 5840, Note_on_c, 0, 59, 100
2, 5865, Note_on_c, 0, 67, 100
2, 5872, Note_on_c, 0, 62, 0
2, 5872, Note_on_c, 0, 74, 0
2, 5886, Note_on_c, 0, 59, 0
2, 5886, Note_on_c, 0, 47, 0
2, 5890, Note_on_c, 0, 71, 100
2, 5890, Note_on_c, 0, 59, 100
2, 5890, Note_on_c, 0, 55, 100
2, 5890, Note_on_c, 0, 50, 100
2, 5891, Note_on_c, 0, 67, 0
2, 5915, Note_on_c, 0, 64, 100
2, 5915, Note_on_c, 0, 76, 100
2, 5922, Note_on_c, 0, 71, 0
2, 5936, Note_on_c, 0, 50, 0
2, 5936, Note_on_c, 0, 55, 0
2, 5936, Note_on_c, 0, 59, 0
2, 5940, Note_on_c, 0, 40, 100
2, 5965, Note_on_c, 0, 71, 100
2, 5973, Note_on_c, 0, 76, 0
2, 5986, Note_on_c, 0, 40, 0
2, 5990, Note_on_c, 0, 68, 100
2, 5990, Note_on_c, 0, 52, 100
2, 5990, Note_on_c, 0, 56, 100
2, 5990, Note_on_c, 0, 62, 100
2, 5991, Note_on_c, 0, 71, 0
2, 6010, Note_on_c, 0, 64, 0
2, 6015, Note_on_c, 0, 64, 100
2, 6019, Note_on_c, 0, 62, 0
2, 6019, Note_on_c, 0, 56, 0
2, 6019, Note_on_c, 0, 52, 0
2, 6022, Note_on_c, 0, 68, 0
2, 6040, Note_on_c, 0, 61, 100
2, 6040, Note_on_c, 0, 45, 100
2, 6041, Note_on_c, 0, 64, 0
2, 6065, Note_on_c, 0, 67, 100
2, 6086, Note_on_c, 0, 45, 0
2, 6090, Note_on_c, 0, 69, 100
2, 6090, Note_on_c, 0, 52, 100
2, 6090, Note_on_c, 0, 55, 100
2, 6091, Note_on_c, 0, 67, 0
2, 6109, Note_on_c, 0, 61, 0
2, 6115, Note_on_c, 0, 61, 100
2, 6115, Note_on_c, 0, 67, 100
2, 6115, Note_on_c, 0, 71, 100
2, 6119, Note_on_c, 0, 55, 0
2, 6119, Note_on_c, 0, 52, 0
2, 6122, Note_on_c, 0, 69, 0
2, 6140, Note_on_c, 0, 45, 100
2, 6161, Note_on_c, 0, 61, 0
2, 6161, Note_on_c, 0, 67, 0
2, 6161, Note_on_c, 0, 71, 0
2, 6165, Note_on_c, 0, 67, 100
2, 6186, Note_on_c, 0, 45, 0
2, 6190, Note_on_c, 0, 60, 100
2, 6190, Note_on_c, 0, 66, 100
2, 6190, Note_on_c, 0, 69, 100
2, 6190, Note_on_c, 0, 50, 100
2, 6190, Note_on_c, 0, 54, 100
2, 6197, Note_on_c, 0, 67, 0
2, 6236, Note_on_c, 0, 60, 0
2, 6236, Note_on_c, 0, 66, 0
2, 6236, Note_on_c, 0, 69, 0
2, 6236, Note_on_c, 0, 50, 0
2, 6240, Note_on_c, 0, 59, 100
2, 6240, Note_on_c, 0, 62, 100
2, 6240, Note_on_c, 0, 67, 100
2, 6240, Note_on_c, 0, 55, 100
2, 6240, Note_on_c, 0, 50, 100
2, 6240, Note_on_c, 0, 43, 100
2, 6243, Note_on_c, 0, 54, 0
2, 6286, Note_on_c, 0, 67, 0
2, 6286, Note_on_c, 0, 62, 0
2, 6286, Note_on_c, 0, 59, 0
2, 6286, Note_on_c, 0, 55, 0
2, 6286, Note_on_c, 0, 50, 0
2, 6286, Note_on_c, 0, 43, 0
2, 6290, Note_on_c, 0, 62, 100
2, 6290, Note_on_c, 0, 50, 100
2, 6315, Note_on_c, 0, 64, 100
2, 6315, Note_on_c, 0, 52, 100
2, 6321, Note_on_c, 0, 50, 0
2, 6322, Note_on_c, 0, 62, 0
2, 6361, Note_on_c, 0, 64, 0
2, 6365, Note_on_c, 0, 62, 100
2, 6388, Note_on_c, 0, 62, 0
2, 6390, Note_on_c, 0, 66, 100
2, 6390, Note_on_c, 0, 62, 100
2, 6390, Note_on_c, 0, 60, 100
2, 6390, Note_on_c, 0, 50, 100
2, 6390, Note_on_c, 0, 38, 100
2, 6396, Note_on_c, 0, 52, 0
2, 6436, Note_on_c, 0, 62, 0
2, 6436, Note_on_c, 0, 50, 0
2, 6440, Note_on_c, 0, 59, 100
2, 6440, Note_on_c, 0, 62, 100
2, 6440, Note_on_c, 0, 67, 100
2, 6440, Note_on_c, 0, 50, 100
2, 6440, Note_on_c, 0, 43, 100
2, 6445, Note_on_c, 0, 38, 0
2, 6447, Note_on_c, 0, 60, 0
2, 6447, Note_on_c, 0, 66, 0
2, 6486, Note_on_c, 0, 62, 0
2, 6486, Note_on_c, 0, 59, 0
2, 6486, Note_on_c, 0, 67, 0
2, 6486, Note_on_c, 0, 43, 0
2, 6486, Note_on_c, 0, 50, 0
2, 6540, Note_on_c, 0, 67, 100
2, 6540, Note_on_c, 0, 71, 100
2, 6540, Note_on_c, 0, 74, 100
2, 6540, Note_on_c, 0, 79, 100
2, 6540, Note_on_c, 0, 43, 100
2, 6540, Note_on_c, 0, 31, 100
2, 6586, Note_on_c, 0, 31, 0
2, 6586, Note_on_c, 0, 43, 0
2, 6596, Note_on_c, 0, 79, 0
2, 6596, Note_on_c, 0, 67, 0
2, 6596, Note_on_c, 0, 71, 0
2, 6596, Note_on_c, 0, 74, 0
2, 6640, Note_on_c, 0, 72, 100
2, 6640, Note_on_c, 0, 45, 100
2, 6665, Note_on_c, 0, 74, 100
2, 6665, Note_on_c, 0, 78, 100
2, 6672, Note_on_c, 0, 72, 0
2, 6686, Note_on_c, 0, 45, 0
2, 6690, Note_on_c, 0, 50, 100
2, 6690, Note_on_c, 0, 54, 100
2, 6690, Note_on_c, 0, 60, 100
2, 6711, Note_on_c, 0, 78, 0
2, 6711, Note_on_c, 0, 74, 0
2, 6715, Note_on_c, 0, 69, 100
2, 6719, Note_on_c, 0, 60, 0
2, 6719, Note_on_c, 0, 54, 0
2, 6719, Note_on_c, 0, 50, 0
2, 6740, Note_on_c, 0, 76, 100
2, 6740, Note_on_c, 0, 72, 100
2, 6740, Note_on_c, 0, 38, 100
2, 6747, Note_on_c, 0, 69, 0
2, 6786, Note_on_c, 0, 72, 0
2, 6786, Note_on_c, 0, 76, 0
2, 6786, Note_on_c, 0, 38, 0
2, 6790, Note_on_c, 0, 66, 100
2, 6790, Note_on_c, 0, 50, 100
2, 6790, Note_on_c, 0, 54, 100
2, 6790, Note_on_c, 0, 60, 100
2, 6815, Note_on_c, 0, 72, 100
2, 6815, Note_on_c, 0, 69, 100
2, 6819, Note_on_c, 0, 60, 0
2, 6819, Note_on_c, 0, 54, 0
2, 6819, Note_on_c, 0, 50, 0
2, 6822, Note_on_c, 0, 66, 0
2, 6840, Note_on_c, 0, 45, 100
2, 6861, Note_on_c, 0, 69, 0
2, 6861, Note_on_c, 0, 72, 0
2, 6865, Note_on_c, 0, 64, 100
2, 6886, Note_on_c, 0, 45, 0
2, 6890, Note_on_c, 0, 60, 100
2, 6890, Note_on_c, 0, 54, 100
2, 6890, Note_on_c, 0, 50, 100
2, 6915, Note_on_c, 0, 66, 100
2, 6915, Note_on_c, 0, 69, 100
2, 6919, Note_on_c, 0, 50, 0
2, 6919, Note_on_c, 0, 54, 0
2, 6919, Note_on_c, 0, 60, 0
2, 6921, Note_on_c, 0, 64, 0
2, 6940, Note_on_c, 0, 38, 100
2, 6961, Note_on_c, 0, 69, 0
2, 6961, Note_on_c, 0, 66, 0
2, 6965, Note_on_c, 0, 62, 100
2, 6986, Note_on_c, 0, 38, 0
2, 6990, Note_on_c, 0, 64, 100
2, 6990, Note_on_c, 0, 60, 100
2, 6990, Note_on_c, 0, 54, 100
2, 6990, Note_on_c, 0, 50, 100
2, 6991, Note_on_c, 0, 62, 0
2, 7015, Note_on_c, 0, 66, 100
2, 7019, Note_on_c, 0, 50, 0
2, 7019, Note_on_c, 0, 54, 0
2, 7019, Note_on_c, 0, 60, 0
2, 7022, Note_on_c, 0, 64, 0
2, 7040, Note_on_c, 0, 59, 100
2, 7040, Note_on_c, 0, 67, 100
2, 7040, Note_on_c, 0, 43, 100
2, 7041, Note_on_c, 0, 66, 0
2, 7086, Note_on_c, 0, 67, 0
2, 7086, Note_on_c, 0, 59, 0
2, 7086, Note_on_c, 0, 43, 0
2, 7090, Note_on_c, 0, 69, 100
2, 7090, Note_on_c, 0, 50, 100
2, 7090, Note_on_c, 0, 55, 100
2, 7090, Note_on_c, 0, 59, 100
2, 7115, Note_on_c, 0, 71, 100
2, 7115, Note_on_c, 0, 62, 100
2, 7119, Note_on_c, 0, 59, 0
2, 7119, Note_on_c, 0, 55, 0
2, 7119, Note_on_c, 0, 50, 0
2, 7122, Note_on_c, 0, 69, 0
2, 7140, Note_on_c, 0, 38, 100
2, 7161, Note_on_c, 0, 62, 0
2, 7161, Note_on_c, 0, 71, 0
2, 7165, Note_on_c, 0, 67, 100
2, 7186, Note_on_c, 0, 38, 0
2, 7190, Note_on_c, 0, 71, 100
2, 7190, Note_on_c, 0, 62, 100
2, 7190, Note_on_c, 0, 50, 100
2, 7190, Note_on_c, 0, 55, 100
2, 7190, Note_on_c, 0, 59, 100
2, 7197, Note_on_c, 0, 67, 0
2, 7219, Note_on_c, 0, 59, 0
2, 7219, Note_on_c, 0, 55, 0
2, 7219, Note_on_c, 0, 50, 0
2, 7240, Note_on_c, 0, 43, 100
2, 7262, Note_on_c, 0, 62, 0
2, 7262, Note_on_c, 0, 71, 0
2, 7265, Note_on_c, 0, 67, 100
2, 7265, Note_on_c, 0, 74, 100
2, 7286, Note_on_c, 0, 43, 0
2, 7290, Note_on_c, 0, 50, 100
2, 7290, Note_on_c, 0, 55, 100
2, 7290, Note_on_c, 0, 59, 100
2, 7311, Note_on_c, 0, 74, 0
2, 7311, Note_on_c, 0, 67, 0
2, 7315, Note_on_c, 0, 71, 100
2, 7319, Note_on_c, 0, 59, 0
2, 7319, Note_on_c, 0, 55, 0
2, 7319, Note_on_c, 0, 50, 0
2, 7340, Note_on_c, 0, 74, 100
2, 7340, Note_on_c, 0, 66, 100
2, 7340, Note_on_c, 0, 55, 100
2, 7340, Note_on_c, 0, 43, 100
2, 7347, Note_on_c, 0, 71, 0
2, 7386, Note_on_c, 0, 66, 0
2, 7386, Note_on_c, 0, 74, 0
2, 7386, Note_on_c, 0, 43, 0
2, 7386, Note_on_c, 0, 55, 0
2, 7390, Note_on_c, 0, 65, 100
2, 7390, Note_on_c, 0, 71, 100
2, 7390, Note_on_c, 0, 74, 100
2, 7390, Note_on_c, 0, 44, 100
2, 7390, Note_on_c, 0, 56, 100
2, 7429, Note_on_c, 0, 56, 0
2, 7429, Note_on_c, 0, 44, 0
2, 7436, Note_on_c, 0, 74, 0
2, 7436, Note_on_c, 0, 71, 0
2, 7436, Note_on_c, 0, 65, 0
2, 7440, Note_on_c, 0, 72, 100
2, 7440, Note_on_c, 0, 45, 100
2, 7440, Note_on_c, 0, 57, 100
2, 7465, Note_on_c, 0, 74, 100
2, 7465, Note_on_c, 0, 78, 100
2, 7472, Note_on_c, 0, 72, 0
2, 7486, Note_on_c, 0, 57, 0
2, 7486, Note_on_c, 0, 45, 0
2, 7490, Note_on_c, 0, 50, 100
2, 7490, Note_on_c, 0, 54, 100
2, 7490, Note_on_c, 0, 60, 100
2, 7511, Note_on_c, 0, 78, 0
2, 7511, Note_on_c, 0, 74, 0
2, 7515, Note_on_c, 0, 69, 100
2, 7519, Note_on_c, 0, 60, 0
2, 7519, Note_on_c, 0, 54, 0
2, 7519, Note_on_c, 0, 50, 0
2, 7540, Note_on_c, 0, 76, 100
2, 7540, Note_on_c, 0, 72, 100
2, 7540, Note_on_c, 0, 38, 100
2, 7547, Note_on_c, 0, 69, 0
2, 7586, Note_on_c, 0, 72, 0
2, 7586, Note_on_c, 0, 76, 0
2, 7586, Note_on_c, 0, 38, 0
2, 7590, Note_on_c, 0, 66, 100
2, 7590, Note_on_c, 0, 50, 100
2, 7590, Note_on_c, 0, 54, 100
2, 7590, Note_on_c, 0, 60, 100
2, 7615, Note_on_c, 0, 72, 100
2, 7615, Note_on_c, 0, 69, 100
2, 7619, Note_on_c, 0, 60, 0
2, 7619, Note_on_c, 0, 54, 0
2, 7619, Note_on_c, 0, 50, 0
2, 7622, Note_on_c, 0, 66, 0
2, 7640, Note_on_c, 0, 45, 100
2, 7661, Note_on_c, 0, 69, 0
2, 7661, Note_on_c, 0, 72, 0
2, 7665, Note_on_c, 0, 64, 100
2, 7686, Note_on_c, 0, 45, 0
2, 7690, Note_on_c, 0, 60, 100
2, 7690, Note_on_c, 0, 54, 100
2, 7690, Note_on_c, 0, 50, 100
2, 7715, Note_on_c, 0, 66, 100
2, 7715, Note_on_c, 0, 69, 100
2, 7719, Note_on_c, 0, 50, 0
2, 7719, Note_on_c, 0, 54, 0
2, 7719, Note_on_c, 0, 60, 0
2, 7721, Note_on_c, 0, 64, 0
2, 7740, Note_on_c, 0, 38, 100
2, 7761, Note_on_c, 0, 69, 0
2, 7761, Note_on_c, 0, 66, 0
2, 7765, Note_on_c, 0, 62, 100
2, 7786, Note_on_c, 0, 38, 0
2, 7790, Note_on_c, 0, 64, 100
2, 7790, Note_on_c, 0, 60, 100
2, 7790, Note_on_c, 0, 54, 100
2, 7790, Note_on_c, 0, 50, 100
2, 7791, Note_on_c, 0, 62, 0
2, 7815, Note_on_c, 0, 66, 100
2, 7819, Note_on_c, 0, 50, 0
2, 7819, Note_on_c, 0, 54, 0
2, 7819, Note_on_c, 0, 60, 0
2, 7822, Note_on_c, 0, 64, 0
2, 7840, Note_on_c, 0, 67, 100
2, 7840, Note_on_c, 0, 59, 100
2, 7840, Note_on_c, 0, 43, 100
2, 7841, Note_on_c, 0, 66, 0
2, 7865, Note_on_c, 0, 69, 100
2, 7872, Note_on_c, 0, 59, 0
2, 7872, Note_on_c, 0, 67, 0
2, 7886, Note_on_c, 0, 43, 0
2, 7890, Note_on_c, 0, 71, 100
2, 7890, Note_on_c, 0, 62, 100
2, 7890, Note_on_c, 0, 50, 100
2, 7890, Note_on_c, 0, 55, 100
2, 7890, Note_on_c, 0, 59, 100
2, 7891, Note_on_c, 0, 69, 0
2, 7915, Note_on_c, 0, 67, 100
2, 7919, Note_on_c, 0, 59, 0
2, 7919, Note_on_c, 0, 55, 0
2, 7919, Note_on_c, 0, 50, 0
2, 7922, Note_on_c, 0, 62, 0
2, 7922, Note_on_c, 0, 71, 0
2, 7940, Note_on_c, 0, 69, 100
2, 7940, Note_on_c, 0, 38, 100
2, 7941, Note_on_c, 0, 67, 0
2, 7965, Note_on_c, 0, 74, 100
2, 7965, Note_on_c, 0, 62, 100
2, 7972, Note_on_c, 0, 69, 0
2, 7986, Note_on_c, 0, 38, 0
2, 7990, Note_on_c, 0, 50, 100
2, 7990, Note_on_c, 0, 54, 100
2, 7990, Note_on_c, 0, 60, 100
2, 8011, Note_on_c, 0, 62, 0
2, 8011, Note_on_c, 0, 74, 0
2, 8015, Note_on_c, 0, 69, 100
2, 8019, Note_on_c, 0, 60, 0
2, 8019, Note_on_c, 0, 54, 0
2, 8019, Note_on_c, 0, 50, 0
2, 8040, Note_on_c, 0, 74, 100
2, 8040, Note_on_c, 0, 62, 100
2, 8040, Note_on_c, 0, 43, 100
2, 8041, Note_on_c, 0, 69, 0
2, 8065, Note_on_c, 0, 67, 100
2, 8068, Note_on_c, 0, 62, 0
2, 8068, Note_on_c, 0, 74, 0
2, 8086, Note_on_c, 0, 43, 0
2, 8090, Note_on_c, 0, 71, 100
2, 8090, Note_on_c, 0, 50, 100
2, 8090, Note_on_c, 0, 55, 100
2, 8090, Note_on_c, 0, 59, 100
2, 8091, Note_on_c, 0, 67, 0
2, 8115, Note_on_c, 0, 64, 100
2, 8115, Note_on_c, 0, 76, 100
2, 8119, Note_on_c, 0, 59, 0
2, 8119, Note_on_c, 0, 55, 0
2, 8119, Note_on_c, 0, 50, 0
2, 8122, Note_on_c, 0, 71, 0
2, 8140, Note_on_c, 0, 59, 100
2, 8140, Note_on_c, 0, 47, 100
2, 8161, Note_on_c, 0, 76, 0
2, 8161, Note_on_c, 0, 64, 0
2, 8165, Note_on_c, 0, 67, 100
2, 8186, Note_on_c, 0, 47, 0
2, 8186, Note_on_c, 0, 59, 0
2, 8190, Note_on_c, 0, 65, 100
2, 8190, Note_on_c, 0, 71, 100
2, 8190, Note_on_c, 0, 77, 100
2, 8190, Note_on_c, 0, 44, 100
2, 8190, Note_on_c, 0, 56, 100
2, 8197, Note_on_c, 0, 67, 0
2, 8229, Note_on_c, 0, 56, 0
2, 8229, Note_on_c, 0, 44, 0
2, 8236, Note_on_c, 0, 65, 0
2, 8236, Note_on_c, 0, 71, 0
2, 8236, Note_on_c, 0, 77, 0
2, 8240, Note_on_c, 0, 72, 100
2, 8240, Note_on_c, 0, 45, 100
2, 8265, Note_on_c, 0, 74, 100
2, 8265, Note_on_c, 0, 78, 100
2, 8272, Note_on_c, 0, 72, 0
2, 8286, Note_on_c, 0, 45, 0
2, 8290, Note_on_c, 0, 50, 100
2, 8290, Note_on_c, 0, 54, 100
2, 8290, Note_on_c, 0, 60, 100
2, 8311, Note_on_c, 0, 78, 0
2, 8311, Note_on_c, 0, 74, 0
2, 8315, Note_on_c, 0, 69, 100
2, 8319, Note_on_c, 0, 60, 0
2, 8319, Note_on_c, 0, 54, 0
2, 8319, Note_on_c, 0, 50, 0
2, 8340, Note_on_c, 0, 76, 100
2, 8340, Note_on_c, 0, 72, 100
2, 8340, Note_on_c, 0, 38, 100
2, 8347, Note_on_c, 0, 69, 0
2, 8386, Note_on_c, 0, 72, 0
2, 8386, Note_on_c, 0, 76, 0
2, 8386, Note_on_c, 0, 38, 0
2, 8390, Note_on_c, 0, 66, 100
2, 8390, Note_on_c, 0, 50, 100
2, 8390, Note_on_c, 0, 54, 100
2, 8390, Note_on_c, 0, 60, 100
2, 8415, Note_on_c, 0, 72, 100
2, 8415, Note_on_c, 0, 69, 100
2, 8419, Note_on_c, 0, 60, 0
2, 8419, Note_on_c, 0, 54, 0
2, 8419, Note_on_c, 0, 50, 0
2, 8422, Note_on_c, 0, 66, 0
2, 8440, Note_on_c, 0, 45, 100
2, 8461, Note_on_c, 0, 69, 0
2, 8461, Note_on_c, 0, 72, 0
2, 8465, Note_on_c, 0, 64, 100
2, 8486, Note_on_c, 0, 45, 0
2, 8490, Note_on_c, 0, 60, 100
2, 8490, Note_on_c, 0, 54, 100
2, 8490, Note_on_c, 0, 50, 100
2, 8515, Note_on_c, 0, 66, 100
2, 8515, Note_on_c, 0, 69, 100
2, 8519, Note_on_c, 0, 50, 0
2, 8519, Note_on_c, 0, 54, 0
2, 8519, Note_on_c, 0, 60, 0
2, 8521, Note_on_c, 0, 64, 0
2, 8540, Note_on_c, 0, 38, 100
2, 8561, Note_on_c, 0, 69, 0
2, 8561, Note_on_c, 0, 66, 0
2, 8565, Note_on_c, 0, 62, 100
2, 8586, Note_on_c, 0, 38, 0
2, 8590, Note_on_c, 0, 64, 100
2, 8590, Note_on_c, 0, 60, 100
2, 8590, Note_on_c, 0, 54, 100
2, 8590, Note_on_c, 0, 50, 100
2, 8591, Note_on_c, 0, 62, 0
2, 8615, Note_on_c, 0, 66, 100
2, 8619, Note_on_c, 0, 50, 0
2, 8619, Note_on_c, 0, 54, 0
2, 8619, Note_on_c, 0, 60, 0
2, 8622, Note_on_c, 0, 64, 0
2, 8640, Note_on_c, 0, 59, 100
2, 8640, Note_on_c, 0, 67, 100
2, 8640, Note_on_c, 0, 43, 100
2, 8641, Note_on_c, 0, 66, 0
2, 8686, Note_on_c, 0, 67, 0
2, 8686, Note_on_c, 0, 59, 0
2, 8686, Note_on_c, 0, 43, 0
2, 8690, Note_on_c, 0, 69, 100
2, 8690, Note_on_c, 0, 50, 100
2, 8690, Note_on_c, 0, 55, 100
2, 8690, Note_on_c, 0, 59, 100
2, 8715, Note_on_c, 0, 71, 100
2, 8715, Note_on_c, 0, 62, 100
2, 8719, Note_on_c, 0, 59, 0
2, 8719, Note_on_c, 0, 55, 0
2, 8719, Note_on_c, 0, 50, 0
2, 8722, Note_on_c, 0, 69, 0
2, 8740, Note_on_c, 0, 38, 100
2, 8761, Note_on_c, 0, 62, 0
2, 8761, Note_on_c, 0, 71, 0
2, 8765, Note_on_c, 0, 67, 100
2, 8786, Note_on_c, 0, 38, 0
2, 8790, Note_on_c, 0, 71, 100
2, 8790, Note_on_c, 0, 62, 100
2, 8790, Note_on_c, 0, 50, 100
2, 8790, Note_on_c, 0, 55, 100
2, 8790, Note_on_c, 0, 59, 100
2, 8797, Note_on_c, 0, 67, 0
2, 8819, Note_on_c, 0, 59, 0
2, 8819, Note_on_c, 0, 55, 0
2, 8819, Note_on_c, 0, 50, 0
2, 8840, Note_on_c, 0, 43, 100
2, 8840, Note_on_c, 0, 55, 100
2, 8865, Note_on_c, 0, 67, 100
2, 8865, Note_on_c, 0, 74, 100
2, 8869, Note_on_c, 0, 62, 0
2, 8869, Note_on_c, 0, 71, 0
2, 8886, Note_on_c, 0, 55, 0
2, 8886, Note_on_c, 0, 43, 0
2, 8890, Note_on_c, 0, 56, 100
2, 8890, Note_on_c, 0, 44, 100
2, 8911, Note_on_c, 0, 67, 0
2, 8911, Note_on_c, 0, 74, 0
2, 8915, Note_on_c, 0, 71, 100
2, 8929, Note_on_c, 0, 44, 0
2, 8929, Note_on_c, 0, 56, 0
2, 8940, Note_on_c, 0, 74, 100
2, 8940, Note_on_c, 0, 66, 100
2, 8940, Note_on_c, 0, 57, 100
2, 8940, Note_on_c, 0, 45, 100
2, 8947, Note_on_c, 0, 71, 0
2, 8986, Note_on_c, 0, 66, 0
2, 8986, Note_on_c, 0, 74, 0
2, 8986, Note_on_c, 0, 45, 0
2, 8986, Note_on_c, 0, 57, 0
2, 8990, Note_on_c, 0, 65, 100
2, 8990, Note_on_c, 0, 71, 100
2, 8990, Note_on_c, 0, 74, 100
2, 8990, Note_on_c, 0, 46, 100
2, 8990, Note_on_c, 0, 58, 100
2, 9029, Note_on_c, 0, 58, 0
2, 9029, Note_on_c, 0, 46, 0
2, 9036, Note_on_c, 0, 74, 0
2, 9036, Note_on_c, 0, 71, 0
2, 9036, Note_on_c, 0, 65, 0
2, 9040, Note_on_c, 0, 48, 100
2, 9065, Note_on_c, 0, 67, 100
2, 9065, Note_on_c, 0, 76, 100
2, 9086, Note_on_c, 0, 48, 0
2, 9090, Note_on_c, 0, 52, 100
2, 9090, Note_on_c, 0, 55, 100
2, 9090, Note_on_c, 0, 60, 100
2, 9111, Note_on_c, 0, 76, 0
2, 9111, Note_on_c, 0, 67, 0
2, 9115, Note_on_c, 0, 72, 100
2, 9119, Note_on_c, 0, 60, 0
2, 9119, Note_on_c, 0, 55, 0
2, 9119, Note_on_c, 0, 52, 0
2, 9140, Note_on_c, 0, 67, 100
2, 9140, Note_on_c, 0, 76, 100
2, 9140, Note_on_c, 0, 48, 100
2, 9147, Note_on_c, 0, 72, 0
2, 9186, Note_on_c, 0, 67, 0
2, 9186, Note_on_c, 0, 48, 0
2, 9190, Note_on_c, 0, 75, 100
2, 9190, Note_on_c, 0, 67, 100
2, 9190, Note_on_c, 0, 49, 100
2, 9190, Note_on_c, 0, 55, 100
2, 9190, Note_on_c, 0, 58, 100
2, 9191, Note_on_c, 0, 76, 0
2, 9219, Note_on_c, 0, 58, 0
2, 9219, Note_on_c, 0, 55, 0
2, 9219, Note_on_c, 0, 49, 0
2, 9236, Note_on_c, 0, 67, 0
2, 9236, Note_on_c, 0, 75, 0
2, 9240, Note_on_c, 0, 50, 100
2, 9265, Note_on_c, 0, 74, 100
2, 9265, Note_on_c, 0, 67, 100
2, 9286, Note_on_c, 0, 50, 0
2, 9290, Note_on_c, 0, 55, 100
2, 9290, Note_on_c, 0, 59, 100
2, 9315, Note_on_c, 0, 71, 100
2, 9316, Note_on_c, 0, 67, 0
2, 9316, Note_on_c, 0, 74, 0
2, 9319, Note_on_c, 0, 59, 0
2, 9319, Note_on_c, 0, 55, 0
2, 9340, Note_on_c, 0, 76, 100
2, 9340, Note_on_c, 0, 52, 100
2, 9341, Note_on_c, 0, 71, 0
2, 9365, Note_on_c, 0, 74, 100
2, 9372, Note_on_c, 0, 76, 0
2, 9386, Note_on_c, 0, 52, 0
2, 9390, Note_on_c, 0, 71, 100
2, 9390, Note_on_c, 0, 56, 100
2, 9390, Note_on_c, 0, 62, 100
2, 9391, Note_on_c, 0, 74, 0
2, 9415, Note_on_c, 0, 68, 100
2, 9419, Note_on_c, 0, 62, 0
2, 9419, Note_on_c, 0, 56, 0
2, 9422, Note_on_c, 0, 71, 0
2, 9438, Note_on_c, 0, 68, 0
2, 9440, Note_on_c, 0, 61, 100
2, 9440, Note_on_c, 0, 45, 100
2, 9465, Note_on_c, 0, 67, 100
2, 9486, Note_on_c, 0, 45, 0
2, 9490, Note_on_c, 0, 69, 100
2, 9490, Note_on_c, 0, 55, 100
2, 9490, Note_on_c, 0, 57, 100
2, 9491, Note_on_c, 0, 67, 0
2, 9509, Note_on_c, 0, 61, 0
2, 9515, Note_on_c, 0, 61, 100
2, 9515, Note_on_c, 0, 71, 100
2, 9519, Note_on_c, 0, 57, 0
2, 9519, Note_on_c, 0, 55, 0
2, 9522, Note_on_c, 0, 69, 0
2, 9540, Note_on_c, 0, 38, 100
2, 9561, Note_on_c, 0, 71, 0
2, 9565, Note_on_c, 0, 66, 100
2, 9573, Note_on_c, 0, 61, 0
2, 9586, Note_on_c, 0, 38, 0
2, 9590, Note_on_c, 0, 69, 100
2, 9590, Note_on_c, 0, 60, 100
2, 9590, Note_on_c, 0, 50, 100
2, 9597, Note_on_c, 0, 66, 0
2, 9631, Note_on_c, 0, 50, 0
2, 9636, Note_on_c, 0, 60, 0
2, 9636, Note_on_c, 0, 69, 0
2, 9640, Note_on_c, 0, 67, 100
2, 9640, Note_on_c, 0, 59, 100
2, 9640, Note_on_c, 0, 43, 100
2, 9640, Note_on_c, 0, 50, 100
2, 9686, Note_on_c, 0, 50, 0
2, 9686, Note_on_c, 0, 43, 0
2, 9691, Note_on_c, 0, 59, 0
2, 9691, Note_on_c, 0, 67, 0
2, 9740, Note_on_c, 0, 67, 100
2, 9740, Note_on_c, 0, 71, 100
2, 9740, Note_on_c, 0, 74, 100
2, 9740, Note_on_c, 0, 79, 100
2, 9740, Note_on_c, 0, 43, 100
2, 9740, Note_on_c, 0, 31, 100
2, 9786, Note_on_c, 0, 31, 0
2, 9786, Note_on_c, 0, 43, 0
2, 9791, Note_on_c, 0, 79, 0
2, 9791, Note_on_c, 0, 67, 0
2, 9791, Note_on_c, 0, 71, 0
2, 9791, Note_on_c, 0, 74, 0
2, 9840, Note_on_c, 0, 72, 100
2, 9840, Note_on_c, 0, 45, 100
2, 9865, Note_on_c, 0, 74, 100
2, 9865, Note_on_c, 0, 78, 100
2, 9872, Note_on_c, 0, 72, 0
2, 9886, Note_on_c, 0, 45, 0
2, 9890, Note_on_c, 0, 50, 100
2, 9890, Note_on_c, 0, 54, 100
2, 9890, Note_on_c, 0, 60, 100
2, 9911, Note_on_c, 0, 78, 0
2, 9911, Note_on_c, 0, 74, 0
2, 9915, Note_on_c, 0, 69, 100
2, 9919, Note_on_c, 0, 60, 0
2, 9919, Note_on_c, 0, 54, 0
2, 9919, Note_on_c, 0, 50, 0
2, 9940, Note_on_c, 0, 76, 100
2, 9940, Note_on_c, 0, 72, 100
2, 9940, Note_on_c, 0, 38, 100
2, 9947, Note_on_c, 0, 69, 0
2, 9986, Note_on_c, 0, 72, 0
2, 9986, Note_on_c, 0, 76, 0
2, 9986, Note_on_c, 0, 38, 0
2, 9990, Note_on_c, 0, 66, 100
2, 9990, Note_on_c, 0, 50, 100
2, 9990, Note_on_c, 0, 54, 100
2, 9990, Note_on_c, 0, 60, 100
2, 10015, Note_on_c, 0, 72, 100
2, 10015, Note_on_c, 0, 69, 100
2, 10019, Note_on_c, 0, 60, 0
2, 10019, Note_on_c, 0, 54, 0
2, 10019, Note_on_c, 0, 50, 0
2, 10022, Note_on_c, 0, 66, 0
2, 10040, Note_on_c, 0, 45, 100
2, 10061, Note_on_c, 0, 69, 0
2, 10061, Note_on_c, 0, 72, 0
2, 10065, Note_on_c, 0, 64, 100
2, 10086, Note_on_c, 0, 45, 0
2, 10090, Note_on_c, 0, 60, 100
2, 10090, Note_on_c, 0, 54, 100
2, 10090, Note_on_c, 0, 50, 100
2, 10115, Note_on_c, 0, 66, 100
2, 10115, Note_on_c, 0, 69, 100
2, 10119, Note_on_c, 0, 50, 0
2, 10119, Note_on_c, 0, 54, 0
2, 10119, Note_on_c, 0, 60, 0
2, 10121, Note_on_c, 0, 64, 0
2, 10140, Note_on_c, 0, 38, 100
2, 10161, Note_on_c, 0, 69, 0
2, 10161, Note_on_c, 0, 66, 0
2, 10165, Note_on_c, 0, 62, 100
2, 10186, Note_on_c, 0, 38, 0
2, 10190, Note_on_c, 0, 64, 100
2, 10190, Note_on_c, 0, 60, 100
2, 10190, Note_on_c, 0, 54, 100
2, 10190, Note_on_c, 0, 50, 100
2, 10191, Note_on_c, 0, 62, 0
2, 10215, Note_on_c, 0, 66, 100
2, 10219, Note_on_c, 0, 50, 0
2, 10219, Note_on_c, 0, 54, 0
2, 10219, Note_on_c, 0, 60, 0
2, 10222, Note_on_c, 0, 64, 0
2, 10240, Note_on_c, 0, 59, 100
2, 10240, Note_on_c, 0, 67, 100
2, 10240, Note_on_c, 0, 43, 100
2, 10241, Note_on_c, 0, 66, 0
2, 10286, Note_on_c, 0, 67, 0
2, 10286, Note_on_c, 0, 59, 0
2, 10286, Note_on_c, 0, 43, 0
2, 10290, Note_on_c, 0, 69, 100
2, 10290, Note_on_c, 0, 50, 100
2, 10290, Note_on_c, 0, 55, 100
2, 10290, Note_on_c, 0, 59, 100
2, 10315, Note_on_c, 0, 71, 100
2, 10315, Note_on_c, 0, 62, 100
2, 10319, Note_on_c, 0, 59, 0
2, 10319, Note_on_c, 0, 55, 0
2, 10319, Note_on_c, 0, 50, 0
2, 10322, Note_on_c, 0, 69, 0
2, 10340, Note_on_c, 0, 38, 100
2, 10361, Note_on_c, 0, 62, 0
2, 10361, Note_on_c, 0, 71, 0
2, 10365, Note_on_c, 0, 67, 100
2, 10386, Note_on_c, 0, 38, 0
2, 10390, Note_on_c, 0, 71, 100
2, 10390, Note_on_c, 0, 62, 100
2, 10390, Note_on_c, 0, 50, 100
2, 10390, Note_on_c, 0, 55, 100
2, 10390, Note_on_c, 0, 59, 100
2, 10397, Note_on_c, 0, 67, 0
2, 10419, Note_on_c, 0, 59, 0
2, 10419, Note_on_c, 0, 55, 0
2, 10419, Note_on_c, 0, 50, 0
2, 10440, Note_on_c, 0, 43, 100
2, 10462, Note_on_c, 0, 62, 0
2, 10462, Note_on_c, 0, 71, 0
2, 10465, Note_on_c, 0, 67, 100
2, 10465, Note_on_c, 0, 74, 100
2, 10486, Note_on_c, 0, 43, 0
2, 10490, Note_on_c, 0, 50, 100
2, 10490, Note_on_c, 0, 55, 100
2, 10490, Note_on_c, 0, 59, 100
2, 10511, Note_on_c, 0, 74, 0
2, 10511, Note_on_c, 0, 67, 0
2, 10515, Note_on_c, 0, 71, 100
2, 10519, Note_on_c, 0, 59, 0
2, 10519, Note_on_c, 0, 55, 0
2, 10519, Note_on_c, 0, 50, 0
2, 10540, Note_on_c, 0, 74, 100
2, 10540, Note_on_c, 0, 66, 100
2, 10540, Note_on_c, 0, 55, 100
2, 10540, Note_on_c, 0, 43, 100
2, 10547, Note_on_c, 0, 71, 0
2, 10586, Note_on_c, 0, 66, 0
2, 10586, Note_on_c, 0, 74, 0
2, 10586, Note_on_c, 0, 43, 0
2, 10586, Note_on_c, 0, 55, 0
2, 10590, Note_on_c, 0, 65, 100
2, 10590, Note_on_c, 0, 71, 100
2, 10590, Note_on_c, 0, 74, 100
2, 10590, Note_on_c, 0, 44, 100
2, 10590, Note_on_c, 0, 56, 100
2, 10629, Note_on_c, 0, 56, 0
2, 10629, Note_on_c, 0, 44, 0
2, 10636, Note_on_c, 0, 74, 0
2, 10636, Note_on_c, 0, 71, 0
2, 10636, Note_on_c, 0, 65, 0
2, 10640, Note_on_c, 0, 72, 100
2, 10640, Note_on_c, 0, 45, 100
2, 10640, Note_on_c, 0, 57, 100
2, 10665, Note_on_c, 0, 74, 100
2, 10665, Note_on_c, 0, 78, 100
2, 10672, Note_on_c, 0, 72, 0
2, 10686, Note_on_c, 0, 57, 0
2, 10686, Note_on_c, 0, 45, 0
2, 10690, Note_on_c, 0, 50, 100
2, 10690, Note_on_c, 0, 54, 100
2, 10690, Note_on_c, 0, 60, 100
2, 10711, Note_on_c, 0, 78, 0
2, 10711, Note_on_c, 0, 74, 0
2, 10715, Note_on_c, 0, 69, 100
2, 10719, Note_on_c, 0, 60, 0
2, 10719, Note_on_c, 0, 54, 0
2, 10719, Note_on_c, 0, 50, 0
2, 10740, Note_on_c, 0, 76, 100
2, 10740, Note_on_c, 0, 72, 100
2, 10740, Note_on_c, 0, 38, 100
2, 10747, Note_on_c, 0, 69, 0
2, 10786, Note_on_c, 0, 72, 0
2, 10786, Note_on_c, 0, 76, 0
2, 10786, Note_on_c, 0, 38, 0
2, 10790, Note_on_c, 0, 66, 100
2, 10790, Note_on_c, 0, 50, 100
2, 10790, Note_on_c, 0, 54, 100
2, 10790, Note_on_c, 0, 60, 100
2, 10815, Note_on_c, 0, 72, 100
2, 10815, Note_on_c, 0, 69, 100
2, 10819, Note_on_c, 0, 60, 0
2, 10819, Note_on_c, 0, 54, 0
2, 10819, Note_on_c, 0, 50, 0
2, 10822, Note_on_c, 0, 66, 0
2, 10840, Note_on_c, 0, 45, 100
2, 10861, Note_on_c, 0, 69, 0
2, 10861, Note_on_c, 0, 72, 0
2, 10865, Note_on_c, 0, 64, 100
2, 10886, Note_on_c, 0, 45, 0
2, 10890, Note_on_c, 0, 60, 100
2, 10890, Note_on_c, 0, 54, 100
2, 10890, Note_on_c, 0, 50, 100
2, 10915, Note_on_c, 0, 66, 100
2, 10915, Note_on_c, 0, 69, 100
2, 10919, Note_on_c, 0, 50, 0
2, 10919, Note_on_c, 0, 54, 0
2, 10919, Note_on_c, 0, 60, 0
2, 10921, Note_on_c, 0, 64, 0
2, 10940, Note_on_c, 0, 38, 100
2, 10961, Note_on_c, 0, 69, 0
2, 10961, Note_on_c, 0, 66, 0
2, 10965, Note_on_c, 0, 62, 100
2, 10986, Note_on_c, 0, 38, 0
2, 10990, Note_on_c, 0, 64, 100
2, 10990, Note_on_c, 0, 60, 100
2, 10990, Note_on_c, 0, 54, 100
2, 10990, Note_on_c, 0, 50, 100
2, 10991, Note_on_c, 0, 62, 0
2, 11015, Note_on_c, 0, 66, 100
2, 11019, Note_on_c, 0, 50, 0
2, 11019, Note_on_c, 0, 54, 0
2, 11019, Note_on_c, 0, 60, 0
2, 11022, Note_on_c, 0, 64, 0
2, 11040, Note_on_c, 0, 67, 100
2, 11040, Note_on_c, 0, 59, 100
2, 11040, Note_on_c, 0, 43, 100
2, 11041, Note_on_c, 0, 66, 0
2, 11065, Note_on_c, 0, 69, 100
2, 11072, Note_on_c, 0, 59, 0
2, 11072, Note_on_c, 0, 67, 0
2, 11086, Note_on_c, 0, 43, 0
2, 11090, Note_on_c, 0, 71, 100
2, 11090, Note_on_c, 0, 62, 100
2, 11090, Note_on_c, 0, 50, 100
2, 11090, Note_on_c, 0, 55, 100
2, 11090, Note_on_c, 0, 59, 100
2, 11091, Note_on_c, 0, 69, 0
2, 11115, Note_on_c, 0, 67, 100
2, 11119, Note_on_c, 0, 59, 0
2, 11119, Note_on_c, 0, 55, 0
2, 11119, Note_on_c, 0, 50, 0
2, 11122, Note_on_c, 0, 62, 0
2, 11122, Note_on_c, 0, 71, 0
2, 11140, Note_on_c, 0, 69, 100
2, 11140, Note_on_c, 0, 38, 100
2, 11141, Note_on_c, 0, 67, 0
2, 11165, Note_on_c, 0, 74, 100
2, 11165, Note_on_c, 0, 62, 100
2, 11172, Note_on_c, 0, 69, 0
2, 11186, Note_on_c, 0, 38, 0
2, 11190, Note_on_c, 0, 50, 100
2, 11190, Note_on_c, 0, 54, 100
2, 11190, Note_on_c, 0, 60, 100
2, 11211, Note_on_c, 0, 62, 0
2, 11211, Note_on_c, 0, 74, 0
2, 11215, Note_on_c, 0, 69, 100
2, 11219, Note_on_c, 0, 60, 0
2, 11219, Note_on_c, 0, 54, 0
2, 11219, Note_on_c, 0, 50, 0
2, 11240, Note_on_c, 0, 74, 100
2, 11240, Note_on_c, 0, 62, 100
2, 11240, Note_on_c, 0, 43, 100
2, 11241, Note_on_c, 0, 69, 0
2, 11265, Note_on_c, 0, 67, 100
2, 11268, Note_on_c, 0, 62, 0
2, 11268, Note_on_c, 0, 74, 0
2, 11286, Note_on_c, 0, 43, 0
2, 11290, Note_on_c, 0, 71, 100
2, 11290, Note_on_c, 0, 50, 100
2, 11290, Note_on_c, 0, 55, 100
2, 11290, Note_on_c, 0, 59, 100
2, 11291, Note_on_c, 0, 67, 0
2, 11315, Note_on_c, 0, 64, 100
2, 11315, Note_on_c, 0, 76, 100
2, 11319, Note_on_c, 0, 59, 0
2, 11319, Note_on_c, 0, 55, 0
2, 11319, Note_on_c, 0, 50, 0
2, 11322, Note_on_c, 0, 71, 0
2, 11340, Note_on_c, 0, 59, 100
2, 11340, Note_on_c, 0, 47, 100
2, 11361, Note_on_c, 0, 76, 0
2, 11361, Note_on_c, 0, 64, 0
2, 11365, Note_on_c, 0, 67, 100
2, 11386, Note_on_c, 0, 47, 0
2, 11386, Note_on_c, 0, 59, 0
2, 11390, Note_on_c, 0, 65, 100
2, 11390, Note_on_c, 0, 71, 100
2, 11390, Note_on_c, 0, 77, 100
2, 11390, Note_on_c, 0, 44, 100
2, 11390, Note_on_c, 0, 56, 100
2, 11397, Note_on_c, 0, 67, 0
2, 11429, Note_on_c, 0, 56, 0
2, 11429, Note_on_c, 0, 44, 0
2, 11436, Note_on_c, 0, 65, 0
2, 11436, Note_on_c, 0, 71, 0
2, 11436, Note_on_c, 0, 77, 0
2, 11440, Note_on_c, 0, 72, 100
2, 11440, Note_on_c, 0, 45, 100
2, 11465, Note_on_c, 0, 74, 100
2, 11465, Note_on_c, 0, 78, 100
2, 11472, Note_on_c, 0, 72, 0
2, 11486, Note_on_c, 0, 45, 0
2, 11490, Note_on_c, 0, 50, 100
2, 11490, Note_on_c, 0, 54, 100
2, 11490, Note_on_c, 0, 60, 100
2, 11511, Note_on_c, 0, 78, 0
2, 11511, Note_on_c, 0, 74, 0
2, 11515, Note_on_c, 0, 69, 100
2, 11519, Note_on_c, 0, 60, 0
2, 11519, Note_on_c, 0, 54, 0
2, 11519, Note_on_c, 0, 50, 0
2, 11540, Note_on_c, 0, 76, 100
2, 11540, Note_on_c, 0, 72, 100
2, 11540, Note_on_c, 0, 38, 100
2, 11547, Note_on_c, 0, 69, 0
2, 11586, Note_on_c, 0, 72, 0
2, 11586, Note_on_c, 0, 76, 0
2, 11586, Note_on_c, 0, 38, 0
2, 11590, Note_on_c, 0, 66, 100
2, 11590, Note_on_c, 0, 50, 100
2, 11590, Note_on_c, 0, 54, 100
2, 11590, Note_on_c, 0, 60, 100
2, 11615, Note_on_c, 0, 72, 100
2, 11615, Note_on_c, 0, 69, 100
2, 11619, Note_on_c, 0, 60, 0
2, 11619, Note_on_c, 0, 54, 0
2, 11619, Note_on_c, 0, 50, 0
2, 11622, Note_on_c, 0, 66, 0
2, 11640, Note_on_c, 0, 45, 100
2, 11661, Note_on_c, 0, 69, 0
2, 11661, Note_on_c, 0, 72, 0
2, 11665, Note_on_c, 0, 64, 100
2, 11686, Note_on_c, 0, 45, 0
2, 11690, Note_on_c, 0, 60, 100
2, 11690, Note_on_c, 0, 54, 100
2, 11690, Note_on_c, 0, 50, 100
2, 11715, Note_on_c, 0, 66, 100
2, 11715, Note_on_c, 0, 69, 100
2, 11719, Note_on_c, 0, 50, 0
2, 11719, Note_on_c, 0, 54, 0
2, 11719, Note_on_c, 0, 60, 0
2, 11721, Note_on_c, 0, 64, 0
2, 11740, Note_on_c, 0, 38, 100
2, 11761, Note_on_c, 0, 69, 0
2, 11761, Note_on_c, 0, 66, 0
2, 11765, Note_on_c, 0, 62, 100
2, 11786, Note_on_c, 0, 38, 0
2, 11790, Note_on_c, 0, 64, 100
2, 11790, Note_on_c, 0, 60, 100
2, 11790, Note_on_c, 0, 54, 100
2, 11790, Note_on_c, 0, 50, 100
2, 11791, Note_on_c, 0, 62, 0
2, 11815, Note_on_c, 0, 66, 100
2, 11819, Note_on_c, 0, 50, 0
2, 11819, Note_on_c, 0, 54, 0
2, 11819, Note_on_c, 0, 60, 0
2, 11822, Note_on_c, 0, 64, 0
2, 11840, Note_on_c, 0, 59, 100
2, 11840, Note_on_c, 0, 67, 100
2, 11840, Note_on_c, 0, 43, 100
2, 11841, Note_on_c, 0, 66, 0
2, 11886, Note_on_c, 0, 67, 0
2, 11886, Note_on_c, 0, 59, 0
2, 11886, Note_on_c, 0, 43, 0
2, 11890, Note_on_c, 0, 69, 100
2, 11890, Note_on_c, 0, 50, 100
2, 11890, Note_on_c, 0, 55, 100
2, 11890, Note_on_c, 0, 59, 100
2, 11915, Note_on_c, 0, 71, 100
2, 11915, Note_on_c, 0, 62, 100
2, 11919, Note_on_c, 0, 59, 0
2, 11919, Note_on_c, 0, 55, 0
2, 11919, Note_on_c, 0, 50, 0
2, 11922, Note_on_c, 0, 69, 0
2, 11940, Note_on_c, 0, 38, 100
2, 11961, Note_on_c, 0, 62, 0
2, 11961, Note_on_c, 0, 71, 0
2, 11965, Note_on_c, 0, 67, 100
2, 11986, Note_on_c, 0, 38, 0
2, 11990, Note_on_c, 0, 71, 100
2, 11990, Note_on_c, 0, 62, 100
2, 11990, Note_on_c, 0, 50, 100
2, 11990, Note_on_c, 0, 55, 100
2, 11990, Note_on_c, 0, 59, 100
2, 11997, Note_on_c, 0, 67, 0
2, 12019, Note_on_c, 0, 59, 0
2, 12019, Note_on_c, 0, 55, 0
2, 12019, Note_on_c, 0, 50, 0
2, 12040, Note_on_c, 0, 43, 100
2, 12040, Note_on_c, 0, 55, 100
2, 12065, Note_on_c, 0, 67, 100
2, 12065, Note_on_c, 0, 74, 100
2, 12069, Note_on_c, 0, 62, 0
2, 12069, Note_on_c, 0, 71, 0
2, 12086, Note_on_c, 0, 55, 0
2, 12086, Note_on_c, 0, 43, 0
2, 12090, Note_on_c, 0, 56, 100
2, 12090, Note_on_c, 0, 44, 100
2, 12111, Note_on_c, 0, 67, 0
2, 12111, Note_on_c, 0, 74, 0
2, 12115, Note_on_c, 0, 71, 100
2, 12129, Note_on_c, 0, 44, 0
2, 12129, Note_on_c, 0, 56, 0
2, 12140, Note_on_c, 0, 74, 100
2, 12140, Note_on_c, 0, 66, 100
2, 12140, Note_on_c, 0, 57, 100
2, 12140, Note_on_c, 0, 45, 100
2, 12147, Note_on_c, 0, 71, 0
2, 12186, Note_on_c, 0, 66, 0
2, 12186, Note_on_c, 0, 74, 0
2, 12186, Note_on_c, 0, 45, 0
2, 12186, Note_on_c, 0, 57, 0
2, 12190, Note_on_c, 0, 65, 100
2, 12190, Note_on_c, 0, 71, 100
2, 12190, Note_on_c, 0, 74, 100
2, 12190, Note_on_c, 0, 46, 100
2, 12190, Note_on_c, 0, 58, 100
2, 12229, Note_on_c, 0, 58, 0
2, 12229, Note_on_c, 0, 46, 0
2, 12236, Note_on_c, 0, 74, 0
2, 12236, Note_on_c, 0, 71, 0
2, 12236, Note_on_c, 0, 65, 0
2, 12240, Note_on_c, 0, 48, 100
2, 12265, Note_on_c, 0, 67, 100
2, 12265, Note_on_c, 0, 76, 100
2, 12286, Note_on_c, 0, 48, 0
2, 12290, Note_on_c, 0, 52, 100
2, 12290, Note_on_c, 0, 55, 100
2, 12290, Note_on_c, 0, 60, 100
2, 12311, Note_on_c, 0, 76, 0
2, 12311, Note_on_c, 0, 67, 0
2, 12315, Note_on_c, 0, 72, 100
2, 12319, Note_on_c, 0, 60, 0
2, 12319, Note_on_c, 0, 55, 0
2, 12319, Note_on_c, 0, 52, 0
2, 12340, Note_on_c, 0, 67, 100
2, 12340, Note_on_c, 0, 76, 100
2, 12340, Note_on_c, 0, 48, 100
2, 12347, Note_on_c, 0, 72, 0
2, 12386, Note_on_c, 0, 67, 0
2, 12386, Note_on_c, 0, 48, 0
2, 12390, Note_on_c, 0, 75, 100
2, 12390, Note_on_c, 0, 67, 100
2, 12390, Note_on_c, 0, 49, 100
2, 12390, Note_on_c, 0, 55, 100
2, 12390, Note_on_c, 0, 58, 100
2, 12391, Note_on_c, 0, 76, 0
2, 12419, Note_on_c, 0, 58, 0
2, 12419, Note_on_c, 0, 55, 0
2, 12419, Note_on_c, 0, 49, 0
2, 12436, Note_on_c, 0, 67, 0
2, 12436, Note_on_c, 0, 75, 0
2, 12440, Note_on_c, 0, 50, 100
2, 12465, Note_on_c, 0, 74, 100
2, 12465, Note_on_c, 0, 67, 100
2, 12486, Note_on_c, 0, 50, 0
2, 12490, Note_on_c, 0, 55, 100
2, 12490, Note_on_c, 0, 59, 100
2, 12515, Note_on_c, 0, 71, 100
2, 12516, Note_on_c, 0, 67, 0
2, 12516, Note_on_c, 0, 74, 0
2, 12519, Note_on_c, 0, 59, 0
2, 12519, Note_on_c, 0, 55, 0
2, 12540, Note_on_c, 0, 76, 100
2, 12540, Note_on_c, 0, 52, 100
2, 12541, Note_on_c, 0, 71, 0
2, 12565, Note_on_c, 0, 74, 100
2, 12572, Note_on_c, 0, 76, 0
2, 12586, Note_on_c, 0, 52, 0
2, 12590, Note_on_c, 0, 71, 100
2, 12590, Note_on_c, 0, 56, 100
2, 12590, Note_on_c, 0, 62, 100
2, 12591, Note_on_c, 0, 74, 0
2, 12615, Note_on_c, 0, 68, 100
2, 12619, Note_on_c, 0, 62, 0
2, 12619, Note_on_c, 0, 56, 0
2, 12622, Note_on_c, 0, 71, 0
2, 12638, Note_on_c, 0, 68, 0
2, 12640, Note_on_c, 0, 61, 100
2, 12640, Note_on_c, 0, 45, 100
2, 12665, Note_on_c, 0, 67, 100
2, 12686, Note_on_c, 0, 45, 0
2, 12690, Note_on_c, 0, 69, 100
2, 12690, Note_on_c, 0, 55, 100
2, 12690, Note_on_c, 0, 57, 100
2, 12691, Note_on_c, 0, 67, 0
2, 12709, Note_on_c, 0, 61, 0
2, 12715, Note_on_c, 0, 61, 100
2, 12715, Note_on_c, 0, 71, 100
2, 12719, Note_on_c, 0, 57, 0
2, 12719, Note_on_c, 0, 55, 0
2, 12722, Note_on_c, 0, 69, 0
2, 12740, Note_on_c, 0, 38, 100
2, 12761, Note_on_c, 0, 71, 0
2, 12765, Note_on_c, 0, 66, 100
2, 12773, Note_on_c, 0, 61, 0
2, 12786, Note_on_c, 0, 38, 0
2, 12790, Note_on_c, 0, 69, 100
2, 12790, Note_on_c, 0, 60, 100
2, 12790, Note_on_c, 0, 50, 100
2, 12797, Note_on_c, 0, 66, 0
2, 12831, Note_on_c, 0, 50, 0
2, 12836, Note_on_c, 0, 60, 0
2, 12836, Note_on_c, 0, 69, 0
2, 12840, Note_on_c, 0, 67, 100
2, 12840, Note_on_c, 0, 59, 100
2, 12840, Note_on_c, 0, 43, 100
2, 12840, Note_on_c, 0, 50, 100
2, 12886, Note_on_c, 0, 50, 0
2, 12886, Note_on_c, 0, 43, 0
2, 12891, Note_on_c, 0, 59, 0
2, 12891, Note_on_c, 0, 67, 0
2, 12940, Note_on_c, 0, 67, 100
2, 12940, Note_on_c, 0, 71, 100
2, 12940, Note_on_c, 0, 74, 100
2, 12940, Note_on_c, 0, 79, 100
2, 12940, Note_on_c, 0, 43, 100
2, 12940, Note_on_c, 0, 31, 100
2, 12986, Note_on_c, 0, 31, 0
2, 12986, Note_on_c, 0, 43, 0
2, 12991, Note_on_c, 0, 79, 0
2, 12991, Note_on_c, 0, 67, 0
2, 12991, Note_on_c, 0, 71, 0
2, 12991, Note_on_c, 0, 74, 0
2, 13040, Note_on_c, 0, 43, 100
2, 13065, Note_on_c, 0, 74, 100
2, 13086, Note_on_c, 0, 43, 0
2, 13090, Note_on_c, 0, 79, 100
2, 13090, Note_on_c, 0, 67, 100
2, 13090, Note_on_c, 0, 59, 100
2, 13090, Note_on_c, 0, 50, 100
2, 13090, Note_on_c, 0, 55, 100
2, 13091, Note_on_c, 0, 74, 0
2, 13115, Note_on_c, 0, 74, 100
2, 13119, Note_on_c, 0, 55, 0
2, 13119, Note_on_c, 0, 50, 0
2, 13119, Note_on_c, 0, 59, 0
2, 13122, Note_on_c, 0, 67, 0
2, 13122, Note_on_c, 0, 79, 0
2, 13140, Note_on_c, 0, 76, 100
2, 13140, Note_on_c, 0, 48, 100
2, 13141, Note_on_c, 0, 74, 0
2, 13165, Note_on_c, 0, 79, 100
2, 13165, Note_on_c, 0, 67, 100
2, 13172, Note_on_c, 0, 76, 0
2, 13186, Note_on_c, 0, 48, 0
2, 13190, Note_on_c, 0, 52, 100
2, 13190, Note_on_c, 0, 55, 100
2, 13190, Note_on_c, 0, 60, 100
2, 13211, Note_on_c, 0, 67, 0
2, 13211, Note_on_c, 0, 79, 0
2, 13215, Note_on_c, 0, 76, 100
2, 13219, Note_on_c, 0, 60, 0
2, 13219, Note_on_c, 0, 55, 0
2, 13219, Note_on_c, 0, 52, 0
2, 13240, Note_on_c, 0, 79, 100
2, 13240, Note_on_c, 0, 67, 100
2, 13240, Note_on_c, 0, 43, 100
2, 13241, Note_on_c, 0, 76, 0
2, 13265, Note_on_c, 0, 74, 100
2, 13272, Note_on_c, 0, 67, 0
2, 13272, Note_on_c, 0, 79, 0
2, 13286, Note_on_c, 0, 43, 0
2, 13290, Note_on_c, 0, 76, 100
2, 13290, Note_on_c, 0, 50, 100
2, 13290, Note_on_c, 0, 55, 100
2, 13290, Note_on_c, 0, 59, 100
2, 13291, Note_on_c, 0, 74, 0
2, 13315, Note_on_c, 0, 79, 100
2, 13315, Note_on_c, 0, 67, 100
2, 13319, Note_on_c, 0, 59, 0
2, 13319, Note_on_c, 0, 55, 0
2, 13319, Note_on_c, 0, 50, 0
2, 13322, Note_on_c, 0, 76, 0
2, 13340, Note_on_c, 0, 59, 100
2, 13340, Note_on_c, 0, 47, 100
2, 13361, Note_on_c, 0, 67, 0
2, 13361, Note_on_c, 0, 79, 0
2, 13365, Note_on_c, 0, 74, 100
2, 13386, Note_on_c, 0, 47, 0
2, 13386, Note_on_c, 0, 59, 0
2, 13390, Note_on_c, 0, 79, 100
2, 13390, Note_on_c, 0, 67, 100
2, 13390, Note_on_c, 0, 46, 100
2, 13390, Note_on_c, 0, 58, 100
2, 13397, Note_on_c, 0, 74, 0
2, 13436, Note_on_c, 0, 67, 0
2, 13436, Note_on_c, 0, 79, 0
2, 13436, Note_on_c, 0, 58, 0
2, 13436, Note_on_c, 0, 46, 0
2, 13440, Note_on_c, 0, 57, 100
2, 13440, Note_on_c, 0, 45, 100
2, 13465, Note_on_c, 0, 72, 100
2, 13486, Note_on_c, 0, 45, 0
2, 13486, Note_on_c, 0, 57, 0
2, 13490, Note_on_c, 0, 76, 100
2, 13490, Note_on_c, 0, 64, 100
2, 13490, Note_on_c, 0, 60, 100
2, 13490, Note_on_c, 0, 57, 100
2, 13490, Note_on_c, 0, 52, 100
2, 13491, Note_on_c, 0, 72, 0
2, 13515, Note_on_c, 0, 69, 100
2, 13519, Note_on_c, 0, 52, 0
2, 13519, Note_on_c, 0, 57, 0
2, 13519, Note_on_c, 0, 60, 0
2, 13522, Note_on_c, 0, 64, 0
2, 13522, Note_on_c, 0, 76, 0
2, 13540, Note_on_c, 0, 71, 100
2, 13540, Note_on_c, 0, 47, 100
2, 13541, Note_on_c, 0, 69, 0
2, 13565, Note_on_c, 0, 76, 100
2, 13565, Note_on_c, 0, 64, 100
2, 13572, Note_on_c, 0, 71, 0
2, 13586, Note_on_c, 0, 47, 0
2, 13590, Note_on_c, 0, 52, 100
2, 13590, Note_on_c, 0, 56, 100
2, 13590, Note_on_c, 0, 62, 100
2, 13611, Note_on_c, 0, 64, 0
2, 13611, Note_on_c, 0, 76, 0
2, 13615, Note_on_c, 0, 71, 100
2, 13619, Note_on_c, 0, 62, 0
2, 13619, Note_on_c, 0, 56, 0
2, 13619, Note_on_c, 0, 52, 0
2, 13640, Note_on_c, 0, 76, 100
2, 13640, Note_on_c, 0, 64, 100
2, 13640, Note_on_c, 0, 48, 100
2, 13641, Note_on_c, 0, 71, 0
2, 13665, Note_on_c, 0, 69, 100
2, 13672, Note_on_c, 0, 64, 0
2, 13672, Note_on_c, 0, 76, 0
2, 13686, Note_on_c, 0, 48, 0
2, 13690, Note_on_c, 0, 72, 100
2, 13690, Note_on_c, 0, 52, 100
2, 13690, Note_on_c, 0, 57, 100
2, 13690, Note_on_c, 0, 60, 100
2, 13691, Note_on_c, 0, 69, 0
2, 13715, Note_on_c, 0, 76, 100
2, 13715, Note_on_c, 0, 64, 100
2, 13719, Note_on_c, 0, 60, 0
2, 13719, Note_on_c, 0, 57, 0
2, 13719, Note_on_c, 0, 52, 0
2, 13722, Note_on_c, 0, 72, 0
2, 13740, Note_on_c, 0, 57, 100
2, 13740, Note_on_c, 0, 45, 100
2, 13761, Note_on_c, 0, 64, 0
2, 13761, Note_on_c, 0, 76, 0
2, 13765, Note_on_c, 0, 69, 100
2, 13786, Note_on_c, 0, 45, 0
2, 13786, Note_on_c, 0, 57, 0
2, 13790, Note_on_c, 0, 61, 100
2, 13790, Note_on_c, 0, 67, 100
2, 13790, Note_on_c, 0, 75, 100
2, 13790, Note_on_c, 0, 46, 100
2, 13790, Note_on_c, 0, 58, 100
2, 13797, Note_on_c, 0, 69, 0
2, 13836, Note_on_c, 0, 61, 0
2, 13836, Note_on_c, 0, 67, 0
2, 13836, Note_on_c, 0, 75, 0
2, 13836, Note_on_c, 0, 58, 0
2, 13836, Note_on_c, 0, 46, 0
2, 13840, Note_on_c, 0, 74, 100
2, 13840, Note_on_c, 0, 62, 100
2, 13840, Note_on_c, 0, 47, 100
2, 13840, Note_on_c, 0, 59, 100
2, 13865, Note_on_c, 0, 67, 100
2, 13872, Note_on_c, 0, 62, 0
2, 13872, Note_on_c, 0, 74, 0
2, 13886, Note_on_c, 0, 59, 0
2, 13886, Note_on_c, 0, 47, 0
2, 13890, Note_on_c, 0, 71, 100
2, 13890, Note_on_c, 0, 59, 100
2, 13890, Note_on_c, 0, 55, 100
2, 13890, Note_on_c, 0, 50, 100
2, 13891, Note_on_c, 0, 67, 0
2, 13915, Note_on_c, 0, 64, 100
2, 13915, Note_on_c, 0, 76, 100
2, 13919, Note_on_c, 0, 50, 0
2, 13919, Note_on_c, 0, 55, 0
2, 13919, Note_on_c, 0, 59, 0
2, 13922, Note_on_c, 0, 71, 0
2, 13940, Note_on_c, 0, 40, 100
2, 13965, Note_on_c, 0, 71, 100
2, 13973, Note_on_c, 0, 76, 0
2, 13986, Note_on_c, 0, 40, 0
2, 13990, Note_on_c, 0, 68, 100
2, 13990, Note_on_c, 0, 52, 100
2, 13990, Note_on_c, 0, 56, 100
2, 13990, Note_on_c, 0, 62, 100
2, 13995, Note_on_c, 0, 71, 0
2, 14010, Note_on_c, 0, 64, 0
2, 14015, Note_on_c, 0, 64, 100
2, 14019, Note_on_c, 0, 62, 0
2, 14019, Note_on_c, 0, 56, 0
2, 14019, Note_on_c, 0, 52, 0
2, 14027, Note_on_c, 0, 68, 0
2, 14040, Note_on_c, 0, 61, 100
2, 14040, Note_on_c, 0, 45, 100
2, 14041, Note_on_c, 0, 64, 0
2, 14065, Note_on_c, 0, 67, 100
2, 14086, Note_on_c, 0, 45, 0
2, 14090, Note_on_c, 0, 69, 100
2, 14090, Note_on_c, 0, 52, 100
2, 14090, Note_on_c, 0, 55, 100
2, 14090, Note_on_c, 0, 57, 100
2, 14095, Note_on_c, 0, 67, 0
2, 14109, Note_on_c, 0, 61, 0
2, 14115, Note_on_c, 0, 61, 100
2, 14115, Note_on_c, 0, 67, 100
2, 14115, Note_on_c, 0, 71, 100
2, 14119, Note_on_c, 0, 57, 0
2, 14119, Note_on_c, 0, 55, 0
2, 14119, Note_on_c, 0, 52, 0
2, 14127, Note_on_c, 0, 69, 0
2, 14140, Note_on_c, 0, 45, 100
2, 14161, Note_on_c, 0, 61, 0
2, 14161, Note_on_c, 0, 67, 0
2, 14161, Note_on_c, 0, 71, 0
2, 14165, Note_on_c, 0, 70, 100
2, 14186, Note_on_c, 0, 45, 0
2, 14190, Note_on_c, 0, 61, 100
2, 14190, Note_on_c, 0, 67, 100
2, 14190, Note_on_c, 0, 71, 100
2, 14190, Note_on_c, 0, 52, 100
2, 14190, Note_on_c, 0, 55, 100
2, 14190, Note_on_c, 0, 57, 100
2, 14197, Note_on_c, 0, 70, 0
2, 14219, Note_on_c, 0, 57, 0
2, 14219, Note_on_c, 0, 55, 0
2, 14219, Note_on_c, 0, 52, 0
2, 14236, Note_on_c, 0, 61, 0
2, 14236, Note_on_c, 0, 67, 0
2, 14236, Note_on_c, 0, 71, 0
2, 14240, Note_on_c, 0, 50, 100
2, 14240, Note_on_c, 0, 38, 100
2, 14265, Note_on_c, 0, 66, 100
2, 14265, Note_on_c, 0, 60, 100
2, 14266, Note_on_c, 0, 38, 0
2, 14266, Note_on_c, 0, 50, 0
2, 14290, Note_on_c, 0, 39, 100
2, 14290, Note_on_c, 0, 51, 100
2, 14315, Note_on_c, 0, 72, 100
2, 14327, Note_on_c, 0, 60, 0
2, 14327, Note_on_c, 0, 66, 0
2, 14336, Note_on_c, 0, 51, 0
2, 14336, Note_on_c, 0, 39, 0
2, 14338, Note_on_c, 0, 72, 0
2, 14340, Note_on_c, 0, 50, 100
2, 14340, Note_on_c, 0, 38, 100
2, 14365, Note_on_c, 0, 60, 100
2, 14365, Note_on_c, 0, 66, 100
2, 14366, Note_on_c, 0, 38, 0
2, 14366, Note_on_c, 0, 50, 0
2, 14390, Note_on_c, 0, 39, 100
2, 14390, Note_on_c, 0, 51, 100
2, 14415, Note_on_c, 0, 72, 100
2, 14427, Note_on_c, 0, 66, 0
2, 14427, Note_on_c, 0, 60, 0
2, 14436, Note_on_c, 0, 51, 0
2, 14436, Note_on_c, 0, 39, 0
2, 14438, Note_on_c, 0, 72, 0
2, 14440, Note_on_c, 0, 50, 100
2, 14440, Note_on_c, 0, 38, 100
2, 14465, Note_on_c, 0, 62, 100
2, 14465, Note_on_c, 0, 74, 100
2, 14467, Note_on_c, 0, 38, 0
2, 14467, Note_on_c, 0, 50, 0
2, 14490, Note_on_c, 0, 39, 100
2, 14490, Note_on_c, 0, 51, 100
2, 14491, Note_on_c, 0, 74, 0
2, 14491, Note_on_c, 0, 62, 0
2, 14513, Note_on_c, 0, 51, 0
2, 14513, Note_on_c, 0, 39, 0
2, 14515, Note_on_c, 0, 75, 100
2, 14515, Note_on_c, 0, 63, 100
2, 14538, Note_on_c, 0, 63, 0
2, 14538, Note_on_c, 0, 75, 0
2, 14540, Note_on_c, 0, 52, 100
2, 14540, Note_on_c, 0, 40, 100
2, 14565, Note_on_c, 0, 64, 100
2, 14565, Note_on_c, 0, 76, 100
2, 14567, Note_on_c, 0, 40, 0
2, 14567, Note_on_c, 0, 52, 0
2, 14590, Note_on_c, 0, 42, 100
2, 14590, Note_on_c, 0, 54, 100
2, 14591, Note_on_c, 0, 76, 0
2, 14591, Note_on_c, 0, 64, 0
2, 14613, Note_on_c, 0, 54, 0
2, 14613, Note_on_c, 0, 42, 0
2, 14615, Note_on_c, 0, 78, 100
2, 14615, Note_on_c, 0, 66, 100
2, 14638, Note_on_c, 0, 66, 0
2, 14638, Note_on_c, 0, 78, 0
2, 14640, Note_on_c, 0, 43, 100
2, 14665, Note_on_c, 0, 74, 100
2, 14686, Note_on_c, 0, 43, 0
2, 14690, Note_on_c, 0, 79, 100
2, 14690, Note_on_c, 0, 67, 100
2, 14690, Note_on_c, 0, 59, 100
2, 14690, Note_on_c, 0, 50, 100
2, 14690, Note_on_c, 0, 55, 100
2, 14691, Note_on_c, 0, 74, 0
2, 14715, Note_on_c, 0, 74, 100
2, 14719, Note_on_c, 0, 55, 0
2, 14719, Note_on_c, 0, 50, 0
2, 14719, Note_on_c, 0, 59, 0
2, 14722, Note_on_c, 0, 67, 0
2, 14722, Note_on_c, 0, 79, 0
2, 14740, Note_on_c, 0, 76, 100
2, 14740, Note_on_c, 0, 48, 100
2, 14741, Note_on_c, 0, 74, 0
2, 14765, Note_on_c, 0, 79, 100
2, 14765, Note_on_c, 0, 67, 100
2, 14772, Note_on_c, 0, 76, 0
2, 14786, Note_on_c, 0, 48, 0
2, 14790, Note_on_c, 0, 52, 100
2, 14790, Note_on_c, 0, 55, 100
2, 14790, Note_on_c, 0, 60, 100
2, 14811, Note_on_c, 0, 67, 0
2, 14811, Note_on_c, 0, 79, 0
2, 14815, Note_on_c, 0, 76, 100
2, 14819, Note_on_c, 0, 60, 0
2, 14819, Note_on_c, 0, 55, 0
2, 14819, Note_on_c, 0, 52, 0
2, 14840, Note_on_c, 0, 79, 100
2, 14840, Note_on_c, 0, 67, 100
2, 14840, Note_on_c, 0, 43, 100
2, 14841, Note_on_c, 0, 76, 0
2, 14865, Note_on_c, 0, 74, 100
2, 14872, Note_on_c, 0, 67, 0
2, 14872, Note_on_c, 0, 79, 0
2, 14886, Note_on_c, 0, 43, 0
2, 14890, Note_on_c, 0, 76, 100
2, 14890, Note_on_c, 0, 50, 100
2, 14890, Note_on_c, 0, 55, 100
2, 14890, Note_on_c, 0, 59, 100
2, 14891, Note_on_c, 0, 74, 0
2, 14915, Note_on_c, 0, 79, 100
2, 14915, Note_on_c, 0, 67, 100
2, 14919, Note_on_c, 0, 59, 0
2, 14919, Note_on_c, 0, 55, 0
2, 14919, Note_on_c, 0, 50, 0
2, 14922, Note_on_c, 0, 76, 0
2, 14940, Note_on_c, 0, 59, 100
2, 14940, Note_on_c, 0, 47, 100
2, 14961, Note_on_c, 0, 67, 0
2, 14961, Note_on_c, 0, 79, 0
2, 14965, Note_on_c, 0, 74, 100
2, 14986, Note_on_c, 0, 47, 0
2, 14986, Note_on_c, 0, 59, 0
2, 14990, Note_on_c, 0, 79, 100
2, 14990, Note_on_c, 0, 67, 100
2, 14990, Note_on_c, 0, 46, 100
2, 14990, Note_on_c, 0, 58, 100
2, 14997, Note_on_c, 0, 74, 0
2, 15036, Note_on_c, 0, 67, 0
2, 15036, Note_on_c, 0, 79, 0
2, 15036, Note_on_c, 0, 58, 0
2, 15036, Note_on_c, 0, 46, 0
2, 15040, Note_on_c, 0, 57, 100
2, 15040, Note_on_c, 0, 45, 100
2, 15065, Note_on_c, 0, 72, 100
2, 15086, Note_on_c, 0, 45, 0
2, 15086, Note_on_c, 0, 57, 0
2, 15090, Note_on_c, 0, 76, 100
2, 15090, Note_on_c, 0, 64, 100
2, 15090, Note_on_c, 0, 60, 100
2, 15090, Note_on_c, 0, 57, 100
2, 15090, Note_on_c, 0, 52, 100
2, 15091, Note_on_c, 0, 72, 0
2, 15115, Note_on_c, 0, 69, 100
2, 15119, Note_on_c, 0, 52, 0
2, 15119, Note_on_c, 0, 57, 0
2, 15119, Note_on_c, 0, 60, 0
2, 15122, Note_on_c, 0, 64, 0
2, 15122, Note_on_c, 0, 76, 0
2, 15140, Note_on_c, 0, 71, 100
2, 15140, Note_on_c, 0, 47, 100
2, 15141, Note_on_c, 0, 69, 0
2, 15165, Note_on_c, 0, 76, 100
2, 15165, Note_on_c, 0, 64, 100
2, 15172, Note_on_c, 0, 71, 0
2, 15186, Note_on_c, 0, 47, 0
2, 15190, Note_on_c, 0, 52, 100
2, 15190, Note_on_c, 0, 56, 100
2, 15190, Note_on_c, 0, 62, 100
2, 15211, Note_on_c, 0, 64, 0
2, 15211, Note_on_c, 0, 76, 0
2, 15215, Note_on_c, 0, 71, 100
2, 15219, Note_on_c, 0, 62, 0
2, 15219, Note_on_c, 0, 56, 0
2, 15219, Note_on_c, 0, 52, 0
2, 15240, Note_on_c, 0, 76, 100
2, 15240, Note_on_c, 0, 64, 100
2, 15240, Note_on_c, 0, 48, 100
2, 15241, Note_on_c, 0, 71, 0
2, 15265, Note_on_c, 0, 69, 100
2, 15272, Note_on_c, 0, 64, 0
2, 15272, Note_on_c, 0, 76, 0
2, 15286, Note_on_c, 0, 48, 0
2, 15290, Note_on_c, 0, 72, 100
2, 15290, Note_on_c, 0, 52, 100
2, 15290, Note_on_c, 0, 57, 100
2, 15290, Note_on_c, 0, 60, 100
2, 15291, Note_on_c, 0, 69, 0
2, 15315, Note_on_c, 0, 76, 100
2, 15315, Note_on_c, 0, 64, 100
2, 15319, Note_on_c, 0, 60, 0
2, 15319, Note_on_c, 0, 57, 0
2, 15319, Note_on_c, 0, 52, 0
2, 15322, Note_on_c, 0, 72, 0
2, 15340, Note_on_c, 0, 57, 100
2, 15340, Note_on_c, 0, 45, 100
2, 15361, Note_on_c, 0, 64, 0
2, 15361, Note_on_c, 0, 76, 0
2, 15365, Note_on_c, 0, 69, 100
2, 15386, Note_on_c, 0, 45, 0
2, 15386, Note_on_c, 0, 57, 0
2, 15390, Note_on_c, 0, 61, 100
2, 15390, Note_on_c, 0, 67, 100
2, 15390, Note_on_c, 0, 75, 100
2, 15390, Note_on_c, 0, 46, 100
2, 15390, Note_on_c, 0, 58, 100
2, 15397, Note_on_c, 0, 69, 0
2, 15436, Note_on_c, 0, 61, 0
2, 15436, Note_on_c, 0, 67, 0
2, 15436, Note_on_c, 0, 75, 0
2, 15436, Note_on_c, 0, 58, 0
2, 15436, Note_on_c, 0, 46, 0
2, 15440, Note_on_c, 0, 74, 100
2, 15440, Note_on_c, 0, 62, 100
2, 15440, Note_on_c, 0, 47, 100
2, 15440, Note_on_c, 0, 59, 100
2, 15465, Note_on_c, 0, 67, 100
2, 15472, Note_on_c, 0, 62, 0
2, 15472, Note_on_c, 0, 74, 0
2, 15486, Note_on_c, 0, 59, 0
2, 15486, Note_on_c, 0, 47, 0
2, 15490, Note_on_c, 0, 71, 100
2, 15490, Note_on_c, 0, 59, 100
2, 15490, Note_on_c, 0, 55, 100
2, 15490, Note_on_c, 0, 50, 100
2, 15491, Note_on_c, 0, 67, 0
2, 15515, Note_on_c, 0, 64, 100
2, 15515, Note_on_c, 0, 76, 100
2, 15522, Note_on_c, 0, 71, 0
2, 15536, Note_on_c, 0, 50, 0
2, 15536, Note_on_c, 0, 55, 0
2, 15536, Note_on_c, 0, 59, 0
2, 15540, Note_on_c, 0, 40, 100
2, 15565, Note_on_c, 0, 71, 100
2, 15573, Note_on_c, 0, 76, 0
2, 15586, Note_on_c, 0, 40, 0
2, 15590, Note_on_c, 0, 68, 100
2, 15590, Note_on_c, 0, 52, 100
2, 15590, Note_on_c, 0, 56, 100
2, 15590, Note_on_c, 0, 62, 100
2, 15591, Note_on_c, 0, 71, 0
2, 15610, Note_on_c, 0, 64, 0
2, 15615, Note_on_c, 0, 64, 100
2, 15619, Note_on_c, 0, 62, 0
2, 15619, Note_on_c, 0, 56, 0
2, 15619, Note_on_c, 0, 52, 0
2, 15622, Note_on_c, 0, 68, 0
2, 15640, Note_on_c, 0, 61, 100
2, 15640, Note_on_c, 0, 45, 100
2, 15641, Note_on_c, 0, 64, 0
2, 15665, Note_on_c, 0, 67, 100
2, 15686, Note_on_c, 0, 45, 0
2, 15690, Note_on_c, 0, 69, 100
2, 15690, Note_on_c, 0, 52, 100
2, 15690, Note_on_c, 0, 55, 100
2, 15691, Note_on_c, 0, 67, 0
2, 15709, Note_on_c, 0, 61, 0
2, 15715, Note_on_c, 0, 61, 100
2, 15715, Note_on_c, 0, 67, 100
2, 15715, Note_on_c, 0, 71, 100
2, 15719, Note_on_c, 0, 55, 0
2, 15719, Note_on_c, 0, 52, 0
2, 15722, Note_on_c, 0, 69, 0
2, 15740, Note_on_c, 0, 45, 100
2, 15761, Note_on_c, 0, 61, 0
2, 15761, Note_on_c, 0, 67, 0
2, 15761, Note_on_c, 0, 71, 0
2, 15765, Note_on_c, 0, 67, 100
2, 15786, Note_on_c, 0, 45, 0
2, 15790, Note_on_c, 0, 60, 100
2, 15790, Note_on_c, 0, 66, 100
2, 15790, Note_on_c, 0, 69, 100
2, 15790, Note_on_c, 0, 50, 100
2, 15790, Note_on_c, 0, 54, 100
2, 15797, Note_on_c, 0, 67, 0
2, 15836, Note_on_c, 0, 60, 0
2, 15836, Note_on_c, 0, 66, 0
2, 15836, Note_on_c, 0, 69, 0
2, 15836, Note_on_c, 0, 50, 0
2, 15840, Note_on_c, 0, 59, 100
2, 15840, Note_on_c, 0, 62, 100
2, 15840, Note_on_c, 0, 67, 100
2, 15840, Note_on_c, 0, 55, 100
2, 15840, Note_on_c, 0, 50, 100
2, 15840, Note_on_c, 0, 43, 100
2, 15843, Note_on_c, 0, 54, 0
2, 15886, Note_on_c, 0, 67, 0
2, 15886, Note_on_c, 0, 62, 0
2, 15886, Note_on_c, 0, 59, 0
2, 15886, Note_on_c, 0, 55, 0
2, 15886, Note_on_c, 0, 50, 0
2, 15886, Note_on_c, 0, 43, 0
2, 15890, Note_on_c, 0, 62, 100
2, 15890, Note_on_c, 0, 50, 100
2, 15915, Note_on_c, 0, 64, 100
2, 15915, Note_on_c, 0, 52, 100
2, 15921, Note_on_c, 0, 50, 0
2, 15922, Note_on_c, 0, 62, 0
2, 15961, Note_on_c, 0, 64, 0
2, 15965, Note_on_c, 0, 62, 100
2, 15988, Note_on_c, 0, 62, 0
2, 15990, Note_on_c, 0, 66, 100
2, 15990, Note_on_c, 0, 62, 100
2, 15990, Note_on_c, 0, 60, 100
2, 15990, Note_on_c, 0, 50, 100
2, 15990, Note_on_c, 0, 38, 100
2, 15996, Note_on_c, 0, 52, 0
2, 16036, Note_on_c, 0, 62, 0
2, 16036, Note_on_c, 0, 50, 0
2, 16040, Note_on_c, 0, 59, 100
2, 16040, Note_on_c, 0, 62, 100
2, 16040, Note_on_c, 0, 67, 100
2, 16040, Note_on_c, 0, 50, 100
2, 16040, Note_on_c, 0, 43, 100
2, 16045, Note_on_c, 0, 38, 0
2, 16047, Note_on_c, 0, 60, 0
2, 16047, Note_on_c, 0, 66, 0
2, 16086, Note_on_c, 0, 62, 0
2, 16086, Note_on_c, 0, 59, 0
2, 16086, Note_on_c, 0, 67, 0
2, 16086, Note_on_c, 0, 43, 0
2, 16086, Note_on_c, 0, 50, 0
2, 16140, Note_on_c, 0, 67, 100
2, 16140, Note_on_c, 0, 71, 100
2, 16140, Note_on_c, 0, 74, 100
2, 16140, Note_on_c, 0, 79, 100
2, 16140, Note_on_c, 0, 43, 100
2, 16140, Note_on_c, 0, 31, 100
2, 16186, Note_on_c, 0, 31, 0
2, 16186, Note_on_c, 0, 43, 0
2, 16196, Note_on_c, 0, 79, 0
2, 16196, Note_on_c, 0, 67, 0
2, 16196, Note_on_c, 0, 71, 0
2, 16196, Note_on_c, 0, 74, 0
2, 16240, Note_on_c, 0, 48, 100
2, 16265, Note_on_c, 0, 76, 100
2, 16265, Note_on_c, 0, 72, 100
2, 16286, Note_on_c, 0, 48, 0
2, 16290, Note_on_c, 0, 67, 100
2, 16290, Note_on_c, 0, 79, 100
2, 16290, Note_on_c, 0, 52, 100
2, 16290, Note_on_c, 0, 60, 100
2, 16290, Note_on_c, 0, 55, 100
2, 16291, Note_on_c, 0, 72, 0
2, 16291, Note_on_c, 0, 76, 0
2, 16315, Note_on_c, 0, 76, 100
2, 16315, Note_on_c, 0, 72, 100
2, 16319, Note_on_c, 0, 55, 0
2, 16319, Note_on_c, 0, 60, 0
2, 16319, Note_on_c, 0, 52, 0
2, 16322, Note_on_c, 0, 67, 0
2, 16322, Note_on_c, 0, 79, 0
2, 16340, Note_on_c, 0, 43, 100
2, 16361, Note_on_c, 0, 76, 0
2, 16361, Note_on_c, 0, 72, 0
2, 16365, Note_on_c, 0, 72, 100
2, 16365, Note_on_c, 0, 76, 100
2, 16365, Note_on_c, 0, 79, 100
2, 16365, Note_on_c, 0, 84, 100
2, 16386, Note_on_c, 0, 43, 0
2, 16390, Note_on_c, 0, 52, 100
2, 16390, Note_on_c, 0, 55, 100
2, 16390, Note_on_c, 0, 60, 100
2, 16411, Note_on_c, 0, 84, 0
2, 16411, Note_on_c, 0, 72, 0
2, 16411, Note_on_c, 0, 76, 0
2, 16411, Note_on_c, 0, 79, 0
2, 16415, Note_on_c, 0, 71, 100
2, 16419, Note_on_c, 0, 60, 0
2, 16419, Note_on_c, 0, 55, 0
2, 16419, Note_on_c, 0, 52, 0
2, 16440, Note_on_c, 0, 76, 100
2, 16440, Note_on_c, 0, 79, 100
2, 16440, Note_on_c, 0, 83, 100
2, 16440, Note_on_c, 0, 48, 100
2, 16447, Note_on_c, 0, 71, 0
2, 16486, Note_on_c, 0, 76, 0
2, 16486, Note_on_c, 0, 79, 0
2, 16486, Note_on_c, 0, 83, 0
2, 16486, Note_on_c, 0, 48, 0
2, 16490, Note_on_c, 0, 69, 100
2, 16490, Note_on_c, 0, 52, 100
2, 16490, Note_on_c, 0, 55, 100
2, 16490, Note_on_c, 0, 60, 100
2, 16515, Note_on_c, 0, 76, 100
2, 16515, Note_on_c, 0, 79, 100
2, 16515, Note_on_c, 0, 81, 100
2, 16519, Note_on_c, 0, 60, 0
2, 16519, Note_on_c, 0, 55, 0
2, 16519, Note_on_c, 0, 52, 0
2, 16522, Note_on_c, 0, 69, 0
2, 16540, Note_on_c, 0, 43, 100
2, 16561, Note_on_c, 0, 76, 0
2, 16561, Note_on_c, 0, 79, 0
2, 16561, Note_on_c, 0, 81, 0
2, 16565, Note_on_c, 0, 67, 100
2, 16586, Note_on_c, 0, 43, 0
2, 16590, Note_on_c, 0, 79, 100
2, 16590, Note_on_c, 0, 76, 100
2, 16590, Note_on_c, 0, 72, 100
2, 16590, Note_on_c, 0, 52, 100
2, 16590, Note_on_c, 0, 55, 100
2, 16590, Note_on_c, 0, 60, 100
2, 16597, Note_on_c, 0, 67, 0
2, 16619, Note_on_c, 0, 60, 0
2, 16619, Note_on_c, 0, 55, 0
2, 16619, Note_on_c, 0, 52, 0
2, 16636, Note_on_c, 0, 79, 0
2, 16636, Note_on_c, 0, 76, 0
2, 16636, Note_on_c, 0, 72, 0
2, 16640, Note_on_c, 0, 48, 100
2, 16665, Note_on_c, 0, 67, 100
2, 16665, Note_on_c, 0, 79, 100
2, 16686, Note_on_c, 0, 48, 0
2, 16690, Note_on_c, 0, 52, 100
2, 16690, Note_on_c, 0, 55, 100
2, 16690, Note_on_c, 0, 60, 100
2, 16711, Note_on_c, 0, 79, 0
2, 16711, Note_on_c, 0, 67, 0
2, 16715, Note_on_c, 0, 76, 100
2, 16715, Note_on_c, 0, 72, 100
2, 16719, Note_on_c, 0, 60, 0
2, 16719, Note_on_c, 0, 55, 0
2, 16719, Note_on_c, 0, 52, 0
2, 16740, Note_on_c, 0, 79, 100
2, 16740, Note_on_c, 0, 67, 100
2, 16740, Note_on_c, 0, 48, 100
2, 16747, Note_on_c, 0, 72, 0
2, 16747, Note_on_c, 0, 76, 0
2, 16786, Note_on_c, 0, 48, 0
2, 16790, Note_on_c, 0, 69, 100
2, 16790, Note_on_c, 0, 81, 100
2, 16790, Note_on_c, 0, 49, 100
2, 16791, Note_on_c, 0, 79, 0
2, 16791, Note_on_c, 0, 67, 0
2, 16830, Note_on_c, 0, 49, 0
2, 16836, Note_on_c, 0, 69, 0
2, 16836, Note_on_c, 0, 81, 0
2, 16840, Note_on_c, 0, 83, 100
2, 16840, Note_on_c, 0, 71, 100
2, 16840, Note_on_c, 0, 50, 100
2, 16886, Note_on_c, 0, 71, 0
2, 16886, Note_on_c, 0, 83, 0
2, 16886, Note_on_c, 0, 50, 0
2, 16890, Note_on_c, 0, 77, 100
2, 16890, Note_on_c, 0, 74, 100
2, 16890, Note_on_c, 0, 53, 100
2, 16890, Note_on_c, 0, 55, 100
2, 16890, Note_on_c, 0, 59, 100
2, 16915, Note_on_c, 0, 83, 100
2, 16915, Note_on_c, 0, 71, 100
2, 16919, Note_on_c, 0, 59, 0
2, 16919, Note_on_c, 0, 55, 0
2, 16919, Note_on_c, 0, 53, 0
2, 16922, Note_on_c, 0, 74, 0
2, 16922, Note_on_c, 0, 77, 0
2, 16940, Note_on_c, 0, 43, 100
2, 16961, Note_on_c, 0, 83, 0
2, 16961, Note_on_c, 0, 71, 0
2, 16965, Note_on_c, 0, 77, 100
2, 16965, Note_on_c, 0, 74, 100
2, 16986, Note_on_c, 0, 43, 0
2, 16990, Note_on_c, 0, 83, 100
2, 16990, Note_on_c, 0, 71, 100
2, 16990, Note_on_c, 0, 53, 100
2, 16990, Note_on_c, 0, 55, 100
2, 16990, Note_on_c, 0, 59, 100
2, 16997, Note_on_c, 0, 74, 0
2, 16997, Note_on_c, 0, 77, 0
2, 17019, Note_on_c, 0, 59, 0
2, 17019, Note_on_c, 0, 55, 0
2, 17019, Note_on_c, 0, 53, 0
2, 17036, Note_on_c, 0, 83, 0
2, 17036, Note_on_c, 0, 71, 0
2, 17040, Note_on_c, 0, 55, 100
2, 17040, Note_on_c, 0, 43, 100
2, 17065, Note_on_c, 0, 74, 100
2, 17065, Note_on_c, 0, 71, 100
2, 17090, Note_on_c, 0, 65, 100
2, 17090, Note_on_c, 0, 77, 100
2, 17091, Note_on_c, 0, 71, 0
2, 17091, Note_on_c, 0, 74, 0
2, 17115, Note_on_c, 0, 74, 100
2, 17115, Note_on_c, 0, 71, 100
2, 17122, Note_on_c, 0, 65, 0
2, 17122, Note_on_c, 0, 77, 0
2, 17132, Note_on_c, 0, 43, 0
2, 17132, Note_on_c, 0, 55, 0
2, 17140, Note_on_c, 0, 44, 100
2, 17140, Note_on_c, 0, 56, 100
2, 17141, Note_on_c, 0, 74, 0
2, 17141, Note_on_c, 0, 71, 0
2, 17165, Note_on_c, 0, 70, 100
2, 17165, Note_on_c, 0, 74, 100
2, 17190, Note_on_c, 0, 77, 100
2, 17190, Note_on_c, 0, 65, 100
2, 17191, Note_on_c, 0, 74, 0
2, 17191, Note_on_c, 0, 70, 0
2, 17215, Note_on_c, 0, 74, 100
2, 17215, Note_on_c, 0, 70, 100
2, 17222, Note_on_c, 0, 77, 0
2, 17222, Note_on_c, 0, 65, 0
2, 17232, Note_on_c, 0, 56, 0
2, 17232, Note_on_c, 0, 44, 0
2, 17240, Note_on_c, 0, 57, 100
2, 17240, Note_on_c, 0, 45, 100
2, 17241, Note_on_c, 0, 74, 0
2, 17241, Note_on_c, 0, 70, 0
2, 17265, Note_on_c, 0, 69, 100
2, 17265, Note_on_c, 0, 74, 100
2, 17290, Note_on_c, 0, 77, 100
2, 17290, Note_on_c, 0, 65, 100
2, 17291, Note_on_c, 0, 74, 0
2, 17291, Note_on_c, 0, 69, 0
2, 17315, Note_on_c, 0, 69, 100
2, 17315, Note_on_c, 0, 74, 100
2, 17322, Note_on_c, 0, 77, 0
2, 17322, Note_on_c, 0, 65, 0
2, 17332, Note_on_c, 0, 45, 0
2, 17332, Note_on_c, 0, 57, 0
2, 17340, Note_on_c, 0, 58, 100
2, 17340, Note_on_c, 0, 46, 100
2, 17341, Note_on_c, 0, 69, 0
2, 17341, Note_on_c, 0, 74, 0
2, 17365, Note_on_c, 0, 74, 100
2, 17365, Note_on_c, 0, 68, 100
2, 17390, Note_on_c, 0, 65, 100
2, 17390, Note_on_c, 0, 77, 100
2, 17391, Note_on_c, 0, 68, 0
2, 17391, Note_on_c, 0, 74, 0
2, 17415, Note_on_c, 0, 74, 100
2, 17415, Note_on_c, 0, 68, 100
2, 17422, Note_on_c, 0, 65, 0
2, 17422, Note_on_c, 0, 77, 0
2, 17432, Note_on_c, 0, 46, 0
2, 17432, Note_on_c, 0, 58, 0
2, 17440, Note_on_c, 0, 65, 100
2, 17440, Note_on_c, 0, 77, 100
2, 17440, Note_on_c, 0, 59, 100
2, 17440, Note_on_c, 0, 47, 100
2, 17441, Note_on_c, 0, 74, 0
2, 17441, Note_on_c, 0, 68, 0
2, 17486, Note_on_c, 0, 47, 0
2, 17486, Note_on_c, 0, 59, 0
2, 17490, Note_on_c, 0, 67, 100
2, 17490, Note_on_c, 0, 79, 100
2, 17490, Note_on_c, 0, 53, 100
2, 17490, Note_on_c, 0, 55, 100
2, 17490, Note_on_c, 0, 59, 100
2, 17491, Note_on_c, 0, 65, 0
2, 17491, Note_on_c, 0, 77, 0
2, 17515, Note_on_c, 0, 81, 100
2, 17515, Note_on_c, 0, 69, 100
2, 17519, Note_on_c, 0, 59, 0
2, 17519, Note_on_c, 0, 55, 0
2, 17519, Note_on_c, 0, 53, 0
2, 17522, Note_on_c, 0, 67, 0
2, 17522, Note_on_c, 0, 79, 0
2, 17540, Note_on_c, 0, 43, 100
2, 17561, Note_on_c, 0, 81, 0
2, 17561, Note_on_c, 0, 69, 0
2, 17565, Note_on_c, 0, 77, 100
2, 17586, Note_on_c, 0, 43, 0
2, 17590, Note_on_c, 0, 83, 100
2, 17590, Note_on_c, 0, 71, 100
2, 17590, Note_on_c, 0, 53, 100
2, 17590, Note_on_c, 0, 55, 100
2, 17590, Note_on_c, 0, 59, 100
2, 17591, Note_on_c, 0, 77, 0
2, 17615, Note_on_c, 0, 77, 100
2, 17619, Note_on_c, 0, 59, 0
2, 17619, Note_on_c, 0, 55, 0
2, 17619, Note_on_c, 0, 53, 0
2, 17622, Note_on_c, 0, 71, 0
2, 17622, Note_on_c, 0, 83, 0
2, 17640, Note_on_c, 0, 69, 100
2, 17640, Note_on_c, 0, 76, 100
2, 17640, Note_on_c, 0, 81, 100
2, 17640, Note_on_c, 0, 48, 100
2, 17641, Note_on_c, 0, 77, 0
2, 17686, Note_on_c, 0, 69, 0
2, 17686, Note_on_c, 0, 76, 0
2, 17686, Note_on_c, 0, 81, 0
2, 17686, Note_on_c, 0, 48, 0
2, 17690, Note_on_c, 0, 68, 100
2, 17690, Note_on_c, 0, 76, 100
2, 17690, Note_on_c, 0, 80, 100
2, 17690, Note_on_c, 0, 52, 100
2, 17690, Note_on_c, 0, 55, 100
2, 17690, Note_on_c, 0, 60, 100
2, 17713, Note_on_c, 0, 76, 0
2, 17715, Note_on_c, 0, 79, 100
2, 17715, Note_on_c, 0, 76, 100
2, 17715, Note_on_c, 0, 67, 100
2, 17719, Note_on_c, 0, 60, 0
2, 17719, Note_on_c, 0, 55, 0
2, 17719, Note_on_c, 0, 52, 0
2, 17722, Note_on_c, 0, 80, 0
2, 17722, Note_on_c, 0, 68, 0
2, 17740, Note_on_c, 0, 43, 100
2, 17761, Note_on_c, 0, 76, 0
2, 17761, Note_on_c, 0, 79, 0
2, 17761, Note_on_c, 0, 67, 0
2, 17765, Note_on_c, 0, 76, 100
2, 17786, Note_on_c, 0, 43, 0
2, 17790, Note_on_c, 0, 79, 100
2, 17790, Note_on_c, 0, 67, 100
2, 17790, Note_on_c, 0, 52, 100
2, 17790, Note_on_c, 0, 55, 100
2, 17790, Note_on_c, 0, 60, 100
2, 17793, Note_on_c, 0, 76, 0
2, 17819, Note_on_c, 0, 60, 0
2, 17819, Note_on_c, 0, 55, 0
2, 17819, Note_on_c, 0, 52, 0
2, 17840, Note_on_c, 0, 48, 100
2, 17841, Note_on_c, 0, 67, 0
2, 17841, Note_on_c, 0, 79, 0
2, 17865, Note_on_c, 0, 76, 100
2, 17865, Note_on_c, 0, 72, 100
2, 17886, Note_on_c, 0, 48, 0
2, 17890, Note_on_c, 0, 67, 100
2, 17890, Note_on_c, 0, 79, 100
2, 17890, Note_on_c, 0, 52, 100
2, 17890, Note_on_c, 0, 60, 100
2, 17890, Note_on_c, 0, 55, 100
2, 17891, Note_on_c, 0, 72, 0
2, 17891, Note_on_c, 0, 76, 0
2, 17915, Note_on_c, 0, 76, 100
2, 17915, Note_on_c, 0, 72, 100
2, 17919, Note_on_c, 0, 55, 0
2, 17919, Note_on_c, 0, 60, 0
2, 17919, Note_on_c, 0, 52, 0
2, 17922, Note_on_c, 0, 67, 0
2, 17922, Note_on_c, 0, 79, 0
2, 17940, Note_on_c, 0, 43, 100
2, 17961, Note_on_c, 0, 76, 0
2, 17961, Note_on_c, 0, 72, 0
2, 17965, Note_on_c, 0, 72, 100
2, 17965, Note_on_c, 0, 76, 100
2, 17965, Note_on_c, 0, 79, 100
2, 17965, Note_on_c, 0, 84, 100
2, 17986, Note_on_c, 0, 43, 0
2, 17990, Note_on_c, 0, 52, 100
2, 17990, Note_on_c, 0, 55, 100
2, 17990, Note_on_c, 0, 60, 100
2, 18011, Note_on_c, 0, 84, 0
2, 18011, Note_on_c, 0, 72, 0
2, 18011, Note_on_c, 0, 76, 0
2, 18011, Note_on_c, 0, 79, 0
2, 18015, Note_on_c, 0, 71, 100
2, 18019, Note_on_c, 0, 60, 0
2, 18019, Note_on_c, 0, 55, 0
2, 18019, Note_on_c, 0, 52, 0
2, 18040, Note_on_c, 0, 76, 100
2, 18040, Note_on_c, 0, 79, 100
2, 18040, Note_on_c, 0, 83, 100
2, 18040, Note_on_c, 0, 48, 100
2, 18047, Note_on_c, 0, 71, 0
2, 18086, Note_on_c, 0, 76, 0
2, 18086, Note_on_c, 0, 79, 0
2, 18086, Note_on_c, 0, 83, 0
2, 18086, Note_on_c, 0, 48, 0
2, 18090, Note_on_c, 0, 69, 100
2, 18090, Note_on_c, 0, 52, 100
2, 18090, Note_on_c, 0, 55, 100
2, 18090, Note_on_c, 0, 60, 100
2, 18115, Note_on_c, 0, 76, 100
2, 18115, Note_on_c, 0, 79, 100
2, 18115, Note_on_c, 0, 81, 100
2, 18119, Note_on_c, 0, 60, 0
2, 18119, Note_on_c, 0, 55, 0
2, 18119, Note_on_c, 0, 52, 0
2, 18122, Note_on_c, 0, 69, 0
2, 18140, Note_on_c, 0, 43, 100
2, 18161, Note_on_c, 0, 76, 0
2, 18161, Note_on_c, 0, 79, 0
2, 18161, Note_on_c, 0, 81, 0
2, 18165, Note_on_c, 0, 67, 100
2, 18186, Note_on_c, 0, 43, 0
2, 18190, Note_on_c, 0, 79, 100
2, 18190, Note_on_c, 0, 76, 100
2, 18190, Note_on_c, 0, 72, 100
2, 18190, Note_on_c, 0, 52, 100
2, 18190, Note_on_c, 0, 55, 100
2, 18190, Note_on_c, 0, 60, 100
2, 18197, Note_on_c, 0, 67, 0
2, 18219, Note_on_c, 0, 60, 0
2, 18219, Note_on_c, 0, 55, 0
2, 18219, Note_on_c, 0, 52, 0
2, 18236, Note_on_c, 0, 79, 0
2, 18236, Note_on_c, 0, 76, 0
2, 18236, Note_on_c, 0, 72, 0
2, 18240, Note_on_c, 0, 48, 100
2, 18265, Note_on_c, 0, 67, 100
2, 18265, Note_on_c, 0, 79, 100
2, 18286, Note_on_c, 0, 48, 0
2, 18290, Note_on_c, 0, 52, 100
2, 18290, Note_on_c, 0, 55, 100
2, 18290, Note_on_c, 0, 60, 100
2, 18311, Note_on_c, 0, 79, 0
2, 18311, Note_on_c, 0, 67, 0
2, 18315, Note_on_c, 0, 76, 100
2, 18315, Note_on_c, 0, 72, 100
2, 18319, Note_on_c, 0, 60, 0
2, 18319, Note_on_c, 0, 55, 0
2, 18319, Note_on_c, 0, 52, 0
2, 18340, Note_on_c, 0, 79, 100
2, 18340, Note_on_c, 0, 67, 100
2, 18340, Note_on_c, 0, 38, 100
2, 18340, Note_on_c, 0, 50, 100
2, 18347, Note_on_c, 0, 72, 0
2, 18347, Note_on_c, 0, 76, 0
2, 18386, Note_on_c, 0, 50, 0
2, 18386, Note_on_c, 0, 38, 0
2, 18390, Note_on_c, 0, 68, 100
2, 18390, Note_on_c, 0, 80, 100
2, 18390, Note_on_c, 0, 52, 100
2, 18390, Note_on_c, 0, 40, 100
2, 18391, Note_on_c, 0, 79, 0
2, 18391, Note_on_c, 0, 67, 0
2, 18430, Note_on_c, 0, 40, 0
2, 18430, Note_on_c, 0, 52, 0
2, 18436, Note_on_c, 0, 68, 0
2, 18436, Note_on_c, 0, 80, 0
2, 18440, Note_on_c, 0, 69, 100
2, 18440, Note_on_c, 0, 81, 100
2, 18440, Note_on_c, 0, 53, 100
2, 18440, Note_on_c, 0, 41, 100
2, 18486, Note_on_c, 0, 81, 0
2, 18486, Note_on_c, 0, 69, 0
2, 18486, Note_on_c, 0, 41, 0
2, 18486, Note_on_c, 0, 53, 0
2, 18490, Note_on_c, 0, 77, 100
2, 18490, Note_on_c, 0, 74, 100
2, 18490, Note_on_c, 0, 53, 100
2, 18490, Note_on_c, 0, 57, 100
2, 18490, Note_on_c, 0, 62, 100
2, 18515, Note_on_c, 0, 69, 100
2, 18515, Note_on_c, 0, 81, 100
2, 18519, Note_on_c, 0, 62, 0
2, 18519, Note_on_c, 0, 57, 0
2, 18519, Note_on_c, 0, 53, 0
2, 18522, Note_on_c, 0, 74, 0
2, 18522, Note_on_c, 0, 77, 0
2, 18540, Note_on_c, 0, 50, 100
2, 18540, Note_on_c, 0, 38, 100
2, 18561, Note_on_c, 0, 69, 0
2, 18561, Note_on_c, 0, 81, 0
2, 18565, Note_on_c, 0, 77, 100
2, 18565, Note_on_c, 0, 74, 100
2, 18586, Note_on_c, 0, 38, 0
2, 18586, Note_on_c, 0, 50, 0
2, 18590, Note_on_c, 0, 81, 100
2, 18590, Note_on_c, 0, 69, 100
2, 18590, Note_on_c, 0, 53, 100
2, 18590, Note_on_c, 0, 57, 100
2, 18590, Note_on_c, 0, 62, 100
2, 18597, Note_on_c, 0, 74, 0
2, 18597, Note_on_c, 0, 77, 0
2, 18619, Note_on_c, 0, 62, 0
2, 18619, Note_on_c, 0, 57, 0
2, 18619, Note_on_c, 0, 53, 0
2, 18636, Note_on_c, 0, 81, 0
2, 18636, Note_on_c, 0, 69, 0
2, 18640, Note_on_c, 0, 53, 100
2, 18640, Note_on_c, 0, 41, 100
2, 18665, Note_on_c, 0, 69, 100
2, 18665, Note_on_c, 0, 81, 100
2, 18686, Note_on_c, 0, 41, 0
2, 18686, Note_on_c, 0, 53, 0
2, 18690, Note_on_c, 0, 53, 100
2, 18690, Note_on_c, 0, 57, 100
2, 18690, Note_on_c, 0, 62, 100
2, 18711, Note_on_c, 0, 81, 0
2, 18711, Note_on_c, 0, 69, 0
2, 18715, Note_on_c, 0, 77, 100
2, 18715, Note_on_c, 0, 74, 100
2, 18719, Note_on_c, 0, 62, 0
2, 18719, Note_on_c, 0, 57, 0
2, 18719, Note_on_c, 0, 53, 0
2, 18740, Note_on_c, 0, 81, 100
2, 18740, Note_on_c, 0, 69, 100
2, 18740, Note_on_c, 0, 53, 100
2, 18740, Note_on_c, 0, 41, 100
2, 18747, Note_on_c, 0, 74, 0
2, 18747, Note_on_c, 0, 77, 0
2, 18786, Note_on_c, 0, 41, 0
2, 18786, Note_on_c, 0, 53, 0
2, 18790, Note_on_c, 0, 42, 100
2, 18790, Note_on_c, 0, 54, 100
2, 18809, Note_on_c, 0, 81, 0
2, 18809, Note_on_c, 0, 69, 0
2, 18815, Note_on_c, 0, 80, 100
2, 18815, Note_on_c, 0, 68, 100
2, 18830, Note_on_c, 0, 54, 0
2, 18830, Note_on_c, 0, 42, 0
2, 18840, Note_on_c, 0, 55, 100
2, 18840, Note_on_c, 0, 43, 100
2, 18861, Note_on_c, 0, 68, 0
2, 18861, Note_on_c, 0, 80, 0
2, 18865, Note_on_c, 0, 67, 100
2, 18865, Note_on_c, 0, 79, 100
2, 18886, Note_on_c, 0, 43, 0
2, 18886, Note_on_c, 0, 55, 0
2, 18890, Note_on_c, 0, 55, 100
2, 18890, Note_on_c, 0, 60, 100
2, 18890, Note_on_c, 0, 64, 100
2, 18911, Note_on_c, 0, 79, 0
2, 18911, Note_on_c, 0, 67, 0
2, 18915, Note_on_c, 0, 76, 100
2, 18915, Note_on_c, 0, 72, 100
2, 18919, Note_on_c, 0, 64, 0
2, 18919, Note_on_c, 0, 60, 0
2, 18919, Note_on_c, 0, 55, 0
2, 18940, Note_on_c, 0, 69, 100
2, 18940, Note_on_c, 0, 81, 100
2, 18940, Note_on_c, 0, 57, 100
2, 18940, Note_on_c, 0, 45, 100
2, 18941, Note_on_c, 0, 72, 0
2, 18941, Note_on_c, 0, 76, 0
2, 18965, Note_on_c, 0, 76, 100
2, 18965, Note_on_c, 0, 73, 100
2, 18972, Note_on_c, 0, 69, 0
2, 18972, Note_on_c, 0, 81, 0
2, 18986, Note_on_c, 0, 45, 0
2, 18986, Note_on_c, 0, 57, 0
2, 18990, Note_on_c, 0, 57, 100
2, 18990, Note_on_c, 0, 61, 100
2, 18990, Note_on_c, 0, 67, 100
2, 19011, Note_on_c, 0, 76, 0
2, 19011, Note_on_c, 0, 73, 0
2, 19015, Note_on_c, 0, 81, 100
2, 19015, Note_on_c, 0, 69, 100
2, 19019, Note_on_c, 0, 67, 0
2, 19019, Note_on_c, 0, 61, 0
2, 19019, Note_on_c, 0, 57, 0
2, 19040, Note_on_c, 0, 57, 100
2, 19040, Note_on_c, 0, 45, 100
2, 19061, Note_on_c, 0, 69, 0
2, 19061, Note_on_c, 0, 81, 0
2, 19065, Note_on_c, 0, 76, 100
2, 19065, Note_on_c, 0, 66, 100
2, 19086, Note_on_c, 0, 45, 0
2, 19086, Note_on_c, 0, 57, 0
2, 19090, Note_on_c, 0, 50, 100
2, 19090, Note_on_c, 0, 54, 100
2, 19090, Note_on_c, 0, 60, 100
2, 19111, Note_on_c, 0, 66, 0
2, 19111, Note_on_c, 0, 76, 0
2, 19115, Note_on_c, 0, 72, 100
2, 19119, Note_on_c, 0, 60, 0
2, 19119, Note_on_c, 0, 54, 0
2, 19119, Note_on_c, 0, 50, 0
2, 19140, Note_on_c, 0, 76, 100
2, 19140, Note_on_c, 0, 65, 100
2, 19140, Note_on_c, 0, 43, 100
2, 19141, Note_on_c, 0, 72, 0
2, 19165, Note_on_c, 0, 71, 100
2, 19172, Note_on_c, 0, 65, 0
2, 19172, Note_on_c, 0, 76, 0
2, 19186, Note_on_c, 0, 43, 0
2, 19190, Note_on_c, 0, 74, 100
2, 19190, Note_on_c, 0, 65, 100
2, 19190, Note_on_c, 0, 53, 100
2, 19190, Note_on_c, 0, 55, 100
2, 19190, Note_on_c, 0, 59, 100
2, 19191, Note_on_c, 0, 71, 0
2, 19215, Note_on_c, 0, 72, 100
2, 19215, Note_on_c, 0, 64, 100
2, 19219, Note_on_c, 0, 59, 0
2, 19219, Note_on_c, 0, 55, 0
2, 19219, Note_on_c, 0, 53, 0
2, 19222, Note_on_c, 0, 65, 0
2, 19222, Note_on_c, 0, 74, 0
2, 19240, Note_on_c, 0, 55, 100
2, 19240, Note_on_c, 0, 48, 100
2, 19293, Note_on_c, 0, 48, 0
2, 19293, Note_on_c, 0, 55, 0
2, 19296, Note_on_c, 0, 72, 0
2, 19296, Note_on_c, 0, 64, 0
2, 19340, Note_on_c, 0, 72, 100
2, 19340, Note_on_c, 0, 76, 100
2, 19340, Note_on_c, 0, 79, 100
2, 19340, Note_on_c, 0, 84, 100
2, 19340, Note_on_c, 0, 48, 100
2, 19340, Note_on_c, 0, 36, 100
2, 19386, Note_on_c, 0, 84, 0
2, 19386, Note_on_c, 0, 72, 0
2, 19386, Note_on_c, 0, 76, 0
2, 19386, Note_on_c, 0, 79, 0
2, 19393, Note_on_c, 0, 36, 0
2, 19393, Note_on_c, 0, 48, 0
2, 19440, Note_on_c, 0, 48, 100
2, 19465, Note_on_c, 0, 76, 100
2, 19465, Note_on_c, 0, 72, 100
2, 19486, Note_on_c, 0, 48, 0
2, 19490, Note_on_c, 0, 67, 100
2, 19490, Note_on_c, 0, 79, 100
2, 19490, Note_on_c, 0, 52, 100
2, 19490, Note_on_c, 0, 60, 100
2, 19490, Note_on_c, 0, 55, 100
2, 19491, Note_on_c, 0, 72, 0
2, 19491, Note_on_c, 0, 76, 0
2, 19515, Note_on_c, 0, 76, 100
2, 19515, Note_on_c, 0, 72, 100
2, 19519, Note_on_c, 0, 55, 0
2, 19519, Note_on_c, 0, 60, 0
2, 19519, Note_on_c, 0, 52, 0
2, 19522, Note_on_c, 0, 67, 0
2, 19522, Note_on_c, 0, 79, 0
2, 19540, Note_on_c, 0, 43, 100
2, 19561, Note_on_c, 0, 76, 0
2, 19561, Note_on_c, 0, 72, 0
2, 19565, Note_on_c, 0, 72, 100
2, 19565, Note_on_c, 0, 76, 100
2, 19565, Note_on_c, 0, 79, 100
2, 19565, Note_on_c, 0, 84, 100
2, 19586, Note_on_c, 0, 43, 0
2, 19590, Note_on_c, 0, 52, 100
2, 19590, Note_on_c, 0, 55, 100
2, 19590, Note_on_c, 0, 60, 100
2, 19611, Note_on_c, 0, 84, 0
2, 19611, Note_on_c, 0, 72, 0
2, 19611, Note_on_c, 0, 76, 0
2, 19611, Note_on_c, 0, 79, 0
2, 19615, Note_on_c, 0, 71, 100
2, 19619, Note_on_c, 0, 60, 0
2, 19619, Note_on_c, 0, 55, 0
2, 19619, Note_on_c, 0, 52, 0
2, 19640, Note_on_c, 0, 76, 100
2, 19640, Note_on_c, 0, 79, 100
2, 19640, Note_on_c, 0, 83, 100
2, 19640, Note_on_c, 0, 48, 100
2, 19647, Note_on_c, 0, 71, 0
2, 19686, Note_on_c, 0, 76, 0
2, 19686, Note_on_c, 0, 79, 0
2, 19686, Note_on_c, 0, 83, 0
2, 19686, Note_on_c, 0, 48, 0
2, 19690, Note_on_c, 0, 69, 100
2, 19690, Note_on_c, 0, 52, 100
2, 19690, Note_on_c, 0, 55, 100
2, 19690, Note_on_c, 0, 60, 100
2, 19715, Note_on_c, 0, 76, 100
2, 19715, Note_on_c, 0, 79, 100
2, 19715, Note_on_c, 0, 81, 100
2, 19719, Note_on_c, 0, 60, 0
2, 19719, Note_on_c, 0, 55, 0
2, 19719, Note_on_c, 0, 52, 0
2, 19722, Note_on_c, 0, 69, 0
2, 19740, Note_on_c, 0, 43, 100
2, 19761, Note_on_c, 0, 76, 0
2, 19761, Note_on_c, 0, 79, 0
2, 19761, Note_on_c, 0, 81, 0
2, 19765, Note_on_c, 0, 67, 100
2, 19786, Note_on_c, 0, 43, 0
2, 19790, Note_on_c, 0, 79, 100
2, 19790, Note_on_c, 0, 76, 100
2, 19790, Note_on_c, 0, 72, 100
2, 19790, Note_on_c, 0, 52, 100
2, 19790, Note_on_c, 0, 55, 100
2, 19790, Note_on_c, 0, 60, 100
2, 19797, Note_on_c, 0, 67, 0
2, 19819, Note_on_c, 0, 60, 0
2, 19819, Note_on_c, 0, 55, 0
2, 19819, Note_on_c, 0, 52, 0
2, 19836, Note_on_c, 0, 79, 0
2, 19836, Note_on_c, 0, 76, 0
2, 19836, Note_on_c, 0, 72, 0
2, 19840, Note_on_c, 0, 48, 100
2, 19865, Note_on_c, 0, 67, 100
2, 19865, Note_on_c, 0, 79, 100
2, 19886, Note_on_c, 0, 48, 0
2, 19890, Note_on_c, 0, 52, 100
2, 19890, Note_on_c, 0, 55, 100
2, 19890, Note_on_c, 0, 60, 100
2, 19911, Note_on_c, 0, 79, 0
2, 19911, Note_on_c, 0, 67, 0
2, 19915, Note_on_c, 0, 76, 100
2, 19915, Note_on_c, 0, 72, 100
2, 19919, Note_on_c, 0, 60, 0
2, 19919, Note_on_c, 0, 55, 0
2, 19919, Note_on_c, 0, 52, 0
2, 19940, Note_on_c, 0, 79, 100
2, 19940, Note_on_c, 0, 67, 100
2, 19940, Note_on_c, 0, 48, 100
2, 19947, Note_on_c, 0, 72, 0
2, 19947, Note_on_c, 0, 76, 0
2, 19986, Note_on_c, 0, 48, 0
2, 19990, Note_on_c, 0, 69, 100
2, 19990, Note_on_c, 0, 81, 100
2, 19990, Note_on_c, 0, 49, 100
2, 19991, Note_on_c, 0, 79, 0
2, 19991, Note_on_c, 0, 67, 0
2, 20030, Note_on_c, 0, 49, 0
2, 20036, Note_on_c, 0, 69, 0
2, 20036, Note_on_c, 0, 81, 0
2, 20040, Note_on_c, 0, 83, 100
2, 20040, Note_on_c, 0, 71, 100
2, 20040, Note_on_c, 0, 50, 100
2, 20086, Note_on_c, 0, 71, 0
2, 20086, Note_on_c, 0, 83, 0
2, 20086, Note_on_c, 0, 50, 0
2, 20090, Note_on_c, 0, 77, 100
2, 20090, Note_on_c, 0, 74, 100
2, 20090, Note_on_c, 0, 53, 100
2, 20090, Note_on_c, 0, 55, 100
2, 20090, Note_on_c, 0, 59, 100
2, 20115, Note_on_c, 0, 83, 100
2, 20115, Note_on_c, 0, 71, 100
2, 20119, Note_on_c, 0, 59, 0
2, 20119, Note_on_c, 0, 55, 0
2, 20119, Note_on_c, 0, 53, 0
2, 20122, Note_on_c, 0, 74, 0
2, 20122, Note_on_c, 0, 77, 0
2, 20140, Note_on_c, 0, 43, 100
2, 20161, Note_on_c, 0, 83, 0
2, 20161, Note_on_c, 0, 71, 0
2, 20165, Note_on_c, 0, 77, 100
2, 20165, Note_on_c, 0, 74, 100
2, 20186, Note_on_c, 0, 43, 0
2, 20190, Note_on_c, 0, 83, 100
2, 20190, Note_on_c, 0, 71, 100
2, 20190, Note_on_c, 0, 53, 100
2, 20190, Note_on_c, 0, 55, 100
2, 20190, Note_on_c, 0, 59, 100
2, 20197, Note_on_c, 0, 74, 0
2, 20197, Note_on_c, 0, 77, 0
2, 20219, Note_on_c, 0, 59, 0
2, 20219, Note_on_c, 0, 55, 0
2, 20219, Note_on_c, 0, 53, 0
2, 20236, Note_on_c, 0, 83, 0
2, 20236, Note_on_c, 0, 71, 0
2, 20240, Note_on_c, 0, 55, 100
2, 20240, Note_on_c, 0, 43, 100
2, 20265, Note_on_c, 0, 74, 100
2, 20265, Note_on_c, 0, 71, 100
2, 20290, Note_on_c, 0, 65, 100
2, 20290, Note_on_c, 0, 77, 100
2, 20291, Note_on_c, 0, 71, 0
2, 20291, Note_on_c, 0, 74, 0
2, 20315, Note_on_c, 0, 74, 100
2, 20315, Note_on_c, 0, 71, 100
2, 20322, Note_on_c, 0, 65, 0
2, 20322, Note_on_c, 0, 77, 0
2, 20332, Note_on_c, 0, 43, 0
2, 20332, Note_on_c, 0, 55, 0
2, 20340, Note_on_c, 0, 44, 100
2, 20340, Note_on_c, 0, 56, 100
2, 20341, Note_on_c, 0, 74, 0
2, 20341, Note_on_c, 0, 71, 0
2, 20365, Note_on_c, 0, 70, 100
2, 20365, Note_on_c, 0, 74, 100
2, 20390, Note_on_c, 0, 77, 100
2, 20390, Note_on_c, 0, 65, 100
2, 20391, Note_on_c, 0, 74, 0
2, 20391, Note_on_c, 0, 70, 0
2, 20415, Note_on_c, 0, 74, 100
2, 20415, Note_on_c, 0, 70, 100
2, 20422, Note_on_c, 0, 77, 0
2, 20422, Note_on_c, 0, 65, 0
2, 20432, Note_on_c, 0, 56, 0
2, 20432, Note_on_c, 0, 44, 0
2, 20440, Note_on_c, 0, 57, 100
2, 20440, Note_on_c, 0, 45, 100
2, 20441, Note_on_c, 0, 74, 0
2, 20441, Note_on_c, 0, 70, 0
2, 20465, Note_on_c, 0, 69, 100
2, 20465, Note_on_c, 0, 74, 100
2, 20490, Note_on_c, 0, 77, 100
2, 20490, Note_on_c, 0, 65, 100
2, 20491, Note_on_c, 0, 74, 0
2, 20491, Note_on_c, 0, 69, 0
2, 20515, Note_on_c, 0, 69, 100
2, 20515, Note_on_c, 0, 74, 100
2, 20522, Note_on_c, 0, 77, 0
2, 20522, Note_on_c, 0, 65, 0
2, 20532, Note_on_c, 0, 45, 0
2, 20532, Note_on_c, 0, 57, 0
2, 20540, Note_on_c, 0, 58, 100
2, 20540, Note_on_c, 0, 46, 100
2, 20541, Note_on_c, 0, 69, 0
2, 20541, Note_on_c, 0, 74, 0
2, 20565, Note_on_c, 0, 74, 100
2, 20565, Note_on_c, 0, 68, 100
2, 20590, Note_on_c, 0, 65, 100
2, 20590, Note_on_c, 0, 77, 100
2, 20591, Note_on_c, 0, 68, 0
2, 20591, Note_on_c, 0, 74, 0
2, 20615, Note_on_c, 0, 74, 100
2, 20615, Note_on_c, 0, 68, 100
2, 20622, Note_on_c, 0, 65, 0
2, 20622, Note_on_c, 0, 77, 0
2, 20632, Note_on_c, 0, 46, 0
2, 20632, Note_on_c, 0, 58, 0
2, 20640, Note_on_c, 0, 65, 100
2, 20640, Note_on_c, 0, 77, 100
2, 20640, Note_on_c, 0, 59, 100
2, 20640, Note_on_c, 0, 47, 100
2, 20641, Note_on_c, 0, 74, 0
2, 20641, Note_on_c, 0, 68, 0
2, 20686, Note_on_c, 0, 47, 0
2, 20686, Note_on_c, 0, 59, 0
2, 20690, Note_on_c, 0, 67, 100
2, 20690, Note_on_c, 0, 79, 100
2, 20690, Note_on_c, 0, 53, 100
2, 20690, Note_on_c, 0, 55, 100
2, 20690, Note_on_c, 0, 59, 100
2, 20691, Note_on_c, 0, 65, 0
2, 20691, Note_on_c, 0, 77, 0
2, 20715, Note_on_c, 0, 81, 100
2, 20715, Note_on_c, 0, 69, 100
2, 20719, Note_on_c, 0, 59, 0
2, 20719, Note_on_c, 0, 55, 0
2, 20719, Note_on_c, 0, 53, 0
2, 20722, Note_on_c, 0, 67, 0
2, 20722, Note_on_c, 0, 79, 0
2, 20740, Note_on_c, 0, 43, 100
2, 20761, Note_on_c, 0, 81, 0
2, 20761, Note_on_c, 0, 69, 0
2, 20765, Note_on_c, 0, 77, 100
2, 20786, Note_on_c, 0, 43, 0
2, 20790, Note_on_c, 0, 83, 100
2, 20790, Note_on_c, 0, 71, 100
2, 20790, Note_on_c, 0, 53, 100
2, 20790, Note_on_c, 0, 55, 100
2, 20790, Note_on_c, 0, 59, 100
2, 20791, Note_on_c, 0, 77, 0
2, 20815, Note_on_c, 0, 77, 100
2, 20819, Note_on_c, 0, 59, 0
2, 20819, Note_on_c, 0, 55, 0
2, 20819, Note_on_c, 0, 53, 0
2, 20822, Note_on_c, 0, 71, 0
2, 20822, Note_on_c, 0, 83, 0
2, 20840, Note_on_c, 0, 69, 100
2, 20840, Note_on_c, 0, 76, 100
2, 20840, Note_on_c, 0, 81, 100
2, 20840, Note_on_c, 0, 48, 100
2, 20841, Note_on_c, 0, 77, 0
2, 20886, Note_on_c, 0, 69, 0
2, 20886, Note_on_c, 0, 76, 0
2, 20886, Note_on_c, 0, 81, 0
2, 20886, Note_on_c, 0, 48, 0
2, 20890, Note_on_c, 0, 68, 100
2, 20890, Note_on_c, 0, 76, 100
2, 20890, Note_on_c, 0, 80, 100
2, 20890, Note_on_c, 0, 52, 100
2, 20890, Note_on_c, 0, 55, 100
2, 20890, Note_on_c, 0, 60, 100
2, 20913, Note_on_c, 0, 76, 0
2, 20915, Note_on_c, 0, 79, 100
2, 20915, Note_on_c, 0, 76, 100
2, 20915, Note_on_c, 0, 67, 100
2, 20919, Note_on_c, 0, 60, 0
2, 20919, Note_on_c, 0, 55, 0
2, 20919, Note_on_c, 0, 52, 0
2, 20922, Note_on_c, 0, 80, 0
2, 20922, Note_on_c, 0, 68, 0
2, 20940, Note_on_c, 0, 43, 100
2, 20961, Note_on_c, 0, 76, 0
2, 20961, Note_on_c, 0, 79, 0
2, 20961, Note_on_c, 0, 67, 0
2, 20965, Note_on_c, 0, 76, 100
2, 20986, Note_on_c, 0, 43, 0
2, 20990, Note_on_c, 0, 79, 100
2, 20990, Note_on_c, 0, 67, 100
2, 20990, Note_on_c, 0, 52, 100
2, 20990, Note_on_c, 0, 55, 100
2, 20990, Note_on_c, 0, 60, 100
2, 20993, Note_on_c, 0, 76, 0
2, 21019, Note_on_c, 0, 60, 0
2, 21019, Note_on_c, 0, 55, 0
2, 21019, Note_on_c, 0, 52, 0
2, 21040, Note_on_c, 0, 48, 100
2, 21041, Note_on_c, 0, 67, 0
2, 21041, Note_on_c, 0, 79, 0
2, 21065, Note_on_c, 0, 76, 100
2, 21065, Note_on_c, 0, 72, 100
2, 21086, Note_on_c, 0, 48, 0
2, 21090, Note_on_c, 0, 67, 100
2, 21090, Note_on_c, 0, 79, 100
2, 21090, Note_on_c, 0, 52, 100
2, 21090, Note_on_c, 0, 60, 100
2, 21090, Note_on_c, 0, 55, 100
2, 21091, Note_on_c, 0, 72, 0
2, 21091, Note_on_c, 0, 76, 0
2, 21115, Note_on_c, 0, 76, 100
2, 21115, Note_on_c, 0, 72, 100
2, 21119, Note_on_c, 0, 55, 0
2, 21119, Note_on_c, 0, 60, 0
2, 21119, Note_on_c, 0, 52, 0
2, 21122, Note_on_c, 0, 67, 0
2, 21122, Note_on_c, 0, 79, 0
2, 21140, Note_on_c, 0, 43, 100
2, 21161, Note_on_c, 0, 76, 0
2, 21161, Note_on_c, 0, 72, 0
2, 21165, Note_on_c, 0, 72, 100
2, 21165, Note_on_c, 0, 76, 100
2, 21165, Note_on_c, 0, 79, 100
2, 21165, Note_on_c, 0, 84, 100
2, 21186, Note_on_c, 0, 43, 0
2, 21190, Note_on_c, 0, 52, 100
2, 21190, Note_on_c, 0, 55, 100
2, 21190, Note_on_c, 0, 60, 100
2, 21211, Note_on_c, 0, 84, 0
2, 21211, Note_on_c, 0, 72, 0
2, 21211, Note_on_c, 0, 76, 0
2, 21211, Note_on_c, 0, 79, 0
2, 21215, Note_on_c, 0, 71, 100
2, 21219, Note_on_c, 0, 60, 0
2, 21219, Note_on_c, 0, 55, 0
2, 21219, Note_on_c, 0, 52, 0
2, 21240, Note_on_c, 0, 76, 100
2, 21240, Note_on_c, 0, 79, 100
2, 21240, Note_on_c, 0, 83, 100
2, 21240, Note_on_c, 0, 48, 100
2, 21247, Note_on_c, 0, 71, 0
2, 21286, Note_on_c, 0, 76, 0
2, 21286, Note_on_c, 0, 79, 0
2, 21286, Note_on_c, 0, 83, 0
2, 21286, Note_on_c, 0, 48, 0
2, 21290, Note_on_c, 0, 69, 100
2, 21290, Note_on_c, 0, 52, 100
2, 21290, Note_on_c, 0, 55, 100
2, 21290, Note_on_c, 0, 60, 100
2, 21315, Note_on_c, 0, 76, 100
2, 21315, Note_on_c, 0, 79, 100
2, 21315, Note_on_c, 0, 81, 100
2, 21319, Note_on_c, 0, 60, 0
2, 21319, Note_on_c, 0, 55, 0
2, 21319, Note_on_c, 0, 52, 0
2, 21322, Note_on_c, 0, 69, 0
2, 21340, Note_on_c, 0, 43, 100
2, 21361, Note_on_c, 0, 76, 0
2, 21361, Note_on_c, 0, 79, 0
2, 21361, Note_on_c, 0, 81, 0
2, 21365, Note_on_c, 0, 67, 100
2, 21386, Note_on_c, 0, 43, 0
2, 21390, Note_on_c, 0, 79, 100
2, 21390, Note_on_c, 0, 76, 100
2, 21390, Note_on_c, 0, 72, 100
2, 21390, Note_on_c, 0, 52, 100
2, 21390, Note_on_c, 0, 55, 100
2, 21390, Note_on_c, 0, 60, 100
2, 21397, Note_on_c, 0, 67, 0
2, 21419, Note_on_c, 0, 60, 0
2, 21419, Note_on_c, 0, 55, 0
2, 21419, Note_on_c, 0, 52, 0
2, 21436, Note_on_c, 0, 79, 0
2, 21436, Note_on_c, 0, 76, 0
2, 21436, Note_on_c, 0, 72, 0
2, 21440, Note_on_c, 0, 48, 100
2, 21465, Note_on_c, 0, 67, 100
2, 21465, Note_on_c, 0, 79, 100
2, 21486, Note_on_c, 0, 48, 0
2, 21490, Note_on_c, 0, 52, 100
2, 21490, Note_on_c, 0, 55, 100
2, 21490, Note_on_c, 0, 60, 100
2, 21511, Note_on_c, 0, 79, 0
2, 21511, Note_on_c, 0, 67, 0
2, 21515, Note_on_c, 0, 76, 100
2, 21515, Note_on_c, 0, 72, 100
2, 21519, Note_on_c, 0, 60, 0
2, 21519, Note_on_c, 0, 55, 0
2, 21519, Note_on_c, 0, 52, 0
2, 21540, Note_on_c, 0, 79, 100
2, 21540, Note_on_c, 0, 67, 100
2, 21540, Note_on_c, 0, 38, 100
2, 21540, Note_on_c, 0, 50, 100
2, 21547, Note_on_c, 0, 72, 0
2, 21547, Note_on_c, 0, 76, 0
2, 21586, Note_on_c, 0, 50, 0
2, 21586, Note_on_c, 0, 38, 0
2, 21590, Note_on_c, 0, 68, 100
2, 21590, Note_on_c, 0, 80, 100
2, 21590, Note_on_c, 0, 52, 100
2, 21590, Note_on_c, 0, 40, 100
2, 21591, Note_on_c, 0, 79, 0
2, 21591, Note_on_c, 0, 67, 0
2, 21630, Note_on_c, 0, 40, 0
2, 21630, Note_on_c, 0, 52, 0
2, 21636, Note_on_c, 0, 68, 0
2, 21636, Note_on_c, 0, 80, 0
2, 21640, Note_on_c, 0, 69, 100
2, 21640, Note_on_c, 0, 81, 100
2, 21640, Note_on_c, 0, 53, 100
2, 21640, Note_on_c, 0, 41, 100
2, 21686, Note_on_c, 0, 81, 0
2, 21686, Note_on_c, 0, 69, 0
2, 21686, Note_on_c, 0, 41, 0
2, 21686, Note_on_c, 0, 53, 0
2, 21690, Note_on_c, 0, 77, 100
2, 21690, Note_on_c, 0, 74, 100
2, 21690, Note_on_c, 0, 53, 100
2, 21690, Note_on_c, 0, 57, 100
2, 21690, Note_on_c, 0, 62, 100
2, 21715, Note_on_c, 0, 69, 100
2, 21715, Note_on_c, 0, 81, 100
2, 21719, Note_on_c, 0, 62, 0
2, 21719, Note_on_c, 0, 57, 0
2, 21719, Note_on_c, 0, 53, 0
2, 21722, Note_on_c, 0, 74, 0
2, 21722, Note_on_c, 0, 77, 0
2, 21740, Note_on_c, 0, 50, 100
2, 21740, Note_on_c, 0, 38, 100
2, 21761, Note_on_c, 0, 69, 0
2, 21761, Note_on_c, 0, 81, 0
2, 21765, Note_on_c, 0, 77, 100
2, 21765, Note_on_c, 0, 74, 100
2, 21786, Note_on_c, 0, 38, 0
2, 21786, Note_on_c, 0, 50, 0
2, 21790, Note_on_c, 0, 81, 100
2, 21790, Note_on_c, 0, 69, 100
2, 21790, Note_on_c, 0, 53, 100
2, 21790, Note_on_c, 0, 57, 100
2, 21790, Note_on_c, 0, 62, 100
2, 21797, Note_on_c, 0, 74, 0
2, 21797, Note_on_c, 0, 77, 0
2, 21819, Note_on_c, 0, 62, 0
2, 21819, Note_on_c, 0, 57, 0
2, 21819, Note_on_c, 0, 53, 0
2, 21836, Note_on_c, 0, 81, 0
2, 21836, Note_on_c, 0, 69, 0
2, 21840, Note_on_c, 0, 53, 100
2, 21840, Note_on_c, 0, 41, 100
2, 21865, Note_on_c, 0, 69, 100
2, 21865, Note_on_c, 0, 81, 100
2, 21886, Note_on_c, 0, 41, 0
2, 21886, Note_on_c, 0, 53, 0
2, 21890, Note_on_c, 0, 53, 100
2, 21890, Note_on_c, 0, 57, 100
2, 21890, Note_on_c, 0, 62, 100
2, 21911, Note_on_c, 0, 81, 0
2, 21911, Note_on_c, 0, 69, 0
2, 21915, Note_on_c, 0, 77, 100
2, 21915, Note_on_c, 0, 74, 100
2, 21919, Note_on_c, 0, 62, 0
2, 21919, Note_on_c, 0, 57, 0
2, 21919, Note_on_c, 0, 53, 0
2, 21940, Note_on_c, 0, 81, 100
2, 21940, Note_on_c, 0, 69, 100
2, 21940, Note_on_c, 0, 53, 100
2, 21940, Note_on_c, 0, 41, 100
2, 21947, Note_on_c, 0, 74, 0
2, 21947, Note_on_c, 0, 77, 0
2, 21986, Note_on_c, 0, 41, 0
2, 21986, Note_on_c, 0, 53, 0
2, 21990, Note_on_c, 0, 42, 100
2, 21990, Note_on_c, 0, 54, 100
2, 22009, Note_on_c, 0, 81, 0
2, 22009, Note_on_c, 0, 69, 0
2, 22015, Note_on_c, 0, 80, 100
2, 22015, Note_on_c, 0, 68, 100
2, 22030, Note_on_c, 0, 54, 0
2, 22030, Note_on_c, 0, 42, 0
2, 22040, Note_on_c, 0, 55, 100
2, 22040, Note_on_c, 0, 43, 100
2, 22061, Note_on_c, 0, 68, 0
2, 22061, Note_on_c, 0, 80, 0
2, 22065, Note_on_c, 0, 67, 100
2, 22065, Note_on_c, 0, 79, 100
2, 22086, Note_on_c, 0, 43, 0
2, 22086, Note_on_c, 0, 55, 0
2, 22090, Note_on_c, 0, 55, 100
2, 22090, Note_on_c, 0, 60, 100
2, 22090, Note_on_c, 0, 64, 100
2, 22111, Note_on_c, 0, 79, 0
2, 22111, Note_on_c, 0, 67, 0
2, 22115, Note_on_c, 0, 76, 100
2, 22115, Note_on_c, 0, 72, 100
2, 22119, Note_on_c, 0, 64, 0
2, 22119, Note_on_c, 0, 60, 0
2, 22119, Note_on_c, 0, 55, 0
2, 22140, Note_on_c, 0, 69, 100
2, 22140, Note_on_c, 0, 81, 100
2, 22140, Note_on_c, 0, 57, 100
2, 22140, Note_on_c, 0, 45, 100
2, 22141, Note_on_c, 0, 72, 0
2, 22141, Note_on_c, 0, 76, 0
2, 22165, Note_on_c, 0, 76, 100
2, 22165, Note_on_c, 0, 73, 100
2, 22172, Note_on_c, 0, 69, 0
2, 22172, Note_on_c, 0, 81, 0
2, 22186, Note_on_c, 0, 45, 0
2, 22186, Note_on_c, 0, 57, 0
2, 22190, Note_on_c, 0, 57, 100
2, 22190, Note_on_c, 0, 61, 100
2, 22190, Note_on_c, 0, 67, 100
2, 22211, Note_on_c, 0, 76, 0
2, 22211, Note_on_c, 0, 73, 0
2, 22215, Note_on_c, 0, 81, 100
2, 22215, Note_on_c, 0, 69, 100
2, 22219, Note_on_c, 0, 67, 0
2, 22219, Note_on_c, 0, 61, 0
2, 22219, Note_on_c, 0, 57, 0
2, 22240, Note_on_c, 0, 57, 100
2, 22240, Note_on_c, 0, 45, 100
2, 22261, Note_on_c, 0, 69, 0
2, 22261, Note_on_c, 0, 81, 0
2, 22265, Note_on_c, 0, 76, 100
2, 22265, Note_on_c, 0, 66, 100
2, 22286, Note_on_c, 0, 45, 0
2, 22286, Note_on_c, 0, 57, 0
2, 22290, Note_on_c, 0, 50, 100
2, 22290, Note_on_c, 0, 54, 100
2, 22290, Note_on_c, 0, 60, 100
2, 22311, Note_on_c, 0, 66, 0
2, 22311, Note_on_c, 0, 76, 0
2, 22315, Note_on_c, 0, 72, 100
2, 22319, Note_on_c, 0, 60, 0
2, 22319, Note_on_c, 0, 54, 0
2, 22319, Note_on_c, 0, 50, 0
2, 22340, Note_on_c, 0, 76, 100
2, 22340, Note_on_c, 0, 65, 100
2, 22340, Note_on_c, 0, 43, 100
2, 22341, Note_on_c, 0, 72, 0
2, 22365, Note_on_c, 0, 71, 100
2, 22372, Note_on_c, 0, 65, 0
2, 22372, Note_on_c, 0, 76, 0
2, 22386, Note_on_c, 0, 43, 0
2, 22390, Note_on_c, 0, 74, 100
2, 22390, Note_on_c, 0, 65, 100
2, 22390, Note_on_c, 0, 53, 100
2, 22390, Note_on_c, 0, 55, 100
2, 22390, Note_on_c, 0, 59, 100
2, 22391, Note_on_c, 0, 71, 0
2, 22415, Note_on_c, 0, 72, 100
2, 22415, Note_on_c, 0, 64, 100
2, 22419, Note_on_c, 0, 59, 0
2, 22419, Note_on_c, 0, 55, 0
2, 22419, Note_on_c, 0, 53, 0
2, 22422, Note_on_c, 0, 65, 0
2, 22422, Note_on_c, 0, 74, 0
2, 22440, Note_on_c, 0, 55, 100
2, 22440, Note_on_c, 0, 48, 100
2, 22493, Note_on_c, 0, 48, 0
2, 22493, Note_on_c, 0, 55, 0
2, 22496, Note_on_c, 0, 72, 0
2, 22496, Note_on_c, 0, 64, 0
2, 22540, Note_on_c, 0, 72, 100
2, 22540, Note_on_c, 0, 76, 100
2, 22540, Note_on_c, 0, 79, 100
2, 22540, Note_on_c, 0, 84, 100
2, 22540, Note_on_c, 0, 48, 100
2, 22540, Note_on_c, 0, 36, 100
2, 22586, Note_on_c, 0, 84, 0
2, 22586, Note_on_c, 0, 72, 0
2, 22586, Note_on_c, 0, 76, 0
2, 22586, Note_on_c, 0, 79, 0
2, 22593, Note_on_c, 0, 36, 0
2, 22593, Note_on_c, 0, 48, 0
2, 22640, Note_on_c, 0, 76, 100
2, 22640, Note_on_c, 0, 52, 100
2, 22640, Note_on_c, 0, 64, 100
2, 22665, Note_on_c, 0, 80, 100
2, 22672, Note_on_c, 0, 76, 0
2, 22686, Note_on_c, 0, 64, 0
2, 22686, Note_on_c, 0, 52, 0
2, 22690, Note_on_c, 0, 83, 100
2, 22690, Note_on_c, 0, 56, 100
2, 22690, Note_on_c, 0, 68, 100
2, 22691, Note_on_c, 0, 80, 0
2, 22715, Note_on_c, 0, 88, 100
2, 22715, Note_on_c, 0, 76, 100
2, 22722, Note_on_c, 0, 83, 0
2, 22730, Note_on_c, 0, 68, 0
2, 22730, Note_on_c, 0, 56, 0
2, 22740, Note_on_c, 0, 59, 100
2, 22740, Note_on_c, 0, 71, 100
2, 22761, Note_on_c, 0, 76, 0
2, 22761, Note_on_c, 0, 88, 0
2, 22765, Note_on_c, 0, 83, 100
2, 22786, Note_on_c, 0, 71, 0
2, 22786, Note_on_c, 0, 59, 0
2, 22790, Note_on_c, 0, 80, 100
2, 22790, Note_on_c, 0, 62, 100
2, 22790, Note_on_c, 0, 74, 100
2, 22791, Note_on_c, 0, 83, 0
2, 22815, Note_on_c, 0, 76, 100
2, 22822, Note_on_c, 0, 80, 0
2, 22830, Note_on_c, 0, 74, 0
2, 22830, Note_on_c, 0, 62, 0
2, 22840, Note_on_c, 0, 59, 100
2, 22840, Note_on_c, 0, 71, 100
2, 22861, Note_on_c, 0, 76, 0
2, 22865, Note_on_c, 0, 80, 100
2, 22886, Note_on_c, 0, 71, 0
2, 22886, Note_on_c, 0, 59, 0
2, 22890, Note_on_c, 0, 83, 100
2, 22890, Note_on_c, 0, 56, 100
2, 22890, Note_on_c, 0, 68, 100
2, 22891, Note_on_c, 0, 80, 0
2, 22915, Note_on_c, 0, 88, 100
2, 22915, Note_on_c, 0, 76, 100
2, 22922, Note_on_c, 0, 83, 0
2, 22930, Note_on_c, 0, 68, 0
2, 22930, Note_on_c, 0, 56, 0
2, 22940, Note_on_c, 0, 52, 100
2, 22940, Note_on_c, 0, 64, 100
2, 22961, Note_on_c, 0, 76, 0
2, 22961, Note_on_c, 0, 88, 0
2, 22965, Note_on_c, 0, 86, 100
2, 22986, Note_on_c, 0, 64, 0
2, 22986, Note_on_c, 0, 52, 0
2, 22990, Note_on_c, 0, 84, 100
2, 22990, Note_on_c, 0, 80, 100
2, 22990, Note_on_c, 0, 56, 100
2, 22990, Note_on_c, 0, 68, 100
2, 22991, Note_on_c, 0, 86, 0
2, 23015, Note_on_c, 0, 83, 100
2, 23022, Note_on_c, 0, 80, 0
2, 23022, Note_on_c, 0, 84, 0
2, 23030, Note_on_c, 0, 68, 0
2, 23030, Note_on_c, 0, 56, 0
2, 23040, Note_on_c, 0, 76, 100
2, 23040, Note_on_c, 0, 84, 100
2, 23040, Note_on_c, 0, 57, 100
2, 23041, Note_on_c, 0, 83, 0
2, 23086, Note_on_c, 0, 84, 0
2, 23086, Note_on_c, 0, 76, 0
2, 23086, Note_on_c, 0, 57, 0
2, 23090, Note_on_c, 0, 74, 100
2, 23090, Note_on_c, 0, 83, 100
2, 23090, Note_on_c, 0, 69, 100
2, 23090, Note_on_c, 0, 64, 100
2, 23090, Note_on_c, 0, 60, 100
2, 23115, Note_on_c, 0, 81, 100
2, 23115, Note_on_c, 0, 72, 100
2, 23121, Note_on_c, 0, 60, 0
2, 23121, Note_on_c, 0, 64, 0
2, 23121, Note_on_c, 0, 69, 0
2, 23122, Note_on_c, 0, 83, 0
2, 23122, Note_on_c, 0, 74, 0
2, 23140, Note_on_c, 0, 52, 100
2, 23140, Note_on_c, 0, 40, 100
2, 23161, Note_on_c, 0, 81, 0
2, 23161, Note_on_c, 0, 72, 0
2, 23165, Note_on_c, 0, 68, 100
2, 23186, Note_on_c, 0, 40, 0
2, 23186, Note_on_c, 0, 52, 0
2, 23190, Note_on_c, 0, 69, 100
2, 23190, Note_on_c, 0, 52, 100
2, 23190, Note_on_c, 0, 57, 100
2, 23190, Note_on_c, 0, 60, 100
2, 23191, Note_on_c, 0, 68, 0
2, 23215, Note_on_c, 0, 71, 100
2, 23221, Note_on_c, 0, 60, 0
2, 23221, Note_on_c, 0, 57, 0
2, 23221, Note_on_c, 0, 52, 0
2, 23222, Note_on_c, 0, 69, 0
2, 23240, Note_on_c, 0, 72, 100
2, 23240, Note_on_c, 0, 64, 100
2, 23240, Note_on_c, 0, 45, 100
2, 23241, Note_on_c, 0, 71, 0
2, 23286, Note_on_c, 0, 64, 0
2, 23286, Note_on_c, 0, 72, 0
2, 23286, Note_on_c, 0, 45, 0
2, 23290, Note_on_c, 0, 71, 100
2, 23290, Note_on_c, 0, 62, 100
2, 23290, Note_on_c, 0, 52, 100
2, 23290, Note_on_c, 0, 57, 100
2, 23315, Note_on_c, 0, 69, 100
2, 23315, Note_on_c, 0, 60, 100
2, 23321, Note_on_c, 0, 57, 0
2, 23321, Note_on_c, 0, 52, 0
2, 23322, Note_on_c, 0, 62, 0
2, 23322, Note_on_c, 0, 71, 0
2, 23340, Note_on_c, 0, 52, 100
2, 23361, Note_on_c, 0, 69, 0
2, 23361, Note_on_c, 0, 60, 0
2, 23365, Note_on_c, 0, 69, 100
2, 23386, Note_on_c, 0, 52, 0
2, 23390, Note_on_c, 0, 72, 100
2, 23390, Note_on_c, 0, 45, 100
2, 23390, Note_on_c, 0, 33, 100
2, 23391, Note_on_c, 0, 69, 0
2, 23415, Note_on_c, 0, 81, 100
2, 23422, Note_on_c, 0, 72, 0
2, 23430, Note_on_c, 0, 45, 0
2, 23436, Note_on_c, 0, 33, 0
2, 23440, Note_on_c, 0, 50, 100
2, 23440, Note_on_c, 0, 62, 100
2, 23441, Note_on_c, 0, 81, 0
2, 23465, Note_on_c, 0, 74, 100
2, 23486, Note_on_c, 0, 62, 0
2, 23486, Note_on_c, 0, 50, 0
2, 23490, Note_on_c, 0, 78, 100
2, 23490, Note_on_c, 0, 54, 100
2, 23490, Note_on_c, 0, 66, 100
2, 23491, Note_on_c, 0, 74, 0
2, 23515, Note_on_c, 0, 81, 100
2, 23522, Note_on_c, 0, 78, 0
2, 23530, Note_on_c, 0, 66, 0
2, 23530, Note_on_c, 0, 54, 0
2, 23540, Note_on_c, 0, 74, 100
2, 23540, Note_on_c, 0, 86, 100
2, 23540, Note_on_c, 0, 57, 100
2, 23540, Note_on_c, 0, 69, 100
2, 23541, Note_on_c, 0, 81, 0
2, 23565, Note_on_c, 0, 81, 100
2, 23572, Note_on_c, 0, 86, 0
2, 23572, Note_on_c, 0, 74, 0
2, 23586, Note_on_c, 0, 69, 0
2, 23586, Note_on_c, 0, 57, 0
2, 23590, Note_on_c, 0, 78, 100
2, 23590, Note_on_c, 0, 60, 100
2, 23590, Note_on_c, 0, 72, 100
2, 23591, Note_on_c, 0, 81, 0
2, 23615, Note_on_c, 0, 74, 100
2, 23622, Note_on_c, 0, 78, 0
2, 23630, Note_on_c, 0, 72, 0
2, 23630, Note_on_c, 0, 60, 0
2, 23640, Note_on_c, 0, 57, 100
2, 23640, Note_on_c, 0, 69, 100
2, 23661, Note_on_c, 0, 74, 0
2, 23665, Note_on_c, 0, 78, 100
2, 23686, Note_on_c, 0, 69, 0
2, 23686, Note_on_c, 0, 57, 0
2, 23690, Note_on_c, 0, 81, 100
2, 23690, Note_on_c, 0, 54, 100
2, 23690, Note_on_c, 0, 66, 100
2, 23691, Note_on_c, 0, 78, 0
2, 23715, Note_on_c, 0, 86, 100
2, 23715, Note_on_c, 0, 74, 100
2, 23722, Note_on_c, 0, 81, 0
2, 23730, Note_on_c, 0, 66, 0
2, 23730, Note_on_c, 0, 54, 0
2, 23740, Note_on_c, 0, 50, 100
2, 23740, Note_on_c, 0, 62, 100
2, 23761, Note_on_c, 0, 74, 0
2, 23761, Note_on_c, 0, 86, 0
2, 23765, Note_on_c, 0, 84, 100
2, 23786, Note_on_c, 0, 62, 0
2, 23786, Note_on_c, 0, 50, 0
2, 23790, Note_on_c, 0, 83, 100
2, 23790, Note_on_c, 0, 54, 100
2, 23790, Note_on_c, 0, 66, 100
2, 23791, Note_on_c, 0, 84, 0
2, 23815, Note_on_c, 0, 81, 100
2, 23822, Note_on_c, 0, 83, 0
2, 23830, Note_on_c, 0, 66, 0
2, 23830, Note_on_c, 0, 54, 0
2, 23840, Note_on_c, 0, 83, 100
2, 23840, Note_on_c, 0, 74, 100
2, 23840, Note_on_c, 0, 55, 100
2, 23841, Note_on_c, 0, 81, 0
2, 23886, Note_on_c, 0, 74, 0
2, 23886, Note_on_c, 0, 83, 0
2, 23886, Note_on_c, 0, 55, 0
2, 23890, Note_on_c, 0, 72, 100
2, 23890, Note_on_c, 0, 81, 100
2, 23890, Note_on_c, 0, 59, 100
2, 23890, Note_on_c, 0, 62, 100
2, 23890, Note_on_c, 0, 67, 100
2, 23915, Note_on_c, 0, 71, 100
2, 23915, Note_on_c, 0, 79, 100
2, 23921, Note_on_c, 0, 67, 0
2, 23921, Note_on_c, 0, 62, 0
2, 23921, Note_on_c, 0, 59, 0
2, 23922, Note_on_c, 0, 81, 0
2, 23922, Note_on_c, 0, 72, 0
2, 23940, Note_on_c, 0, 50, 100
2, 23940, Note_on_c, 0, 38, 100
2, 23961, Note_on_c, 0, 71, 0
2, 23961, Note_on_c, 0, 79, 0
2, 23965, Note_on_c, 0, 66, 100
2, 23986, Note_on_c, 0, 38, 0
2, 23986, Note_on_c, 0, 50, 0
2, 23990, Note_on_c, 0, 67, 100
2, 23990, Note_on_c, 0, 50, 100
2, 23990, Note_on_c, 0, 55, 100
2, 23990, Note_on_c, 0, 59, 100
2, 23991, Note_on_c, 0, 66, 0
2, 24015, Note_on_c, 0, 69, 100
2, 24021, Note_on_c, 0, 59, 0
2, 24021, Note_on_c, 0, 55, 0
2, 24021, Note_on_c, 0, 50, 0
2, 24022, Note_on_c, 0, 67, 0
2, 24040, Note_on_c, 0, 62, 100
2, 24040, Note_on_c, 0, 71, 100
2, 24040, Note_on_c, 0, 43, 100
2, 24041, Note_on_c, 0, 69, 0
2, 24086, Note_on_c, 0, 71, 0
2, 24086, Note_on_c, 0, 62, 0
2, 24086, Note_on_c, 0, 43, 0
2, 24090, Note_on_c, 0, 60, 100
2, 24090, Note_on_c, 0, 69, 100
2, 24090, Note_on_c, 0, 50, 100
2, 24090, Note_on_c, 0, 55, 100
2, 24115, Note_on_c, 0, 67, 100
2, 24115, Note_on_c, 0, 59, 100
2, 24121, Note_on_c, 0, 55, 0
2, 24121, Note_on_c, 0, 50, 0
2, 24122, Note_on_c, 0, 69, 0
2, 24122, Note_on_c, 0, 60, 0
2, 24140, Note_on_c, 0, 50, 100
2, 24161, Note_on_c, 0, 67, 0
2, 24161, Note_on_c, 0, 59, 0
2, 24165, Note_on_c, 0, 67, 100
2, 24186, Note_on_c, 0, 50, 0
2, 24190, Note_on_c, 0, 71, 100
2, 24190, Note_on_c, 0, 43, 100
2, 24190, Note_on_c, 0, 31, 100
2, 24193, Note_on_c, 0, 67, 0
2, 24215, Note_on_c, 0, 79, 100
2, 24225, Note_on_c, 0, 71, 0
2, 24236, Note_on_c, 0, 31, 0
2, 24236, Note_on_c, 0, 43, 0
2, 24238, Note_on_c, 0, 79, 0
2, 24240, Note_on_c, 0, 76, 100
2, 24240, Note_on_c, 0, 84, 100
2, 24240, Note_on_c, 0, 48, 100
2, 24263, Note_on_c, 0, 76, 0
2, 24265, Note_on_c, 0, 83, 100
2, 24265, Note_on_c, 0, 76, 100
2, 24275, Note_on_c, 0, 84, 0
2, 24286, Note_on_c, 0, 48, 0
2, 24288, Note_on_c, 0, 76, 0
2, 24290, Note_on_c, 0, 84, 100
2, 24290, Note_on_c, 0, 76, 100
2, 24290, Note_on_c, 0, 55, 100
2, 24290, Note_on_c, 0, 60, 100
2, 24290, Note_on_c, 0, 64, 100
2, 24293, Note_on_c, 0, 83, 0
2, 24313, Note_on_c, 0, 76, 0
2, 24313, Note_on_c, 0, 64, 0
2, 24313, Note_on_c, 0, 60, 0
2, 24313, Note_on_c, 0, 55, 0
2, 24315, Note_on_c, 0, 81, 100
2, 24315, Note_on_c, 0, 76, 100
2, 24325, Note_on_c, 0, 84, 0
2, 24340, Note_on_c, 0, 43, 100
2, 24361, Note_on_c, 0, 76, 0
2, 24361, Note_on_c, 0, 81, 0
2, 24365, Note_on_c, 0, 80, 100
2, 24365, Note_on_c, 0, 76, 100
2, 24386, Note_on_c, 0, 43, 0
2, 24388, Note_on_c, 0, 76, 0
2, 24390, Note_on_c, 0, 81, 100
2, 24390, Note_on_c, 0, 76, 100
2, 24390, Note_on_c, 0, 55, 100
2, 24390, Note_on_c, 0, 60, 100
2, 24390, Note_on_c, 0, 64, 100
2, 24393, Note_on_c, 0, 80, 0
2, 24413, Note_on_c, 0, 76, 0
2, 24413, Note_on_c, 0, 64, 0
2, 24413, Note_on_c, 0, 60, 0
2, 24413, Note_on_c, 0, 55, 0
2, 24415, Note_on_c, 0, 79, 100
2, 24415, Note_on_c, 0, 76, 100
2, 24425, Note_on_c, 0, 81, 0
2, 24440, Note_on_c, 0, 48, 100
2, 24461, Note_on_c, 0, 76, 0
2, 24461, Note_on_c, 0, 79, 0
2, 24465, Note_on_c, 0, 75, 100
2, 24465, Note_on_c, 0, 78, 100
2, 24486, Note_on_c, 0, 48, 0
2, 24490, Note_on_c, 0, 79, 100
2, 24490, Note_on_c, 0, 76, 100
2, 24490, Note_on_c, 0, 55, 100
2, 24490, Note_on_c, 0, 60, 100
2, 24490, Note_on_c, 0, 64, 100
2, 24493, Note_on_c, 0, 78, 0
2, 24493, Note_on_c, 0, 75, 0
2, 24513, Note_on_c, 0, 76, 0
2, 24513, Note_on_c, 0, 64, 0
2, 24513, Note_on_c, 0, 60, 0
2, 24513, Note_on_c, 0, 55, 0
2, 24515, Note_on_c, 0, 67, 100
2, 24515, Note_on_c, 0, 76, 100
2, 24525, Note_on_c, 0, 79, 0
2, 24540, Note_on_c, 0, 43, 100
2, 24561, Note_on_c, 0, 76, 0
2, 24561, Note_on_c, 0, 67, 0
2, 24565, Note_on_c, 0, 66, 100
2, 24565, Note_on_c, 0, 75, 100
2, 24586, Note_on_c, 0, 43, 0
2, 24590, Note_on_c, 0, 76, 100
2, 24590, Note_on_c, 0, 67, 100
2, 24590, Note_on_c, 0, 55, 100
2, 24590, Note_on_c, 0, 60, 100
2, 24590, Note_on_c, 0, 64, 100
2, 24600, Note_on_c, 0, 75, 0
2, 24600, Note_on_c, 0, 66, 0
2, 24613, Note_on_c, 0, 64, 0
2, 24613, Note_on_c, 0, 60, 0
2, 24613, Note_on_c, 0, 55, 0
2, 24636, Note_on_c, 0, 76, 0
2, 24636, Note_on_c, 0, 67, 0
2, 24640, Note_on_c, 0, 62, 100
2, 24640, Note_on_c, 0, 71, 100
2, 24640, Note_on_c, 0, 43, 100
2, 24665, Note_on_c, 0, 70, 100
2, 24665, Note_on_c, 0, 61, 100
2, 24675, Note_on_c, 0, 71, 0
2, 24675, Note_on_c, 0, 62, 0
2, 24686, Note_on_c, 0, 43, 0
2, 24690, Note_on_c, 0, 62, 100
2, 24690, Note_on_c, 0, 71, 100
2, 24690, Note_on_c, 0, 55, 100
2, 24690, Note_on_c, 0, 50, 100
2, 24693, Note_on_c, 0, 70, 0
2, 24693, Note_on_c, 0, 61, 0
2, 24713, Note_on_c, 0, 50, 0
2, 24713, Note_on_c, 0, 55, 0
2, 24715, Note_on_c, 0, 59, 100
2, 24715, Note_on_c, 0, 67, 100
2, 24725, Note_on_c, 0, 62, 0
2, 24725, Note_on_c, 0, 71, 0
2, 24740, Note_on_c, 0, 38, 100
2, 24761, Note_on_c, 0, 59, 0
2, 24761, Note_on_c, 0, 67, 0
2, 24765, Note_on_c, 0, 58, 100
2, 24765, Note_on_c, 0, 66, 100
2, 24786, Note_on_c, 0, 38, 0
2, 24790, Note_on_c, 0, 67, 100
2, 24790, Note_on_c, 0, 59, 100
2, 24790, Note_on_c, 0, 50, 100
2, 24790, Note_on_c, 0, 55, 100
2, 24793, Note_on_c, 0, 66, 0
2, 24793, Note_on_c, 0, 58, 0
2, 24813, Note_on_c, 0, 59, 0
2, 24813, Note_on_c, 0, 55, 0
2, 24813, Note_on_c, 0, 50, 0
2, 24815, Note_on_c, 0, 62, 100
2, 24815, Note_on_c, 0, 59, 100
2, 24825, Note_on_c, 0, 67, 0
2, 24840, Note_on_c, 0, 43, 100
2, 24861, Note_on_c, 0, 59, 0
2, 24861, Note_on_c, 0, 62, 0
2, 24865, Note_on_c, 0, 60, 100
2, 24865, Note_on_c, 0, 57, 100
2, 24886, Note_on_c, 0, 43, 0
2, 24890, Note_on_c, 0, 62, 100
2, 24890, Note_on_c, 0, 59, 100
2, 24890, Note_on_c, 0, 50, 100
2, 24893, Note_on_c, 0, 57, 0
2, 24893, Note_on_c, 0, 60, 0
2, 24913, Note_on_c, 0, 59, 0
2, 24915, Note_on_c, 0, 59, 100
2, 24915, Note_on_c, 0, 55, 100
2, 24923, Note_on_c, 0, 50, 0
2, 24925, Note_on_c, 0, 62, 0
2, 24940, Note_on_c, 0, 50, 100
2, 24984, Note_on_c, 0, 55, 0
2, 24984, Note_on_c, 0, 59, 0
2, 24986, Note_on_c, 0, 50, 0
2, 24994, Note_on_c, 0, 67, 100
2, 25008, Note_on_c, 0, 69, 100
2, 25020, Note_on_c, 0, 67, 0
2, 25023, Note_on_c, 0, 71, 100
2, 25039, Note_on_c, 0, 69, 0
2, 25040, Note_on_c, 0, 72, 100
2, 25040, Note_on_c, 0, 48, 100
2, 25049, Note_on_c, 0, 71, 0
2, 25065, Note_on_c, 0, 71, 100
2, 25075, Note_on_c, 0, 72, 0
2, 25086, Note_on_c, 0, 48, 0
2, 25090, Note_on_c, 0, 72, 100
2, 25090, Note_on_c, 0, 52, 100
2, 25090, Note_on_c, 0, 55, 100
2, 25090, Note_on_c, 0, 60, 100
2, 25093, Note_on_c, 0, 71, 0
2, 25115, Note_on_c, 0, 69, 100
2, 25115, Note_on_c, 0, 64, 100
2, 25125, Note_on_c, 0, 72, 0
2, 25125, Note_on_c, 0, 60, 0
2, 25125, Note_on_c, 0, 55, 0
2, 25125, Note_on_c, 0, 52, 0
2, 25140, Note_on_c, 0, 60, 100
2, 25140, Note_on_c, 0, 57, 100
2, 25140, Note_on_c, 0, 52, 100
2, 25171, Note_on_c, 0, 52, 0
2, 25171, Note_on_c, 0, 57, 0
2, 25171, Note_on_c, 0, 60, 0
2, 25190, Note_on_c, 0, 45, 100
2, 25190, Note_on_c, 0, 33, 100
2, 25240, Note_on_c, 0, 48, 100
2, 25240, Note_on_c, 0, 36, 100
2, 25243, Note_on_c, 0, 33, 0
2, 25243, Note_on_c, 0, 45, 0
2, 25288, Note_on_c, 0, 64, 0
2, 25288, Note_on_c, 0, 69, 0
2, 25290, Note_on_c, 0, 67, 100
2, 25315, Note_on_c, 0, 69, 100
2, 25315, Note_on_c, 0, 64, 100
2, 25325, Note_on_c, 0, 67, 0
2, 25361, Note_on_c, 0, 64, 0
2, 25361, Note_on_c, 0, 69, 0
2, 25365, Note_on_c, 0, 72, 100
2, 25390, Note_on_c, 0, 76, 100
2, 25393, Note_on_c, 0, 48, 0
2, 25393, Note_on_c, 0, 36, 0
2, 25393, Note_on_c, 0, 72, 0
2, 25415, Note_on_c, 0, 79, 100
2, 25425, Note_on_c, 0, 76, 0
2, 25438, Note_on_c, 0, 79, 0
2, 25440, Note_on_c, 0, 84, 100
2, 25440, Note_on_c, 0, 72, 100
2, 25440, Note_on_c, 0, 50, 100
2, 25440, Note_on_c, 0, 38, 100
2, 25465, Note_on_c, 0, 78, 100
2, 25472, Note_on_c, 0, 72, 0
2, 25472, Note_on_c, 0, 84, 0
2, 25486, Note_on_c, 0, 38, 0
2, 25486, Note_on_c, 0, 50, 0
2, 25490, Note_on_c, 0, 81, 100
2, 25490, Note_on_c, 0, 50, 100
2, 25490, Note_on_c, 0, 54, 100
2, 25490, Note_on_c, 0, 60, 100
2, 25491, Note_on_c, 0, 78, 0
2, 25515, Note_on_c, 0, 84, 100
2, 25515, Note_on_c, 0, 72, 100
2, 25519, Note_on_c, 0, 60, 0
2, 25519, Note_on_c, 0, 54, 0
2, 25519, Note_on_c, 0, 50, 0
2, 25522, Note_on_c, 0, 81, 0
2, 25540, Note_on_c, 0, 43, 100
2, 25540, Note_on_c, 0, 31, 100
2, 25561, Note_on_c, 0, 72, 0
2, 25561, Note_on_c, 0, 84, 0
2, 25565, Note_on_c, 0, 77, 100
2, 25586, Note_on_c, 0, 31, 0
2, 25586, Note_on_c, 0, 43, 0
2, 25590, Note_on_c, 0, 74, 100
2, 25590, Note_on_c, 0, 86, 100
2, 25590, Note_on_c, 0, 59, 100
2, 25590, Note_on_c, 0, 55, 100
2, 25590, Note_on_c, 0, 53, 100
2, 25591, Note_on_c, 0, 77, 0
2, 25615, Note_on_c, 0, 84, 100
2, 25615, Note_on_c, 0, 76, 100
2, 25615, Note_on_c, 0, 72, 100
2, 25619, Note_on_c, 0, 53, 0
2, 25619, Note_on_c, 0, 55, 0
2, 25619, Note_on_c, 0, 59, 0
2, 25622, Note_on_c, 0, 86, 0
2, 25622, Note_on_c, 0, 74, 0
2, 25640, Note_on_c, 0, 55, 100
2, 25640, Note_on_c, 0, 48, 100
2, 25683, Note_on_c, 0, 76, 0
2, 25683, Note_on_c, 0, 84, 0
2, 25683, Note_on_c, 0, 72, 0
2, 25686, Note_on_c, 0, 48, 0
2, 25686, Note_on_c, 0, 55, 0
2, 25690, Note_on_c, 0, 43, 100
2, 25690, Note_on_c, 0, 55, 100
2, 25730, Note_on_c, 0, 55, 0
2, 25730, Note_on_c, 0, 43, 0
2, 25740, Note_on_c, 0, 84, 100
2, 25740, Note_on_c, 0, 88, 100
2, 25740, Note_on_c, 0, 91, 100
2, 25740, Note_on_c, 0, 96, 100
2, 25740, Note_on_c, 0, 48, 100
2, 25740, Note_on_c, 0, 36, 100
2, 25740, Note_on_c, 0, 36, 100
2, 25740, Note_on_c, 0, 48, 100
2, 25790, Note_on_c, 0, 48, 0
2, 25790, Note_on_c, 0, 36, 0
2, 25796, Note_on_c, 0, 96, 0
2, 25796, Note_on_c, 0, 84, 0
2, 25796, Note_on_c, 0, 88, 0
2, 25796, Note_on_c, 0, 91, 0
2, 25797, Note_on_c, 0, 36, 0
2, 25797, Note_on_c, 0, 48, 0
2, 25797, End_track
0, 0, End_of_file