0, 0, Header, 1, 4, 120
1, 0, Start_track
1, 0, Title_t, "Sensation"
1, 0, Title_t, "by Joseph Lamb (1908)"
1, 0, Copyright_t, "copyright 1997 by Warren Trachtman"
1, 0, Text_t, "All rights Reserved\012"
1, 0, SMPTE_offset, 96, 0, 3, 0, 0
1, 0, Time_signature, 2, 2, 24, 8
1, 0, Key_signature, 1, "major"
1, 0, Tempo, 625000
1, 0, Marker_t, "W. S. Trachtman - MIDI file"
1, 240, Marker_t, "A1"
1, 4080, Tempo, 625000
1, 4080, Marker_t, "A2"
1, 5760, Tempo, 625000
1, 6240, Tempo, 625000
1, 7920, Marker_t, "B1"
1, 11760, Marker_t, "B2"
1, 15600, Marker_t, "A3"
1, 19440, Key_signature, 0, "major"
1, 19440, Marker_t, "C1"
1, 23280, Marker_t, "C2"
1, 27120, Marker_t, "D1"
1, 30960, Tempo, 600000
1, 30960, End_track
2, 0, Start_track
2, 0, MIDI_port, 0
2, 0, Title_t, "Sensation - A Rag"
2, 0, Program_c, 0, 0
2, 0, Control_c, 0, 7, 127
2, 0, Control_c, 0, 10, 84
2, 0, Control_c, 0, 121, 0
2, 0, Control_c, 0, 1, 0
2, 37, Control_c, 0, 64, 0
2, 38, Channel_aftertouch_c, 0, 0
2, 38, Pitch_bend_c, 0, 8192
2, 40, Control_c, 0, 74, 71
2, 42, Control_c, 0, 71, 68
2, 43, Control_c, 0, 93, 12
2, 43, Control_c, 0, 91, 21
2, 270, Note_on_c, 0, 74, 75
2, 270, Lyric_t, "Sensation "
2, 296, Note_on_c, 0, 74, 0
2, 300, Note_on_c, 0, 79, 81
2, 300, Note_on_c, 0, 67, 81
2, 330, Note_on_c, 0, 74, 75
2, 330, Lyric_t, "by "
2, 332, Note_on_c, 0, 67, 0
2, 332, Note_on_c, 0, 79, 0
2, 356, Note_on_c, 0, 74, 0
2, 360, Note_on_c, 0, 76, 81
2, 360, Lyric_t, "J. "
2, 390, Note_on_c, 0, 79, 88
2, 390, Note_on_c, 0, 67, 88
2, 390, Lyric_t, "Lamb "
2, 392, Note_on_c, 0, 76, 0
2, 437, Note_on_c, 0, 67, 0
2, 437, Note_on_c, 0, 79, 0
2, 450, Note_on_c, 0, 76, 75
2, 450, Lyric_t, "(1908) "
2, 476, Note_on_c, 0, 76, 0
2, 480, Note_on_c, 0, 79, 85
2, 480, Note_on_c, 0, 67, 85
2, 480, Lyric_t, "; "
2, 510, Note_on_c, 0, 74, 75
2, 510, Lyric_t, "Sequenced "
2, 512, Note_on_c, 0, 67, 0
2, 512, Note_on_c, 0, 79, 0
2, 536, Note_on_c, 0, 74, 0
2, 540, Note_on_c, 0, 76, 80
2, 540, Lyric_t, "by "
2, 570, Note_on_c, 0, 79, 86
2, 570, Note_on_c, 0, 67, 86
2, 570, Lyric_t, "W. "
2, 572, Note_on_c, 0, 76, 0
2, 617, Note_on_c, 0, 67, 0
2, 617, Note_on_c, 0, 79, 0
2, 630, Note_on_c, 0, 74, 80
2, 630, Lyric_t, "S. "
2, 660, Note_on_c, 0, 79, 85
2, 660, Note_on_c, 0, 67, 85
2, 660, Lyric_t, "Trachtman "
2, 662, Note_on_c, 0, 74, 0
2, 707, Note_on_c, 0, 67, 0
2, 707, Note_on_c, 0, 79, 0
2, 750, Note_on_c, 0, 72, 75
2, 750, Lyric_t, "(rev "
2, 776, Note_on_c, 0, 72, 0
2, 780, Note_on_c, 0, 76, 85
2, 780, Note_on_c, 0, 64, 85
2, 780, Lyric_t, "4/97) "
2, 780, Lyric_t, "\015"
2, 810, Note_on_c, 0, 69, 75
2, 812, Note_on_c, 0, 64, 0
2, 812, Note_on_c, 0, 76, 0
2, 836, Note_on_c, 0, 69, 0
2, 840, Note_on_c, 0, 71, 80
2, 870, Note_on_c, 0, 76, 88
2, 870, Note_on_c, 0, 64, 88
2, 872, Note_on_c, 0, 71, 0
2, 917, Note_on_c, 0, 64, 0
2, 917, Note_on_c, 0, 76, 0
2, 930, Note_on_c, 0, 71, 75
2, 956, Note_on_c, 0, 71, 0
2, 960, Note_on_c, 0, 76, 87
2, 960, Note_on_c, 0, 64, 87
2, 990, Note_on_c, 0, 69, 75
2, 992, Note_on_c, 0, 64, 0
2, 992, Note_on_c, 0, 76, 0
2, 1016, Note_on_c, 0, 69, 0
2, 1020, Note_on_c, 0, 72, 81
2, 1050, Note_on_c, 0, 76, 86
2, 1050, Note_on_c, 0, 64, 86
2, 1052, Note_on_c, 0, 72, 0
2, 1097, Note_on_c, 0, 64, 0
2, 1097, Note_on_c, 0, 76, 0
2, 1110, Note_on_c, 0, 69, 82
2, 1140, Note_on_c, 0, 61, 87
2, 1140, Note_on_c, 0, 67, 87
2, 1140, Note_on_c, 0, 75, 87
2, 1142, Note_on_c, 0, 69, 0
2, 1187, Note_on_c, 0, 61, 0
2, 1187, Note_on_c, 0, 67, 0
2, 1187, Note_on_c, 0, 75, 0
2, 1200, Note_on_c, 0, 74, 82
2, 1200, Note_on_c, 0, 62, 82
2, 1230, Note_on_c, 0, 67, 75
2, 1232, Note_on_c, 0, 62, 0
2, 1232, Note_on_c, 0, 74, 0
2, 1256, Note_on_c, 0, 67, 0
2, 1260, Note_on_c, 0, 71, 80
2, 1290, Note_on_c, 0, 64, 90
2, 1290, Note_on_c, 0, 76, 90
2, 1292, Note_on_c, 0, 71, 0
2, 1349, Note_on_c, 0, 76, 0
2, 1350, Note_on_c, 0, 71, 86
2, 1380, Note_on_c, 0, 68, 90
2, 1381, Note_on_c, 0, 71, 0
2, 1387, Note_on_c, 0, 64, 0
2, 1410, Note_on_c, 0, 64, 83
2, 1417, Note_on_c, 0, 68, 0
2, 1436, Note_on_c, 0, 64, 0
2, 1440, Note_on_c, 0, 61, 86
2, 1470, Note_on_c, 0, 67, 80
2, 1500, Note_on_c, 0, 69, 82
2, 1501, Note_on_c, 0, 67, 0
2, 1511, Note_on_c, 0, 61, 0
2, 1530, Note_on_c, 0, 61, 90
2, 1530, Note_on_c, 0, 67, 90
2, 1530, Note_on_c, 0, 71, 90
2, 1537, Note_on_c, 0, 69, 0
2, 1577, Note_on_c, 0, 61, 0
2, 1577, Note_on_c, 0, 67, 0
2, 1577, Note_on_c, 0, 71, 0
2, 1590, Note_on_c, 0, 70, 75
2, 1620, Note_on_c, 0, 61, 84
2, 1620, Note_on_c, 0, 67, 84
2, 1620, Note_on_c, 0, 71, 84
2, 1622, Note_on_c, 0, 70, 0
2, 1667, Note_on_c, 0, 61, 0
2, 1667, Note_on_c, 0, 67, 0
2, 1667, Note_on_c, 0, 71, 0
2, 1710, Note_on_c, 0, 66, 84
2, 1710, Note_on_c, 0, 60, 84
2, 1770, Note_on_c, 0, 72, 98
2, 1773, Note_on_c, 0, 60, 0
2, 1773, Note_on_c, 0, 66, 0
2, 1794, Note_on_c, 0, 72, 0
2, 1830, Note_on_c, 0, 60, 90
2, 1830, Note_on_c, 0, 66, 90
2, 1890, Note_on_c, 0, 72, 99
2, 1893, Note_on_c, 0, 66, 0
2, 1893, Note_on_c, 0, 60, 0
2, 1914, Note_on_c, 0, 72, 0
2, 1950, Note_on_c, 0, 62, 107
2, 1950, Note_on_c, 0, 74, 107
2, 1976, Note_on_c, 0, 74, 0
2, 1976, Note_on_c, 0, 62, 0
2, 2010, Note_on_c, 0, 75, 99
2, 2010, Note_on_c, 0, 63, 99
2, 2034, Note_on_c, 0, 63, 0
2, 2034, Note_on_c, 0, 75, 0
2, 2070, Note_on_c, 0, 64, 100
2, 2070, Note_on_c, 0, 76, 100
2, 2096, Note_on_c, 0, 76, 0
2, 2096, Note_on_c, 0, 64, 0
2, 2130, Note_on_c, 0, 78, 99
2, 2130, Note_on_c, 0, 66, 99
2, 2154, Note_on_c, 0, 66, 0
2, 2154, Note_on_c, 0, 78, 0
2, 2190, Note_on_c, 0, 74, 75
2, 2216, Note_on_c, 0, 74, 0
2, 2220, Note_on_c, 0, 79, 84
2, 2220, Note_on_c, 0, 67, 84
2, 2250, Note_on_c, 0, 74, 75
2, 2252, Note_on_c, 0, 67, 0
2, 2252, Note_on_c, 0, 79, 0
2, 2276, Note_on_c, 0, 74, 0
2, 2280, Note_on_c, 0, 76, 80
2, 2310, Note_on_c, 0, 79, 89
2, 2310, Note_on_c, 0, 67, 89
2, 2312, Note_on_c, 0, 76, 0
2, 2357, Note_on_c, 0, 67, 0
2, 2357, Note_on_c, 0, 79, 0
2, 2370, Note_on_c, 0, 76, 81
2, 2396, Note_on_c, 0, 76, 0
2, 2400, Note_on_c, 0, 79, 87
2, 2400, Note_on_c, 0, 67, 87
2, 2430, Note_on_c, 0, 74, 75
2, 2432, Note_on_c, 0, 67, 0
2, 2432, Note_on_c, 0, 79, 0
2, 2456, Note_on_c, 0, 74, 0
2, 2460, Note_on_c, 0, 76, 78
2, 2490, Note_on_c, 0, 79, 89
2, 2490, Note_on_c, 0, 67, 89
2, 2492, Note_on_c, 0, 76, 0
2, 2537, Note_on_c, 0, 67, 0
2, 2537, Note_on_c, 0, 79, 0
2, 2550, Note_on_c, 0, 74, 81
2, 2580, Note_on_c, 0, 79, 84
2, 2580, Note_on_c, 0, 67, 84
2, 2582, Note_on_c, 0, 74, 0
2, 2627, Note_on_c, 0, 67, 0
2, 2627, Note_on_c, 0, 79, 0
2, 2670, Note_on_c, 0, 72, 75
2, 2696, Note_on_c, 0, 72, 0
2, 2700, Note_on_c, 0, 76, 83
2, 2700, Note_on_c, 0, 64, 83
2, 2730, Note_on_c, 0, 69, 75
2, 2732, Note_on_c, 0, 64, 0
2, 2732, Note_on_c, 0, 76, 0
2, 2756, Note_on_c, 0, 69, 0
2, 2760, Note_on_c, 0, 71, 80
2, 2790, Note_on_c, 0, 76, 87
2, 2790, Note_on_c, 0, 64, 87
2, 2792, Note_on_c, 0, 71, 0
2, 2837, Note_on_c, 0, 64, 0
2, 2837, Note_on_c, 0, 76, 0
2, 2850, Note_on_c, 0, 71, 80
2, 2876, Note_on_c, 0, 71, 0
2, 2880, Note_on_c, 0, 76, 89
2, 2880, Note_on_c, 0, 64, 89
2, 2910, Note_on_c, 0, 69, 80
2, 2912, Note_on_c, 0, 64, 0
2, 2912, Note_on_c, 0, 76, 0
2, 2936, Note_on_c, 0, 69, 0
2, 2940, Note_on_c, 0, 72, 82
2, 2970, Note_on_c, 0, 76, 90
2, 2970, Note_on_c, 0, 64, 90
2, 2972, Note_on_c, 0, 72, 0
2, 3017, Note_on_c, 0, 64, 0
2, 3017, Note_on_c, 0, 76, 0
2, 3030, Note_on_c, 0, 69, 80
2, 3060, Note_on_c, 0, 61, 88
2, 3060, Note_on_c, 0, 67, 88
2, 3060, Note_on_c, 0, 75, 88
2, 3062, Note_on_c, 0, 69, 0
2, 3107, Note_on_c, 0, 61, 0
2, 3107, Note_on_c, 0, 67, 0
2, 3107, Note_on_c, 0, 75, 0
2, 3120, Note_on_c, 0, 74, 86
2, 3120, Note_on_c, 0, 62, 86
2, 3150, Note_on_c, 0, 67, 81
2, 3152, Note_on_c, 0, 62, 0
2, 3152, Note_on_c, 0, 74, 0
2, 3176, Note_on_c, 0, 67, 0
2, 3180, Note_on_c, 0, 71, 84
2, 3210, Note_on_c, 0, 64, 90
2, 3210, Note_on_c, 0, 76, 90
2, 3212, Note_on_c, 0, 71, 0
2, 3269, Note_on_c, 0, 76, 0
2, 3270, Note_on_c, 0, 71, 83
2, 3296, Note_on_c, 0, 71, 0
2, 3300, Note_on_c, 0, 68, 89
2, 3307, Note_on_c, 0, 64, 0
2, 3330, Note_on_c, 0, 64, 83
2, 3332, Note_on_c, 0, 68, 0
2, 3356, Note_on_c, 0, 64, 0
2, 3360, Note_on_c, 0, 61, 90
2, 3390, Note_on_c, 0, 67, 81
2, 3416, Note_on_c, 0, 67, 0
2, 3420, Note_on_c, 0, 69, 84
2, 3431, Note_on_c, 0, 61, 0
2, 3450, Note_on_c, 0, 61, 90
2, 3450, Note_on_c, 0, 67, 90
2, 3450, Note_on_c, 0, 71, 90
2, 3452, Note_on_c, 0, 69, 0
2, 3497, Note_on_c, 0, 61, 0
2, 3497, Note_on_c, 0, 67, 0
2, 3497, Note_on_c, 0, 71, 0
2, 3510, Note_on_c, 0, 67, 81
2, 3540, Note_on_c, 0, 60, 88
2, 3540, Note_on_c, 0, 66, 88
2, 3540, Note_on_c, 0, 69, 88
2, 3542, Note_on_c, 0, 67, 0
2, 3587, Note_on_c, 0, 60, 0
2, 3587, Note_on_c, 0, 66, 0
2, 3587, Note_on_c, 0, 69, 0
2, 3600, Note_on_c, 0, 59, 94
2, 3600, Note_on_c, 0, 62, 94
2, 3600, Note_on_c, 0, 67, 94
2, 3647, Note_on_c, 0, 67, 0
2, 3647, Note_on_c, 0, 62, 0
2, 3647, Note_on_c, 0, 59, 0
2, 3660, Note_on_c, 0, 62, 81
2, 3690, Note_on_c, 0, 64, 89
2, 3692, Note_on_c, 0, 62, 0
2, 3737, Note_on_c, 0, 64, 0
2, 3750, Note_on_c, 0, 62, 75
2, 3774, Note_on_c, 0, 62, 0
2, 3780, Note_on_c, 0, 66, 82
2, 3780, Note_on_c, 0, 62, 82
2, 3780, Note_on_c, 0, 60, 82
2, 3827, Note_on_c, 0, 62, 0
2, 3838, Note_on_c, 0, 60, 0
2, 3838, Note_on_c, 0, 66, 0
2, 3840, Note_on_c, 0, 59, 88
2, 3840, Note_on_c, 0, 62, 88
2, 3840, Note_on_c, 0, 67, 88
2, 3887, Note_on_c, 0, 67, 0
2, 3887, Note_on_c, 0, 62, 0
2, 3887, Note_on_c, 0, 59, 0
2, 3960, Note_on_c, 0, 67, 98
2, 3960, Note_on_c, 0, 71, 98
2, 3960, Note_on_c, 0, 74, 98
2, 3960, Note_on_c, 0, 79, 98
2, 4017, Note_on_c, 0, 79, 0
2, 4017, Note_on_c, 0, 67, 0
2, 4017, Note_on_c, 0, 71, 0
2, 4017, Note_on_c, 0, 74, 0
2, 4110, Note_on_c, 0, 74, 75
2, 4140, Note_on_c, 0, 79, 81
2, 4140, Note_on_c, 0, 67, 81
2, 4141, Note_on_c, 0, 74, 0
2, 4170, Note_on_c, 0, 74, 75
2, 4178, Note_on_c, 0, 67, 0
2, 4178, Note_on_c, 0, 79, 0
2, 4200, Note_on_c, 0, 76, 81
2, 4201, Note_on_c, 0, 74, 0
2, 4230, Note_on_c, 0, 79, 88
2, 4230, Note_on_c, 0, 67, 88
2, 4238, Note_on_c, 0, 76, 0
2, 4285, Note_on_c, 0, 67, 0
2, 4285, Note_on_c, 0, 79, 0
2, 4290, Note_on_c, 0, 76, 75
2, 4320, Note_on_c, 0, 79, 85
2, 4320, Note_on_c, 0, 67, 85
2, 4321, Note_on_c, 0, 76, 0
2, 4350, Note_on_c, 0, 74, 75
2, 4358, Note_on_c, 0, 67, 0
2, 4358, Note_on_c, 0, 79, 0
2, 4380, Note_on_c, 0, 76, 80
2, 4381, Note_on_c, 0, 74, 0
2, 4410, Note_on_c, 0, 79, 86
2, 4410, Note_on_c, 0, 67, 86
2, 4418, Note_on_c, 0, 76, 0
2, 4465, Note_on_c, 0, 67, 0
2, 4465, Note_on_c, 0, 79, 0
2, 4470, Note_on_c, 0, 74, 80
2, 4500, Note_on_c, 0, 79, 85
2, 4500, Note_on_c, 0, 67, 85
2, 4508, Note_on_c, 0, 74, 0
2, 4555, Note_on_c, 0, 67, 0
2, 4555, Note_on_c, 0, 79, 0
2, 4590, Note_on_c, 0, 72, 75
2, 4620, Note_on_c, 0, 76, 85
2, 4620, Note_on_c, 0, 64, 85
2, 4621, Note_on_c, 0, 72, 0
2, 4650, Note_on_c, 0, 69, 75
2, 4658, Note_on_c, 0, 64, 0
2, 4658, Note_on_c, 0, 76, 0
2, 4680, Note_on_c, 0, 71, 80
2, 4681, Note_on_c, 0, 69, 0
2, 4710, Note_on_c, 0, 76, 88
2, 4710, Note_on_c, 0, 64, 88
2, 4718, Note_on_c, 0, 71, 0
2, 4765, Note_on_c, 0, 64, 0
2, 4765, Note_on_c, 0, 76, 0
2, 4770, Note_on_c, 0, 71, 75
2, 4800, Note_on_c, 0, 76, 87
2, 4800, Note_on_c, 0, 64, 87
2, 4801, Note_on_c, 0, 71, 0
2, 4830, Note_on_c, 0, 69, 75
2, 4838, Note_on_c, 0, 64, 0
2, 4838, Note_on_c, 0, 76, 0
2, 4860, Note_on_c, 0, 72, 81
2, 4861, Note_on_c, 0, 69, 0
2, 4890, Note_on_c, 0, 76, 86
2, 4890, Note_on_c, 0, 64, 86
2, 4898, Note_on_c, 0, 72, 0
2, 4945, Note_on_c, 0, 64, 0
2, 4945, Note_on_c, 0, 76, 0
2, 4950, Note_on_c, 0, 69, 82
2, 4980, Note_on_c, 0, 61, 87
2, 4980, Note_on_c, 0, 67, 87
2, 4980, Note_on_c, 0, 75, 87
2, 4988, Note_on_c, 0, 69, 0
2, 5035, Note_on_c, 0, 61, 0
2, 5035, Note_on_c, 0, 67, 0
2, 5035, Note_on_c, 0, 75, 0
2, 5040, Note_on_c, 0, 74, 82
2, 5040, Note_on_c, 0, 62, 82
2, 5070, Note_on_c, 0, 67, 75
2, 5078, Note_on_c, 0, 62, 0
2, 5078, Note_on_c, 0, 74, 0
2, 5100, Note_on_c, 0, 71, 80
2, 5101, Note_on_c, 0, 67, 0
2, 5130, Note_on_c, 0, 64, 90
2, 5130, Note_on_c, 0, 76, 90
2, 5138, Note_on_c, 0, 71, 0
2, 5190, Note_on_c, 0, 71, 86
2, 5199, Note_on_c, 0, 76, 0
2, 5220, Note_on_c, 0, 68, 90
2, 5226, Note_on_c, 0, 71, 0
2, 5244, Note_on_c, 0, 64, 0
2, 5250, Note_on_c, 0, 64, 83
2, 5264, Note_on_c, 0, 68, 0
2, 5280, Note_on_c, 0, 61, 86
2, 5281, Note_on_c, 0, 64, 0
2, 5310, Note_on_c, 0, 67, 80
2, 5340, Note_on_c, 0, 69, 82
2, 5346, Note_on_c, 0, 67, 0
2, 5363, Note_on_c, 0, 61, 0
2, 5370, Note_on_c, 0, 61, 90
2, 5370, Note_on_c, 0, 67, 90
2, 5370, Note_on_c, 0, 71, 90
2, 5384, Note_on_c, 0, 69, 0
2, 5425, Note_on_c, 0, 61, 0
2, 5425, Note_on_c, 0, 67, 0
2, 5425, Note_on_c, 0, 71, 0
2, 5430, Note_on_c, 0, 70, 75
2, 5460, Note_on_c, 0, 61, 84
2, 5460, Note_on_c, 0, 67, 84
2, 5460, Note_on_c, 0, 71, 84
2, 5468, Note_on_c, 0, 70, 0
2, 5515, Note_on_c, 0, 61, 0
2, 5515, Note_on_c, 0, 67, 0
2, 5515, Note_on_c, 0, 71, 0
2, 5550, Note_on_c, 0, 66, 84
2, 5550, Note_on_c, 0, 60, 84
2, 5610, Note_on_c, 0, 72, 94
2, 5624, Note_on_c, 0, 60, 0
2, 5624, Note_on_c, 0, 66, 0
2, 5638, Note_on_c, 0, 72, 0
2, 5670, Note_on_c, 0, 60, 84
2, 5670, Note_on_c, 0, 66, 84
2, 5730, Note_on_c, 0, 72, 90
2, 5744, Note_on_c, 0, 66, 0
2, 5744, Note_on_c, 0, 60, 0
2, 5758, Note_on_c, 0, 72, 0
2, 5790, Note_on_c, 0, 62, 99
2, 5790, Note_on_c, 0, 74, 99
2, 5821, Note_on_c, 0, 74, 0
2, 5821, Note_on_c, 0, 62, 0
2, 5850, Note_on_c, 0, 75, 93
2, 5850, Note_on_c, 0, 63, 93
2, 5878, Note_on_c, 0, 63, 0
2, 5878, Note_on_c, 0, 75, 0
2, 5910, Note_on_c, 0, 64, 98
2, 5910, Note_on_c, 0, 76, 98
2, 5941, Note_on_c, 0, 76, 0
2, 5941, Note_on_c, 0, 64, 0
2, 5970, Note_on_c, 0, 78, 99
2, 5970, Note_on_c, 0, 66, 99
2, 5998, Note_on_c, 0, 66, 0
2, 5998, Note_on_c, 0, 78, 0
2, 6030, Note_on_c, 0, 74, 75
2, 6060, Note_on_c, 0, 79, 84
2, 6060, Note_on_c, 0, 67, 84
2, 6061, Note_on_c, 0, 74, 0
2, 6090, Note_on_c, 0, 74, 75
2, 6098, Note_on_c, 0, 67, 0
2, 6098, Note_on_c, 0, 79, 0
2, 6120, Note_on_c, 0, 76, 80
2, 6121, Note_on_c, 0, 74, 0
2, 6150, Note_on_c, 0, 79, 89
2, 6150, Note_on_c, 0, 67, 89
2, 6158, Note_on_c, 0, 76, 0
2, 6205, Note_on_c, 0, 67, 0
2, 6205, Note_on_c, 0, 79, 0
2, 6210, Note_on_c, 0, 76, 81
2, 6240, Note_on_c, 0, 79, 87
2, 6240, Note_on_c, 0, 67, 87
2, 6241, Note_on_c, 0, 76, 0
2, 6270, Note_on_c, 0, 74, 75
2, 6278, Note_on_c, 0, 67, 0
2, 6278, Note_on_c, 0, 79, 0
2, 6300, Note_on_c, 0, 76, 78
2, 6301, Note_on_c, 0, 74, 0
2, 6330, Note_on_c, 0, 79, 89
2, 6330, Note_on_c, 0, 67, 89
2, 6338, Note_on_c, 0, 76, 0
2, 6385, Note_on_c, 0, 67, 0
2, 6385, Note_on_c, 0, 79, 0
2, 6390, Note_on_c, 0, 74, 81
2, 6420, Note_on_c, 0, 79, 84
2, 6420, Note_on_c, 0, 67, 84
2, 6428, Note_on_c, 0, 74, 0
2, 6475, Note_on_c, 0, 67, 0
2, 6475, Note_on_c, 0, 79, 0
2, 6510, Note_on_c, 0, 72, 75
2, 6540, Note_on_c, 0, 76, 83
2, 6540, Note_on_c, 0, 64, 83
2, 6541, Note_on_c, 0, 72, 0
2, 6570, Note_on_c, 0, 69, 75
2, 6578, Note_on_c, 0, 64, 0
2, 6578, Note_on_c, 0, 76, 0
2, 6600, Note_on_c, 0, 71, 80
2, 6601, Note_on_c, 0, 69, 0
2, 6630, Note_on_c, 0, 76, 87
2, 6630, Note_on_c, 0, 64, 87
2, 6638, Note_on_c, 0, 71, 0
2, 6685, Note_on_c, 0, 64, 0
2, 6685, Note_on_c, 0, 76, 0
2, 6690, Note_on_c, 0, 71, 80
2, 6720, Note_on_c, 0, 76, 89
2, 6720, Note_on_c, 0, 64, 89
2, 6721, Note_on_c, 0, 71, 0
2, 6750, Note_on_c, 0, 69, 80
2, 6758, Note_on_c, 0, 64, 0
2, 6758, Note_on_c, 0, 76, 0
2, 6780, Note_on_c, 0, 72, 82
2, 6781, Note_on_c, 0, 69, 0
2, 6810, Note_on_c, 0, 76, 90
2, 6810, Note_on_c, 0, 64, 90
2, 6818, Note_on_c, 0, 72, 0
2, 6865, Note_on_c, 0, 64, 0
2, 6865, Note_on_c, 0, 76, 0
2, 6870, Note_on_c, 0, 69, 80
2, 6900, Note_on_c, 0, 61, 88
2, 6900, Note_on_c, 0, 67, 88
2, 6900, Note_on_c, 0, 75, 88
2, 6908, Note_on_c, 0, 69, 0
2, 6955, Note_on_c, 0, 61, 0
2, 6955, Note_on_c, 0, 67, 0
2, 6955, Note_on_c, 0, 75, 0
2, 6960, Note_on_c, 0, 74, 86
2, 6960, Note_on_c, 0, 62, 86
2, 6990, Note_on_c, 0, 67, 81
2, 6998, Note_on_c, 0, 62, 0
2, 6998, Note_on_c, 0, 74, 0
2, 7020, Note_on_c, 0, 71, 84
2, 7021, Note_on_c, 0, 67, 0
2, 7050, Note_on_c, 0, 64, 90
2, 7050, Note_on_c, 0, 76, 90
2, 7058, Note_on_c, 0, 71, 0
2, 7110, Note_on_c, 0, 71, 83
2, 7119, Note_on_c, 0, 76, 0
2, 7140, Note_on_c, 0, 68, 89
2, 7141, Note_on_c, 0, 71, 0
2, 7164, Note_on_c, 0, 64, 0
2, 7170, Note_on_c, 0, 64, 83
2, 7178, Note_on_c, 0, 68, 0
2, 7200, Note_on_c, 0, 61, 90
2, 7201, Note_on_c, 0, 64, 0
2, 7230, Note_on_c, 0, 67, 81
2, 7260, Note_on_c, 0, 69, 84
2, 7261, Note_on_c, 0, 67, 0
2, 7283, Note_on_c, 0, 61, 0
2, 7290, Note_on_c, 0, 61, 90
2, 7290, Note_on_c, 0, 67, 90
2, 7290, Note_on_c, 0, 71, 90
2, 7298, Note_on_c, 0, 69, 0
2, 7345, Note_on_c, 0, 61, 0
2, 7345, Note_on_c, 0, 67, 0
2, 7345, Note_on_c, 0, 71, 0
2, 7350, Note_on_c, 0, 67, 81
2, 7380, Note_on_c, 0, 60, 88
2, 7380, Note_on_c, 0, 66, 88
2, 7380, Note_on_c, 0, 69, 88
2, 7388, Note_on_c, 0, 67, 0
2, 7435, Note_on_c, 0, 60, 0
2, 7435, Note_on_c, 0, 66, 0
2, 7435, Note_on_c, 0, 69, 0
2, 7440, Note_on_c, 0, 59, 94
2, 7440, Note_on_c, 0, 62, 94
2, 7440, Note_on_c, 0, 67, 94
2, 7495, Note_on_c, 0, 67, 0
2, 7495, Note_on_c, 0, 62, 0
2, 7495, Note_on_c, 0, 59, 0
2, 7500, Note_on_c, 0, 62, 81
2, 7530, Note_on_c, 0, 64, 89
2, 7538, Note_on_c, 0, 62, 0
2, 7585, Note_on_c, 0, 64, 0
2, 7590, Note_on_c, 0, 62, 75
2, 7618, Note_on_c, 0, 62, 0
2, 7620, Note_on_c, 0, 66, 82
2, 7620, Note_on_c, 0, 62, 82
2, 7620, Note_on_c, 0, 60, 82
2, 7675, Note_on_c, 0, 62, 0
2, 7680, Note_on_c, 0, 59, 88
2, 7680, Note_on_c, 0, 62, 88
2, 7680, Note_on_c, 0, 67, 88
2, 7688, Note_on_c, 0, 60, 0
2, 7688, Note_on_c, 0, 66, 0
2, 7735, Note_on_c, 0, 62, 0
2, 7735, Note_on_c, 0, 59, 0
2, 7735, Note_on_c, 0, 67, 0
2, 7800, Note_on_c, 0, 67, 98
2, 7800, Note_on_c, 0, 71, 98
2, 7800, Note_on_c, 0, 74, 98
2, 7800, Note_on_c, 0, 79, 98
2, 7867, Note_on_c, 0, 79, 0
2, 7867, Note_on_c, 0, 67, 0
2, 7867, Note_on_c, 0, 71, 0
2, 7867, Note_on_c, 0, 74, 0
2, 7920, Note_on_c, 0, 72, 80
2, 7950, Note_on_c, 0, 74, 90
2, 7950, Note_on_c, 0, 78, 90
2, 7958, Note_on_c, 0, 72, 0
2, 8005, Note_on_c, 0, 78, 0
2, 8005, Note_on_c, 0, 74, 0
2, 8010, Note_on_c, 0, 69, 75
2, 8040, Note_on_c, 0, 76, 84
2, 8040, Note_on_c, 0, 72, 84
2, 8048, Note_on_c, 0, 69, 0
2, 8095, Note_on_c, 0, 72, 0
2, 8095, Note_on_c, 0, 76, 0
2, 8100, Note_on_c, 0, 66, 81
2, 8130, Note_on_c, 0, 72, 91
2, 8130, Note_on_c, 0, 69, 91
2, 8138, Note_on_c, 0, 66, 0
2, 8185, Note_on_c, 0, 69, 0
2, 8185, Note_on_c, 0, 72, 0
2, 8190, Note_on_c, 0, 64, 86
2, 8250, Note_on_c, 0, 66, 93
2, 8250, Note_on_c, 0, 69, 93
2, 8257, Note_on_c, 0, 64, 0
2, 8305, Note_on_c, 0, 69, 0
2, 8305, Note_on_c, 0, 66, 0
2, 8310, Note_on_c, 0, 62, 81
2, 8340, Note_on_c, 0, 64, 83
2, 8341, Note_on_c, 0, 62, 0
2, 8370, Note_on_c, 0, 66, 79
2, 8378, Note_on_c, 0, 64, 0
2, 8400, Note_on_c, 0, 59, 90
2, 8400, Note_on_c, 0, 67, 90
2, 8401, Note_on_c, 0, 66, 0
2, 8455, Note_on_c, 0, 67, 0
2, 8455, Note_on_c, 0, 59, 0
2, 8460, Note_on_c, 0, 69, 75
2, 8490, Note_on_c, 0, 71, 87
2, 8490, Note_on_c, 0, 62, 87
2, 8498, Note_on_c, 0, 69, 0
2, 8545, Note_on_c, 0, 62, 0
2, 8545, Note_on_c, 0, 71, 0
2, 8550, Note_on_c, 0, 67, 75
2, 8580, Note_on_c, 0, 71, 84
2, 8580, Note_on_c, 0, 62, 84
2, 8588, Note_on_c, 0, 67, 0
2, 8666, Note_on_c, 0, 62, 0
2, 8666, Note_on_c, 0, 71, 0
2, 8670, Note_on_c, 0, 67, 92
2, 8670, Note_on_c, 0, 74, 92
2, 8725, Note_on_c, 0, 74, 0
2, 8725, Note_on_c, 0, 67, 0
2, 8730, Note_on_c, 0, 71, 81
2, 8760, Note_on_c, 0, 74, 93
2, 8760, Note_on_c, 0, 66, 93
2, 8768, Note_on_c, 0, 71, 0
2, 8815, Note_on_c, 0, 66, 0
2, 8815, Note_on_c, 0, 74, 0
2, 8820, Note_on_c, 0, 65, 88
2, 8820, Note_on_c, 0, 71, 88
2, 8820, Note_on_c, 0, 74, 88
2, 8875, Note_on_c, 0, 74, 0
2, 8875, Note_on_c, 0, 71, 0
2, 8875, Note_on_c, 0, 65, 0
2, 8880, Note_on_c, 0, 72, 81
2, 8910, Note_on_c, 0, 74, 87
2, 8910, Note_on_c, 0, 78, 87
2, 8918, Note_on_c, 0, 72, 0
2, 8965, Note_on_c, 0, 78, 0
2, 8965, Note_on_c, 0, 74, 0
2, 8970, Note_on_c, 0, 69, 75
2, 9000, Note_on_c, 0, 76, 85
2, 9000, Note_on_c, 0, 72, 85
2, 9008, Note_on_c, 0, 69, 0
2, 9055, Note_on_c, 0, 72, 0
2, 9055, Note_on_c, 0, 76, 0
2, 9060, Note_on_c, 0, 66, 75
2, 9090, Note_on_c, 0, 72, 90
2, 9090, Note_on_c, 0, 69, 90
2, 9098, Note_on_c, 0, 66, 0
2, 9145, Note_on_c, 0, 69, 0
2, 9145, Note_on_c, 0, 72, 0
2, 9150, Note_on_c, 0, 64, 83
2, 9210, Note_on_c, 0, 66, 92
2, 9210, Note_on_c, 0, 69, 92
2, 9217, Note_on_c, 0, 64, 0
2, 9265, Note_on_c, 0, 69, 0
2, 9265, Note_on_c, 0, 66, 0
2, 9270, Note_on_c, 0, 62, 81
2, 9300, Note_on_c, 0, 64, 87
2, 9301, Note_on_c, 0, 62, 0
2, 9330, Note_on_c, 0, 66, 81
2, 9338, Note_on_c, 0, 64, 0
2, 9360, Note_on_c, 0, 67, 88
2, 9360, Note_on_c, 0, 59, 88
2, 9361, Note_on_c, 0, 66, 0
2, 9390, Note_on_c, 0, 69, 81
2, 9398, Note_on_c, 0, 59, 0
2, 9398, Note_on_c, 0, 67, 0
2, 9420, Note_on_c, 0, 71, 87
2, 9420, Note_on_c, 0, 62, 87
2, 9421, Note_on_c, 0, 69, 0
2, 9450, Note_on_c, 0, 67, 80
2, 9458, Note_on_c, 0, 62, 0
2, 9458, Note_on_c, 0, 71, 0
2, 9480, Note_on_c, 0, 69, 88
2, 9481, Note_on_c, 0, 67, 0
2, 9510, Note_on_c, 0, 74, 93
2, 9510, Note_on_c, 0, 62, 93
2, 9518, Note_on_c, 0, 69, 0
2, 9565, Note_on_c, 0, 62, 0
2, 9565, Note_on_c, 0, 74, 0
2, 9570, Note_on_c, 0, 69, 81
2, 9600, Note_on_c, 0, 74, 88
2, 9600, Note_on_c, 0, 62, 88
2, 9601, Note_on_c, 0, 69, 0
2, 9630, Note_on_c, 0, 67, 80
2, 9634, Note_on_c, 0, 62, 0
2, 9634, Note_on_c, 0, 74, 0
2, 9660, Note_on_c, 0, 71, 81
2, 9661, Note_on_c, 0, 67, 0
2, 9690, Note_on_c, 0, 64, 89
2, 9690, Note_on_c, 0, 76, 89
2, 9698, Note_on_c, 0, 71, 0
2, 9745, Note_on_c, 0, 76, 0
2, 9745, Note_on_c, 0, 64, 0
2, 9750, Note_on_c, 0, 67, 82
2, 9780, Note_on_c, 0, 65, 93
2, 9780, Note_on_c, 0, 71, 93
2, 9780, Note_on_c, 0, 77, 93
2, 9788, Note_on_c, 0, 67, 0
2, 9835, Note_on_c, 0, 65, 0
2, 9835, Note_on_c, 0, 71, 0
2, 9835, Note_on_c, 0, 77, 0
2, 9840, Note_on_c, 0, 72, 75
2, 9870, Note_on_c, 0, 74, 87
2, 9870, Note_on_c, 0, 78, 87
2, 9878, Note_on_c, 0, 72, 0
2, 9925, Note_on_c, 0, 78, 0
2, 9925, Note_on_c, 0, 74, 0
2, 9930, Note_on_c, 0, 69, 75
2, 9960, Note_on_c, 0, 76, 83
2, 9960, Note_on_c, 0, 72, 83
2, 9968, Note_on_c, 0, 69, 0
2, 10015, Note_on_c, 0, 72, 0
2, 10015, Note_on_c, 0, 76, 0
2, 10020, Note_on_c, 0, 66, 75
2, 10050, Note_on_c, 0, 72, 88
2, 10050, Note_on_c, 0, 69, 88
2, 10058, Note_on_c, 0, 66, 0
2, 10105, Note_on_c, 0, 69, 0
2, 10105, Note_on_c, 0, 72, 0
2, 10110, Note_on_c, 0, 64, 79
2, 10170, Note_on_c, 0, 66, 86
2, 10170, Note_on_c, 0, 69, 86
2, 10177, Note_on_c, 0, 64, 0
2, 10225, Note_on_c, 0, 69, 0
2, 10225, Note_on_c, 0, 66, 0
2, 10230, Note_on_c, 0, 62, 78
2, 10260, Note_on_c, 0, 64, 83
2, 10261, Note_on_c, 0, 62, 0
2, 10290, Note_on_c, 0, 66, 75
2, 10298, Note_on_c, 0, 64, 0
2, 10320, Note_on_c, 0, 59, 85
2, 10320, Note_on_c, 0, 67, 85
2, 10321, Note_on_c, 0, 66, 0
2, 10375, Note_on_c, 0, 67, 0
2, 10375, Note_on_c, 0, 59, 0
2, 10380, Note_on_c, 0, 69, 75
2, 10410, Note_on_c, 0, 71, 88
2, 10410, Note_on_c, 0, 62, 88
2, 10418, Note_on_c, 0, 69, 0
2, 10465, Note_on_c, 0, 62, 0
2, 10465, Note_on_c, 0, 71, 0
2, 10470, Note_on_c, 0, 67, 75
2, 10500, Note_on_c, 0, 71, 85
2, 10500, Note_on_c, 0, 62, 85
2, 10508, Note_on_c, 0, 67, 0
2, 10590, Note_on_c, 0, 67, 91
2, 10590, Note_on_c, 0, 74, 91
2, 10595, Note_on_c, 0, 62, 0
2, 10595, Note_on_c, 0, 71, 0
2, 10645, Note_on_c, 0, 67, 0
2, 10645, Note_on_c, 0, 74, 0
2, 10650, Note_on_c, 0, 71, 81
2, 10680, Note_on_c, 0, 74, 95
2, 10680, Note_on_c, 0, 66, 95
2, 10688, Note_on_c, 0, 71, 0
2, 10735, Note_on_c, 0, 66, 0
2, 10735, Note_on_c, 0, 74, 0
2, 10740, Note_on_c, 0, 65, 86
2, 10740, Note_on_c, 0, 71, 86
2, 10740, Note_on_c, 0, 74, 86
2, 10795, Note_on_c, 0, 74, 0
2, 10795, Note_on_c, 0, 71, 0
2, 10795, Note_on_c, 0, 65, 0
2, 10830, Note_on_c, 0, 67, 94
2, 10830, Note_on_c, 0, 76, 94
2, 10885, Note_on_c, 0, 76, 0
2, 10885, Note_on_c, 0, 67, 0
2, 10890, Note_on_c, 0, 72, 84
2, 10920, Note_on_c, 0, 67, 94
2, 10920, Note_on_c, 0, 76, 94
2, 10928, Note_on_c, 0, 72, 0
2, 10975, Note_on_c, 0, 67, 0
2, 10980, Note_on_c, 0, 75, 88
2, 10980, Note_on_c, 0, 67, 88
2, 10981, Note_on_c, 0, 76, 0
2, 11035, Note_on_c, 0, 67, 0
2, 11035, Note_on_c, 0, 75, 0
2, 11070, Note_on_c, 0, 74, 92
2, 11070, Note_on_c, 0, 67, 92
2, 11130, Note_on_c, 0, 71, 82
2, 11131, Note_on_c, 0, 67, 0
2, 11131, Note_on_c, 0, 74, 0
2, 11160, Note_on_c, 0, 76, 93
2, 11161, Note_on_c, 0, 71, 0
2, 11190, Note_on_c, 0, 74, 83
2, 11198, Note_on_c, 0, 76, 0
2, 11220, Note_on_c, 0, 71, 84
2, 11221, Note_on_c, 0, 74, 0
2, 11250, Note_on_c, 0, 68, 82
2, 11258, Note_on_c, 0, 71, 0
2, 11278, Note_on_c, 0, 68, 0
2, 11280, Note_on_c, 0, 61, 90
2, 11310, Note_on_c, 0, 67, 81
2, 11340, Note_on_c, 0, 69, 84
2, 11341, Note_on_c, 0, 67, 0
2, 11363, Note_on_c, 0, 61, 0
2, 11370, Note_on_c, 0, 61, 90
2, 11370, Note_on_c, 0, 71, 90
2, 11378, Note_on_c, 0, 69, 0
2, 11425, Note_on_c, 0, 71, 0
2, 11430, Note_on_c, 0, 66, 82
2, 11439, Note_on_c, 0, 61, 0
2, 11460, Note_on_c, 0, 69, 90
2, 11460, Note_on_c, 0, 60, 90
2, 11468, Note_on_c, 0, 66, 0
2, 11515, Note_on_c, 0, 60, 0
2, 11515, Note_on_c, 0, 69, 0
2, 11520, Note_on_c, 0, 67, 85
2, 11520, Note_on_c, 0, 59, 85
2, 11581, Note_on_c, 0, 59, 0
2, 11581, Note_on_c, 0, 67, 0
2, 11640, Note_on_c, 0, 67, 95
2, 11640, Note_on_c, 0, 71, 95
2, 11640, Note_on_c, 0, 74, 95
2, 11640, Note_on_c, 0, 79, 95
2, 11701, Note_on_c, 0, 79, 0
2, 11701, Note_on_c, 0, 67, 0
2, 11701, Note_on_c, 0, 71, 0
2, 11701, Note_on_c, 0, 74, 0
2, 11760, Note_on_c, 0, 72, 98
2, 11790, Note_on_c, 0, 74, 90
2, 11790, Note_on_c, 0, 78, 90
2, 11798, Note_on_c, 0, 72, 0
2, 11845, Note_on_c, 0, 78, 0
2, 11845, Note_on_c, 0, 74, 0
2, 11850, Note_on_c, 0, 69, 90
2, 11880, Note_on_c, 0, 76, 84
2, 11880, Note_on_c, 0, 72, 84
2, 11888, Note_on_c, 0, 69, 0
2, 11935, Note_on_c, 0, 72, 0
2, 11935, Note_on_c, 0, 76, 0
2, 11940, Note_on_c, 0, 66, 86
2, 11970, Note_on_c, 0, 72, 77
2, 11970, Note_on_c, 0, 69, 77
2, 11978, Note_on_c, 0, 66, 0
2, 12025, Note_on_c, 0, 69, 0
2, 12025, Note_on_c, 0, 72, 0
2, 12030, Note_on_c, 0, 64, 86
2, 12090, Note_on_c, 0, 66, 77
2, 12090, Note_on_c, 0, 69, 77
2, 12097, Note_on_c, 0, 64, 0
2, 12145, Note_on_c, 0, 69, 0
2, 12145, Note_on_c, 0, 66, 0
2, 12150, Note_on_c, 0, 62, 81
2, 12180, Note_on_c, 0, 64, 83
2, 12181, Note_on_c, 0, 62, 0
2, 12210, Note_on_c, 0, 66, 79
2, 12218, Note_on_c, 0, 64, 0
2, 12240, Note_on_c, 0, 59, 90
2, 12240, Note_on_c, 0, 67, 90
2, 12241, Note_on_c, 0, 66, 0
2, 12295, Note_on_c, 0, 67, 0
2, 12295, Note_on_c, 0, 59, 0
2, 12300, Note_on_c, 0, 69, 75
2, 12330, Note_on_c, 0, 71, 87
2, 12330, Note_on_c, 0, 62, 87
2, 12338, Note_on_c, 0, 69, 0
2, 12385, Note_on_c, 0, 62, 0
2, 12385, Note_on_c, 0, 71, 0
2, 12390, Note_on_c, 0, 67, 75
2, 12420, Note_on_c, 0, 71, 84
2, 12420, Note_on_c, 0, 62, 84
2, 12428, Note_on_c, 0, 67, 0
2, 12506, Note_on_c, 0, 62, 0
2, 12506, Note_on_c, 0, 71, 0
2, 12510, Note_on_c, 0, 67, 92
2, 12510, Note_on_c, 0, 74, 92
2, 12565, Note_on_c, 0, 74, 0
2, 12565, Note_on_c, 0, 67, 0
2, 12570, Note_on_c, 0, 71, 81
2, 12600, Note_on_c, 0, 74, 93
2, 12600, Note_on_c, 0, 66, 93
2, 12608, Note_on_c, 0, 71, 0
2, 12655, Note_on_c, 0, 66, 0
2, 12655, Note_on_c, 0, 74, 0
2, 12660, Note_on_c, 0, 65, 88
2, 12660, Note_on_c, 0, 71, 88
2, 12660, Note_on_c, 0, 74, 88
2, 12715, Note_on_c, 0, 74, 0
2, 12715, Note_on_c, 0, 71, 0
2, 12715, Note_on_c, 0, 65, 0
2, 12720, Note_on_c, 0, 72, 97
2, 12750, Note_on_c, 0, 74, 87
2, 12750, Note_on_c, 0, 78, 87
2, 12758, Note_on_c, 0, 72, 0
2, 12805, Note_on_c, 0, 78, 0
2, 12805, Note_on_c, 0, 74, 0
2, 12810, Note_on_c, 0, 69, 92
2, 12840, Note_on_c, 0, 76, 85
2, 12840, Note_on_c, 0, 72, 85
2, 12848, Note_on_c, 0, 69, 0
2, 12895, Note_on_c, 0, 72, 0
2, 12895, Note_on_c, 0, 76, 0
2, 12900, Note_on_c, 0, 66, 88
2, 12930, Note_on_c, 0, 72, 77
2, 12930, Note_on_c, 0, 69, 77
2, 12938, Note_on_c, 0, 66, 0
2, 12985, Note_on_c, 0, 69, 0
2, 12985, Note_on_c, 0, 72, 0
2, 12990, Note_on_c, 0, 64, 87
2, 13050, Note_on_c, 0, 66, 76
2, 13050, Note_on_c, 0, 69, 76
2, 13057, Note_on_c, 0, 64, 0
2, 13105, Note_on_c, 0, 69, 0
2, 13105, Note_on_c, 0, 66, 0
2, 13110, Note_on_c, 0, 62, 81
2, 13140, Note_on_c, 0, 64, 87
2, 13141, Note_on_c, 0, 62, 0
2, 13170, Note_on_c, 0, 66, 81
2, 13178, Note_on_c, 0, 64, 0
2, 13200, Note_on_c, 0, 67, 88
2, 13200, Note_on_c, 0, 59, 88
2, 13201, Note_on_c, 0, 66, 0
2, 13230, Note_on_c, 0, 69, 81
2, 13238, Note_on_c, 0, 59, 0
2, 13238, Note_on_c, 0, 67, 0
2, 13260, Note_on_c, 0, 71, 87
2, 13260, Note_on_c, 0, 62, 87
2, 13261, Note_on_c, 0, 69, 0
2, 13290, Note_on_c, 0, 67, 80
2, 13298, Note_on_c, 0, 62, 0
2, 13298, Note_on_c, 0, 71, 0
2, 13320, Note_on_c, 0, 69, 88
2, 13321, Note_on_c, 0, 67, 0
2, 13350, Note_on_c, 0, 74, 93
2, 13350, Note_on_c, 0, 62, 93
2, 13358, Note_on_c, 0, 69, 0
2, 13405, Note_on_c, 0, 62, 0
2, 13405, Note_on_c, 0, 74, 0
2, 13410, Note_on_c, 0, 69, 81
2, 13440, Note_on_c, 0, 74, 88
2, 13440, Note_on_c, 0, 62, 88
2, 13441, Note_on_c, 0, 69, 0
2, 13470, Note_on_c, 0, 67, 80
2, 13474, Note_on_c, 0, 62, 0
2, 13474, Note_on_c, 0, 74, 0
2, 13500, Note_on_c, 0, 71, 81
2, 13501, Note_on_c, 0, 67, 0
2, 13530, Note_on_c, 0, 64, 89
2, 13530, Note_on_c, 0, 76, 89
2, 13538, Note_on_c, 0, 71, 0
2, 13585, Note_on_c, 0, 76, 0
2, 13585, Note_on_c, 0, 64, 0
2, 13590, Note_on_c, 0, 67, 82
2, 13620, Note_on_c, 0, 65, 93
2, 13620, Note_on_c, 0, 71, 93
2, 13620, Note_on_c, 0, 77, 93
2, 13628, Note_on_c, 0, 67, 0
2, 13675, Note_on_c, 0, 65, 0
2, 13675, Note_on_c, 0, 71, 0
2, 13675, Note_on_c, 0, 77, 0
2, 13680, Note_on_c, 0, 72, 96
2, 13710, Note_on_c, 0, 74, 87
2, 13710, Note_on_c, 0, 78, 87
2, 13718, Note_on_c, 0, 72, 0
2, 13765, Note_on_c, 0, 78, 0
2, 13765, Note_on_c, 0, 74, 0
2, 13770, Note_on_c, 0, 69, 92
2, 13800, Note_on_c, 0, 76, 83
2, 13800, Note_on_c, 0, 72, 83
2, 13808, Note_on_c, 0, 69, 0
2, 13855, Note_on_c, 0, 72, 0
2, 13855, Note_on_c, 0, 76, 0
2, 13860, Note_on_c, 0, 66, 87
2, 13890, Note_on_c, 0, 72, 79
2, 13890, Note_on_c, 0, 69, 79
2, 13898, Note_on_c, 0, 66, 0
2, 13945, Note_on_c, 0, 69, 0
2, 13945, Note_on_c, 0, 72, 0
2, 13950, Note_on_c, 0, 64, 88
2, 14010, Note_on_c, 0, 66, 78
2, 14010, Note_on_c, 0, 69, 78
2, 14017, Note_on_c, 0, 64, 0
2, 14065, Note_on_c, 0, 69, 0
2, 14065, Note_on_c, 0, 66, 0
2, 14070, Note_on_c, 0, 62, 75
2, 14100, Note_on_c, 0, 64, 83
2, 14101, Note_on_c, 0, 62, 0
2, 14130, Note_on_c, 0, 66, 75
2, 14138, Note_on_c, 0, 64, 0
2, 14160, Note_on_c, 0, 59, 85
2, 14160, Note_on_c, 0, 67, 85
2, 14161, Note_on_c, 0, 66, 0
2, 14215, Note_on_c, 0, 67, 0
2, 14215, Note_on_c, 0, 59, 0
2, 14220, Note_on_c, 0, 69, 75
2, 14250, Note_on_c, 0, 71, 88
2, 14250, Note_on_c, 0, 62, 88
2, 14258, Note_on_c, 0, 69, 0
2, 14305, Note_on_c, 0, 62, 0
2, 14305, Note_on_c, 0, 71, 0
2, 14310, Note_on_c, 0, 67, 75
2, 14340, Note_on_c, 0, 71, 85
2, 14340, Note_on_c, 0, 62, 85
2, 14348, Note_on_c, 0, 67, 0
2, 14430, Note_on_c, 0, 67, 91
2, 14430, Note_on_c, 0, 74, 91
2, 14435, Note_on_c, 0, 62, 0
2, 14435, Note_on_c, 0, 71, 0
2, 14485, Note_on_c, 0, 67, 0
2, 14485, Note_on_c, 0, 74, 0
2, 14490, Note_on_c, 0, 71, 81
2, 14520, Note_on_c, 0, 74, 95
2, 14520, Note_on_c, 0, 66, 95
2, 14528, Note_on_c, 0, 71, 0
2, 14575, Note_on_c, 0, 66, 0
2, 14575, Note_on_c, 0, 74, 0
2, 14580, Note_on_c, 0, 65, 86
2, 14580, Note_on_c, 0, 71, 86
2, 14580, Note_on_c, 0, 74, 86
2, 14635, Note_on_c, 0, 74, 0
2, 14635, Note_on_c, 0, 71, 0
2, 14635, Note_on_c, 0, 65, 0
2, 14670, Note_on_c, 0, 67, 94
2, 14670, Note_on_c, 0, 76, 94
2, 14725, Note_on_c, 0, 76, 0
2, 14725, Note_on_c, 0, 67, 0
2, 14730, Note_on_c, 0, 72, 84
2, 14760, Note_on_c, 0, 67, 94
2, 14760, Note_on_c, 0, 76, 94
2, 14768, Note_on_c, 0, 72, 0
2, 14815, Note_on_c, 0, 67, 0
2, 14820, Note_on_c, 0, 75, 88
2, 14820, Note_on_c, 0, 67, 88
2, 14821, Note_on_c, 0, 76, 0
2, 14875, Note_on_c, 0, 67, 0
2, 14875, Note_on_c, 0, 75, 0
2, 14910, Note_on_c, 0, 74, 92
2, 14910, Note_on_c, 0, 67, 92
2, 14970, Note_on_c, 0, 71, 82
2, 14971, Note_on_c, 0, 67, 0
2, 14971, Note_on_c, 0, 74, 0
2, 15000, Note_on_c, 0, 76, 93
2, 15001, Note_on_c, 0, 71, 0
2, 15030, Note_on_c, 0, 74, 83
2, 15038, Note_on_c, 0, 76, 0
2, 15060, Note_on_c, 0, 71, 84
2, 15061, Note_on_c, 0, 74, 0
2, 15090, Note_on_c, 0, 68, 82
2, 15098, Note_on_c, 0, 71, 0
2, 15118, Note_on_c, 0, 68, 0
2, 15120, Note_on_c, 0, 61, 90
2, 15150, Note_on_c, 0, 67, 81
2, 15180, Note_on_c, 0, 69, 84
2, 15181, Note_on_c, 0, 67, 0
2, 15203, Note_on_c, 0, 61, 0
2, 15210, Note_on_c, 0, 61, 90
2, 15210, Note_on_c, 0, 71, 90
2, 15218, Note_on_c, 0, 69, 0
2, 15265, Note_on_c, 0, 71, 0
2, 15270, Note_on_c, 0, 66, 82
2, 15279, Note_on_c, 0, 61, 0
2, 15300, Note_on_c, 0, 69, 90
2, 15300, Note_on_c, 0, 60, 90
2, 15308, Note_on_c, 0, 66, 0
2, 15355, Note_on_c, 0, 60, 0
2, 15355, Note_on_c, 0, 69, 0
2, 15360, Note_on_c, 0, 67, 85
2, 15360, Note_on_c, 0, 59, 85
2, 15421, Note_on_c, 0, 59, 0
2, 15421, Note_on_c, 0, 67, 0
2, 15480, Note_on_c, 0, 67, 95
2, 15480, Note_on_c, 0, 71, 95
2, 15480, Note_on_c, 0, 74, 95
2, 15480, Note_on_c, 0, 79, 95
2, 15541, Note_on_c, 0, 79, 0
2, 15541, Note_on_c, 0, 67, 0
2, 15541, Note_on_c, 0, 71, 0
2, 15541, Note_on_c, 0, 74, 0
2, 15630, Note_on_c, 0, 74, 75
2, 15660, Note_on_c, 0, 79, 81
2, 15660, Note_on_c, 0, 67, 81
2, 15661, Note_on_c, 0, 74, 0
2, 15690, Note_on_c, 0, 74, 75
2, 15698, Note_on_c, 0, 67, 0
2, 15698, Note_on_c, 0, 79, 0
2, 15720, Note_on_c, 0, 76, 81
2, 15721, Note_on_c, 0, 74, 0
2, 15750, Note_on_c, 0, 79, 88
2, 15750, Note_on_c, 0, 67, 88
2, 15758, Note_on_c, 0, 76, 0
2, 15805, Note_on_c, 0, 67, 0
2, 15805, Note_on_c, 0, 79, 0
2, 15810, Note_on_c, 0, 76, 75
2, 15840, Note_on_c, 0, 79, 85
2, 15840, Note_on_c, 0, 67, 85
2, 15841, Note_on_c, 0, 76, 0
2, 15870, Note_on_c, 0, 74, 75
2, 15878, Note_on_c, 0, 67, 0
2, 15878, Note_on_c, 0, 79, 0
2, 15900, Note_on_c, 0, 76, 80
2, 15901, Note_on_c, 0, 74, 0
2, 15930, Note_on_c, 0, 79, 86
2, 15930, Note_on_c, 0, 67, 86
2, 15938, Note_on_c, 0, 76, 0
2, 15985, Note_on_c, 0, 67, 0
2, 15985, Note_on_c, 0, 79, 0
2, 15990, Note_on_c, 0, 74, 80
2, 16020, Note_on_c, 0, 79, 85
2, 16020, Note_on_c, 0, 67, 85
2, 16028, Note_on_c, 0, 74, 0
2, 16075, Note_on_c, 0, 67, 0
2, 16075, Note_on_c, 0, 79, 0
2, 16110, Note_on_c, 0, 72, 75
2, 16140, Note_on_c, 0, 76, 85
2, 16140, Note_on_c, 0, 64, 85
2, 16141, Note_on_c, 0, 72, 0
2, 16170, Note_on_c, 0, 69, 75
2, 16178, Note_on_c, 0, 64, 0
2, 16178, Note_on_c, 0, 76, 0
2, 16200, Note_on_c, 0, 71, 80
2, 16201, Note_on_c, 0, 69, 0
2, 16230, Note_on_c, 0, 76, 88
2, 16230, Note_on_c, 0, 64, 88
2, 16238, Note_on_c, 0, 71, 0
2, 16285, Note_on_c, 0, 64, 0
2, 16285, Note_on_c, 0, 76, 0
2, 16290, Note_on_c, 0, 71, 75
2, 16320, Note_on_c, 0, 76, 87
2, 16320, Note_on_c, 0, 64, 87
2, 16321, Note_on_c, 0, 71, 0
2, 16350, Note_on_c, 0, 69, 75
2, 16358, Note_on_c, 0, 64, 0
2, 16358, Note_on_c, 0, 76, 0
2, 16380, Note_on_c, 0, 72, 81
2, 16381, Note_on_c, 0, 69, 0
2, 16410, Note_on_c, 0, 76, 86
2, 16410, Note_on_c, 0, 64, 86
2, 16418, Note_on_c, 0, 72, 0
2, 16465, Note_on_c, 0, 64, 0
2, 16465, Note_on_c, 0, 76, 0
2, 16470, Note_on_c, 0, 69, 82
2, 16500, Note_on_c, 0, 61, 87
2, 16500, Note_on_c, 0, 67, 87
2, 16500, Note_on_c, 0, 75, 87
2, 16508, Note_on_c, 0, 69, 0
2, 16555, Note_on_c, 0, 61, 0
2, 16555, Note_on_c, 0, 67, 0
2, 16555, Note_on_c, 0, 75, 0
2, 16560, Note_on_c, 0, 74, 82
2, 16560, Note_on_c, 0, 62, 82
2, 16590, Note_on_c, 0, 67, 75
2, 16598, Note_on_c, 0, 62, 0
2, 16598, Note_on_c, 0, 74, 0
2, 16620, Note_on_c, 0, 71, 80
2, 16621, Note_on_c, 0, 67, 0
2, 16650, Note_on_c, 0, 64, 90
2, 16650, Note_on_c, 0, 76, 90
2, 16658, Note_on_c, 0, 71, 0
2, 16710, Note_on_c, 0, 71, 86
2, 16719, Note_on_c, 0, 76, 0
2, 16740, Note_on_c, 0, 68, 90
2, 16746, Note_on_c, 0, 71, 0
2, 16764, Note_on_c, 0, 64, 0
2, 16770, Note_on_c, 0, 64, 83
2, 16784, Note_on_c, 0, 68, 0
2, 16800, Note_on_c, 0, 61, 86
2, 16801, Note_on_c, 0, 64, 0
2, 16830, Note_on_c, 0, 67, 80
2, 16860, Note_on_c, 0, 69, 82
2, 16866, Note_on_c, 0, 67, 0
2, 16883, Note_on_c, 0, 61, 0
2, 16890, Note_on_c, 0, 61, 90
2, 16890, Note_on_c, 0, 67, 90
2, 16890, Note_on_c, 0, 71, 90
2, 16904, Note_on_c, 0, 69, 0
2, 16945, Note_on_c, 0, 61, 0
2, 16945, Note_on_c, 0, 67, 0
2, 16945, Note_on_c, 0, 71, 0
2, 16950, Note_on_c, 0, 70, 75
2, 16980, Note_on_c, 0, 61, 84
2, 16980, Note_on_c, 0, 67, 84
2, 16980, Note_on_c, 0, 71, 84
2, 16988, Note_on_c, 0, 70, 0
2, 17035, Note_on_c, 0, 61, 0
2, 17035, Note_on_c, 0, 67, 0
2, 17035, Note_on_c, 0, 71, 0
2, 17070, Note_on_c, 0, 66, 84
2, 17070, Note_on_c, 0, 60, 84
2, 17130, Note_on_c, 0, 72, 94
2, 17144, Note_on_c, 0, 60, 0
2, 17144, Note_on_c, 0, 66, 0
2, 17158, Note_on_c, 0, 72, 0
2, 17190, Note_on_c, 0, 60, 84
2, 17190, Note_on_c, 0, 66, 84
2, 17250, Note_on_c, 0, 72, 90
2, 17264, Note_on_c, 0, 66, 0
2, 17264, Note_on_c, 0, 60, 0
2, 17278, Note_on_c, 0, 72, 0
2, 17310, Note_on_c, 0, 62, 99
2, 17310, Note_on_c, 0, 74, 99
2, 17341, Note_on_c, 0, 74, 0
2, 17341, Note_on_c, 0, 62, 0
2, 17370, Note_on_c, 0, 75, 93
2, 17370, Note_on_c, 0, 63, 93
2, 17398, Note_on_c, 0, 63, 0
2, 17398, Note_on_c, 0, 75, 0
2, 17430, Note_on_c, 0, 64, 98
2, 17430, Note_on_c, 0, 76, 98
2, 17461, Note_on_c, 0, 76, 0
2, 17461, Note_on_c, 0, 64, 0
2, 17490, Note_on_c, 0, 78, 99
2, 17490, Note_on_c, 0, 66, 99
2, 17518, Note_on_c, 0, 66, 0
2, 17518, Note_on_c, 0, 78, 0
2, 17550, Note_on_c, 0, 74, 75
2, 17580, Note_on_c, 0, 79, 84
2, 17580, Note_on_c, 0, 67, 84
2, 17581, Note_on_c, 0, 74, 0
2, 17610, Note_on_c, 0, 74, 75
2, 17618, Note_on_c, 0, 67, 0
2, 17618, Note_on_c, 0, 79, 0
2, 17640, Note_on_c, 0, 76, 80
2, 17641, Note_on_c, 0, 74, 0
2, 17670, Note_on_c, 0, 79, 89
2, 17670, Note_on_c, 0, 67, 89
2, 17678, Note_on_c, 0, 76, 0
2, 17725, Note_on_c, 0, 67, 0
2, 17725, Note_on_c, 0, 79, 0
2, 17730, Note_on_c, 0, 76, 81
2, 17760, Note_on_c, 0, 79, 87
2, 17760, Note_on_c, 0, 67, 87
2, 17761, Note_on_c, 0, 76, 0
2, 17790, Note_on_c, 0, 74, 75
2, 17798, Note_on_c, 0, 67, 0
2, 17798, Note_on_c, 0, 79, 0
2, 17820, Note_on_c, 0, 76, 78
2, 17821, Note_on_c, 0, 74, 0
2, 17850, Note_on_c, 0, 79, 89
2, 17850, Note_on_c, 0, 67, 89
2, 17858, Note_on_c, 0, 76, 0
2, 17905, Note_on_c, 0, 67, 0
2, 17905, Note_on_c, 0, 79, 0
2, 17910, Note_on_c, 0, 74, 81
2, 17940, Note_on_c, 0, 79, 84
2, 17940, Note_on_c, 0, 67, 84
2, 17948, Note_on_c, 0, 74, 0
2, 17995, Note_on_c, 0, 67, 0
2, 17995, Note_on_c, 0, 79, 0
2, 18030, Note_on_c, 0, 72, 75
2, 18060, Note_on_c, 0, 76, 83
2, 18060, Note_on_c, 0, 64, 83
2, 18061, Note_on_c, 0, 72, 0
2, 18090, Note_on_c, 0, 69, 75
2, 18098, Note_on_c, 0, 64, 0
2, 18098, Note_on_c, 0, 76, 0
2, 18120, Note_on_c, 0, 71, 80
2, 18121, Note_on_c, 0, 69, 0
2, 18150, Note_on_c, 0, 76, 87
2, 18150, Note_on_c, 0, 64, 87
2, 18158, Note_on_c, 0, 71, 0
2, 18205, Note_on_c, 0, 64, 0
2, 18205, Note_on_c, 0, 76, 0
2, 18210, Note_on_c, 0, 71, 80
2, 18240, Note_on_c, 0, 76, 89
2, 18240, Note_on_c, 0, 64, 89
2, 18241, Note_on_c, 0, 71, 0
2, 18270, Note_on_c, 0, 69, 80
2, 18278, Note_on_c, 0, 64, 0
2, 18278, Note_on_c, 0, 76, 0
2, 18300, Note_on_c, 0, 72, 82
2, 18301, Note_on_c, 0, 69, 0
2, 18330, Note_on_c, 0, 76, 90
2, 18330, Note_on_c, 0, 64, 90
2, 18338, Note_on_c, 0, 72, 0
2, 18385, Note_on_c, 0, 64, 0
2, 18385, Note_on_c, 0, 76, 0
2, 18390, Note_on_c, 0, 69, 80
2, 18420, Note_on_c, 0, 61, 88
2, 18420, Note_on_c, 0, 67, 88
2, 18420, Note_on_c, 0, 75, 88
2, 18428, Note_on_c, 0, 69, 0
2, 18475, Note_on_c, 0, 61, 0
2, 18475, Note_on_c, 0, 67, 0
2, 18475, Note_on_c, 0, 75, 0
2, 18480, Note_on_c, 0, 74, 86
2, 18480, Note_on_c, 0, 62, 86
2, 18510, Note_on_c, 0, 67, 81
2, 18518, Note_on_c, 0, 62, 0
2, 18518, Note_on_c, 0, 74, 0
2, 18540, Note_on_c, 0, 71, 84
2, 18541, Note_on_c, 0, 67, 0
2, 18570, Note_on_c, 0, 64, 90
2, 18570, Note_on_c, 0, 76, 90
2, 18578, Note_on_c, 0, 71, 0
2, 18630, Note_on_c, 0, 71, 83
2, 18639, Note_on_c, 0, 76, 0
2, 18660, Note_on_c, 0, 68, 89
2, 18661, Note_on_c, 0, 71, 0
2, 18684, Note_on_c, 0, 64, 0
2, 18690, Note_on_c, 0, 64, 83
2, 18698, Note_on_c, 0, 68, 0
2, 18720, Note_on_c, 0, 61, 90
2, 18721, Note_on_c, 0, 64, 0
2, 18750, Note_on_c, 0, 67, 81
2, 18780, Note_on_c, 0, 69, 84
2, 18781, Note_on_c, 0, 67, 0
2, 18803, Note_on_c, 0, 61, 0
2, 18810, Note_on_c, 0, 61, 90
2, 18810, Note_on_c, 0, 67, 90
2, 18810, Note_on_c, 0, 71, 90
2, 18818, Note_on_c, 0, 69, 0
2, 18865, Note_on_c, 0, 61, 0
2, 18865, Note_on_c, 0, 67, 0
2, 18865, Note_on_c, 0, 71, 0
2, 18870, Note_on_c, 0, 67, 81
2, 18900, Note_on_c, 0, 60, 88
2, 18900, Note_on_c, 0, 66, 88
2, 18900, Note_on_c, 0, 69, 88
2, 18908, Note_on_c, 0, 67, 0
2, 18955, Note_on_c, 0, 60, 0
2, 18955, Note_on_c, 0, 66, 0
2, 18955, Note_on_c, 0, 69, 0
2, 18960, Note_on_c, 0, 59, 94
2, 18960, Note_on_c, 0, 62, 94
2, 18960, Note_on_c, 0, 67, 94
2, 19015, Note_on_c, 0, 67, 0
2, 19015, Note_on_c, 0, 62, 0
2, 19015, Note_on_c, 0, 59, 0
2, 19020, Note_on_c, 0, 62, 81
2, 19050, Note_on_c, 0, 64, 89
2, 19058, Note_on_c, 0, 62, 0
2, 19105, Note_on_c, 0, 64, 0
2, 19110, Note_on_c, 0, 62, 75
2, 19138, Note_on_c, 0, 62, 0
2, 19140, Note_on_c, 0, 66, 82
2, 19140, Note_on_c, 0, 62, 82
2, 19140, Note_on_c, 0, 60, 82
2, 19195, Note_on_c, 0, 62, 0
2, 19200, Note_on_c, 0, 59, 88
2, 19200, Note_on_c, 0, 62, 88
2, 19200, Note_on_c, 0, 67, 88
2, 19208, Note_on_c, 0, 60, 0
2, 19208, Note_on_c, 0, 66, 0
2, 19255, Note_on_c, 0, 62, 0
2, 19255, Note_on_c, 0, 59, 0
2, 19255, Note_on_c, 0, 67, 0
2, 19320, Note_on_c, 0, 67, 98
2, 19320, Note_on_c, 0, 71, 98
2, 19320, Note_on_c, 0, 74, 98
2, 19320, Note_on_c, 0, 79, 98
2, 19387, Note_on_c, 0, 79, 0
2, 19387, Note_on_c, 0, 67, 0
2, 19387, Note_on_c, 0, 71, 0
2, 19387, Note_on_c, 0, 74, 0
2, 19470, Note_on_c, 0, 76, 75
2, 19470, Note_on_c, 0, 72, 75
2, 19500, Note_on_c, 0, 67, 83
2, 19500, Note_on_c, 0, 79, 83
2, 19501, Note_on_c, 0, 72, 0
2, 19501, Note_on_c, 0, 76, 0
2, 19530, Note_on_c, 0, 76, 79
2, 19530, Note_on_c, 0, 72, 79
2, 19538, Note_on_c, 0, 67, 0
2, 19538, Note_on_c, 0, 79, 0
2, 19585, Note_on_c, 0, 76, 0
2, 19585, Note_on_c, 0, 72, 0
2, 19590, Note_on_c, 0, 72, 86
2, 19590, Note_on_c, 0, 76, 86
2, 19590, Note_on_c, 0, 79, 86
2, 19590, Note_on_c, 0, 84, 86
2, 19645, Note_on_c, 0, 84, 0
2, 19645, Note_on_c, 0, 72, 0
2, 19645, Note_on_c, 0, 76, 0
2, 19645, Note_on_c, 0, 79, 0
2, 19650, Note_on_c, 0, 71, 81
2, 19680, Note_on_c, 0, 76, 88
2, 19680, Note_on_c, 0, 79, 88
2, 19680, Note_on_c, 0, 83, 88
2, 19688, Note_on_c, 0, 71, 0
2, 19735, Note_on_c, 0, 76, 0
2, 19735, Note_on_c, 0, 79, 0
2, 19735, Note_on_c, 0, 83, 0
2, 19740, Note_on_c, 0, 69, 81
2, 19770, Note_on_c, 0, 76, 83
2, 19770, Note_on_c, 0, 79, 83
2, 19770, Note_on_c, 0, 81, 83
2, 19778, Note_on_c, 0, 69, 0
2, 19825, Note_on_c, 0, 76, 0
2, 19825, Note_on_c, 0, 79, 0
2, 19825, Note_on_c, 0, 81, 0
2, 19830, Note_on_c, 0, 67, 81
2, 19860, Note_on_c, 0, 79, 84
2, 19860, Note_on_c, 0, 76, 84
2, 19860, Note_on_c, 0, 72, 84
2, 19868, Note_on_c, 0, 67, 0
2, 19915, Note_on_c, 0, 79, 0
2, 19915, Note_on_c, 0, 76, 0
2, 19915, Note_on_c, 0, 72, 0
2, 19950, Note_on_c, 0, 67, 91
2, 19950, Note_on_c, 0, 79, 91
2, 20005, Note_on_c, 0, 79, 0
2, 20005, Note_on_c, 0, 67, 0
2, 20010, Note_on_c, 0, 76, 75
2, 20010, Note_on_c, 0, 72, 75
2, 20040, Note_on_c, 0, 79, 81
2, 20040, Note_on_c, 0, 67, 81
2, 20048, Note_on_c, 0, 72, 0
2, 20048, Note_on_c, 0, 76, 0
2, 20100, Note_on_c, 0, 69, 82
2, 20100, Note_on_c, 0, 81, 82
2, 20101, Note_on_c, 0, 79, 0
2, 20101, Note_on_c, 0, 67, 0
2, 20155, Note_on_c, 0, 69, 0
2, 20155, Note_on_c, 0, 81, 0
2, 20160, Note_on_c, 0, 83, 90
2, 20160, Note_on_c, 0, 71, 90
2, 20215, Note_on_c, 0, 71, 0
2, 20215, Note_on_c, 0, 83, 0
2, 20220, Note_on_c, 0, 77, 82
2, 20220, Note_on_c, 0, 74, 82
2, 20250, Note_on_c, 0, 83, 90
2, 20250, Note_on_c, 0, 71, 90
2, 20258, Note_on_c, 0, 74, 0
2, 20258, Note_on_c, 0, 77, 0
2, 20305, Note_on_c, 0, 83, 0
2, 20305, Note_on_c, 0, 71, 0
2, 20310, Note_on_c, 0, 77, 82
2, 20310, Note_on_c, 0, 74, 82
2, 20340, Note_on_c, 0, 83, 82
2, 20340, Note_on_c, 0, 71, 82
2, 20348, Note_on_c, 0, 74, 0
2, 20348, Note_on_c, 0, 77, 0
2, 20395, Note_on_c, 0, 83, 0
2, 20395, Note_on_c, 0, 71, 0
2, 20430, Note_on_c, 0, 74, 80
2, 20430, Note_on_c, 0, 71, 80
2, 20460, Note_on_c, 0, 65, 90
2, 20460, Note_on_c, 0, 77, 90
2, 20461, Note_on_c, 0, 71, 0
2, 20461, Note_on_c, 0, 74, 0
2, 20490, Note_on_c, 0, 74, 81
2, 20490, Note_on_c, 0, 71, 81
2, 20498, Note_on_c, 0, 65, 0
2, 20498, Note_on_c, 0, 77, 0
2, 20521, Note_on_c, 0, 74, 0
2, 20521, Note_on_c, 0, 71, 0
2, 20550, Note_on_c, 0, 70, 75
2, 20550, Note_on_c, 0, 74, 75
2, 20580, Note_on_c, 0, 77, 88
2, 20580, Note_on_c, 0, 65, 88
2, 20581, Note_on_c, 0, 74, 0
2, 20581, Note_on_c, 0, 70, 0
2, 20610, Note_on_c, 0, 74, 80
2, 20610, Note_on_c, 0, 70, 80
2, 20618, Note_on_c, 0, 77, 0
2, 20618, Note_on_c, 0, 65, 0
2, 20641, Note_on_c, 0, 74, 0
2, 20641, Note_on_c, 0, 70, 0
2, 20670, Note_on_c, 0, 69, 75
2, 20670, Note_on_c, 0, 74, 75
2, 20700, Note_on_c, 0, 77, 88
2, 20700, Note_on_c, 0, 65, 88
2, 20701, Note_on_c, 0, 74, 0
2, 20701, Note_on_c, 0, 69, 0
2, 20730, Note_on_c, 0, 69, 75
2, 20730, Note_on_c, 0, 74, 75
2, 20738, Note_on_c, 0, 77, 0
2, 20738, Note_on_c, 0, 65, 0
2, 20761, Note_on_c, 0, 69, 0
2, 20761, Note_on_c, 0, 74, 0
2, 20790, Note_on_c, 0, 74, 75
2, 20790, Note_on_c, 0, 68, 75
2, 20820, Note_on_c, 0, 65, 92
2, 20820, Note_on_c, 0, 77, 92
2, 20821, Note_on_c, 0, 68, 0
2, 20821, Note_on_c, 0, 74, 0
2, 20850, Note_on_c, 0, 74, 79
2, 20850, Note_on_c, 0, 68, 79
2, 20858, Note_on_c, 0, 65, 0
2, 20858, Note_on_c, 0, 77, 0
2, 20880, Note_on_c, 0, 65, 87
2, 20880, Note_on_c, 0, 77, 87
2, 20881, Note_on_c, 0, 74, 0
2, 20881, Note_on_c, 0, 68, 0
2, 20940, Note_on_c, 0, 67, 80
2, 20940, Note_on_c, 0, 79, 80
2, 20941, Note_on_c, 0, 65, 0
2, 20941, Note_on_c, 0, 77, 0
2, 20970, Note_on_c, 0, 81, 82
2, 20970, Note_on_c, 0, 69, 82
2, 20978, Note_on_c, 0, 67, 0
2, 20978, Note_on_c, 0, 79, 0
2, 21025, Note_on_c, 0, 81, 0
2, 21025, Note_on_c, 0, 69, 0
2, 21030, Note_on_c, 0, 77, 85
2, 21060, Note_on_c, 0, 83, 93
2, 21060, Note_on_c, 0, 71, 93
2, 21061, Note_on_c, 0, 77, 0
2, 21090, Note_on_c, 0, 77, 75
2, 21098, Note_on_c, 0, 71, 0
2, 21098, Note_on_c, 0, 83, 0
2, 21120, Note_on_c, 0, 69, 83
2, 21120, Note_on_c, 0, 76, 83
2, 21120, Note_on_c, 0, 81, 83
2, 21121, Note_on_c, 0, 77, 0
2, 21175, Note_on_c, 0, 69, 0
2, 21175, Note_on_c, 0, 76, 0
2, 21175, Note_on_c, 0, 81, 0
2, 21180, Note_on_c, 0, 68, 75
2, 21180, Note_on_c, 0, 76, 75
2, 21180, Note_on_c, 0, 80, 75
2, 21208, Note_on_c, 0, 76, 0
2, 21210, Note_on_c, 0, 79, 85
2, 21210, Note_on_c, 0, 76, 85
2, 21210, Note_on_c, 0, 67, 85
2, 21218, Note_on_c, 0, 80, 0
2, 21218, Note_on_c, 0, 68, 0
2, 21265, Note_on_c, 0, 76, 0
2, 21265, Note_on_c, 0, 79, 0
2, 21265, Note_on_c, 0, 67, 0
2, 21270, Note_on_c, 0, 76, 75
2, 21300, Note_on_c, 0, 79, 83
2, 21300, Note_on_c, 0, 67, 83
2, 21304, Note_on_c, 0, 76, 0
2, 21361, Note_on_c, 0, 67, 0
2, 21361, Note_on_c, 0, 79, 0
2, 21390, Note_on_c, 0, 76, 78
2, 21390, Note_on_c, 0, 72, 78
2, 21420, Note_on_c, 0, 67, 87
2, 21420, Note_on_c, 0, 79, 87
2, 21421, Note_on_c, 0, 72, 0
2, 21421, Note_on_c, 0, 76, 0
2, 21450, Note_on_c, 0, 76, 75
2, 21450, Note_on_c, 0, 72, 75
2, 21458, Note_on_c, 0, 67, 0
2, 21458, Note_on_c, 0, 79, 0
2, 21505, Note_on_c, 0, 76, 0
2, 21505, Note_on_c, 0, 72, 0
2, 21510, Note_on_c, 0, 72, 93
2, 21510, Note_on_c, 0, 76, 93
2, 21510, Note_on_c, 0, 79, 93
2, 21510, Note_on_c, 0, 84, 93
2, 21565, Note_on_c, 0, 84, 0
2, 21565, Note_on_c, 0, 72, 0
2, 21565, Note_on_c, 0, 76, 0
2, 21565, Note_on_c, 0, 79, 0
2, 21570, Note_on_c, 0, 71, 75
2, 21600, Note_on_c, 0, 76, 83
2, 21600, Note_on_c, 0, 79, 83
2, 21600, Note_on_c, 0, 83, 83
2, 21608, Note_on_c, 0, 71, 0
2, 21655, Note_on_c, 0, 76, 0
2, 21655, Note_on_c, 0, 79, 0
2, 21655, Note_on_c, 0, 83, 0
2, 21660, Note_on_c, 0, 69, 78
2, 21690, Note_on_c, 0, 76, 87
2, 21690, Note_on_c, 0, 79, 87
2, 21690, Note_on_c, 0, 81, 87
2, 21698, Note_on_c, 0, 69, 0
2, 21745, Note_on_c, 0, 76, 0
2, 21745, Note_on_c, 0, 79, 0
2, 21745, Note_on_c, 0, 81, 0
2, 21750, Note_on_c, 0, 67, 79
2, 21780, Note_on_c, 0, 79, 84
2, 21780, Note_on_c, 0, 76, 84
2, 21780, Note_on_c, 0, 72, 84
2, 21788, Note_on_c, 0, 67, 0
2, 21835, Note_on_c, 0, 79, 0
2, 21835, Note_on_c, 0, 76, 0
2, 21835, Note_on_c, 0, 72, 0
2, 21870, Note_on_c, 0, 67, 90
2, 21870, Note_on_c, 0, 79, 90
2, 21925, Note_on_c, 0, 79, 0
2, 21925, Note_on_c, 0, 67, 0
2, 21930, Note_on_c, 0, 76, 83
2, 21930, Note_on_c, 0, 72, 83
2, 21960, Note_on_c, 0, 79, 86
2, 21960, Note_on_c, 0, 67, 86
2, 21968, Note_on_c, 0, 72, 0
2, 21968, Note_on_c, 0, 76, 0
2, 22020, Note_on_c, 0, 68, 89
2, 22020, Note_on_c, 0, 80, 89
2, 22021, Note_on_c, 0, 79, 0
2, 22021, Note_on_c, 0, 67, 0
2, 22075, Note_on_c, 0, 68, 0
2, 22075, Note_on_c, 0, 80, 0
2, 22080, Note_on_c, 0, 69, 96
2, 22080, Note_on_c, 0, 81, 96
2, 22135, Note_on_c, 0, 81, 0
2, 22135, Note_on_c, 0, 69, 0
2, 22140, Note_on_c, 0, 77, 82
2, 22140, Note_on_c, 0, 74, 82
2, 22170, Note_on_c, 0, 69, 99
2, 22170, Note_on_c, 0, 81, 99
2, 22178, Note_on_c, 0, 74, 0
2, 22178, Note_on_c, 0, 77, 0
2, 22225, Note_on_c, 0, 69, 0
2, 22225, Note_on_c, 0, 81, 0
2, 22230, Note_on_c, 0, 77, 81
2, 22230, Note_on_c, 0, 74, 81
2, 22260, Note_on_c, 0, 81, 94
2, 22260, Note_on_c, 0, 69, 94
2, 22268, Note_on_c, 0, 74, 0
2, 22268, Note_on_c, 0, 77, 0
2, 22315, Note_on_c, 0, 81, 0
2, 22315, Note_on_c, 0, 69, 0
2, 22350, Note_on_c, 0, 69, 95
2, 22350, Note_on_c, 0, 81, 95
2, 22405, Note_on_c, 0, 81, 0
2, 22405, Note_on_c, 0, 69, 0
2, 22410, Note_on_c, 0, 77, 81
2, 22410, Note_on_c, 0, 74, 81
2, 22440, Note_on_c, 0, 81, 90
2, 22440, Note_on_c, 0, 69, 90
2, 22448, Note_on_c, 0, 74, 0
2, 22448, Note_on_c, 0, 77, 0
2, 22523, Note_on_c, 0, 81, 0
2, 22523, Note_on_c, 0, 69, 0
2, 22530, Note_on_c, 0, 80, 93
2, 22530, Note_on_c, 0, 68, 93
2, 22585, Note_on_c, 0, 68, 0
2, 22585, Note_on_c, 0, 80, 0
2, 22590, Note_on_c, 0, 67, 84
2, 22590, Note_on_c, 0, 79, 84
2, 22645, Note_on_c, 0, 79, 0
2, 22645, Note_on_c, 0, 67, 0
2, 22650, Note_on_c, 0, 76, 82
2, 22650, Note_on_c, 0, 72, 82
2, 22680, Note_on_c, 0, 69, 92
2, 22680, Note_on_c, 0, 81, 92
2, 22681, Note_on_c, 0, 72, 0
2, 22681, Note_on_c, 0, 76, 0
2, 22710, Note_on_c, 0, 76, 85
2, 22710, Note_on_c, 0, 73, 85
2, 22718, Note_on_c, 0, 69, 0
2, 22718, Note_on_c, 0, 81, 0
2, 22765, Note_on_c, 0, 76, 0
2, 22765, Note_on_c, 0, 73, 0
2, 22770, Note_on_c, 0, 81, 98
2, 22770, Note_on_c, 0, 69, 98
2, 22825, Note_on_c, 0, 69, 0
2, 22825, Note_on_c, 0, 81, 0
2, 22830, Note_on_c, 0, 76, 88
2, 22830, Note_on_c, 0, 66, 88
2, 22885, Note_on_c, 0, 66, 0
2, 22885, Note_on_c, 0, 76, 0
2, 22890, Note_on_c, 0, 72, 79
2, 22920, Note_on_c, 0, 76, 91
2, 22920, Note_on_c, 0, 65, 91
2, 22921, Note_on_c, 0, 72, 0
2, 22950, Note_on_c, 0, 71, 81
2, 22958, Note_on_c, 0, 65, 0
2, 22958, Note_on_c, 0, 76, 0
2, 22980, Note_on_c, 0, 74, 88
2, 22980, Note_on_c, 0, 65, 88
2, 22981, Note_on_c, 0, 71, 0
2, 23010, Note_on_c, 0, 72, 87
2, 23010, Note_on_c, 0, 64, 87
2, 23018, Note_on_c, 0, 65, 0
2, 23018, Note_on_c, 0, 74, 0
2, 23107, Note_on_c, 0, 72, 0
2, 23107, Note_on_c, 0, 64, 0
2, 23160, Note_on_c, 0, 72, 97
2, 23160, Note_on_c, 0, 76, 97
2, 23160, Note_on_c, 0, 79, 97
2, 23160, Note_on_c, 0, 84, 97
2, 23215, Note_on_c, 0, 84, 0
2, 23215, Note_on_c, 0, 72, 0
2, 23215, Note_on_c, 0, 76, 0
2, 23215, Note_on_c, 0, 79, 0
2, 23310, Note_on_c, 0, 76, 81
2, 23310, Note_on_c, 0, 72, 81
2, 23340, Note_on_c, 0, 67, 89
2, 23340, Note_on_c, 0, 79, 89
2, 23341, Note_on_c, 0, 72, 0
2, 23341, Note_on_c, 0, 76, 0
2, 23370, Note_on_c, 0, 76, 85
2, 23370, Note_on_c, 0, 72, 85
2, 23378, Note_on_c, 0, 67, 0
2, 23378, Note_on_c, 0, 79, 0
2, 23425, Note_on_c, 0, 76, 0
2, 23425, Note_on_c, 0, 72, 0
2, 23430, Note_on_c, 0, 72, 92
2, 23430, Note_on_c, 0, 76, 92
2, 23430, Note_on_c, 0, 79, 92
2, 23430, Note_on_c, 0, 84, 92
2, 23485, Note_on_c, 0, 84, 0
2, 23485, Note_on_c, 0, 72, 0
2, 23485, Note_on_c, 0, 76, 0
2, 23485, Note_on_c, 0, 79, 0
2, 23490, Note_on_c, 0, 71, 87
2, 23520, Note_on_c, 0, 76, 95
2, 23520, Note_on_c, 0, 79, 95
2, 23520, Note_on_c, 0, 83, 95
2, 23528, Note_on_c, 0, 71, 0
2, 23575, Note_on_c, 0, 76, 0
2, 23575, Note_on_c, 0, 79, 0
2, 23575, Note_on_c, 0, 83, 0
2, 23580, Note_on_c, 0, 69, 87
2, 23610, Note_on_c, 0, 76, 89
2, 23610, Note_on_c, 0, 79, 89
2, 23610, Note_on_c, 0, 81, 89
2, 23618, Note_on_c, 0, 69, 0
2, 23665, Note_on_c, 0, 76, 0
2, 23665, Note_on_c, 0, 79, 0
2, 23665, Note_on_c, 0, 81, 0
2, 23670, Note_on_c, 0, 67, 87
2, 23700, Note_on_c, 0, 79, 90
2, 23700, Note_on_c, 0, 76, 90
2, 23700, Note_on_c, 0, 72, 90
2, 23708, Note_on_c, 0, 67, 0
2, 23755, Note_on_c, 0, 79, 0
2, 23755, Note_on_c, 0, 76, 0
2, 23755, Note_on_c, 0, 72, 0
2, 23790, Note_on_c, 0, 67, 98
2, 23790, Note_on_c, 0, 79, 98
2, 23845, Note_on_c, 0, 79, 0
2, 23845, Note_on_c, 0, 67, 0
2, 23850, Note_on_c, 0, 76, 81
2, 23850, Note_on_c, 0, 72, 81
2, 23880, Note_on_c, 0, 79, 87
2, 23880, Note_on_c, 0, 67, 87
2, 23888, Note_on_c, 0, 72, 0
2, 23888, Note_on_c, 0, 76, 0
2, 23940, Note_on_c, 0, 69, 88
2, 23940, Note_on_c, 0, 81, 88
2, 23941, Note_on_c, 0, 79, 0
2, 23941, Note_on_c, 0, 67, 0
2, 23995, Note_on_c, 0, 69, 0
2, 23995, Note_on_c, 0, 81, 0
2, 24000, Note_on_c, 0, 83, 97
2, 24000, Note_on_c, 0, 71, 97
2, 24055, Note_on_c, 0, 71, 0
2, 24055, Note_on_c, 0, 83, 0
2, 24060, Note_on_c, 0, 77, 88
2, 24060, Note_on_c, 0, 74, 88
2, 24090, Note_on_c, 0, 83, 97
2, 24090, Note_on_c, 0, 71, 97
2, 24098, Note_on_c, 0, 74, 0
2, 24098, Note_on_c, 0, 77, 0
2, 24145, Note_on_c, 0, 83, 0
2, 24145, Note_on_c, 0, 71, 0
2, 24150, Note_on_c, 0, 77, 88
2, 24150, Note_on_c, 0, 74, 88
2, 24180, Note_on_c, 0, 83, 88
2, 24180, Note_on_c, 0, 71, 88
2, 24188, Note_on_c, 0, 74, 0
2, 24188, Note_on_c, 0, 77, 0
2, 24235, Note_on_c, 0, 83, 0
2, 24235, Note_on_c, 0, 71, 0
2, 24270, Note_on_c, 0, 74, 86
2, 24270, Note_on_c, 0, 71, 86
2, 24300, Note_on_c, 0, 65, 97
2, 24300, Note_on_c, 0, 77, 97
2, 24301, Note_on_c, 0, 71, 0
2, 24301, Note_on_c, 0, 74, 0
2, 24330, Note_on_c, 0, 74, 87
2, 24330, Note_on_c, 0, 71, 87
2, 24338, Note_on_c, 0, 65, 0
2, 24338, Note_on_c, 0, 77, 0
2, 24361, Note_on_c, 0, 74, 0
2, 24361, Note_on_c, 0, 71, 0
2, 24390, Note_on_c, 0, 70, 81
2, 24390, Note_on_c, 0, 74, 81
2, 24420, Note_on_c, 0, 77, 95
2, 24420, Note_on_c, 0, 65, 95
2, 24421, Note_on_c, 0, 74, 0
2, 24421, Note_on_c, 0, 70, 0
2, 24450, Note_on_c, 0, 74, 86
2, 24450, Note_on_c, 0, 70, 86
2, 24458, Note_on_c, 0, 77, 0
2, 24458, Note_on_c, 0, 65, 0
2, 24481, Note_on_c, 0, 74, 0
2, 24481, Note_on_c, 0, 70, 0
2, 24510, Note_on_c, 0, 69, 81
2, 24510, Note_on_c, 0, 74, 81
2, 24540, Note_on_c, 0, 77, 95
2, 24540, Note_on_c, 0, 65, 95
2, 24541, Note_on_c, 0, 74, 0
2, 24541, Note_on_c, 0, 69, 0
2, 24570, Note_on_c, 0, 69, 81
2, 24570, Note_on_c, 0, 74, 81
2, 24578, Note_on_c, 0, 77, 0
2, 24578, Note_on_c, 0, 65, 0
2, 24601, Note_on_c, 0, 69, 0
2, 24601, Note_on_c, 0, 74, 0
2, 24630, Note_on_c, 0, 74, 81
2, 24630, Note_on_c, 0, 68, 81
2, 24660, Note_on_c, 0, 65, 99
2, 24660, Note_on_c, 0, 77, 99
2, 24661, Note_on_c, 0, 68, 0
2, 24661, Note_on_c, 0, 74, 0
2, 24690, Note_on_c, 0, 74, 85
2, 24690, Note_on_c, 0, 68, 85
2, 24698, Note_on_c, 0, 65, 0
2, 24698, Note_on_c, 0, 77, 0
2, 24720, Note_on_c, 0, 65, 93
2, 24720, Note_on_c, 0, 77, 93
2, 24721, Note_on_c, 0, 74, 0
2, 24721, Note_on_c, 0, 68, 0
2, 24780, Note_on_c, 0, 67, 86
2, 24780, Note_on_c, 0, 79, 86
2, 24781, Note_on_c, 0, 65, 0
2, 24781, Note_on_c, 0, 77, 0
2, 24810, Note_on_c, 0, 81, 88
2, 24810, Note_on_c, 0, 69, 88
2, 24818, Note_on_c, 0, 67, 0
2, 24818, Note_on_c, 0, 79, 0
2, 24865, Note_on_c, 0, 81, 0
2, 24865, Note_on_c, 0, 69, 0
2, 24870, Note_on_c, 0, 77, 91
2, 24900, Note_on_c, 0, 83, 100
2, 24900, Note_on_c, 0, 71, 100
2, 24901, Note_on_c, 0, 77, 0
2, 24930, Note_on_c, 0, 77, 81
2, 24938, Note_on_c, 0, 71, 0
2, 24938, Note_on_c, 0, 83, 0
2, 24960, Note_on_c, 0, 69, 89
2, 24960, Note_on_c, 0, 76, 89
2, 24960, Note_on_c, 0, 81, 89
2, 24961, Note_on_c, 0, 77, 0
2, 25015, Note_on_c, 0, 69, 0
2, 25015, Note_on_c, 0, 76, 0
2, 25015, Note_on_c, 0, 81, 0
2, 25020, Note_on_c, 0, 68, 81
2, 25020, Note_on_c, 0, 76, 81
2, 25020, Note_on_c, 0, 80, 81
2, 25048, Note_on_c, 0, 76, 0
2, 25050, Note_on_c, 0, 79, 91
2, 25050, Note_on_c, 0, 76, 91
2, 25050, Note_on_c, 0, 67, 91
2, 25058, Note_on_c, 0, 80, 0
2, 25058, Note_on_c, 0, 68, 0
2, 25105, Note_on_c, 0, 76, 0
2, 25105, Note_on_c, 0, 79, 0
2, 25105, Note_on_c, 0, 67, 0
2, 25110, Note_on_c, 0, 76, 81
2, 25140, Note_on_c, 0, 79, 89
2, 25140, Note_on_c, 0, 67, 89
2, 25144, Note_on_c, 0, 76, 0
2, 25201, Note_on_c, 0, 67, 0
2, 25201, Note_on_c, 0, 79, 0
2, 25230, Note_on_c, 0, 76, 84
2, 25230, Note_on_c, 0, 72, 84
2, 25260, Note_on_c, 0, 67, 93
2, 25260, Note_on_c, 0, 79, 93
2, 25261, Note_on_c, 0, 72, 0
2, 25261, Note_on_c, 0, 76, 0
2, 25290, Note_on_c, 0, 76, 81
2, 25290, Note_on_c, 0, 72, 81
2, 25298, Note_on_c, 0, 67, 0
2, 25298, Note_on_c, 0, 79, 0
2, 25345, Note_on_c, 0, 76, 0
2, 25345, Note_on_c, 0, 72, 0
2, 25350, Note_on_c, 0, 72, 100
2, 25350, Note_on_c, 0, 76, 100
2, 25350, Note_on_c, 0, 79, 100
2, 25350, Note_on_c, 0, 84, 100
2, 25405, Note_on_c, 0, 84, 0
2, 25405, Note_on_c, 0, 72, 0
2, 25405, Note_on_c, 0, 76, 0
2, 25405, Note_on_c, 0, 79, 0
2, 25410, Note_on_c, 0, 71, 81
2, 25440, Note_on_c, 0, 76, 89
2, 25440, Note_on_c, 0, 79, 89
2, 25440, Note_on_c, 0, 83, 89
2, 25448, Note_on_c, 0, 71, 0
2, 25495, Note_on_c, 0, 76, 0
2, 25495, Note_on_c, 0, 79, 0
2, 25495, Note_on_c, 0, 83, 0
2, 25500, Note_on_c, 0, 69, 84
2, 25530, Note_on_c, 0, 76, 93
2, 25530, Note_on_c, 0, 79, 93
2, 25530, Note_on_c, 0, 81, 93
2, 25538, Note_on_c, 0, 69, 0
2, 25585, Note_on_c, 0, 76, 0
2, 25585, Note_on_c, 0, 79, 0
2, 25585, Note_on_c, 0, 81, 0
2, 25590, Note_on_c, 0, 67, 85
2, 25620, Note_on_c, 0, 79, 90
2, 25620, Note_on_c, 0, 76, 90
2, 25620, Note_on_c, 0, 72, 90
2, 25628, Note_on_c, 0, 67, 0
2, 25675, Note_on_c, 0, 79, 0
2, 25675, Note_on_c, 0, 76, 0
2, 25675, Note_on_c, 0, 72, 0
2, 25710, Note_on_c, 0, 67, 97
2, 25710, Note_on_c, 0, 79, 97
2, 25765, Note_on_c, 0, 79, 0
2, 25765, Note_on_c, 0, 67, 0
2, 25770, Note_on_c, 0, 76, 89
2, 25770, Note_on_c, 0, 72, 89
2, 25800, Note_on_c, 0, 79, 92
2, 25800, Note_on_c, 0, 67, 92
2, 25808, Note_on_c, 0, 72, 0
2, 25808, Note_on_c, 0, 76, 0
2, 25860, Note_on_c, 0, 68, 96
2, 25860, Note_on_c, 0, 80, 96
2, 25861, Note_on_c, 0, 79, 0
2, 25861, Note_on_c, 0, 67, 0
2, 25915, Note_on_c, 0, 68, 0
2, 25915, Note_on_c, 0, 80, 0
2, 25920, Note_on_c, 0, 69, 103
2, 25920, Note_on_c, 0, 81, 103
2, 25975, Note_on_c, 0, 81, 0
2, 25975, Note_on_c, 0, 69, 0
2, 25980, Note_on_c, 0, 77, 88
2, 25980, Note_on_c, 0, 74, 88
2, 26010, Note_on_c, 0, 69, 106
2, 26010, Note_on_c, 0, 81, 106
2, 26018, Note_on_c, 0, 74, 0
2, 26018, Note_on_c, 0, 77, 0
2, 26065, Note_on_c, 0, 69, 0
2, 26065, Note_on_c, 0, 81, 0
2, 26070, Note_on_c, 0, 77, 87
2, 26070, Note_on_c, 0, 74, 87
2, 26100, Note_on_c, 0, 81, 101
2, 26100, Note_on_c, 0, 69, 101
2, 26108, Note_on_c, 0, 74, 0
2, 26108, Note_on_c, 0, 77, 0
2, 26155, Note_on_c, 0, 81, 0
2, 26155, Note_on_c, 0, 69, 0
2, 26190, Note_on_c, 0, 69, 102
2, 26190, Note_on_c, 0, 81, 102
2, 26245, Note_on_c, 0, 81, 0
2, 26245, Note_on_c, 0, 69, 0
2, 26250, Note_on_c, 0, 77, 87
2, 26250, Note_on_c, 0, 74, 87
2, 26280, Note_on_c, 0, 81, 97
2, 26280, Note_on_c, 0, 69, 97
2, 26288, Note_on_c, 0, 74, 0
2, 26288, Note_on_c, 0, 77, 0
2, 26363, Note_on_c, 0, 81, 0
2, 26363, Note_on_c, 0, 69, 0
2, 26370, Note_on_c, 0, 80, 100
2, 26370, Note_on_c, 0, 68, 100
2, 26425, Note_on_c, 0, 68, 0
2, 26425, Note_on_c, 0, 80, 0
2, 26430, Note_on_c, 0, 67, 90
2, 26430, Note_on_c, 0, 79, 90
2, 26485, Note_on_c, 0, 79, 0
2, 26485, Note_on_c, 0, 67, 0
2, 26490, Note_on_c, 0, 76, 88
2, 26490, Note_on_c, 0, 72, 88
2, 26520, Note_on_c, 0, 69, 99
2, 26520, Note_on_c, 0, 81, 99
2, 26521, Note_on_c, 0, 72, 0
2, 26521, Note_on_c, 0, 76, 0
2, 26550, Note_on_c, 0, 76, 91
2, 26550, Note_on_c, 0, 73, 91
2, 26558, Note_on_c, 0, 69, 0
2, 26558, Note_on_c, 0, 81, 0
2, 26605, Note_on_c, 0, 76, 0
2, 26605, Note_on_c, 0, 73, 0
2, 26610, Note_on_c, 0, 81, 105
2, 26610, Note_on_c, 0, 69, 105
2, 26665, Note_on_c, 0, 69, 0
2, 26665, Note_on_c, 0, 81, 0
2, 26670, Note_on_c, 0, 76, 95
2, 26670, Note_on_c, 0, 66, 95
2, 26725, Note_on_c, 0, 66, 0
2, 26725, Note_on_c, 0, 76, 0
2, 26730, Note_on_c, 0, 72, 85
2, 26760, Note_on_c, 0, 76, 98
2, 26760, Note_on_c, 0, 65, 98
2, 26761, Note_on_c, 0, 72, 0
2, 26790, Note_on_c, 0, 71, 87
2, 26798, Note_on_c, 0, 65, 0
2, 26798, Note_on_c, 0, 76, 0
2, 26820, Note_on_c, 0, 74, 95
2, 26820, Note_on_c, 0, 65, 95
2, 26821, Note_on_c, 0, 71, 0
2, 26850, Note_on_c, 0, 72, 93
2, 26850, Note_on_c, 0, 64, 93
2, 26858, Note_on_c, 0, 65, 0
2, 26858, Note_on_c, 0, 74, 0
2, 26947, Note_on_c, 0, 72, 0
2, 26947, Note_on_c, 0, 64, 0
2, 27000, Note_on_c, 0, 72, 104
2, 27000, Note_on_c, 0, 76, 104
2, 27000, Note_on_c, 0, 79, 104
2, 27000, Note_on_c, 0, 84, 104
2, 27055, Note_on_c, 0, 84, 0
2, 27055, Note_on_c, 0, 72, 0
2, 27055, Note_on_c, 0, 76, 0
2, 27055, Note_on_c, 0, 79, 0
2, 27120, Note_on_c, 0, 76, 86
2, 27150, Note_on_c, 0, 80, 78
2, 27158, Note_on_c, 0, 76, 0
2, 27180, Note_on_c, 0, 83, 86
2, 27181, Note_on_c, 0, 80, 0
2, 27210, Note_on_c, 0, 88, 98
2, 27210, Note_on_c, 0, 76, 98
2, 27218, Note_on_c, 0, 83, 0
2, 27265, Note_on_c, 0, 76, 0
2, 27265, Note_on_c, 0, 88, 0
2, 27270, Note_on_c, 0, 83, 86
2, 27300, Note_on_c, 0, 80, 91
2, 27301, Note_on_c, 0, 83, 0
2, 27330, Note_on_c, 0, 76, 98
2, 27338, Note_on_c, 0, 80, 0
2, 27385, Note_on_c, 0, 76, 0
2, 27390, Note_on_c, 0, 80, 79
2, 27420, Note_on_c, 0, 83, 89
2, 27421, Note_on_c, 0, 80, 0
2, 27450, Note_on_c, 0, 88, 106
2, 27450, Note_on_c, 0, 76, 106
2, 27458, Note_on_c, 0, 83, 0
2, 27505, Note_on_c, 0, 76, 0
2, 27505, Note_on_c, 0, 88, 0
2, 27510, Note_on_c, 0, 86, 86
2, 27540, Note_on_c, 0, 84, 92
2, 27540, Note_on_c, 0, 80, 92
2, 27541, Note_on_c, 0, 86, 0
2, 27570, Note_on_c, 0, 83, 82
2, 27578, Note_on_c, 0, 80, 0
2, 27578, Note_on_c, 0, 84, 0
2, 27600, Note_on_c, 0, 76, 103
2, 27600, Note_on_c, 0, 84, 103
2, 27601, Note_on_c, 0, 83, 0
2, 27655, Note_on_c, 0, 84, 0
2, 27655, Note_on_c, 0, 76, 0
2, 27660, Note_on_c, 0, 74, 88
2, 27660, Note_on_c, 0, 83, 88
2, 27690, Note_on_c, 0, 81, 95
2, 27690, Note_on_c, 0, 72, 95
2, 27698, Note_on_c, 0, 83, 0
2, 27698, Note_on_c, 0, 74, 0
2, 27745, Note_on_c, 0, 81, 0
2, 27745, Note_on_c, 0, 72, 0
2, 27750, Note_on_c, 0, 68, 73
2, 27780, Note_on_c, 0, 69, 78
2, 27781, Note_on_c, 0, 68, 0
2, 27810, Note_on_c, 0, 71, 73
2, 27818, Note_on_c, 0, 69, 0
2, 27840, Note_on_c, 0, 72, 84
2, 27840, Note_on_c, 0, 64, 84
2, 27841, Note_on_c, 0, 71, 0
2, 27895, Note_on_c, 0, 64, 0
2, 27895, Note_on_c, 0, 72, 0
2, 27900, Note_on_c, 0, 71, 75
2, 27900, Note_on_c, 0, 62, 75
2, 27930, Note_on_c, 0, 69, 80
2, 27930, Note_on_c, 0, 60, 80
2, 27938, Note_on_c, 0, 62, 0
2, 27938, Note_on_c, 0, 71, 0
2, 27985, Note_on_c, 0, 69, 0
2, 27985, Note_on_c, 0, 60, 0
2, 27990, Note_on_c, 0, 69, 79
2, 28020, Note_on_c, 0, 72, 89
2, 28021, Note_on_c, 0, 69, 0
2, 28050, Note_on_c, 0, 81, 96
2, 28058, Note_on_c, 0, 72, 0
2, 28081, Note_on_c, 0, 81, 0
2, 28110, Note_on_c, 0, 74, 97
2, 28140, Note_on_c, 0, 78, 81
2, 28141, Note_on_c, 0, 74, 0
2, 28170, Note_on_c, 0, 81, 90
2, 28178, Note_on_c, 0, 78, 0
2, 28200, Note_on_c, 0, 74, 98
2, 28200, Note_on_c, 0, 86, 98
2, 28201, Note_on_c, 0, 81, 0
2, 28230, Note_on_c, 0, 81, 85
2, 28238, Note_on_c, 0, 86, 0
2, 28238, Note_on_c, 0, 74, 0
2, 28260, Note_on_c, 0, 78, 88
2, 28261, Note_on_c, 0, 81, 0
2, 28290, Note_on_c, 0, 74, 100
2, 28298, Note_on_c, 0, 78, 0
2, 28345, Note_on_c, 0, 74, 0
2, 28350, Note_on_c, 0, 78, 82
2, 28380, Note_on_c, 0, 81, 86
2, 28381, Note_on_c, 0, 78, 0
2, 28410, Note_on_c, 0, 86, 98
2, 28410, Note_on_c, 0, 74, 98
2, 28418, Note_on_c, 0, 81, 0
2, 28465, Note_on_c, 0, 74, 0
2, 28465, Note_on_c, 0, 86, 0
2, 28470, Note_on_c, 0, 84, 87
2, 28500, Note_on_c, 0, 83, 93
2, 28501, Note_on_c, 0, 84, 0
2, 28530, Note_on_c, 0, 81, 83
2, 28538, Note_on_c, 0, 83, 0
2, 28560, Note_on_c, 0, 83, 103
2, 28560, Note_on_c, 0, 74, 103
2, 28561, Note_on_c, 0, 81, 0
2, 28615, Note_on_c, 0, 74, 0
2, 28615, Note_on_c, 0, 83, 0
2, 28620, Note_on_c, 0, 72, 83
2, 28620, Note_on_c, 0, 81, 83
2, 28650, Note_on_c, 0, 71, 93
2, 28650, Note_on_c, 0, 79, 93
2, 28658, Note_on_c, 0, 81, 0
2, 28658, Note_on_c, 0, 72, 0
2, 28705, Note_on_c, 0, 71, 0
2, 28705, Note_on_c, 0, 79, 0
2, 28710, Note_on_c, 0, 66, 70
2, 28740, Note_on_c, 0, 67, 79
2, 28741, Note_on_c, 0, 66, 0
2, 28770, Note_on_c, 0, 69, 72
2, 28778, Note_on_c, 0, 67, 0
2, 28800, Note_on_c, 0, 62, 84
2, 28800, Note_on_c, 0, 71, 84
2, 28801, Note_on_c, 0, 69, 0
2, 28855, Note_on_c, 0, 71, 0
2, 28855, Note_on_c, 0, 62, 0
2, 28860, Note_on_c, 0, 60, 73
2, 28860, Note_on_c, 0, 69, 73
2, 28890, Note_on_c, 0, 67, 80
2, 28890, Note_on_c, 0, 59, 80
2, 28898, Note_on_c, 0, 69, 0
2, 28898, Note_on_c, 0, 60, 0
2, 28945, Note_on_c, 0, 67, 0
2, 28945, Note_on_c, 0, 59, 0
2, 28950, Note_on_c, 0, 67, 78
2, 28980, Note_on_c, 0, 71, 79
2, 28984, Note_on_c, 0, 67, 0
2, 29010, Note_on_c, 0, 79, 89
2, 29022, Note_on_c, 0, 71, 0
2, 29038, Note_on_c, 0, 79, 0
2, 29040, Note_on_c, 0, 76, 99
2, 29040, Note_on_c, 0, 84, 99
2, 29068, Note_on_c, 0, 76, 0
2, 29070, Note_on_c, 0, 83, 91
2, 29070, Note_on_c, 0, 76, 91
2, 29082, Note_on_c, 0, 84, 0
2, 29098, Note_on_c, 0, 76, 0
2, 29100, Note_on_c, 0, 84, 94
2, 29100, Note_on_c, 0, 76, 94
2, 29104, Note_on_c, 0, 83, 0
2, 29128, Note_on_c, 0, 76, 0
2, 29130, Note_on_c, 0, 81, 100
2, 29130, Note_on_c, 0, 76, 100
2, 29142, Note_on_c, 0, 84, 0
2, 29185, Note_on_c, 0, 76, 0
2, 29185, Note_on_c, 0, 81, 0
2, 29190, Note_on_c, 0, 80, 79
2, 29190, Note_on_c, 0, 76, 79
2, 29218, Note_on_c, 0, 76, 0
2, 29220, Note_on_c, 0, 81, 81
2, 29220, Note_on_c, 0, 76, 81
2, 29224, Note_on_c, 0, 80, 0
2, 29248, Note_on_c, 0, 76, 0
2, 29250, Note_on_c, 0, 79, 93
2, 29250, Note_on_c, 0, 76, 93
2, 29262, Note_on_c, 0, 81, 0
2, 29305, Note_on_c, 0, 76, 0
2, 29305, Note_on_c, 0, 79, 0
2, 29310, Note_on_c, 0, 75, 79
2, 29310, Note_on_c, 0, 78, 79
2, 29340, Note_on_c, 0, 79, 86
2, 29340, Note_on_c, 0, 76, 86
2, 29344, Note_on_c, 0, 78, 0
2, 29344, Note_on_c, 0, 75, 0
2, 29368, Note_on_c, 0, 76, 0
2, 29370, Note_on_c, 0, 67, 91
2, 29370, Note_on_c, 0, 76, 91
2, 29382, Note_on_c, 0, 79, 0
2, 29425, Note_on_c, 0, 76, 0
2, 29425, Note_on_c, 0, 67, 0
2, 29430, Note_on_c, 0, 66, 81
2, 29430, Note_on_c, 0, 75, 81
2, 29460, Note_on_c, 0, 76, 87
2, 29460, Note_on_c, 0, 67, 87
2, 29472, Note_on_c, 0, 75, 0
2, 29472, Note_on_c, 0, 66, 0
2, 29515, Note_on_c, 0, 76, 0
2, 29515, Note_on_c, 0, 67, 0
2, 29520, Note_on_c, 0, 62, 92
2, 29520, Note_on_c, 0, 71, 92
2, 29550, Note_on_c, 0, 70, 78
2, 29550, Note_on_c, 0, 61, 78
2, 29562, Note_on_c, 0, 71, 0
2, 29562, Note_on_c, 0, 62, 0
2, 29580, Note_on_c, 0, 62, 85
2, 29580, Note_on_c, 0, 71, 85
2, 29584, Note_on_c, 0, 70, 0
2, 29584, Note_on_c, 0, 61, 0
2, 29610, Note_on_c, 0, 59, 101
2, 29610, Note_on_c, 0, 67, 101
2, 29622, Note_on_c, 0, 62, 0
2, 29622, Note_on_c, 0, 71, 0
2, 29665, Note_on_c, 0, 59, 0
2, 29665, Note_on_c, 0, 67, 0
2, 29670, Note_on_c, 0, 58, 86
2, 29670, Note_on_c, 0, 66, 86
2, 29700, Note_on_c, 0, 67, 94
2, 29700, Note_on_c, 0, 59, 94
2, 29704, Note_on_c, 0, 66, 0
2, 29704, Note_on_c, 0, 58, 0
2, 29728, Note_on_c, 0, 59, 0
2, 29730, Note_on_c, 0, 62, 90
2, 29730, Note_on_c, 0, 59, 90
2, 29742, Note_on_c, 0, 67, 0
2, 29785, Note_on_c, 0, 59, 0
2, 29785, Note_on_c, 0, 62, 0
2, 29790, Note_on_c, 0, 60, 85
2, 29790, Note_on_c, 0, 57, 85
2, 29820, Note_on_c, 0, 62, 91
2, 29820, Note_on_c, 0, 59, 91
2, 29824, Note_on_c, 0, 57, 0
2, 29824, Note_on_c, 0, 60, 0
2, 29848, Note_on_c, 0, 59, 0
2, 29850, Note_on_c, 0, 59, 99
2, 29850, Note_on_c, 0, 55, 99
2, 29862, Note_on_c, 0, 62, 0
2, 29933, Note_on_c, 0, 55, 0
2, 29933, Note_on_c, 0, 59, 0
2, 29945, Note_on_c, 0, 67, 83
2, 29962, Note_on_c, 0, 69, 79
2, 29976, Note_on_c, 0, 67, 0
2, 29980, Note_on_c, 0, 71, 88
2, 29999, Note_on_c, 0, 69, 0
2, 30000, Note_on_c, 0, 72, 100
2, 30011, Note_on_c, 0, 71, 0
2, 30030, Note_on_c, 0, 71, 86
2, 30042, Note_on_c, 0, 72, 0
2, 30060, Note_on_c, 0, 72, 93
2, 30064, Note_on_c, 0, 71, 0
2, 30090, Note_on_c, 0, 69, 98
2, 30090, Note_on_c, 0, 64, 98
2, 30102, Note_on_c, 0, 72, 0
2, 30298, Note_on_c, 0, 64, 0
2, 30298, Note_on_c, 0, 69, 0
2, 30300, Note_on_c, 0, 67, 81
2, 30330, Note_on_c, 0, 69, 84
2, 30330, Note_on_c, 0, 64, 84
2, 30342, Note_on_c, 0, 67, 0
2, 30385, Note_on_c, 0, 64, 0
2, 30385, Note_on_c, 0, 69, 0
2, 30390, Note_on_c, 0, 72, 79
2, 30420, Note_on_c, 0, 76, 87
2, 30424, Note_on_c, 0, 72, 0
2, 30450, Note_on_c, 0, 79, 91
2, 30462, Note_on_c, 0, 76, 0
2, 30478, Note_on_c, 0, 79, 0
2, 30480, Note_on_c, 0, 84, 100
2, 30480, Note_on_c, 0, 72, 100
2, 30510, Note_on_c, 0, 78, 90
2, 30518, Note_on_c, 0, 72, 0
2, 30518, Note_on_c, 0, 84, 0
2, 30540, Note_on_c, 0, 81, 94
2, 30541, Note_on_c, 0, 78, 0
2, 30570, Note_on_c, 0, 84, 107
2, 30570, Note_on_c, 0, 72, 107
2, 30578, Note_on_c, 0, 81, 0
2, 30625, Note_on_c, 0, 72, 0
2, 30625, Note_on_c, 0, 84, 0
2, 30630, Note_on_c, 0, 77, 88
2, 30660, Note_on_c, 0, 74, 102
2, 30660, Note_on_c, 0, 86, 102
2, 30661, Note_on_c, 0, 77, 0
2, 30690, Note_on_c, 0, 84, 95
2, 30690, Note_on_c, 0, 76, 95
2, 30690, Note_on_c, 0, 72, 95
2, 30698, Note_on_c, 0, 86, 0
2, 30698, Note_on_c, 0, 74, 0
2, 30772, Note_on_c, 0, 76, 0
2, 30772, Note_on_c, 0, 84, 0
2, 30772, Note_on_c, 0, 72, 0
2, 30840, Note_on_c, 0, 84, 111
2, 30840, Note_on_c, 0, 88, 111
2, 30840, Note_on_c, 0, 91, 111
2, 30840, Note_on_c, 0, 96, 111
2, 30907, Note_on_c, 0, 96, 0
2, 30907, Note_on_c, 0, 84, 0
2, 30907, Note_on_c, 0, 88, 0
2, 30907, Note_on_c, 0, 91, 0
2, 30907, End_track
3, 0, Start_track
3, 0, MIDI_port, 0
3, 0, Title_t, "by J. Lamb [w/ S. Joplin] (1908) "
3, 0, Program_c, 1, 0
3, 0, Control_c, 1, 7, 127
3, 0, Control_c, 1, 10, 44
3, 0, Control_c, 1, 121, 0
3, 0, Control_c, 1, 1, 0
3, 37, Pitch_bend_c, 1, 8192
3, 38, Control_c, 1, 64, 0
3, 39, Channel_aftertouch_c, 1, 0
3, 40, Control_c, 1, 74, 71
3, 41, Control_c, 1, 71, 68
3, 43, Control_c, 1, 93, 12
3, 43, Control_c, 1, 91, 21
3, 240, Note_on_c, 1, 43, 77
3, 295, Note_on_c, 1, 43, 0
3, 300, Note_on_c, 1, 59, 72
3, 300, Note_on_c, 1, 50, 72
3, 300, Note_on_c, 1, 55, 72
3, 335, Note_on_c, 1, 55, 0
3, 335, Note_on_c, 1, 50, 0
3, 335, Note_on_c, 1, 59, 0
3, 360, Note_on_c, 1, 48, 77
3, 415, Note_on_c, 1, 48, 0
3, 420, Note_on_c, 1, 52, 72
3, 420, Note_on_c, 1, 55, 72
3, 420, Note_on_c, 1, 60, 72
3, 455, Note_on_c, 1, 60, 0
3, 455, Note_on_c, 1, 55, 0
3, 455, Note_on_c, 1, 52, 0
3, 480, Note_on_c, 1, 43, 77
3, 535, Note_on_c, 1, 43, 0
3, 540, Note_on_c, 1, 50, 72
3, 540, Note_on_c, 1, 55, 72
3, 540, Note_on_c, 1, 59, 72
3, 575, Note_on_c, 1, 59, 0
3, 575, Note_on_c, 1, 55, 0
3, 575, Note_on_c, 1, 50, 0
3, 600, Note_on_c, 1, 59, 90
3, 600, Note_on_c, 1, 47, 90
3, 655, Note_on_c, 1, 47, 0
3, 655, Note_on_c, 1, 59, 0
3, 660, Note_on_c, 1, 46, 86
3, 660, Note_on_c, 1, 58, 86
3, 715, Note_on_c, 1, 58, 0
3, 715, Note_on_c, 1, 46, 0
3, 720, Note_on_c, 1, 57, 86
3, 720, Note_on_c, 1, 45, 86
3, 775, Note_on_c, 1, 45, 0
3, 775, Note_on_c, 1, 57, 0
3, 780, Note_on_c, 1, 60, 72
3, 780, Note_on_c, 1, 57, 72
3, 780, Note_on_c, 1, 52, 72
3, 815, Note_on_c, 1, 52, 0
3, 815, Note_on_c, 1, 57, 0
3, 815, Note_on_c, 1, 60, 0
3, 840, Note_on_c, 1, 47, 77
3, 895, Note_on_c, 1, 47, 0
3, 900, Note_on_c, 1, 52, 72
3, 900, Note_on_c, 1, 56, 72
3, 900, Note_on_c, 1, 62, 72
3, 935, Note_on_c, 1, 62, 0
3, 935, Note_on_c, 1, 56, 0
3, 935, Note_on_c, 1, 52, 0
3, 960, Note_on_c, 1, 48, 77
3, 1015, Note_on_c, 1, 48, 0
3, 1020, Note_on_c, 1, 52, 72
3, 1020, Note_on_c, 1, 57, 72
3, 1020, Note_on_c, 1, 60, 72
3, 1055, Note_on_c, 1, 60, 0
3, 1055, Note_on_c, 1, 57, 0
3, 1055, Note_on_c, 1, 52, 0
3, 1080, Note_on_c, 1, 57, 88
3, 1080, Note_on_c, 1, 45, 88
3, 1135, Note_on_c, 1, 45, 0
3, 1135, Note_on_c, 1, 57, 0
3, 1140, Note_on_c, 1, 46, 80
3, 1140, Note_on_c, 1, 58, 80
3, 1195, Note_on_c, 1, 58, 0
3, 1195, Note_on_c, 1, 46, 0
3, 1200, Note_on_c, 1, 47, 77
3, 1200, Note_on_c, 1, 59, 77
3, 1255, Note_on_c, 1, 59, 0
3, 1255, Note_on_c, 1, 47, 0
3, 1260, Note_on_c, 1, 59, 72
3, 1260, Note_on_c, 1, 55, 72
3, 1260, Note_on_c, 1, 50, 72
3, 1295, Note_on_c, 1, 50, 0
3, 1295, Note_on_c, 1, 55, 0
3, 1295, Note_on_c, 1, 59, 0
3, 1320, Note_on_c, 1, 40, 77
3, 1375, Note_on_c, 1, 40, 0
3, 1380, Note_on_c, 1, 52, 72
3, 1380, Note_on_c, 1, 56, 72
3, 1380, Note_on_c, 1, 62, 72
3, 1415, Note_on_c, 1, 62, 0
3, 1415, Note_on_c, 1, 56, 0
3, 1415, Note_on_c, 1, 52, 0
3, 1440, Note_on_c, 1, 45, 77
3, 1495, Note_on_c, 1, 45, 0
3, 1500, Note_on_c, 1, 52, 72
3, 1500, Note_on_c, 1, 55, 72
3, 1500, Note_on_c, 1, 57, 72
3, 1535, Note_on_c, 1, 57, 0
3, 1535, Note_on_c, 1, 55, 0
3, 1535, Note_on_c, 1, 52, 0
3, 1560, Note_on_c, 1, 45, 77
3, 1615, Note_on_c, 1, 45, 0
3, 1620, Note_on_c, 1, 52, 72
3, 1620, Note_on_c, 1, 55, 72
3, 1620, Note_on_c, 1, 57, 72
3, 1655, Note_on_c, 1, 57, 0
3, 1655, Note_on_c, 1, 55, 0
3, 1655, Note_on_c, 1, 52, 0
3, 1680, Note_on_c, 1, 50, 83
3, 1680, Note_on_c, 1, 38, 83
3, 1740, Note_on_c, 1, 39, 90
3, 1740, Note_on_c, 1, 51, 90
3, 1742, Note_on_c, 1, 38, 0
3, 1742, Note_on_c, 1, 50, 0
3, 1795, Note_on_c, 1, 39, 0
3, 1795, Note_on_c, 1, 51, 0
3, 1800, Note_on_c, 1, 50, 88
3, 1800, Note_on_c, 1, 38, 88
3, 1860, Note_on_c, 1, 39, 94
3, 1860, Note_on_c, 1, 51, 94
3, 1862, Note_on_c, 1, 38, 0
3, 1862, Note_on_c, 1, 50, 0
3, 1915, Note_on_c, 1, 39, 0
3, 1915, Note_on_c, 1, 51, 0
3, 1920, Note_on_c, 1, 50, 94
3, 1920, Note_on_c, 1, 38, 94
3, 1952, Note_on_c, 1, 38, 0
3, 1952, Note_on_c, 1, 50, 0
3, 1980, Note_on_c, 1, 39, 90
3, 1980, Note_on_c, 1, 51, 90
3, 2008, Note_on_c, 1, 51, 0
3, 2008, Note_on_c, 1, 39, 0
3, 2040, Note_on_c, 1, 52, 90
3, 2040, Note_on_c, 1, 40, 90
3, 2072, Note_on_c, 1, 40, 0
3, 2072, Note_on_c, 1, 52, 0
3, 2100, Note_on_c, 1, 42, 83
3, 2100, Note_on_c, 1, 54, 83
3, 2128, Note_on_c, 1, 54, 0
3, 2128, Note_on_c, 1, 42, 0
3, 2160, Note_on_c, 1, 43, 77
3, 2215, Note_on_c, 1, 43, 0
3, 2220, Note_on_c, 1, 59, 72
3, 2220, Note_on_c, 1, 50, 72
3, 2220, Note_on_c, 1, 55, 72
3, 2255, Note_on_c, 1, 55, 0
3, 2255, Note_on_c, 1, 50, 0
3, 2255, Note_on_c, 1, 59, 0
3, 2280, Note_on_c, 1, 48, 77
3, 2335, Note_on_c, 1, 48, 0
3, 2340, Note_on_c, 1, 52, 72
3, 2340, Note_on_c, 1, 55, 72
3, 2340, Note_on_c, 1, 60, 72
3, 2375, Note_on_c, 1, 60, 0
3, 2375, Note_on_c, 1, 55, 0
3, 2375, Note_on_c, 1, 52, 0
3, 2400, Note_on_c, 1, 43, 77
3, 2455, Note_on_c, 1, 43, 0
3, 2460, Note_on_c, 1, 50, 72
3, 2460, Note_on_c, 1, 55, 72
3, 2460, Note_on_c, 1, 59, 72
3, 2495, Note_on_c, 1, 59, 0
3, 2495, Note_on_c, 1, 55, 0
3, 2495, Note_on_c, 1, 50, 0
3, 2520, Note_on_c, 1, 59, 91
3, 2520, Note_on_c, 1, 47, 91
3, 2575, Note_on_c, 1, 47, 0
3, 2575, Note_on_c, 1, 59, 0
3, 2580, Note_on_c, 1, 46, 88
3, 2580, Note_on_c, 1, 58, 88
3, 2635, Note_on_c, 1, 58, 0
3, 2635, Note_on_c, 1, 46, 0
3, 2640, Note_on_c, 1, 57, 86
3, 2640, Note_on_c, 1, 45, 86
3, 2695, Note_on_c, 1, 45, 0
3, 2695, Note_on_c, 1, 57, 0
3, 2700, Note_on_c, 1, 60, 72
3, 2700, Note_on_c, 1, 57, 72
3, 2700, Note_on_c, 1, 52, 72
3, 2735, Note_on_c, 1, 52, 0
3, 2735, Note_on_c, 1, 57, 0
3, 2735, Note_on_c, 1, 60, 0
3, 2760, Note_on_c, 1, 47, 77
3, 2815, Note_on_c, 1, 47, 0
3, 2820, Note_on_c, 1, 52, 72
3, 2820, Note_on_c, 1, 56, 72
3, 2820, Note_on_c, 1, 62, 72
3, 2855, Note_on_c, 1, 62, 0
3, 2855, Note_on_c, 1, 56, 0
3, 2855, Note_on_c, 1, 52, 0
3, 2880, Note_on_c, 1, 48, 77
3, 2935, Note_on_c, 1, 48, 0
3, 2940, Note_on_c, 1, 52, 72
3, 2940, Note_on_c, 1, 57, 72
3, 2940, Note_on_c, 1, 60, 72
3, 2975, Note_on_c, 1, 60, 0
3, 2975, Note_on_c, 1, 57, 0
3, 2975, Note_on_c, 1, 52, 0
3, 3000, Note_on_c, 1, 57, 89
3, 3000, Note_on_c, 1, 45, 89
3, 3055, Note_on_c, 1, 45, 0
3, 3055, Note_on_c, 1, 57, 0
3, 3060, Note_on_c, 1, 46, 86
3, 3060, Note_on_c, 1, 58, 86
3, 3115, Note_on_c, 1, 58, 0
3, 3115, Note_on_c, 1, 46, 0
3, 3120, Note_on_c, 1, 47, 83
3, 3120, Note_on_c, 1, 59, 83
3, 3175, Note_on_c, 1, 59, 0
3, 3175, Note_on_c, 1, 47, 0
3, 3180, Note_on_c, 1, 59, 77
3, 3180, Note_on_c, 1, 55, 77
3, 3180, Note_on_c, 1, 50, 77
3, 3235, Note_on_c, 1, 50, 0
3, 3235, Note_on_c, 1, 55, 0
3, 3235, Note_on_c, 1, 59, 0
3, 3240, Note_on_c, 1, 40, 77
3, 3295, Note_on_c, 1, 40, 0
3, 3300, Note_on_c, 1, 52, 72
3, 3300, Note_on_c, 1, 56, 72
3, 3300, Note_on_c, 1, 62, 72
3, 3335, Note_on_c, 1, 62, 0
3, 3335, Note_on_c, 1, 56, 0
3, 3335, Note_on_c, 1, 52, 0
3, 3360, Note_on_c, 1, 45, 77
3, 3415, Note_on_c, 1, 45, 0
3, 3420, Note_on_c, 1, 52, 72
3, 3420, Note_on_c, 1, 55, 72
3, 3455, Note_on_c, 1, 55, 0
3, 3455, Note_on_c, 1, 52, 0
3, 3480, Note_on_c, 1, 45, 77
3, 3535, Note_on_c, 1, 45, 0
3, 3540, Note_on_c, 1, 50, 83
3, 3540, Note_on_c, 1, 54, 83
3, 3595, Note_on_c, 1, 50, 0
3, 3600, Note_on_c, 1, 55, 90
3, 3600, Note_on_c, 1, 50, 90
3, 3600, Note_on_c, 1, 43, 90
3, 3604, Note_on_c, 1, 54, 0
3, 3655, Note_on_c, 1, 55, 0
3, 3655, Note_on_c, 1, 50, 0
3, 3655, Note_on_c, 1, 43, 0
3, 3660, Note_on_c, 1, 50, 77
3, 3690, Note_on_c, 1, 52, 85
3, 3697, Note_on_c, 1, 50, 0
3, 3780, Note_on_c, 1, 50, 77
3, 3780, Note_on_c, 1, 38, 77
3, 3787, Note_on_c, 1, 52, 0
3, 3835, Note_on_c, 1, 50, 0
3, 3840, Note_on_c, 1, 50, 84
3, 3840, Note_on_c, 1, 43, 84
3, 3846, Note_on_c, 1, 38, 0
3, 3895, Note_on_c, 1, 43, 0
3, 3895, Note_on_c, 1, 50, 0
3, 3960, Note_on_c, 1, 43, 92
3, 3960, Note_on_c, 1, 31, 92
3, 4015, Note_on_c, 1, 31, 0
3, 4015, Note_on_c, 1, 43, 0
3, 4080, Note_on_c, 1, 43, 77
3, 4135, Note_on_c, 1, 43, 0
3, 4140, Note_on_c, 1, 59, 72
3, 4140, Note_on_c, 1, 50, 72
3, 4140, Note_on_c, 1, 55, 72
3, 4175, Note_on_c, 1, 55, 0
3, 4175, Note_on_c, 1, 50, 0
3, 4175, Note_on_c, 1, 59, 0
3, 4200, Note_on_c, 1, 48, 77
3, 4255, Note_on_c, 1, 48, 0
3, 4260, Note_on_c, 1, 52, 72
3, 4260, Note_on_c, 1, 55, 72
3, 4260, Note_on_c, 1, 60, 72
3, 4295, Note_on_c, 1, 60, 0
3, 4295, Note_on_c, 1, 55, 0
3, 4295, Note_on_c, 1, 52, 0
3, 4320, Note_on_c, 1, 43, 77
3, 4375, Note_on_c, 1, 43, 0
3, 4380, Note_on_c, 1, 50, 72
3, 4380, Note_on_c, 1, 55, 72
3, 4380, Note_on_c, 1, 59, 72
3, 4415, Note_on_c, 1, 59, 0
3, 4415, Note_on_c, 1, 55, 0
3, 4415, Note_on_c, 1, 50, 0
3, 4440, Note_on_c, 1, 59, 90
3, 4440, Note_on_c, 1, 47, 90
3, 4495, Note_on_c, 1, 47, 0
3, 4495, Note_on_c, 1, 59, 0
3, 4500, Note_on_c, 1, 46, 86
3, 4500, Note_on_c, 1, 58, 86
3, 4555, Note_on_c, 1, 58, 0
3, 4555, Note_on_c, 1, 46, 0
3, 4560, Note_on_c, 1, 57, 86
3, 4560, Note_on_c, 1, 45, 86
3, 4615, Note_on_c, 1, 45, 0
3, 4615, Note_on_c, 1, 57, 0
3, 4620, Note_on_c, 1, 60, 72
3, 4620, Note_on_c, 1, 57, 72
3, 4620, Note_on_c, 1, 52, 72
3, 4655, Note_on_c, 1, 52, 0
3, 4655, Note_on_c, 1, 57, 0
3, 4655, Note_on_c, 1, 60, 0
3, 4680, Note_on_c, 1, 47, 77
3, 4735, Note_on_c, 1, 47, 0
3, 4740, Note_on_c, 1, 52, 72
3, 4740, Note_on_c, 1, 56, 72
3, 4740, Note_on_c, 1, 62, 72
3, 4775, Note_on_c, 1, 62, 0
3, 4775, Note_on_c, 1, 56, 0
3, 4775, Note_on_c, 1, 52, 0
3, 4800, Note_on_c, 1, 48, 77
3, 4855, Note_on_c, 1, 48, 0
3, 4860, Note_on_c, 1, 52, 72
3, 4860, Note_on_c, 1, 57, 72
3, 4860, Note_on_c, 1, 60, 72
3, 4895, Note_on_c, 1, 60, 0
3, 4895, Note_on_c, 1, 57, 0
3, 4895, Note_on_c, 1, 52, 0
3, 4920, Note_on_c, 1, 57, 88
3, 4920, Note_on_c, 1, 45, 88
3, 4975, Note_on_c, 1, 45, 0
3, 4975, Note_on_c, 1, 57, 0
3, 4980, Note_on_c, 1, 46, 80
3, 4980, Note_on_c, 1, 58, 80
3, 5035, Note_on_c, 1, 58, 0
3, 5035, Note_on_c, 1, 46, 0
3, 5040, Note_on_c, 1, 47, 77
3, 5040, Note_on_c, 1, 59, 77
3, 5095, Note_on_c, 1, 59, 0
3, 5095, Note_on_c, 1, 47, 0
3, 5100, Note_on_c, 1, 59, 72
3, 5100, Note_on_c, 1, 55, 72
3, 5100, Note_on_c, 1, 50, 72
3, 5135, Note_on_c, 1, 50, 0
3, 5135, Note_on_c, 1, 55, 0
3, 5135, Note_on_c, 1, 59, 0
3, 5160, Note_on_c, 1, 40, 77
3, 5215, Note_on_c, 1, 40, 0
3, 5220, Note_on_c, 1, 52, 72
3, 5220, Note_on_c, 1, 56, 72
3, 5220, Note_on_c, 1, 62, 72
3, 5255, Note_on_c, 1, 62, 0
3, 5255, Note_on_c, 1, 56, 0
3, 5255, Note_on_c, 1, 52, 0
3, 5280, Note_on_c, 1, 45, 77
3, 5335, Note_on_c, 1, 45, 0
3, 5340, Note_on_c, 1, 52, 72
3, 5340, Note_on_c, 1, 55, 72
3, 5340, Note_on_c, 1, 57, 72
3, 5375, Note_on_c, 1, 57, 0
3, 5375, Note_on_c, 1, 55, 0
3, 5375, Note_on_c, 1, 52, 0
3, 5400, Note_on_c, 1, 45, 77
3, 5455, Note_on_c, 1, 45, 0
3, 5460, Note_on_c, 1, 52, 72
3, 5460, Note_on_c, 1, 55, 72
3, 5460, Note_on_c, 1, 57, 72
3, 5495, Note_on_c, 1, 57, 0
3, 5495, Note_on_c, 1, 55, 0
3, 5495, Note_on_c, 1, 52, 0
3, 5520, Note_on_c, 1, 50, 83
3, 5520, Note_on_c, 1, 38, 83
3, 5563, Note_on_c, 1, 38, 0
3, 5563, Note_on_c, 1, 50, 0
3, 5580, Note_on_c, 1, 39, 87
3, 5580, Note_on_c, 1, 51, 87
3, 5635, Note_on_c, 1, 51, 0
3, 5635, Note_on_c, 1, 39, 0
3, 5640, Note_on_c, 1, 50, 84
3, 5640, Note_on_c, 1, 38, 84
3, 5683, Note_on_c, 1, 38, 0
3, 5683, Note_on_c, 1, 50, 0
3, 5700, Note_on_c, 1, 39, 89
3, 5700, Note_on_c, 1, 51, 89
3, 5755, Note_on_c, 1, 51, 0
3, 5755, Note_on_c, 1, 39, 0
3, 5760, Note_on_c, 1, 50, 86
3, 5760, Note_on_c, 1, 38, 86
3, 5792, Note_on_c, 1, 38, 0
3, 5792, Note_on_c, 1, 50, 0
3, 5820, Note_on_c, 1, 39, 83
3, 5820, Note_on_c, 1, 51, 83
3, 5848, Note_on_c, 1, 51, 0
3, 5848, Note_on_c, 1, 39, 0
3, 5880, Note_on_c, 1, 52, 86
3, 5880, Note_on_c, 1, 40, 86
3, 5912, Note_on_c, 1, 40, 0
3, 5912, Note_on_c, 1, 52, 0
3, 5940, Note_on_c, 1, 42, 83
3, 5940, Note_on_c, 1, 54, 83
3, 5968, Note_on_c, 1, 54, 0
3, 5968, Note_on_c, 1, 42, 0
3, 6000, Note_on_c, 1, 43, 77
3, 6055, Note_on_c, 1, 43, 0
3, 6060, Note_on_c, 1, 59, 72
3, 6060, Note_on_c, 1, 50, 72
3, 6060, Note_on_c, 1, 55, 72
3, 6095, Note_on_c, 1, 55, 0
3, 6095, Note_on_c, 1, 50, 0
3, 6095, Note_on_c, 1, 59, 0
3, 6120, Note_on_c, 1, 48, 77
3, 6175, Note_on_c, 1, 48, 0
3, 6180, Note_on_c, 1, 52, 72
3, 6180, Note_on_c, 1, 55, 72
3, 6180, Note_on_c, 1, 60, 72
3, 6215, Note_on_c, 1, 60, 0
3, 6215, Note_on_c, 1, 55, 0
3, 6215, Note_on_c, 1, 52, 0
3, 6240, Note_on_c, 1, 43, 77
3, 6295, Note_on_c, 1, 43, 0
3, 6300, Note_on_c, 1, 50, 72
3, 6300, Note_on_c, 1, 55, 72
3, 6300, Note_on_c, 1, 59, 72
3, 6335, Note_on_c, 1, 59, 0
3, 6335, Note_on_c, 1, 55, 0
3, 6335, Note_on_c, 1, 50, 0
3, 6360, Note_on_c, 1, 59, 91
3, 6360, Note_on_c, 1, 47, 91
3, 6415, Note_on_c, 1, 47, 0
3, 6415, Note_on_c, 1, 59, 0
3, 6420, Note_on_c, 1, 46, 88
3, 6420, Note_on_c, 1, 58, 88
3, 6475, Note_on_c, 1, 58, 0
3, 6475, Note_on_c, 1, 46, 0
3, 6480, Note_on_c, 1, 57, 86
3, 6480, Note_on_c, 1, 45, 86
3, 6535, Note_on_c, 1, 45, 0
3, 6535, Note_on_c, 1, 57, 0
3, 6540, Note_on_c, 1, 60, 72
3, 6540, Note_on_c, 1, 57, 72
3, 6540, Note_on_c, 1, 52, 72
3, 6575, Note_on_c, 1, 52, 0
3, 6575, Note_on_c, 1, 57, 0
3, 6575, Note_on_c, 1, 60, 0
3, 6600, Note_on_c, 1, 47, 77
3, 6655, Note_on_c, 1, 47, 0
3, 6660, Note_on_c, 1, 52, 72
3, 6660, Note_on_c, 1, 56, 72
3, 6660, Note_on_c, 1, 62, 72
3, 6695, Note_on_c, 1, 62, 0
3, 6695, Note_on_c, 1, 56, 0
3, 6695, Note_on_c, 1, 52, 0
3, 6720, Note_on_c, 1, 48, 77
3, 6775, Note_on_c, 1, 48, 0
3, 6780, Note_on_c, 1, 52, 72
3, 6780, Note_on_c, 1, 57, 72
3, 6780, Note_on_c, 1, 60, 72
3, 6815, Note_on_c, 1, 60, 0
3, 6815, Note_on_c, 1, 57, 0
3, 6815, Note_on_c, 1, 52, 0
3, 6840, Note_on_c, 1, 57, 89
3, 6840, Note_on_c, 1, 45, 89
3, 6895, Note_on_c, 1, 45, 0
3, 6895, Note_on_c, 1, 57, 0
3, 6900, Note_on_c, 1, 46, 86
3, 6900, Note_on_c, 1, 58, 86
3, 6955, Note_on_c, 1, 58, 0
3, 6955, Note_on_c, 1, 46, 0
3, 6960, Note_on_c, 1, 47, 83
3, 6960, Note_on_c, 1, 59, 83
3, 7015, Note_on_c, 1, 59, 0
3, 7015, Note_on_c, 1, 47, 0
3, 7020, Note_on_c, 1, 59, 77
3, 7020, Note_on_c, 1, 55, 77
3, 7020, Note_on_c, 1, 50, 77
3, 7075, Note_on_c, 1, 50, 0
3, 7075, Note_on_c, 1, 55, 0
3, 7075, Note_on_c, 1, 59, 0
3, 7080, Note_on_c, 1, 40, 77
3, 7135, Note_on_c, 1, 40, 0
3, 7140, Note_on_c, 1, 52, 72
3, 7140, Note_on_c, 1, 56, 72
3, 7140, Note_on_c, 1, 62, 72
3, 7175, Note_on_c, 1, 62, 0
3, 7175, Note_on_c, 1, 56, 0
3, 7175, Note_on_c, 1, 52, 0
3, 7200, Note_on_c, 1, 45, 77
3, 7255, Note_on_c, 1, 45, 0
3, 7260, Note_on_c, 1, 52, 72
3, 7260, Note_on_c, 1, 55, 72
3, 7295, Note_on_c, 1, 55, 0
3, 7295, Note_on_c, 1, 52, 0
3, 7320, Note_on_c, 1, 45, 77
3, 7375, Note_on_c, 1, 45, 0
3, 7380, Note_on_c, 1, 50, 83
3, 7380, Note_on_c, 1, 54, 83
3, 7435, Note_on_c, 1, 50, 0
3, 7440, Note_on_c, 1, 55, 90
3, 7440, Note_on_c, 1, 50, 90
3, 7440, Note_on_c, 1, 43, 90
3, 7444, Note_on_c, 1, 54, 0
3, 7495, Note_on_c, 1, 55, 0
3, 7495, Note_on_c, 1, 50, 0
3, 7495, Note_on_c, 1, 43, 0
3, 7500, Note_on_c, 1, 50, 77
3, 7530, Note_on_c, 1, 52, 85
3, 7537, Note_on_c, 1, 50, 0
3, 7620, Note_on_c, 1, 50, 77
3, 7620, Note_on_c, 1, 38, 77
3, 7627, Note_on_c, 1, 52, 0
3, 7675, Note_on_c, 1, 50, 0
3, 7680, Note_on_c, 1, 50, 84
3, 7680, Note_on_c, 1, 43, 84
3, 7686, Note_on_c, 1, 38, 0
3, 7735, Note_on_c, 1, 43, 0
3, 7735, Note_on_c, 1, 50, 0
3, 7800, Note_on_c, 1, 43, 92
3, 7800, Note_on_c, 1, 31, 92
3, 7855, Note_on_c, 1, 31, 0
3, 7855, Note_on_c, 1, 43, 0
3, 7920, Note_on_c, 1, 45, 77
3, 7975, Note_on_c, 1, 45, 0
3, 7980, Note_on_c, 1, 50, 72
3, 7980, Note_on_c, 1, 54, 72
3, 7980, Note_on_c, 1, 60, 72
3, 8015, Note_on_c, 1, 60, 0
3, 8015, Note_on_c, 1, 54, 0
3, 8015, Note_on_c, 1, 50, 0
3, 8040, Note_on_c, 1, 38, 77
3, 8095, Note_on_c, 1, 38, 0
3, 8100, Note_on_c, 1, 50, 72
3, 8100, Note_on_c, 1, 54, 72
3, 8100, Note_on_c, 1, 60, 72
3, 8135, Note_on_c, 1, 60, 0
3, 8135, Note_on_c, 1, 54, 0
3, 8135, Note_on_c, 1, 50, 0
3, 8160, Note_on_c, 1, 45, 77
3, 8215, Note_on_c, 1, 45, 0
3, 8220, Note_on_c, 1, 60, 72
3, 8220, Note_on_c, 1, 54, 72
3, 8220, Note_on_c, 1, 50, 72
3, 8255, Note_on_c, 1, 50, 0
3, 8255, Note_on_c, 1, 54, 0
3, 8255, Note_on_c, 1, 60, 0
3, 8280, Note_on_c, 1, 38, 77
3, 8335, Note_on_c, 1, 38, 0
3, 8340, Note_on_c, 1, 60, 72
3, 8340, Note_on_c, 1, 54, 72
3, 8340, Note_on_c, 1, 50, 72
3, 8375, Note_on_c, 1, 50, 0
3, 8375, Note_on_c, 1, 54, 0
3, 8375, Note_on_c, 1, 60, 0
3, 8400, Note_on_c, 1, 43, 77
3, 8455, Note_on_c, 1, 43, 0
3, 8460, Note_on_c, 1, 50, 72
3, 8460, Note_on_c, 1, 55, 72
3, 8460, Note_on_c, 1, 59, 72
3, 8495, Note_on_c, 1, 59, 0
3, 8495, Note_on_c, 1, 55, 0
3, 8495, Note_on_c, 1, 50, 0
3, 8520, Note_on_c, 1, 38, 77
3, 8575, Note_on_c, 1, 38, 0
3, 8580, Note_on_c, 1, 50, 72
3, 8580, Note_on_c, 1, 55, 72
3, 8580, Note_on_c, 1, 59, 72
3, 8615, Note_on_c, 1, 59, 0
3, 8615, Note_on_c, 1, 55, 0
3, 8615, Note_on_c, 1, 50, 0
3, 8640, Note_on_c, 1, 43, 83
3, 8695, Note_on_c, 1, 43, 0
3, 8700, Note_on_c, 1, 50, 78
3, 8700, Note_on_c, 1, 55, 78
3, 8700, Note_on_c, 1, 59, 78
3, 8735, Note_on_c, 1, 59, 0
3, 8735, Note_on_c, 1, 55, 0
3, 8735, Note_on_c, 1, 50, 0
3, 8760, Note_on_c, 1, 55, 86
3, 8760, Note_on_c, 1, 43, 86
3, 8815, Note_on_c, 1, 43, 0
3, 8815, Note_on_c, 1, 55, 0
3, 8820, Note_on_c, 1, 44, 82
3, 8820, Note_on_c, 1, 56, 82
3, 8867, Note_on_c, 1, 56, 0
3, 8867, Note_on_c, 1, 44, 0
3, 8880, Note_on_c, 1, 45, 77
3, 8880, Note_on_c, 1, 57, 77
3, 8935, Note_on_c, 1, 57, 0
3, 8935, Note_on_c, 1, 45, 0
3, 8940, Note_on_c, 1, 50, 72
3, 8940, Note_on_c, 1, 54, 72
3, 8940, Note_on_c, 1, 60, 72
3, 8975, Note_on_c, 1, 60, 0
3, 8975, Note_on_c, 1, 54, 0
3, 8975, Note_on_c, 1, 50, 0
3, 9000, Note_on_c, 1, 38, 77
3, 9055, Note_on_c, 1, 38, 0
3, 9060, Note_on_c, 1, 50, 72
3, 9060, Note_on_c, 1, 54, 72
3, 9060, Note_on_c, 1, 60, 72
3, 9095, Note_on_c, 1, 60, 0
3, 9095, Note_on_c, 1, 54, 0
3, 9095, Note_on_c, 1, 50, 0
3, 9120, Note_on_c, 1, 45, 77
3, 9175, Note_on_c, 1, 45, 0
3, 9180, Note_on_c, 1, 60, 72
3, 9180, Note_on_c, 1, 54, 72
3, 9180, Note_on_c, 1, 50, 72
3, 9215, Note_on_c, 1, 50, 0
3, 9215, Note_on_c, 1, 54, 0
3, 9215, Note_on_c, 1, 60, 0
3, 9240, Note_on_c, 1, 38, 77
3, 9295, Note_on_c, 1, 38, 0
3, 9300, Note_on_c, 1, 60, 72
3, 9300, Note_on_c, 1, 54, 72
3, 9300, Note_on_c, 1, 50, 72
3, 9335, Note_on_c, 1, 50, 0
3, 9335, Note_on_c, 1, 54, 0
3, 9335, Note_on_c, 1, 60, 0
3, 9360, Note_on_c, 1, 43, 77
3, 9415, Note_on_c, 1, 43, 0
3, 9420, Note_on_c, 1, 50, 72
3, 9420, Note_on_c, 1, 55, 72
3, 9420, Note_on_c, 1, 59, 72
3, 9455, Note_on_c, 1, 59, 0
3, 9455, Note_on_c, 1, 55, 0
3, 9455, Note_on_c, 1, 50, 0
3, 9480, Note_on_c, 1, 38, 77
3, 9535, Note_on_c, 1, 38, 0
3, 9540, Note_on_c, 1, 50, 72
3, 9540, Note_on_c, 1, 54, 72
3, 9540, Note_on_c, 1, 60, 72
3, 9575, Note_on_c, 1, 60, 0
3, 9575, Note_on_c, 1, 54, 0
3, 9575, Note_on_c, 1, 50, 0
3, 9600, Note_on_c, 1, 43, 77
3, 9655, Note_on_c, 1, 43, 0
3, 9660, Note_on_c, 1, 50, 72
3, 9660, Note_on_c, 1, 55, 72
3, 9660, Note_on_c, 1, 59, 72
3, 9695, Note_on_c, 1, 59, 0
3, 9695, Note_on_c, 1, 55, 0
3, 9695, Note_on_c, 1, 50, 0
3, 9720, Note_on_c, 1, 59, 92
3, 9720, Note_on_c, 1, 47, 92
3, 9775, Note_on_c, 1, 47, 0
3, 9775, Note_on_c, 1, 59, 0
3, 9780, Note_on_c, 1, 44, 87
3, 9780, Note_on_c, 1, 56, 87
3, 9827, Note_on_c, 1, 56, 0
3, 9827, Note_on_c, 1, 44, 0
3, 9840, Note_on_c, 1, 45, 77
3, 9895, Note_on_c, 1, 45, 0
3, 9900, Note_on_c, 1, 50, 72
3, 9900, Note_on_c, 1, 54, 72
3, 9900, Note_on_c, 1, 60, 72
3, 9935, Note_on_c, 1, 60, 0
3, 9935, Note_on_c, 1, 54, 0
3, 9935, Note_on_c, 1, 50, 0
3, 9960, Note_on_c, 1, 38, 77
3, 10015, Note_on_c, 1, 38, 0
3, 10020, Note_on_c, 1, 50, 72
3, 10020, Note_on_c, 1, 54, 72
3, 10020, Note_on_c, 1, 60, 72
3, 10055, Note_on_c, 1, 60, 0
3, 10055, Note_on_c, 1, 54, 0
3, 10055, Note_on_c, 1, 50, 0
3, 10080, Note_on_c, 1, 45, 77
3, 10135, Note_on_c, 1, 45, 0
3, 10140, Note_on_c, 1, 60, 72
3, 10140, Note_on_c, 1, 54, 72
3, 10140, Note_on_c, 1, 50, 72
3, 10175, Note_on_c, 1, 50, 0
3, 10175, Note_on_c, 1, 54, 0
3, 10175, Note_on_c, 1, 60, 0
3, 10200, Note_on_c, 1, 38, 77
3, 10255, Note_on_c, 1, 38, 0
3, 10260, Note_on_c, 1, 60, 72
3, 10260, Note_on_c, 1, 54, 72
3, 10260, Note_on_c, 1, 50, 72
3, 10295, Note_on_c, 1, 50, 0
3, 10295, Note_on_c, 1, 54, 0
3, 10295, Note_on_c, 1, 60, 0
3, 10320, Note_on_c, 1, 43, 77
3, 10375, Note_on_c, 1, 43, 0
3, 10380, Note_on_c, 1, 50, 72
3, 10380, Note_on_c, 1, 55, 72
3, 10380, Note_on_c, 1, 59, 72
3, 10415, Note_on_c, 1, 59, 0
3, 10415, Note_on_c, 1, 55, 0
3, 10415, Note_on_c, 1, 50, 0
3, 10440, Note_on_c, 1, 38, 77
3, 10495, Note_on_c, 1, 38, 0
3, 10500, Note_on_c, 1, 50, 72
3, 10500, Note_on_c, 1, 55, 72
3, 10500, Note_on_c, 1, 59, 72
3, 10535, Note_on_c, 1, 59, 0
3, 10535, Note_on_c, 1, 55, 0
3, 10535, Note_on_c, 1, 50, 0
3, 10560, Note_on_c, 1, 43, 92
3, 10560, Note_on_c, 1, 55, 92
3, 10615, Note_on_c, 1, 55, 0
3, 10615, Note_on_c, 1, 43, 0
3, 10620, Note_on_c, 1, 56, 88
3, 10620, Note_on_c, 1, 44, 88
3, 10667, Note_on_c, 1, 44, 0
3, 10667, Note_on_c, 1, 56, 0
3, 10680, Note_on_c, 1, 57, 94
3, 10680, Note_on_c, 1, 45, 94
3, 10735, Note_on_c, 1, 45, 0
3, 10735, Note_on_c, 1, 57, 0
3, 10740, Note_on_c, 1, 46, 92
3, 10740, Note_on_c, 1, 58, 92
3, 10787, Note_on_c, 1, 58, 0
3, 10787, Note_on_c, 1, 46, 0
3, 10800, Note_on_c, 1, 48, 83
3, 10855, Note_on_c, 1, 48, 0
3, 10860, Note_on_c, 1, 52, 72
3, 10860, Note_on_c, 1, 55, 72
3, 10860, Note_on_c, 1, 60, 72
3, 10895, Note_on_c, 1, 60, 0
3, 10895, Note_on_c, 1, 55, 0
3, 10895, Note_on_c, 1, 52, 0
3, 10920, Note_on_c, 1, 48, 77
3, 10975, Note_on_c, 1, 48, 0
3, 10980, Note_on_c, 1, 49, 72
3, 10980, Note_on_c, 1, 55, 72
3, 10980, Note_on_c, 1, 58, 72
3, 11015, Note_on_c, 1, 58, 0
3, 11015, Note_on_c, 1, 55, 0
3, 11015, Note_on_c, 1, 49, 0
3, 11040, Note_on_c, 1, 50, 82
3, 11095, Note_on_c, 1, 50, 0
3, 11100, Note_on_c, 1, 55, 75
3, 11100, Note_on_c, 1, 59, 75
3, 11135, Note_on_c, 1, 59, 0
3, 11135, Note_on_c, 1, 55, 0
3, 11160, Note_on_c, 1, 52, 82
3, 11215, Note_on_c, 1, 52, 0
3, 11220, Note_on_c, 1, 56, 75
3, 11220, Note_on_c, 1, 62, 75
3, 11255, Note_on_c, 1, 62, 0
3, 11255, Note_on_c, 1, 56, 0
3, 11280, Note_on_c, 1, 45, 82
3, 11335, Note_on_c, 1, 45, 0
3, 11340, Note_on_c, 1, 55, 75
3, 11340, Note_on_c, 1, 57, 75
3, 11375, Note_on_c, 1, 57, 0
3, 11375, Note_on_c, 1, 55, 0
3, 11400, Note_on_c, 1, 38, 87
3, 11455, Note_on_c, 1, 38, 0
3, 11460, Note_on_c, 1, 50, 82
3, 11509, Note_on_c, 1, 50, 0
3, 11520, Note_on_c, 1, 43, 82
3, 11520, Note_on_c, 1, 50, 82
3, 11575, Note_on_c, 1, 50, 0
3, 11575, Note_on_c, 1, 43, 0
3, 11640, Note_on_c, 1, 43, 95
3, 11640, Note_on_c, 1, 31, 95
3, 11695, Note_on_c, 1, 31, 0
3, 11695, Note_on_c, 1, 43, 0
3, 11760, Note_on_c, 1, 45, 77
3, 11815, Note_on_c, 1, 45, 0
3, 11820, Note_on_c, 1, 50, 72
3, 11820, Note_on_c, 1, 54, 72
3, 11820, Note_on_c, 1, 60, 72
3, 11855, Note_on_c, 1, 60, 0
3, 11855, Note_on_c, 1, 54, 0
3, 11855, Note_on_c, 1, 50, 0
3, 11880, Note_on_c, 1, 38, 77
3, 11935, Note_on_c, 1, 38, 0
3, 11940, Note_on_c, 1, 50, 72
3, 11940, Note_on_c, 1, 54, 72
3, 11940, Note_on_c, 1, 60, 72
3, 11975, Note_on_c, 1, 60, 0
3, 11975, Note_on_c, 1, 54, 0
3, 11975, Note_on_c, 1, 50, 0
3, 12000, Note_on_c, 1, 45, 77
3, 12055, Note_on_c, 1, 45, 0
3, 12060, Note_on_c, 1, 60, 72
3, 12060, Note_on_c, 1, 54, 72
3, 12060, Note_on_c, 1, 50, 72
3, 12095, Note_on_c, 1, 50, 0
3, 12095, Note_on_c, 1, 54, 0
3, 12095, Note_on_c, 1, 60, 0
3, 12120, Note_on_c, 1, 38, 77
3, 12175, Note_on_c, 1, 38, 0
3, 12180, Note_on_c, 1, 60, 72
3, 12180, Note_on_c, 1, 54, 72
3, 12180, Note_on_c, 1, 50, 72
3, 12215, Note_on_c, 1, 50, 0
3, 12215, Note_on_c, 1, 54, 0
3, 12215, Note_on_c, 1, 60, 0
3, 12240, Note_on_c, 1, 43, 77
3, 12295, Note_on_c, 1, 43, 0
3, 12300, Note_on_c, 1, 50, 72
3, 12300, Note_on_c, 1, 55, 72
3, 12300, Note_on_c, 1, 59, 72
3, 12335, Note_on_c, 1, 59, 0
3, 12335, Note_on_c, 1, 55, 0
3, 12335, Note_on_c, 1, 50, 0
3, 12360, Note_on_c, 1, 38, 77
3, 12415, Note_on_c, 1, 38, 0
3, 12420, Note_on_c, 1, 50, 72
3, 12420, Note_on_c, 1, 55, 72
3, 12420, Note_on_c, 1, 59, 72
3, 12455, Note_on_c, 1, 59, 0
3, 12455, Note_on_c, 1, 55, 0
3, 12455, Note_on_c, 1, 50, 0
3, 12480, Note_on_c, 1, 43, 83
3, 12535, Note_on_c, 1, 43, 0
3, 12540, Note_on_c, 1, 50, 78
3, 12540, Note_on_c, 1, 55, 78
3, 12540, Note_on_c, 1, 59, 78
3, 12575, Note_on_c, 1, 59, 0
3, 12575, Note_on_c, 1, 55, 0
3, 12575, Note_on_c, 1, 50, 0
3, 12600, Note_on_c, 1, 55, 86
3, 12600, Note_on_c, 1, 43, 86
3, 12655, Note_on_c, 1, 43, 0
3, 12655, Note_on_c, 1, 55, 0
3, 12660, Note_on_c, 1, 44, 82
3, 12660, Note_on_c, 1, 56, 82
3, 12707, Note_on_c, 1, 56, 0
3, 12707, Note_on_c, 1, 44, 0
3, 12720, Note_on_c, 1, 45, 77
3, 12720, Note_on_c, 1, 57, 77
3, 12775, Note_on_c, 1, 57, 0
3, 12775, Note_on_c, 1, 45, 0
3, 12780, Note_on_c, 1, 50, 72
3, 12780, Note_on_c, 1, 54, 72
3, 12780, Note_on_c, 1, 60, 72
3, 12815, Note_on_c, 1, 60, 0
3, 12815, Note_on_c, 1, 54, 0
3, 12815, Note_on_c, 1, 50, 0
3, 12840, Note_on_c, 1, 38, 77
3, 12895, Note_on_c, 1, 38, 0
3, 12900, Note_on_c, 1, 50, 72
3, 12900, Note_on_c, 1, 54, 72
3, 12900, Note_on_c, 1, 60, 72
3, 12935, Note_on_c, 1, 60, 0
3, 12935, Note_on_c, 1, 54, 0
3, 12935, Note_on_c, 1, 50, 0
3, 12960, Note_on_c, 1, 45, 77
3, 13015, Note_on_c, 1, 45, 0
3, 13020, Note_on_c, 1, 60, 72
3, 13020, Note_on_c, 1, 54, 72
3, 13020, Note_on_c, 1, 50, 72
3, 13055, Note_on_c, 1, 50, 0
3, 13055, Note_on_c, 1, 54, 0
3, 13055, Note_on_c, 1, 60, 0
3, 13080, Note_on_c, 1, 38, 77
3, 13135, Note_on_c, 1, 38, 0
3, 13140, Note_on_c, 1, 60, 72
3, 13140, Note_on_c, 1, 54, 72
3, 13140, Note_on_c, 1, 50, 72
3, 13175, Note_on_c, 1, 50, 0
3, 13175, Note_on_c, 1, 54, 0
3, 13175, Note_on_c, 1, 60, 0
3, 13200, Note_on_c, 1, 43, 77
3, 13255, Note_on_c, 1, 43, 0
3, 13260, Note_on_c, 1, 50, 72
3, 13260, Note_on_c, 1, 55, 72
3, 13260, Note_on_c, 1, 59, 72
3, 13295, Note_on_c, 1, 59, 0
3, 13295, Note_on_c, 1, 55, 0
3, 13295, Note_on_c, 1, 50, 0
3, 13320, Note_on_c, 1, 38, 77
3, 13375, Note_on_c, 1, 38, 0
3, 13380, Note_on_c, 1, 50, 72
3, 13380, Note_on_c, 1, 54, 72
3, 13380, Note_on_c, 1, 60, 72
3, 13415, Note_on_c, 1, 60, 0
3, 13415, Note_on_c, 1, 54, 0
3, 13415, Note_on_c, 1, 50, 0
3, 13440, Note_on_c, 1, 43, 77
3, 13495, Note_on_c, 1, 43, 0
3, 13500, Note_on_c, 1, 50, 72
3, 13500, Note_on_c, 1, 55, 72
3, 13500, Note_on_c, 1, 59, 72
3, 13535, Note_on_c, 1, 59, 0
3, 13535, Note_on_c, 1, 55, 0
3, 13535, Note_on_c, 1, 50, 0
3, 13560, Note_on_c, 1, 59, 92
3, 13560, Note_on_c, 1, 47, 92
3, 13615, Note_on_c, 1, 47, 0
3, 13615, Note_on_c, 1, 59, 0
3, 13620, Note_on_c, 1, 44, 87
3, 13620, Note_on_c, 1, 56, 87
3, 13667, Note_on_c, 1, 56, 0
3, 13667, Note_on_c, 1, 44, 0
3, 13680, Note_on_c, 1, 45, 77
3, 13735, Note_on_c, 1, 45, 0
3, 13740, Note_on_c, 1, 50, 72
3, 13740, Note_on_c, 1, 54, 72
3, 13740, Note_on_c, 1, 60, 72
3, 13775, Note_on_c, 1, 60, 0
3, 13775, Note_on_c, 1, 54, 0
3, 13775, Note_on_c, 1, 50, 0
3, 13800, Note_on_c, 1, 38, 77
3, 13855, Note_on_c, 1, 38, 0
3, 13860, Note_on_c, 1, 50, 72
3, 13860, Note_on_c, 1, 54, 72
3, 13860, Note_on_c, 1, 60, 72
3, 13895, Note_on_c, 1, 60, 0
3, 13895, Note_on_c, 1, 54, 0
3, 13895, Note_on_c, 1, 50, 0
3, 13920, Note_on_c, 1, 45, 77
3, 13975, Note_on_c, 1, 45, 0
3, 13980, Note_on_c, 1, 60, 72
3, 13980, Note_on_c, 1, 54, 72
3, 13980, Note_on_c, 1, 50, 72
3, 14015, Note_on_c, 1, 50, 0
3, 14015, Note_on_c, 1, 54, 0
3, 14015, Note_on_c, 1, 60, 0
3, 14040, Note_on_c, 1, 38, 77
3, 14095, Note_on_c, 1, 38, 0
3, 14100, Note_on_c, 1, 60, 72
3, 14100, Note_on_c, 1, 54, 72
3, 14100, Note_on_c, 1, 50, 72
3, 14135, Note_on_c, 1, 50, 0
3, 14135, Note_on_c, 1, 54, 0
3, 14135, Note_on_c, 1, 60, 0
3, 14160, Note_on_c, 1, 43, 77
3, 14215, Note_on_c, 1, 43, 0
3, 14220, Note_on_c, 1, 50, 72
3, 14220, Note_on_c, 1, 55, 72
3, 14220, Note_on_c, 1, 59, 72
3, 14255, Note_on_c, 1, 59, 0
3, 14255, Note_on_c, 1, 55, 0
3, 14255, Note_on_c, 1, 50, 0
3, 14280, Note_on_c, 1, 38, 77
3, 14335, Note_on_c, 1, 38, 0
3, 14340, Note_on_c, 1, 50, 72
3, 14340, Note_on_c, 1, 55, 72
3, 14340, Note_on_c, 1, 59, 72
3, 14375, Note_on_c, 1, 59, 0
3, 14375, Note_on_c, 1, 55, 0
3, 14375, Note_on_c, 1, 50, 0
3, 14400, Note_on_c, 1, 43, 92
3, 14400, Note_on_c, 1, 55, 92
3, 14455, Note_on_c, 1, 55, 0
3, 14455, Note_on_c, 1, 43, 0
3, 14460, Note_on_c, 1, 56, 88
3, 14460, Note_on_c, 1, 44, 88
3, 14507, Note_on_c, 1, 44, 0
3, 14507, Note_on_c, 1, 56, 0
3, 14520, Note_on_c, 1, 57, 94
3, 14520, Note_on_c, 1, 45, 94
3, 14575, Note_on_c, 1, 45, 0
3, 14575, Note_on_c, 1, 57, 0
3, 14580, Note_on_c, 1, 46, 92
3, 14580, Note_on_c, 1, 58, 92
3, 14627, Note_on_c, 1, 58, 0
3, 14627, Note_on_c, 1, 46, 0
3, 14640, Note_on_c, 1, 48, 83
3, 14695, Note_on_c, 1, 48, 0
3, 14700, Note_on_c, 1, 52, 77
3, 14700, Note_on_c, 1, 55, 77
3, 14700, Note_on_c, 1, 60, 77
3, 14735, Note_on_c, 1, 60, 0
3, 14735, Note_on_c, 1, 55, 0
3, 14735, Note_on_c, 1, 52, 0
3, 14760, Note_on_c, 1, 48, 86
3, 14815, Note_on_c, 1, 48, 0
3, 14820, Note_on_c, 1, 49, 80
3, 14820, Note_on_c, 1, 55, 80
3, 14820, Note_on_c, 1, 58, 80
3, 14855, Note_on_c, 1, 58, 0
3, 14855, Note_on_c, 1, 55, 0
3, 14855, Note_on_c, 1, 49, 0
3, 14880, Note_on_c, 1, 50, 84
3, 14935, Note_on_c, 1, 50, 0
3, 14940, Note_on_c, 1, 55, 76
3, 14940, Note_on_c, 1, 59, 76
3, 14975, Note_on_c, 1, 59, 0
3, 14975, Note_on_c, 1, 55, 0
3, 15000, Note_on_c, 1, 52, 82
3, 15055, Note_on_c, 1, 52, 0
3, 15060, Note_on_c, 1, 56, 75
3, 15060, Note_on_c, 1, 62, 75
3, 15095, Note_on_c, 1, 62, 0
3, 15095, Note_on_c, 1, 56, 0
3, 15120, Note_on_c, 1, 45, 82
3, 15175, Note_on_c, 1, 45, 0
3, 15180, Note_on_c, 1, 55, 75
3, 15180, Note_on_c, 1, 57, 75
3, 15215, Note_on_c, 1, 57, 0
3, 15215, Note_on_c, 1, 55, 0
3, 15240, Note_on_c, 1, 38, 87
3, 15295, Note_on_c, 1, 38, 0
3, 15300, Note_on_c, 1, 50, 82
3, 15349, Note_on_c, 1, 50, 0
3, 15360, Note_on_c, 1, 43, 82
3, 15360, Note_on_c, 1, 50, 82
3, 15415, Note_on_c, 1, 50, 0
3, 15415, Note_on_c, 1, 43, 0
3, 15480, Note_on_c, 1, 43, 95
3, 15480, Note_on_c, 1, 31, 95
3, 15535, Note_on_c, 1, 31, 0
3, 15535, Note_on_c, 1, 43, 0
3, 15600, Note_on_c, 1, 43, 77
3, 15655, Note_on_c, 1, 43, 0
3, 15660, Note_on_c, 1, 59, 72
3, 15660, Note_on_c, 1, 50, 72
3, 15660, Note_on_c, 1, 55, 72
3, 15695, Note_on_c, 1, 55, 0
3, 15695, Note_on_c, 1, 50, 0
3, 15695, Note_on_c, 1, 59, 0
3, 15720, Note_on_c, 1, 48, 77
3, 15775, Note_on_c, 1, 48, 0
3, 15780, Note_on_c, 1, 52, 72
3, 15780, Note_on_c, 1, 55, 72
3, 15780, Note_on_c, 1, 60, 72
3, 15815, Note_on_c, 1, 60, 0
3, 15815, Note_on_c, 1, 55, 0
3, 15815, Note_on_c, 1, 52, 0
3, 15840, Note_on_c, 1, 43, 77
3, 15895, Note_on_c, 1, 43, 0
3, 15900, Note_on_c, 1, 50, 72
3, 15900, Note_on_c, 1, 55, 72
3, 15900, Note_on_c, 1, 59, 72
3, 15935, Note_on_c, 1, 59, 0
3, 15935, Note_on_c, 1, 55, 0
3, 15935, Note_on_c, 1, 50, 0
3, 15960, Note_on_c, 1, 59, 90
3, 15960, Note_on_c, 1, 47, 90
3, 16015, Note_on_c, 1, 47, 0
3, 16015, Note_on_c, 1, 59, 0
3, 16020, Note_on_c, 1, 46, 86
3, 16020, Note_on_c, 1, 58, 86
3, 16075, Note_on_c, 1, 58, 0
3, 16075, Note_on_c, 1, 46, 0
3, 16080, Note_on_c, 1, 57, 86
3, 16080, Note_on_c, 1, 45, 86
3, 16135, Note_on_c, 1, 45, 0
3, 16135, Note_on_c, 1, 57, 0
3, 16140, Note_on_c, 1, 60, 72
3, 16140, Note_on_c, 1, 57, 72
3, 16140, Note_on_c, 1, 52, 72
3, 16175, Note_on_c, 1, 52, 0
3, 16175, Note_on_c, 1, 57, 0
3, 16175, Note_on_c, 1, 60, 0
3, 16200, Note_on_c, 1, 47, 77
3, 16255, Note_on_c, 1, 47, 0
3, 16260, Note_on_c, 1, 52, 72
3, 16260, Note_on_c, 1, 56, 72
3, 16260, Note_on_c, 1, 62, 72
3, 16295, Note_on_c, 1, 62, 0
3, 16295, Note_on_c, 1, 56, 0
3, 16295, Note_on_c, 1, 52, 0
3, 16320, Note_on_c, 1, 48, 77
3, 16375, Note_on_c, 1, 48, 0
3, 16380, Note_on_c, 1, 52, 72
3, 16380, Note_on_c, 1, 57, 72
3, 16380, Note_on_c, 1, 60, 72
3, 16415, Note_on_c, 1, 60, 0
3, 16415, Note_on_c, 1, 57, 0
3, 16415, Note_on_c, 1, 52, 0
3, 16440, Note_on_c, 1, 57, 88
3, 16440, Note_on_c, 1, 45, 88
3, 16495, Note_on_c, 1, 45, 0
3, 16495, Note_on_c, 1, 57, 0
3, 16500, Note_on_c, 1, 46, 80
3, 16500, Note_on_c, 1, 58, 80
3, 16555, Note_on_c, 1, 58, 0
3, 16555, Note_on_c, 1, 46, 0
3, 16560, Note_on_c, 1, 47, 77
3, 16560, Note_on_c, 1, 59, 77
3, 16615, Note_on_c, 1, 59, 0
3, 16615, Note_on_c, 1, 47, 0
3, 16620, Note_on_c, 1, 59, 72
3, 16620, Note_on_c, 1, 55, 72
3, 16620, Note_on_c, 1, 50, 72
3, 16655, Note_on_c, 1, 50, 0
3, 16655, Note_on_c, 1, 55, 0
3, 16655, Note_on_c, 1, 59, 0
3, 16680, Note_on_c, 1, 40, 77
3, 16735, Note_on_c, 1, 40, 0
3, 16740, Note_on_c, 1, 52, 72
3, 16740, Note_on_c, 1, 56, 72
3, 16740, Note_on_c, 1, 62, 72
3, 16775, Note_on_c, 1, 62, 0
3, 16775, Note_on_c, 1, 56, 0
3, 16775, Note_on_c, 1, 52, 0
3, 16800, Note_on_c, 1, 45, 77
3, 16855, Note_on_c, 1, 45, 0
3, 16860, Note_on_c, 1, 52, 72
3, 16860, Note_on_c, 1, 55, 72
3, 16860, Note_on_c, 1, 57, 72
3, 16895, Note_on_c, 1, 57, 0
3, 16895, Note_on_c, 1, 55, 0
3, 16895, Note_on_c, 1, 52, 0
3, 16920, Note_on_c, 1, 45, 77
3, 16975, Note_on_c, 1, 45, 0
3, 16980, Note_on_c, 1, 52, 72
3, 16980, Note_on_c, 1, 55, 72
3, 16980, Note_on_c, 1, 57, 72
3, 17015, Note_on_c, 1, 57, 0
3, 17015, Note_on_c, 1, 55, 0
3, 17015, Note_on_c, 1, 52, 0
3, 17040, Note_on_c, 1, 50, 83
3, 17040, Note_on_c, 1, 38, 83
3, 17071, Note_on_c, 1, 38, 0
3, 17071, Note_on_c, 1, 50, 0
3, 17100, Note_on_c, 1, 39, 88
3, 17100, Note_on_c, 1, 51, 88
3, 17155, Note_on_c, 1, 51, 0
3, 17155, Note_on_c, 1, 39, 0
3, 17160, Note_on_c, 1, 50, 84
3, 17160, Note_on_c, 1, 38, 84
3, 17191, Note_on_c, 1, 38, 0
3, 17191, Note_on_c, 1, 50, 0
3, 17220, Note_on_c, 1, 39, 88
3, 17220, Note_on_c, 1, 51, 88
3, 17275, Note_on_c, 1, 51, 0
3, 17275, Note_on_c, 1, 39, 0
3, 17280, Note_on_c, 1, 50, 86
3, 17280, Note_on_c, 1, 38, 86
3, 17312, Note_on_c, 1, 38, 0
3, 17312, Note_on_c, 1, 50, 0
3, 17340, Note_on_c, 1, 39, 83
3, 17340, Note_on_c, 1, 51, 83
3, 17368, Note_on_c, 1, 51, 0
3, 17368, Note_on_c, 1, 39, 0
3, 17400, Note_on_c, 1, 52, 86
3, 17400, Note_on_c, 1, 40, 86
3, 17432, Note_on_c, 1, 40, 0
3, 17432, Note_on_c, 1, 52, 0
3, 17460, Note_on_c, 1, 42, 83
3, 17460, Note_on_c, 1, 54, 83
3, 17488, Note_on_c, 1, 54, 0
3, 17488, Note_on_c, 1, 42, 0
3, 17520, Note_on_c, 1, 43, 77
3, 17575, Note_on_c, 1, 43, 0
3, 17580, Note_on_c, 1, 59, 72
3, 17580, Note_on_c, 1, 50, 72
3, 17580, Note_on_c, 1, 55, 72
3, 17615, Note_on_c, 1, 55, 0
3, 17615, Note_on_c, 1, 50, 0
3, 17615, Note_on_c, 1, 59, 0
3, 17640, Note_on_c, 1, 48, 77
3, 17695, Note_on_c, 1, 48, 0
3, 17700, Note_on_c, 1, 52, 72
3, 17700, Note_on_c, 1, 55, 72
3, 17700, Note_on_c, 1, 60, 72
3, 17735, Note_on_c, 1, 60, 0
3, 17735, Note_on_c, 1, 55, 0
3, 17735, Note_on_c, 1, 52, 0
3, 17760, Note_on_c, 1, 43, 77
3, 17815, Note_on_c, 1, 43, 0
3, 17820, Note_on_c, 1, 50, 72
3, 17820, Note_on_c, 1, 55, 72
3, 17820, Note_on_c, 1, 59, 72
3, 17855, Note_on_c, 1, 59, 0
3, 17855, Note_on_c, 1, 55, 0
3, 17855, Note_on_c, 1, 50, 0
3, 17880, Note_on_c, 1, 59, 91
3, 17880, Note_on_c, 1, 47, 91
3, 17935, Note_on_c, 1, 47, 0
3, 17935, Note_on_c, 1, 59, 0
3, 17940, Note_on_c, 1, 46, 88
3, 17940, Note_on_c, 1, 58, 88
3, 17995, Note_on_c, 1, 58, 0
3, 17995, Note_on_c, 1, 46, 0
3, 18000, Note_on_c, 1, 57, 86
3, 18000, Note_on_c, 1, 45, 86
3, 18055, Note_on_c, 1, 45, 0
3, 18055, Note_on_c, 1, 57, 0
3, 18060, Note_on_c, 1, 60, 72
3, 18060, Note_on_c, 1, 57, 72
3, 18060, Note_on_c, 1, 52, 72
3, 18095, Note_on_c, 1, 52, 0
3, 18095, Note_on_c, 1, 57, 0
3, 18095, Note_on_c, 1, 60, 0
3, 18120, Note_on_c, 1, 47, 77
3, 18175, Note_on_c, 1, 47, 0
3, 18180, Note_on_c, 1, 52, 72
3, 18180, Note_on_c, 1, 56, 72
3, 18180, Note_on_c, 1, 62, 72
3, 18215, Note_on_c, 1, 62, 0
3, 18215, Note_on_c, 1, 56, 0
3, 18215, Note_on_c, 1, 52, 0
3, 18240, Note_on_c, 1, 48, 77
3, 18295, Note_on_c, 1, 48, 0
3, 18300, Note_on_c, 1, 52, 72
3, 18300, Note_on_c, 1, 57, 72
3, 18300, Note_on_c, 1, 60, 72
3, 18335, Note_on_c, 1, 60, 0
3, 18335, Note_on_c, 1, 57, 0
3, 18335, Note_on_c, 1, 52, 0
3, 18360, Note_on_c, 1, 57, 89
3, 18360, Note_on_c, 1, 45, 89
3, 18415, Note_on_c, 1, 45, 0
3, 18415, Note_on_c, 1, 57, 0
3, 18420, Note_on_c, 1, 46, 86
3, 18420, Note_on_c, 1, 58, 86
3, 18475, Note_on_c, 1, 58, 0
3, 18475, Note_on_c, 1, 46, 0
3, 18480, Note_on_c, 1, 47, 83
3, 18480, Note_on_c, 1, 59, 83
3, 18535, Note_on_c, 1, 59, 0
3, 18535, Note_on_c, 1, 47, 0
3, 18540, Note_on_c, 1, 59, 77
3, 18540, Note_on_c, 1, 55, 77
3, 18540, Note_on_c, 1, 50, 77
3, 18595, Note_on_c, 1, 50, 0
3, 18595, Note_on_c, 1, 55, 0
3, 18595, Note_on_c, 1, 59, 0
3, 18600, Note_on_c, 1, 40, 77
3, 18655, Note_on_c, 1, 40, 0
3, 18660, Note_on_c, 1, 52, 72
3, 18660, Note_on_c, 1, 56, 72
3, 18660, Note_on_c, 1, 62, 72
3, 18695, Note_on_c, 1, 62, 0
3, 18695, Note_on_c, 1, 56, 0
3, 18695, Note_on_c, 1, 52, 0
3, 18720, Note_on_c, 1, 45, 77
3, 18775, Note_on_c, 1, 45, 0
3, 18780, Note_on_c, 1, 52, 72
3, 18780, Note_on_c, 1, 55, 72
3, 18815, Note_on_c, 1, 55, 0
3, 18815, Note_on_c, 1, 52, 0
3, 18840, Note_on_c, 1, 45, 77
3, 18895, Note_on_c, 1, 45, 0
3, 18900, Note_on_c, 1, 50, 83
3, 18900, Note_on_c, 1, 54, 83
3, 18955, Note_on_c, 1, 50, 0
3, 18960, Note_on_c, 1, 55, 90
3, 18960, Note_on_c, 1, 50, 90
3, 18960, Note_on_c, 1, 43, 90
3, 18964, Note_on_c, 1, 54, 0
3, 19015, Note_on_c, 1, 55, 0
3, 19015, Note_on_c, 1, 50, 0
3, 19015, Note_on_c, 1, 43, 0
3, 19020, Note_on_c, 1, 50, 77
3, 19050, Note_on_c, 1, 52, 85
3, 19057, Note_on_c, 1, 50, 0
3, 19140, Note_on_c, 1, 50, 77
3, 19140, Note_on_c, 1, 38, 77
3, 19147, Note_on_c, 1, 52, 0
3, 19195, Note_on_c, 1, 50, 0
3, 19200, Note_on_c, 1, 50, 84
3, 19200, Note_on_c, 1, 43, 84
3, 19206, Note_on_c, 1, 38, 0
3, 19255, Note_on_c, 1, 43, 0
3, 19255, Note_on_c, 1, 50, 0
3, 19320, Note_on_c, 1, 43, 92
3, 19320, Note_on_c, 1, 31, 92
3, 19375, Note_on_c, 1, 31, 0
3, 19375, Note_on_c, 1, 43, 0
3, 19440, Note_on_c, 1, 48, 80
3, 19495, Note_on_c, 1, 48, 0
3, 19500, Note_on_c, 1, 52, 75
3, 19500, Note_on_c, 1, 60, 75
3, 19500, Note_on_c, 1, 55, 75
3, 19535, Note_on_c, 1, 55, 0
3, 19535, Note_on_c, 1, 60, 0
3, 19535, Note_on_c, 1, 52, 0
3, 19560, Note_on_c, 1, 43, 80
3, 19615, Note_on_c, 1, 43, 0
3, 19620, Note_on_c, 1, 52, 75
3, 19620, Note_on_c, 1, 55, 75
3, 19620, Note_on_c, 1, 60, 75
3, 19655, Note_on_c, 1, 60, 0
3, 19655, Note_on_c, 1, 55, 0
3, 19655, Note_on_c, 1, 52, 0
3, 19680, Note_on_c, 1, 48, 80
3, 19735, Note_on_c, 1, 48, 0
3, 19740, Note_on_c, 1, 52, 75
3, 19740, Note_on_c, 1, 55, 75
3, 19740, Note_on_c, 1, 60, 75
3, 19775, Note_on_c, 1, 60, 0
3, 19775, Note_on_c, 1, 55, 0
3, 19775, Note_on_c, 1, 52, 0
3, 19800, Note_on_c, 1, 43, 80
3, 19855, Note_on_c, 1, 43, 0
3, 19860, Note_on_c, 1, 52, 75
3, 19860, Note_on_c, 1, 55, 75
3, 19860, Note_on_c, 1, 60, 75
3, 19895, Note_on_c, 1, 60, 0
3, 19895, Note_on_c, 1, 55, 0
3, 19895, Note_on_c, 1, 52, 0
3, 19920, Note_on_c, 1, 48, 80
3, 19975, Note_on_c, 1, 48, 0
3, 19980, Note_on_c, 1, 52, 75
3, 19980, Note_on_c, 1, 55, 75
3, 19980, Note_on_c, 1, 60, 75
3, 20015, Note_on_c, 1, 60, 0
3, 20015, Note_on_c, 1, 55, 0
3, 20015, Note_on_c, 1, 52, 0
3, 20040, Note_on_c, 1, 48, 91
3, 20095, Note_on_c, 1, 48, 0
3, 20100, Note_on_c, 1, 49, 91
3, 20148, Note_on_c, 1, 49, 0
3, 20160, Note_on_c, 1, 50, 95
3, 20215, Note_on_c, 1, 50, 0
3, 20220, Note_on_c, 1, 53, 75
3, 20220, Note_on_c, 1, 55, 75
3, 20220, Note_on_c, 1, 59, 75
3, 20255, Note_on_c, 1, 59, 0
3, 20255, Note_on_c, 1, 55, 0
3, 20255, Note_on_c, 1, 53, 0
3, 20280, Note_on_c, 1, 43, 80
3, 20335, Note_on_c, 1, 43, 0
3, 20340, Note_on_c, 1, 53, 75
3, 20340, Note_on_c, 1, 55, 75
3, 20340, Note_on_c, 1, 59, 75
3, 20375, Note_on_c, 1, 59, 0
3, 20375, Note_on_c, 1, 55, 0
3, 20375, Note_on_c, 1, 53, 0
3, 20400, Note_on_c, 1, 55, 95
3, 20400, Note_on_c, 1, 43, 95
3, 20510, Note_on_c, 1, 43, 0
3, 20510, Note_on_c, 1, 55, 0
3, 20520, Note_on_c, 1, 44, 92
3, 20520, Note_on_c, 1, 56, 92
3, 20630, Note_on_c, 1, 56, 0
3, 20630, Note_on_c, 1, 44, 0
3, 20640, Note_on_c, 1, 57, 97
3, 20640, Note_on_c, 1, 45, 97
3, 20750, Note_on_c, 1, 45, 0
3, 20750, Note_on_c, 1, 57, 0
3, 20760, Note_on_c, 1, 58, 91
3, 20760, Note_on_c, 1, 46, 91
3, 20870, Note_on_c, 1, 46, 0
3, 20870, Note_on_c, 1, 58, 0
3, 20880, Note_on_c, 1, 59, 84
3, 20880, Note_on_c, 1, 47, 84
3, 20935, Note_on_c, 1, 47, 0
3, 20935, Note_on_c, 1, 59, 0
3, 20940, Note_on_c, 1, 53, 75
3, 20940, Note_on_c, 1, 55, 75
3, 20940, Note_on_c, 1, 59, 75
3, 20975, Note_on_c, 1, 59, 0
3, 20975, Note_on_c, 1, 55, 0
3, 20975, Note_on_c, 1, 53, 0
3, 21000, Note_on_c, 1, 43, 80
3, 21055, Note_on_c, 1, 43, 0
3, 21060, Note_on_c, 1, 53, 75
3, 21060, Note_on_c, 1, 55, 75
3, 21060, Note_on_c, 1, 59, 75
3, 21095, Note_on_c, 1, 59, 0
3, 21095, Note_on_c, 1, 55, 0
3, 21095, Note_on_c, 1, 53, 0
3, 21120, Note_on_c, 1, 48, 80
3, 21175, Note_on_c, 1, 48, 0
3, 21180, Note_on_c, 1, 52, 75
3, 21180, Note_on_c, 1, 55, 75
3, 21180, Note_on_c, 1, 60, 75
3, 21215, Note_on_c, 1, 60, 0
3, 21215, Note_on_c, 1, 55, 0
3, 21215, Note_on_c, 1, 52, 0
3, 21240, Note_on_c, 1, 43, 80
3, 21295, Note_on_c, 1, 43, 0
3, 21300, Note_on_c, 1, 52, 75
3, 21300, Note_on_c, 1, 55, 75
3, 21300, Note_on_c, 1, 60, 75
3, 21335, Note_on_c, 1, 60, 0
3, 21335, Note_on_c, 1, 55, 0
3, 21335, Note_on_c, 1, 52, 0
3, 21360, Note_on_c, 1, 48, 80
3, 21415, Note_on_c, 1, 48, 0
3, 21420, Note_on_c, 1, 52, 75
3, 21420, Note_on_c, 1, 60, 75
3, 21420, Note_on_c, 1, 55, 75
3, 21455, Note_on_c, 1, 55, 0
3, 21455, Note_on_c, 1, 60, 0
3, 21455, Note_on_c, 1, 52, 0
3, 21480, Note_on_c, 1, 43, 80
3, 21535, Note_on_c, 1, 43, 0
3, 21540, Note_on_c, 1, 52, 75
3, 21540, Note_on_c, 1, 55, 75
3, 21540, Note_on_c, 1, 60, 75
3, 21575, Note_on_c, 1, 60, 0
3, 21575, Note_on_c, 1, 55, 0
3, 21575, Note_on_c, 1, 52, 0
3, 21600, Note_on_c, 1, 48, 80
3, 21655, Note_on_c, 1, 48, 0
3, 21660, Note_on_c, 1, 52, 75
3, 21660, Note_on_c, 1, 55, 75
3, 21660, Note_on_c, 1, 60, 75
3, 21695, Note_on_c, 1, 60, 0
3, 21695, Note_on_c, 1, 55, 0
3, 21695, Note_on_c, 1, 52, 0
3, 21720, Note_on_c, 1, 43, 80
3, 21775, Note_on_c, 1, 43, 0
3, 21780, Note_on_c, 1, 52, 75
3, 21780, Note_on_c, 1, 55, 75
3, 21780, Note_on_c, 1, 60, 75
3, 21815, Note_on_c, 1, 60, 0
3, 21815, Note_on_c, 1, 55, 0
3, 21815, Note_on_c, 1, 52, 0
3, 21840, Note_on_c, 1, 48, 80
3, 21895, Note_on_c, 1, 48, 0
3, 21900, Note_on_c, 1, 52, 75
3, 21900, Note_on_c, 1, 55, 75
3, 21900, Note_on_c, 1, 60, 75
3, 21935, Note_on_c, 1, 60, 0
3, 21935, Note_on_c, 1, 55, 0
3, 21935, Note_on_c, 1, 52, 0
3, 21960, Note_on_c, 1, 38, 92
3, 21960, Note_on_c, 1, 50, 92
3, 22015, Note_on_c, 1, 50, 0
3, 22015, Note_on_c, 1, 38, 0
3, 22020, Note_on_c, 1, 52, 87
3, 22020, Note_on_c, 1, 40, 87
3, 22068, Note_on_c, 1, 40, 0
3, 22068, Note_on_c, 1, 52, 0
3, 22080, Note_on_c, 1, 53, 90
3, 22080, Note_on_c, 1, 41, 90
3, 22135, Note_on_c, 1, 41, 0
3, 22135, Note_on_c, 1, 53, 0
3, 22140, Note_on_c, 1, 53, 75
3, 22140, Note_on_c, 1, 57, 75
3, 22140, Note_on_c, 1, 62, 75
3, 22175, Note_on_c, 1, 62, 0
3, 22175, Note_on_c, 1, 57, 0
3, 22175, Note_on_c, 1, 53, 0
3, 22200, Note_on_c, 1, 50, 80
3, 22200, Note_on_c, 1, 38, 80
3, 22255, Note_on_c, 1, 38, 0
3, 22255, Note_on_c, 1, 50, 0
3, 22260, Note_on_c, 1, 53, 75
3, 22260, Note_on_c, 1, 57, 75
3, 22260, Note_on_c, 1, 62, 75
3, 22295, Note_on_c, 1, 62, 0
3, 22295, Note_on_c, 1, 57, 0
3, 22295, Note_on_c, 1, 53, 0
3, 22320, Note_on_c, 1, 53, 80
3, 22320, Note_on_c, 1, 41, 80
3, 22375, Note_on_c, 1, 41, 0
3, 22375, Note_on_c, 1, 53, 0
3, 22380, Note_on_c, 1, 53, 75
3, 22380, Note_on_c, 1, 57, 75
3, 22380, Note_on_c, 1, 62, 75
3, 22415, Note_on_c, 1, 62, 0
3, 22415, Note_on_c, 1, 57, 0
3, 22415, Note_on_c, 1, 53, 0
3, 22440, Note_on_c, 1, 53, 90
3, 22440, Note_on_c, 1, 41, 90
3, 22495, Note_on_c, 1, 41, 0
3, 22495, Note_on_c, 1, 53, 0
3, 22500, Note_on_c, 1, 42, 87
3, 22500, Note_on_c, 1, 54, 87
3, 22548, Note_on_c, 1, 54, 0
3, 22548, Note_on_c, 1, 42, 0
3, 22560, Note_on_c, 1, 55, 82
3, 22560, Note_on_c, 1, 43, 82
3, 22615, Note_on_c, 1, 43, 0
3, 22615, Note_on_c, 1, 55, 0
3, 22620, Note_on_c, 1, 55, 75
3, 22620, Note_on_c, 1, 60, 75
3, 22620, Note_on_c, 1, 64, 75
3, 22655, Note_on_c, 1, 64, 0
3, 22655, Note_on_c, 1, 60, 0
3, 22655, Note_on_c, 1, 55, 0
3, 22680, Note_on_c, 1, 57, 80
3, 22680, Note_on_c, 1, 45, 80
3, 22735, Note_on_c, 1, 45, 0
3, 22735, Note_on_c, 1, 57, 0
3, 22740, Note_on_c, 1, 57, 75
3, 22740, Note_on_c, 1, 61, 75
3, 22740, Note_on_c, 1, 67, 75
3, 22775, Note_on_c, 1, 67, 0
3, 22775, Note_on_c, 1, 61, 0
3, 22775, Note_on_c, 1, 57, 0
3, 22800, Note_on_c, 1, 57, 80
3, 22800, Note_on_c, 1, 45, 80
3, 22855, Note_on_c, 1, 45, 0
3, 22855, Note_on_c, 1, 57, 0
3, 22860, Note_on_c, 1, 50, 75
3, 22860, Note_on_c, 1, 54, 75
3, 22860, Note_on_c, 1, 60, 75
3, 22895, Note_on_c, 1, 60, 0
3, 22895, Note_on_c, 1, 54, 0
3, 22895, Note_on_c, 1, 50, 0
3, 22920, Note_on_c, 1, 43, 80
3, 22975, Note_on_c, 1, 43, 0
3, 22980, Note_on_c, 1, 53, 75
3, 22980, Note_on_c, 1, 55, 75
3, 22980, Note_on_c, 1, 59, 75
3, 23015, Note_on_c, 1, 59, 0
3, 23015, Note_on_c, 1, 55, 0
3, 23015, Note_on_c, 1, 53, 0
3, 23040, Note_on_c, 1, 55, 85
3, 23040, Note_on_c, 1, 48, 85
3, 23104, Note_on_c, 1, 48, 0
3, 23104, Note_on_c, 1, 55, 0
3, 23160, Note_on_c, 1, 48, 95
3, 23160, Note_on_c, 1, 36, 95
3, 23224, Note_on_c, 1, 36, 0
3, 23224, Note_on_c, 1, 48, 0
3, 23280, Note_on_c, 1, 48, 86
3, 23335, Note_on_c, 1, 48, 0
3, 23340, Note_on_c, 1, 52, 81
3, 23340, Note_on_c, 1, 60, 81
3, 23340, Note_on_c, 1, 55, 81
3, 23375, Note_on_c, 1, 55, 0
3, 23375, Note_on_c, 1, 60, 0
3, 23375, Note_on_c, 1, 52, 0
3, 23400, Note_on_c, 1, 43, 86
3, 23455, Note_on_c, 1, 43, 0
3, 23460, Note_on_c, 1, 52, 81
3, 23460, Note_on_c, 1, 55, 81
3, 23460, Note_on_c, 1, 60, 81
3, 23495, Note_on_c, 1, 60, 0
3, 23495, Note_on_c, 1, 55, 0
3, 23495, Note_on_c, 1, 52, 0
3, 23520, Note_on_c, 1, 48, 86
3, 23575, Note_on_c, 1, 48, 0
3, 23580, Note_on_c, 1, 52, 81
3, 23580, Note_on_c, 1, 55, 81
3, 23580, Note_on_c, 1, 60, 81
3, 23615, Note_on_c, 1, 60, 0
3, 23615, Note_on_c, 1, 55, 0
3, 23615, Note_on_c, 1, 52, 0
3, 23640, Note_on_c, 1, 43, 86
3, 23695, Note_on_c, 1, 43, 0
3, 23700, Note_on_c, 1, 52, 81
3, 23700, Note_on_c, 1, 55, 81
3, 23700, Note_on_c, 1, 60, 81
3, 23735, Note_on_c, 1, 60, 0
3, 23735, Note_on_c, 1, 55, 0
3, 23735, Note_on_c, 1, 52, 0
3, 23760, Note_on_c, 1, 48, 86
3, 23815, Note_on_c, 1, 48, 0
3, 23820, Note_on_c, 1, 52, 81
3, 23820, Note_on_c, 1, 55, 81
3, 23820, Note_on_c, 1, 60, 81
3, 23855, Note_on_c, 1, 60, 0
3, 23855, Note_on_c, 1, 55, 0
3, 23855, Note_on_c, 1, 52, 0
3, 23880, Note_on_c, 1, 48, 98
3, 23935, Note_on_c, 1, 48, 0
3, 23940, Note_on_c, 1, 49, 98
3, 23988, Note_on_c, 1, 49, 0
3, 24000, Note_on_c, 1, 50, 102
3, 24055, Note_on_c, 1, 50, 0
3, 24060, Note_on_c, 1, 53, 81
3, 24060, Note_on_c, 1, 55, 81
3, 24060, Note_on_c, 1, 59, 81
3, 24095, Note_on_c, 1, 59, 0
3, 24095, Note_on_c, 1, 55, 0
3, 24095, Note_on_c, 1, 53, 0
3, 24120, Note_on_c, 1, 43, 86
3, 24175, Note_on_c, 1, 43, 0
3, 24180, Note_on_c, 1, 53, 81
3, 24180, Note_on_c, 1, 55, 81
3, 24180, Note_on_c, 1, 59, 81
3, 24215, Note_on_c, 1, 59, 0
3, 24215, Note_on_c, 1, 55, 0
3, 24215, Note_on_c, 1, 53, 0
3, 24240, Note_on_c, 1, 55, 102
3, 24240, Note_on_c, 1, 43, 102
3, 24350, Note_on_c, 1, 43, 0
3, 24350, Note_on_c, 1, 55, 0
3, 24360, Note_on_c, 1, 44, 99
3, 24360, Note_on_c, 1, 56, 99
3, 24470, Note_on_c, 1, 56, 0
3, 24470, Note_on_c, 1, 44, 0
3, 24480, Note_on_c, 1, 57, 104
3, 24480, Note_on_c, 1, 45, 104
3, 24590, Note_on_c, 1, 45, 0
3, 24590, Note_on_c, 1, 57, 0
3, 24600, Note_on_c, 1, 58, 98
3, 24600, Note_on_c, 1, 46, 98
3, 24710, Note_on_c, 1, 46, 0
3, 24710, Note_on_c, 1, 58, 0
3, 24720, Note_on_c, 1, 59, 90
3, 24720, Note_on_c, 1, 47, 90
3, 24775, Note_on_c, 1, 47, 0
3, 24775, Note_on_c, 1, 59, 0
3, 24780, Note_on_c, 1, 53, 81
3, 24780, Note_on_c, 1, 55, 81
3, 24780, Note_on_c, 1, 59, 81
3, 24815, Note_on_c, 1, 59, 0
3, 24815, Note_on_c, 1, 55, 0
3, 24815, Note_on_c, 1, 53, 0
3, 24840, Note_on_c, 1, 43, 86
3, 24895, Note_on_c, 1, 43, 0
3, 24900, Note_on_c, 1, 53, 81
3, 24900, Note_on_c, 1, 55, 81
3, 24900, Note_on_c, 1, 59, 81
3, 24935, Note_on_c, 1, 59, 0
3, 24935, Note_on_c, 1, 55, 0
3, 24935, Note_on_c, 1, 53, 0
3, 24960, Note_on_c, 1, 48, 86
3, 25015, Note_on_c, 1, 48, 0
3, 25020, Note_on_c, 1, 52, 81
3, 25020, Note_on_c, 1, 55, 81
3, 25020, Note_on_c, 1, 60, 81
3, 25055, Note_on_c, 1, 60, 0
3, 25055, Note_on_c, 1, 55, 0
3, 25055, Note_on_c, 1, 52, 0
3, 25080, Note_on_c, 1, 43, 86
3, 25135, Note_on_c, 1, 43, 0
3, 25140, Note_on_c, 1, 52, 81
3, 25140, Note_on_c, 1, 55, 81
3, 25140, Note_on_c, 1, 60, 81
3, 25175, Note_on_c, 1, 60, 0
3, 25175, Note_on_c, 1, 55, 0
3, 25175, Note_on_c, 1, 52, 0
3, 25200, Note_on_c, 1, 48, 86
3, 25255, Note_on_c, 1, 48, 0
3, 25260, Note_on_c, 1, 52, 81
3, 25260, Note_on_c, 1, 60, 81
3, 25260, Note_on_c, 1, 55, 81
3, 25295, Note_on_c, 1, 55, 0
3, 25295, Note_on_c, 1, 60, 0
3, 25295, Note_on_c, 1, 52, 0
3, 25320, Note_on_c, 1, 43, 86
3, 25375, Note_on_c, 1, 43, 0
3, 25380, Note_on_c, 1, 52, 81
3, 25380, Note_on_c, 1, 55, 81
3, 25380, Note_on_c, 1, 60, 81
3, 25415, Note_on_c, 1, 60, 0
3, 25415, Note_on_c, 1, 55, 0
3, 25415, Note_on_c, 1, 52, 0
3, 25440, Note_on_c, 1, 48, 86
3, 25495, Note_on_c, 1, 48, 0
3, 25500, Note_on_c, 1, 52, 81
3, 25500, Note_on_c, 1, 55, 81
3, 25500, Note_on_c, 1, 60, 81
3, 25535, Note_on_c, 1, 60, 0
3, 25535, Note_on_c, 1, 55, 0
3, 25535, Note_on_c, 1, 52, 0
3, 25560, Note_on_c, 1, 43, 86
3, 25615, Note_on_c, 1, 43, 0
3, 25620, Note_on_c, 1, 52, 81
3, 25620, Note_on_c, 1, 55, 81
3, 25620, Note_on_c, 1, 60, 81
3, 25655, Note_on_c, 1, 60, 0
3, 25655, Note_on_c, 1, 55, 0
3, 25655, Note_on_c, 1, 52, 0
3, 25680, Note_on_c, 1, 48, 86
3, 25735, Note_on_c, 1, 48, 0
3, 25740, Note_on_c, 1, 52, 81
3, 25740, Note_on_c, 1, 55, 81
3, 25740, Note_on_c, 1, 60, 81
3, 25775, Note_on_c, 1, 60, 0
3, 25775, Note_on_c, 1, 55, 0
3, 25775, Note_on_c, 1, 52, 0
3, 25800, Note_on_c, 1, 38, 99
3, 25800, Note_on_c, 1, 50, 99
3, 25855, Note_on_c, 1, 50, 0
3, 25855, Note_on_c, 1, 38, 0
3, 25860, Note_on_c, 1, 52, 93
3, 25860, Note_on_c, 1, 40, 93
3, 25908, Note_on_c, 1, 40, 0
3, 25908, Note_on_c, 1, 52, 0
3, 25920, Note_on_c, 1, 53, 97
3, 25920, Note_on_c, 1, 41, 97
3, 25975, Note_on_c, 1, 41, 0
3, 25975, Note_on_c, 1, 53, 0
3, 25980, Note_on_c, 1, 53, 81
3, 25980, Note_on_c, 1, 57, 81
3, 25980, Note_on_c, 1, 62, 81
3, 26015, Note_on_c, 1, 62, 0
3, 26015, Note_on_c, 1, 57, 0
3, 26015, Note_on_c, 1, 53, 0
3, 26040, Note_on_c, 1, 50, 86
3, 26040, Note_on_c, 1, 38, 86
3, 26095, Note_on_c, 1, 38, 0
3, 26095, Note_on_c, 1, 50, 0
3, 26100, Note_on_c, 1, 53, 81
3, 26100, Note_on_c, 1, 57, 81
3, 26100, Note_on_c, 1, 62, 81
3, 26135, Note_on_c, 1, 62, 0
3, 26135, Note_on_c, 1, 57, 0
3, 26135, Note_on_c, 1, 53, 0
3, 26160, Note_on_c, 1, 53, 86
3, 26160, Note_on_c, 1, 41, 86
3, 26215, Note_on_c, 1, 41, 0
3, 26215, Note_on_c, 1, 53, 0
3, 26220, Note_on_c, 1, 53, 81
3, 26220, Note_on_c, 1, 57, 81
3, 26220, Note_on_c, 1, 62, 81
3, 26255, Note_on_c, 1, 62, 0
3, 26255, Note_on_c, 1, 57, 0
3, 26255, Note_on_c, 1, 53, 0
3, 26280, Note_on_c, 1, 53, 97
3, 26280, Note_on_c, 1, 41, 97
3, 26335, Note_on_c, 1, 41, 0
3, 26335, Note_on_c, 1, 53, 0
3, 26340, Note_on_c, 1, 42, 93
3, 26340, Note_on_c, 1, 54, 93
3, 26388, Note_on_c, 1, 54, 0
3, 26388, Note_on_c, 1, 42, 0
3, 26400, Note_on_c, 1, 55, 88
3, 26400, Note_on_c, 1, 43, 88
3, 26455, Note_on_c, 1, 43, 0
3, 26455, Note_on_c, 1, 55, 0
3, 26460, Note_on_c, 1, 55, 81
3, 26460, Note_on_c, 1, 60, 81
3, 26460, Note_on_c, 1, 64, 81
3, 26495, Note_on_c, 1, 64, 0
3, 26495, Note_on_c, 1, 60, 0
3, 26495, Note_on_c, 1, 55, 0
3, 26520, Note_on_c, 1, 57, 86
3, 26520, Note_on_c, 1, 45, 86
3, 26575, Note_on_c, 1, 45, 0
3, 26575, Note_on_c, 1, 57, 0
3, 26580, Note_on_c, 1, 57, 81
3, 26580, Note_on_c, 1, 61, 81
3, 26580, Note_on_c, 1, 67, 81
3, 26615, Note_on_c, 1, 67, 0
3, 26615, Note_on_c, 1, 61, 0
3, 26615, Note_on_c, 1, 57, 0
3, 26640, Note_on_c, 1, 57, 86
3, 26640, Note_on_c, 1, 45, 86
3, 26695, Note_on_c, 1, 45, 0
3, 26695, Note_on_c, 1, 57, 0
3, 26700, Note_on_c, 1, 50, 81
3, 26700, Note_on_c, 1, 54, 81
3, 26700, Note_on_c, 1, 60, 81
3, 26735, Note_on_c, 1, 60, 0
3, 26735, Note_on_c, 1, 54, 0
3, 26735, Note_on_c, 1, 50, 0
3, 26760, Note_on_c, 1, 43, 86
3, 26815, Note_on_c, 1, 43, 0
3, 26820, Note_on_c, 1, 53, 81
3, 26820, Note_on_c, 1, 55, 81
3, 26820, Note_on_c, 1, 59, 81
3, 26855, Note_on_c, 1, 59, 0
3, 26855, Note_on_c, 1, 55, 0
3, 26855, Note_on_c, 1, 53, 0
3, 26880, Note_on_c, 1, 55, 91
3, 26880, Note_on_c, 1, 48, 91
3, 26944, Note_on_c, 1, 48, 0
3, 26944, Note_on_c, 1, 55, 0
3, 27000, Note_on_c, 1, 48, 102
3, 27000, Note_on_c, 1, 36, 102
3, 27064, Note_on_c, 1, 36, 0
3, 27064, Note_on_c, 1, 48, 0
3, 27120, Note_on_c, 1, 52, 87
3, 27120, Note_on_c, 1, 64, 87
3, 27175, Note_on_c, 1, 64, 0
3, 27175, Note_on_c, 1, 52, 0
3, 27180, Note_on_c, 1, 56, 80
3, 27180, Note_on_c, 1, 68, 80
3, 27228, Note_on_c, 1, 68, 0
3, 27228, Note_on_c, 1, 56, 0
3, 27240, Note_on_c, 1, 59, 87
3, 27240, Note_on_c, 1, 71, 87
3, 27295, Note_on_c, 1, 71, 0
3, 27295, Note_on_c, 1, 59, 0
3, 27300, Note_on_c, 1, 62, 80
3, 27300, Note_on_c, 1, 74, 80
3, 27348, Note_on_c, 1, 74, 0
3, 27348, Note_on_c, 1, 62, 0
3, 27360, Note_on_c, 1, 59, 87
3, 27360, Note_on_c, 1, 71, 87
3, 27415, Note_on_c, 1, 71, 0
3, 27415, Note_on_c, 1, 59, 0
3, 27420, Note_on_c, 1, 56, 80
3, 27420, Note_on_c, 1, 68, 80
3, 27468, Note_on_c, 1, 68, 0
3, 27468, Note_on_c, 1, 56, 0
3, 27480, Note_on_c, 1, 52, 87
3, 27480, Note_on_c, 1, 64, 87
3, 27535, Note_on_c, 1, 64, 0
3, 27535, Note_on_c, 1, 52, 0
3, 27540, Note_on_c, 1, 56, 80
3, 27540, Note_on_c, 1, 68, 80
3, 27588, Note_on_c, 1, 68, 0
3, 27588, Note_on_c, 1, 56, 0
3, 27600, Note_on_c, 1, 57, 87
3, 27655, Note_on_c, 1, 57, 0
3, 27660, Note_on_c, 1, 69, 80
3, 27660, Note_on_c, 1, 64, 80
3, 27660, Note_on_c, 1, 60, 80
3, 27697, Note_on_c, 1, 60, 0
3, 27697, Note_on_c, 1, 64, 0
3, 27697, Note_on_c, 1, 69, 0
3, 27720, Note_on_c, 1, 52, 85
3, 27720, Note_on_c, 1, 40, 85
3, 27775, Note_on_c, 1, 40, 0
3, 27775, Note_on_c, 1, 52, 0
3, 27780, Note_on_c, 1, 52, 70
3, 27780, Note_on_c, 1, 57, 70
3, 27780, Note_on_c, 1, 60, 70
3, 27817, Note_on_c, 1, 60, 0
3, 27817, Note_on_c, 1, 57, 0
3, 27817, Note_on_c, 1, 52, 0
3, 27840, Note_on_c, 1, 45, 75
3, 27895, Note_on_c, 1, 45, 0
3, 27900, Note_on_c, 1, 52, 70
3, 27900, Note_on_c, 1, 57, 70
3, 27937, Note_on_c, 1, 57, 0
3, 27937, Note_on_c, 1, 52, 0
3, 27960, Note_on_c, 1, 52, 75
3, 28015, Note_on_c, 1, 52, 0
3, 28020, Note_on_c, 1, 45, 100
3, 28020, Note_on_c, 1, 33, 100
3, 28068, Note_on_c, 1, 45, 0
3, 28075, Note_on_c, 1, 33, 0
3, 28080, Note_on_c, 1, 50, 95
3, 28080, Note_on_c, 1, 62, 95
3, 28135, Note_on_c, 1, 62, 0
3, 28135, Note_on_c, 1, 50, 0
3, 28140, Note_on_c, 1, 54, 80
3, 28140, Note_on_c, 1, 66, 80
3, 28188, Note_on_c, 1, 66, 0
3, 28188, Note_on_c, 1, 54, 0
3, 28200, Note_on_c, 1, 57, 87
3, 28200, Note_on_c, 1, 69, 87
3, 28255, Note_on_c, 1, 69, 0
3, 28255, Note_on_c, 1, 57, 0
3, 28260, Note_on_c, 1, 60, 80
3, 28260, Note_on_c, 1, 72, 80
3, 28308, Note_on_c, 1, 72, 0
3, 28308, Note_on_c, 1, 60, 0
3, 28320, Note_on_c, 1, 57, 87
3, 28320, Note_on_c, 1, 69, 87
3, 28375, Note_on_c, 1, 69, 0
3, 28375, Note_on_c, 1, 57, 0
3, 28380, Note_on_c, 1, 54, 80
3, 28380, Note_on_c, 1, 66, 80
3, 28428, Note_on_c, 1, 66, 0
3, 28428, Note_on_c, 1, 54, 0
3, 28440, Note_on_c, 1, 50, 87
3, 28440, Note_on_c, 1, 62, 87
3, 28495, Note_on_c, 1, 62, 0
3, 28495, Note_on_c, 1, 50, 0
3, 28500, Note_on_c, 1, 54, 80
3, 28500, Note_on_c, 1, 66, 80
3, 28548, Note_on_c, 1, 66, 0
3, 28548, Note_on_c, 1, 54, 0
3, 28560, Note_on_c, 1, 55, 87
3, 28615, Note_on_c, 1, 55, 0
3, 28620, Note_on_c, 1, 59, 80
3, 28620, Note_on_c, 1, 62, 80
3, 28620, Note_on_c, 1, 67, 80
3, 28657, Note_on_c, 1, 67, 0
3, 28657, Note_on_c, 1, 62, 0
3, 28657, Note_on_c, 1, 59, 0
3, 28680, Note_on_c, 1, 50, 87
3, 28680, Note_on_c, 1, 38, 87
3, 28735, Note_on_c, 1, 38, 0
3, 28735, Note_on_c, 1, 50, 0
3, 28740, Note_on_c, 1, 50, 70
3, 28740, Note_on_c, 1, 55, 70
3, 28740, Note_on_c, 1, 59, 70
3, 28777, Note_on_c, 1, 59, 0
3, 28777, Note_on_c, 1, 55, 0
3, 28777, Note_on_c, 1, 50, 0
3, 28800, Note_on_c, 1, 43, 75
3, 28855, Note_on_c, 1, 43, 0
3, 28860, Note_on_c, 1, 50, 70
3, 28860, Note_on_c, 1, 55, 70
3, 28897, Note_on_c, 1, 55, 0
3, 28897, Note_on_c, 1, 50, 0
3, 28920, Note_on_c, 1, 50, 82
3, 28975, Note_on_c, 1, 50, 0
3, 28980, Note_on_c, 1, 43, 103
3, 28980, Note_on_c, 1, 31, 103
3, 29035, Note_on_c, 1, 31, 0
3, 29035, Note_on_c, 1, 43, 0
3, 29040, Note_on_c, 1, 48, 87
3, 29095, Note_on_c, 1, 48, 0
3, 29100, Note_on_c, 1, 55, 80
3, 29100, Note_on_c, 1, 60, 80
3, 29100, Note_on_c, 1, 64, 80
3, 29128, Note_on_c, 1, 64, 0
3, 29128, Note_on_c, 1, 60, 0
3, 29128, Note_on_c, 1, 55, 0
3, 29160, Note_on_c, 1, 43, 87
3, 29215, Note_on_c, 1, 43, 0
3, 29220, Note_on_c, 1, 55, 80
3, 29220, Note_on_c, 1, 60, 80
3, 29220, Note_on_c, 1, 64, 80
3, 29248, Note_on_c, 1, 64, 0
3, 29248, Note_on_c, 1, 60, 0
3, 29248, Note_on_c, 1, 55, 0
3, 29280, Note_on_c, 1, 48, 87
3, 29335, Note_on_c, 1, 48, 0
3, 29340, Note_on_c, 1, 55, 80
3, 29340, Note_on_c, 1, 60, 80
3, 29340, Note_on_c, 1, 64, 80
3, 29368, Note_on_c, 1, 64, 0
3, 29368, Note_on_c, 1, 60, 0
3, 29368, Note_on_c, 1, 55, 0
3, 29400, Note_on_c, 1, 43, 87
3, 29455, Note_on_c, 1, 43, 0
3, 29460, Note_on_c, 1, 55, 80
3, 29460, Note_on_c, 1, 60, 80
3, 29460, Note_on_c, 1, 64, 80
3, 29488, Note_on_c, 1, 64, 0
3, 29488, Note_on_c, 1, 60, 0
3, 29488, Note_on_c, 1, 55, 0
3, 29520, Note_on_c, 1, 43, 87
3, 29575, Note_on_c, 1, 43, 0
3, 29580, Note_on_c, 1, 55, 80
3, 29580, Note_on_c, 1, 50, 80
3, 29608, Note_on_c, 1, 50, 0
3, 29608, Note_on_c, 1, 55, 0
3, 29640, Note_on_c, 1, 38, 87
3, 29695, Note_on_c, 1, 38, 0
3, 29700, Note_on_c, 1, 50, 80
3, 29700, Note_on_c, 1, 55, 80
3, 29728, Note_on_c, 1, 55, 0
3, 29728, Note_on_c, 1, 50, 0
3, 29760, Note_on_c, 1, 43, 87
3, 29815, Note_on_c, 1, 43, 0
3, 29820, Note_on_c, 1, 50, 87
3, 29859, Note_on_c, 1, 50, 0
3, 29880, Note_on_c, 1, 50, 108
3, 29935, Note_on_c, 1, 50, 0
3, 30000, Note_on_c, 1, 48, 88
3, 30055, Note_on_c, 1, 48, 0
3, 30060, Note_on_c, 1, 52, 94
3, 30060, Note_on_c, 1, 55, 94
3, 30060, Note_on_c, 1, 60, 94
3, 30102, Note_on_c, 1, 60, 0
3, 30102, Note_on_c, 1, 55, 0
3, 30102, Note_on_c, 1, 52, 0
3, 30120, Note_on_c, 1, 60, 88
3, 30120, Note_on_c, 1, 57, 88
3, 30120, Note_on_c, 1, 52, 88
3, 30157, Note_on_c, 1, 52, 0
3, 30157, Note_on_c, 1, 57, 0
3, 30157, Note_on_c, 1, 60, 0
3, 30180, Note_on_c, 1, 45, 101
3, 30180, Note_on_c, 1, 33, 101
3, 30240, Note_on_c, 1, 48, 108
3, 30240, Note_on_c, 1, 36, 108
3, 30244, Note_on_c, 1, 33, 0
3, 30244, Note_on_c, 1, 45, 0
3, 30423, Note_on_c, 1, 48, 0
3, 30423, Note_on_c, 1, 36, 0
3, 30480, Note_on_c, 1, 50, 87
3, 30480, Note_on_c, 1, 38, 87
3, 30535, Note_on_c, 1, 38, 0
3, 30535, Note_on_c, 1, 50, 0
3, 30540, Note_on_c, 1, 50, 80
3, 30540, Note_on_c, 1, 54, 80
3, 30540, Note_on_c, 1, 60, 80
3, 30575, Note_on_c, 1, 60, 0
3, 30575, Note_on_c, 1, 54, 0
3, 30575, Note_on_c, 1, 50, 0
3, 30600, Note_on_c, 1, 43, 87
3, 30600, Note_on_c, 1, 31, 87
3, 30655, Note_on_c, 1, 31, 0
3, 30655, Note_on_c, 1, 43, 0
3, 30660, Note_on_c, 1, 59, 80
3, 30660, Note_on_c, 1, 55, 80
3, 30660, Note_on_c, 1, 53, 80
3, 30695, Note_on_c, 1, 53, 0
3, 30695, Note_on_c, 1, 55, 0
3, 30695, Note_on_c, 1, 59, 0
3, 30720, Note_on_c, 1, 55, 106
3, 30720, Note_on_c, 1, 48, 106
3, 30775, Note_on_c, 1, 48, 0
3, 30775, Note_on_c, 1, 55, 0
3, 30780, Note_on_c, 1, 43, 101
3, 30780, Note_on_c, 1, 55, 101
3, 30828, Note_on_c, 1, 55, 0
3, 30828, Note_on_c, 1, 43, 0
3, 30840, Note_on_c, 1, 48, 110
3, 30840, Note_on_c, 1, 36, 110
3, 30908, Note_on_c, 1, 36, 0
3, 30908, Note_on_c, 1, 48, 0
3, 30908, End_track
4, 0, Start_track
4, 0, MIDI_port, 0
4, 0, Title_t, "W.S.Trachtman - MIDI file"
4, 0, Control_c, 2, 0, 0
4, 0, Control_c, 2, 32, 0
4, 0, Program_c, 2, 0
4, 0, Control_c, 2, 7, 127
4, 0, Control_c, 2, 10, 64
4, 30840, Note_on_c, 2, 36, 1
4, 30840, Note_on_c, 2, 48, 1
4, 30900, Note_on_c, 2, 48, 0
4, 30900, Note_on_c, 2, 36, 0
4, 30900, End_track
0, 0, End_of_file
